<?xml version="1.0" standalone="no"?>
<!DOCTYPE svg PUBLIC "-//W3C//DTD SVG 1.1//EN"
  "http://www.w3.org/Graphics/SVG/1.1/DTD/svg11.dtd">
<svg width="332mm" height="332mm" viewBox="-166 -166 332 332" xmlns="http://www.w3.org/2000/svg" version="1.1">
	<title>svgOutput</title>
	<desc>made with tinkercad</desc>
<path d="M 4.677999973297119 144.9219970703125 L 0 144.9219970703125 L -4.677999973297119 144.9219970703125 L -14.012999534606934 144.2969970703125 L -23.285999298095703 143.0500030517578 L -32.45500183105469 141.18600463867188 L -41.479000091552734 138.71400451660156 L -50.31700134277344 135.64500427246094 L -58.930999755859375 131.9929962158203 L -60.75335693359375 131.07200622558594 L -65.53600311279297 128.6549072265625 L -67.28099822998047 127.77300262451172 L -75.33200073242188 123.00499725341797 L -83.04499816894531 117.70999908447266 L -90.38800048828125 111.91100311279297 L -97.3270034790039 105.63500213623047 L -98.30400085449219 104.62480163574219 L -103.83100128173828 98.91000366210938 L -104.34336853027344 98.30400085449219 L -109.87200164794922 91.76499938964844 L -115.4219970703125 84.23300170898438 L -120.45600128173828 76.34600067138672 L -124.9530029296875 68.14099884033203 L -126.16187286376953 65.53600311279297 L -128.89100646972656 59.654998779296875 L -131.07200622558594 53.9920539855957 L -132.25399780273438 50.92300033569336 L -135.0260009765625 41.98699951171875 L -137.19500732421875 32.88600158691406 L -138.75100708007812 23.65999984741211 L -139.68699645996094 14.35099983215332 L -140 5 L -139.8326416015625 4.440892164675075e-17 L -139.68699645996094 -4.35099983215332 L -138.75100708007812 -13.65999984741211 L -137.19500732421875 -22.88599967956543 L -135.0260009765625 -31.98699951171875 L -132.25399780273438 -40.92300033569336 L -131.07200622558594 -43.9920539855957 L -129.084716796875 -49.152000427246094 L -128.89100646972656 -49.654998779296875 L -124.9530029296875 -58.14099884033203 L -120.89994812011719 -65.53600311279297 L -120.45600128173828 -66.34600067138672 L -115.4219970703125 -74.23300170898438 L -109.87200164794922 -81.76499938964844 L -103.83100128173828 -88.91000366210938 L -98.30400085449219 -94.62480163574219 L -97.3270034790039 -95.63500213623047 L -94.37604522705078 -98.30400085449219 L -90.38800048828125 -101.91100311279297 L -83.04499816894531 -107.70999908447266 L -75.33200073242188 -113.00499725341797 L -67.28099822998047 -117.77300262451172 L -65.53600311279297 -118.6549072265625 L -58.930999755859375 -121.99299621582031 L -50.31700134277344 -125.6449966430664 L -41.479000091552734 -128.71400451660156 L -32.87115478515625 -131.07200622558594 L -32.45500183105469 -131.18600463867188 L -23.285999298095703 -133.0500030517578 L -14.012999534606934 -134.2969970703125 L -4.677999973297119 -134.9219970703125 L 0 -134.9219970703125 L 4.677999973297119 -134.9219970703125 L 14.012999534606934 -134.2969970703125 L 23.285999298095703 -133.0500030517578 L 32.45500183105469 -131.18600463867188 L 32.87115478515625 -131.07200622558594 L 41.479000091552734 -128.71400451660156 L 50.31700134277344 -125.6449966430664 L 58.930999755859375 -121.99299621582031 L 65.53600311279297 -118.6549072265625 L 67.28099822998047 -117.77300262451172 L 75.33200073242188 -113.00499725341797 L 83.04499816894531 -107.70999908447266 L 90.38800048828125 -101.91100311279297 L 94.37604522705078 -98.30400085449219 L 97.3270034790039 -95.63500213623047 L 98.30400085449219 -94.62480163574219 L 103.83100128173828 -88.91000366210938 L 109.87200164794922 -81.76499938964844 L 115.4219970703125 -74.23300170898438 L 120.45600128173828 -66.34600067138672 L 120.89994812011719 -65.53600311279297 L 124.9530029296875 -58.14099884033203 L 128.89100646972656 -49.654998779296875 L 129.084716796875 -49.152000427246094 L 131.07200622558594 -43.9920539855957 L 132.25399780273438 -40.92300033569336 L 135.0260009765625 -31.98699951171875 L 137.19500732421875 -22.88599967956543 L 138.75100708007812 -13.65999984741211 L 139.68699645996094 -4.35099983215332 L 139.8326416015625 4.440892164675075e-17 L 140 5 L 139.68699645996094 14.35099983215332 L 138.75100708007812 23.65999984741211 L 137.19500732421875 32.88600158691406 L 135.0260009765625 41.98699951171875 L 132.25399780273438 50.92300033569336 L 131.07200622558594 53.9920539855957 L 128.89100646972656 59.654998779296875 L 126.16187286376953 65.53600311279297 L 124.9530029296875 68.14099884033203 L 120.45600128173828 76.34600067138672 L 115.4219970703125 84.23300170898438 L 109.87200164794922 91.76499938964844 L 104.34336853027344 98.30400085449219 L 103.83100128173828 98.91000366210938 L 97.3270034790039 105.63500213623047 L 90.38800048828125 111.91100311279297 L 83.04499816894531 117.70999908447266 L 75.33200073242188 123.00499725341797 L 67.28099822998047 127.77300262451172 L 65.53600311279297 128.6549072265625 L 60.75335693359375 131.07200622558594 L 58.930999755859375 131.9929962158203 L 50.31700134277344 135.64500427246094 L 41.479000091552734 138.71400451660156 L 32.45500183105469 141.18600463867188 L 23.285999298095703 143.0500030517578 L 14.012999534606934 144.2969970703125 L 4.677999973297119 144.9219970703125 M -165 165 L -165 131.07200622558594 L -165 4.440892164675075e-17 L -165 -131.07200622558594 L -165 -134.9219970703125 L -165 -165 L 0 -165 L 165 -165 L 165 -131.07200622558594 L 165 4.440892164675075e-17 L 165 131.07200622558594 L 165 165 L 131.07200622558594 165 L 65.53600311279297 165 L 0 165 L -65.53600311279297 165 L -131.07200622558594 165 L -165 165 M -104.73400115966797 -50.0260009765625 L -104.87728118896484 -49.152000427246094 L -105.11499786376953 -47.70199966430664 L -105.24299621582031 -45.35100173950195 L -105.11499786376953 -42.999000549316406 L -104.73400115966797 -40.67499923706055 L -104.10399627685547 -38.40599822998047 L -103.23300170898438 -36.21799850463867 L -102.12899780273438 -34.13800048828125 L -101.20091247558594 -32.768001556396484 L -100.80799865722656 -32.1879997253418 L -99.28299713134766 -30.39299964904785 L -98.30400085449219 -29.46609878540039 L -97.572998046875 -28.77400016784668 L -95.6989974975586 -27.349000930786133 L -93.68099975585938 -26.135000228881836 L -91.54299926757812 -25.145999908447266 L -89.31099700927734 -24.393999099731445 L -87.01200103759766 -23.886999130249023 L -84.66999816894531 -23.632999420166016 L -82.31500244140625 -23.632999420166016 L -81.91999816894531 -23.675857543945312 L -79.9739990234375 -23.886999130249023 L -77.67400360107422 -24.393999099731445 L -75.44200134277344 -25.145999908447266 L -73.30500030517578 -26.135000228881836 L -71.28700256347656 -27.349000930786133 L -69.41200256347656 -28.77400016784668 L -67.7020034790039 -30.39299964904785 L -66.1780014038086 -32.1879997253418 L -65.7847900390625 -32.768001556396484 L -65.53600311279297 -33.13497543334961 L -64.85600280761719 -34.13800048828125 L -63.75299835205078 -36.21799850463867 L -62.88100051879883 -38.40599822998047 L -62.250999450683594 -40.67499923706055 L -61.869998931884766 -42.999000549316406 L -61.74300003051758 -45.35100173950195 L -61.869998931884766 -47.70199966430664 L -62.10771560668945 -49.152000427246094 L -62.250999450683594 -50.0260009765625 L -62.88100051879883 -52.29600143432617 L -63.75299835205078 -54.483001708984375 L -64.85600280761719 -56.56399917602539 L -65.53600311279297 -57.56651306152344 L -66.1780014038086 -58.51300048828125 L -67.7020034790039 -60.30799865722656 L -69.41200256347656 -61.928001403808594 L -71.28700256347656 -63.35300064086914 L -73.30500030517578 -64.56700134277344 L -75.3987808227539 -65.53600311279297 L -75.44200134277344 -65.55599975585938 L -77.67400360107422 -66.30799865722656 L -79.9739990234375 -66.81400299072266 L -82.31500244140625 -67.06900024414062 L -84.66999816894531 -67.06900024414062 L -87.01200103759766 -66.81400299072266 L -89.31099700927734 -66.30799865722656 L -91.54299926757812 -65.55599975585938 L -91.58623504638672 -65.53600311279297 L -93.68099975585938 -64.56700134277344 L -95.6989974975586 -63.35300064086914 L -97.572998046875 -61.928001403808594 L -98.30400085449219 -61.2354736328125 L -99.28299713134766 -60.30799865722656 L -100.80799865722656 -58.51300048828125 L -102.12899780273438 -56.56399917602539 L -103.23300170898438 -54.483001708984375 L -104.10399627685547 -52.29600143432617 L -104.73400115966797 -50.0260009765625 M -87.29399871826172 -16.075000762939453 L -87.96199035644531 -16.384000778198242 L -89.43199920654297 -17.06399917602539 L -91.66400146484375 -17.81599998474121 L -93.96399688720703 -18.32200050354004 L -96.30500030517578 -18.57699966430664 L -98.30400085449219 -18.57699966430664 L -98.66000366210938 -18.57699966430664 L -101.0009994506836 -18.32200050354004 L -103.3010025024414 -17.81599998474121 L -105.53299713134766 -17.06399917602539 L -107.0023193359375 -16.384000778198242 L -107.66999816894531 -16.075000762939453 L -109.68800354003906 -14.861000061035156 L -111.56300354003906 -13.435999870300293 L -113.27300262451172 -11.815999984741211 L -114.7969970703125 -10.020999908447266 L -116.11900329589844 -8.071999549865723 L -117.22200012207031 -5.991000175476074 L -118.09400177001953 -3.803999900817871 L -118.7239990234375 -1.534000039100647 L -118.9754867553711 4.440892164675075e-17 L -119.1050033569336 0.7900000214576721 L -119.23200225830078 3.1410000324249268 L -119.1050033569336 5.493000030517578 L -118.7239990234375 7.816999912261963 L -118.09400177001953 10.086000442504883 L -117.22200012207031 12.27400016784668 L -116.11900329589844 14.354999542236328 L -114.7969970703125 16.304000854492188 L -114.72908020019531 16.384000778198242 L -113.27300262451172 18.099000930786133 L -111.56300354003906 19.718000411987305 L -109.68800354003906 21.14299964904785 L -107.66999816894531 22.357999801635742 L -105.53299713134766 23.34600067138672 L -103.3010025024414 24.097999572753906 L -101.0009994506836 24.604999542236328 L -98.66000366210938 24.858999252319336 L -98.30400085449219 24.858999252319336 L -96.30500030517578 24.858999252319336 L -93.96399688720703 24.604999542236328 L -91.66400146484375 24.097999572753906 L -89.43199920654297 23.34600067138672 L -87.29399871826172 22.357999801635742 L -85.2760009765625 21.14299964904785 L -83.4020004272461 19.718000411987305 L -81.91999816894531 18.31486701965332 L -81.69200134277344 18.099000930786133 L -80.23497009277344 16.384000778198242 L -80.16699981689453 16.304000854492188 L -78.84600067138672 14.354999542236328 L -77.74299621582031 12.27400016784668 L -76.87100219726562 10.086000442504883 L -76.24099731445312 7.816999912261963 L -75.86000061035156 5.493000030517578 L -75.73200225830078 3.1410000324249268 L -75.86000061035156 0.7900000214576721 L -75.98951721191406 4.440892164675075e-17 L -76.24099731445312 -1.534000039100647 L -76.87100219726562 -3.803999900817871 L -77.74299621582031 -5.991000175476074 L -78.84600067138672 -8.071999549865723 L -80.16699981689453 -10.020999908447266 L -81.69200134277344 -11.815999984741211 L -83.4020004272461 -13.435999870300293 L -85.2760009765625 -14.861000061035156 L -87.29399871826172 -16.075000762939453 M -31.340999603271484 -65.39399719238281 L -31.220359802246094 -65.53600311279297 L -29.81599998474121 -67.18900299072266 L -28.4950008392334 -69.13800048828125 L -27.392000198364258 -71.21900177001953 L -26.520000457763672 -73.40699768066406 L -25.889999389648438 -75.6760025024414 L -25.509000778198242 -78 L -25.381000518798828 -80.35199737548828 L -25.46636962890625 -81.91999816894531 L -25.509000778198242 -82.7030029296875 L -25.889999389648438 -85.0270004272461 L -26.520000457763672 -87.2959976196289 L -27.392000198364258 -89.48400115966797 L -28.4950008392334 -91.56500244140625 L -29.81599998474121 -93.51399993896484 L -31.340999603271484 -95.30899810791016 L -32.768001556396484 -96.66089630126953 L -33.05099868774414 -96.92900085449219 L -34.86021041870117 -98.30400085449219 L -34.92599868774414 -98.35399627685547 L -36.944000244140625 -99.56800079345703 L -39.08100128173828 -100.55699920654297 L -41.3129997253418 -101.30899810791016 L -43.612998962402344 -101.81500244140625 L -45.95399856567383 -102.06999969482422 L -48.308998107910156 -102.06999969482422 L -50.650001525878906 -101.81500244140625 L -52.95000076293945 -101.30899810791016 L -55.18199920654297 -100.55699920654297 L -57.319000244140625 -99.56800079345703 L -59.33700180053711 -98.35399627685547 L -59.40279006958008 -98.30400085449219 L -61.21200180053711 -96.92900085449219 L -62.922000885009766 -95.30899810791016 L -64.44599914550781 -93.51399993896484 L -65.53600311279297 -91.90703582763672 L -65.76799774169922 -91.56500244140625 L -66.87100219726562 -89.48400115966797 L -67.74299621582031 -87.2959976196289 L -68.37300109863281 -85.0270004272461 L -68.75399780273438 -82.7030029296875 L -68.79629516601562 -81.91999816894531 L -68.88099670410156 -80.35199737548828 L -68.75399780273438 -78 L -68.37300109863281 -75.6760025024414 L -67.74299621582031 -73.40699768066406 L -66.87100219726562 -71.21900177001953 L -65.76799774169922 -69.13800048828125 L -65.53600311279297 -68.79596710205078 L -64.44599914550781 -67.18900299072266 L -63.04256057739258 -65.53600311279297 L -62.922000885009766 -65.39399719238281 L -61.21200180053711 -63.77399826049805 L -59.33700180053711 -62.3489990234375 L -57.319000244140625 -61.1349983215332 L -55.18199920654297 -60.145999908447266 L -52.95000076293945 -59.39400100708008 L -50.650001525878906 -58.88800048828125 L -49.152000427246094 -58.72482681274414 L -48.308998107910156 -58.632999420166016 L -45.95399856567383 -58.632999420166016 L -43.612998962402344 -58.88800048828125 L -41.3129997253418 -59.39400100708008 L -39.08100128173828 -60.145999908447266 L -36.944000244140625 -61.1349983215332 L -34.92599868774414 -62.3489990234375 L -33.05099868774414 -63.77399826049805 L -32.768001556396484 -64.04210662841797 L -31.340999603271484 -65.39399719238281 M 119.1050033569336 9.210000038146973 L 119.23200225830078 6.859000205993652 L 119.1050033569336 4.506999969482422 L 118.7239990234375 2.183000087738037 L 118.11788177490234 4.440892164675075e-17 L 118.09400177001953 -0.08600000292062755 L 117.22200012207031 -2.2739999294281006 L 116.11900329589844 -4.355000019073486 L 114.7969970703125 -6.303999900817871 L 113.27300262451172 -8.098999977111816 L 111.56300354003906 -9.718000411987305 L 109.68800354003906 -11.142999649047852 L 107.66999816894531 -12.357999801635742 L 105.53299713134766 -13.345999717712402 L 103.3010025024414 -14.097999572753906 L 101.0009994506836 -14.604999542236328 L 98.66000366210938 -14.859000205993652 L 98.30400085449219 -14.859000205993652 L 96.30500030517578 -14.859000205993652 L 93.96399688720703 -14.604999542236328 L 91.66400146484375 -14.097999572753906 L 89.43199920654297 -13.345999717712402 L 87.29399871826172 -12.357999801635742 L 85.2770004272461 -11.142999649047852 L 83.4020004272461 -9.718000411987305 L 81.69200134277344 -8.098999977111816 L 80.16699981689453 -6.303999900817871 L 78.84600067138672 -4.355000019073486 L 77.74299621582031 -2.2739999294281006 L 76.87100219726562 -0.08600000292062755 L 76.84712219238281 4.440892164675075e-17 L 76.24099731445312 2.183000087738037 L 75.86000061035156 4.506999969482422 L 75.73200225830078 6.859000205993652 L 75.86000061035156 9.210000038146973 L 76.24099731445312 11.534000396728516 L 76.87100219726562 13.803999900817871 L 77.74299621582031 15.991000175476074 L 77.95130157470703 16.384000778198242 L 78.84600067138672 18.07200050354004 L 80.16699981689453 20.020999908447266 L 81.69200134277344 21.81599998474121 L 83.4020004272461 23.43600082397461 L 85.2770004272461 24.861000061035156 L 87.29399871826172 26.075000762939453 L 89.43199920654297 27.06399917602539 L 91.66400146484375 27.81599998474121 L 93.96399688720703 28.32200050354004 L 96.30500030517578 28.57699966430664 L 98.30400085449219 28.57699966430664 L 98.66000366210938 28.57699966430664 L 101.0009994506836 28.32200050354004 L 103.3010025024414 27.81599998474121 L 105.53299713134766 27.06399917602539 L 107.66999816894531 26.075000762939453 L 109.68800354003906 24.861000061035156 L 111.56300354003906 23.43600082397461 L 113.27300262451172 21.81599998474121 L 114.7969970703125 20.020999908447266 L 116.11900329589844 18.07200050354004 L 117.0136947631836 16.384000778198242 L 117.22200012207031 15.991000175476074 L 118.09400177001953 13.803999900817871 L 118.7239990234375 11.534000396728516 L 119.1050033569336 9.210000038146973 M 144.67599487304688 14.6850004196167 L 145 5 L 144.83273315429688 4.440892164675075e-17 L 144.8187255859375 -0.4185166656970977 L 144.67599487304688 -4.684999942779541 L 144.13343811035156 -10.078130722045898 L 143.70599365234375 -14.32699966430664 L 142.093994140625 -23.881999969482422 L 139.84800720214844 -33.30799865722656 L 136.9770050048828 -42.56399917602539 L 133.49400329589844 -51.60599899291992 L 131.07200622558594 -56.82526397705078 L 129.4149932861328 -60.395999908447266 L 126.59822082519531 -65.53600311279297 L 124.75800323486328 -68.89399719238281 L 119.54399871826172 -77.06199645996094 L 113.7959976196289 -84.86399841308594 L 107.54000091552734 -92.26399993896484 L 101.69772338867188 -98.30400085449219 L 100.8030014038086 -99.22899627685547 L 96.7887191772461 -102.86011505126953 L 93.61599731445312 -105.7300033569336 L 86.01100158691406 -111.73500061035156 L 78.02200317382812 -117.21900177001953 L 69.68399810791016 -122.15799713134766 L 65.53600311279297 -124.25406646728516 L 61.0359992980957 -126.52799987792969 L 52.11399841308594 -130.31100463867188 L 49.92268371582031 -131.07200622558594 L 46.99481201171875 -132.0887908935547 L 42.959999084472656 -133.49000549316406 L 37.73208236694336 -134.9219970703125 L 33.61399841308594 -136.0500030517578 L 24.118000030517578 -137.97999572753906 L 14.513999938964844 -139.27200317382812 L 4.84499979019165 -139.91900634765625 L 0 -139.91900634765625 L -4.84499979019165 -139.91900634765625 L -14.513999938964844 -139.27200317382812 L -24.118000030517578 -137.97999572753906 L -33.61399841308594 -136.0500030517578 L -37.73208236694336 -134.9219970703125 L -42.959999084472656 -133.49000549316406 L -49.92268371582031 -131.07200622558594 L -52.11399841308594 -130.31100463867188 L -61.0359992980957 -126.52799987792969 L -65.53600311279297 -124.25406646728516 L -69.68399810791016 -122.15799713134766 L -78.02200317382812 -117.21900177001953 L -86.01100158691406 -111.73500061035156 L -93.61599731445312 -105.7300033569336 L -100.8030014038086 -99.22899627685547 L -101.69772338867188 -98.30400085449219 L -107.54000091552734 -92.26399993896484 L -113.7959976196289 -84.86399841308594 L -119.54399871826172 -77.06199645996094 L -124.75800323486328 -68.89399719238281 L -126.59822082519531 -65.53600311279297 L -129.4149932861328 -60.395999908447266 L -131.07200622558594 -56.82526397705078 L -133.49400329589844 -51.60599899291992 L -136.9770050048828 -42.56399917602539 L -139.84800720214844 -33.30799865722656 L -142.093994140625 -23.881999969482422 L -143.70599365234375 -14.32699966430664 L -144.13343811035156 -10.078130722045898 L -144.67599487304688 -4.684999942779541 L -144.83273315429688 4.440892164675075e-17 L -145 5 L -144.67599487304688 14.6850004196167 L -144.13343811035156 20.0781307220459 L -143.70599365234375 24.32699966430664 L -142.093994140625 33.88199996948242 L -139.84800720214844 43.30799865722656 L -136.9770050048828 52.56399917602539 L -133.49400329589844 61.60599899291992 L -131.07200622558594 66.82526397705078 L -129.4149932861328 70.39600372314453 L -124.75800323486328 78.89399719238281 L -119.54399871826172 87.06199645996094 L -113.7959976196289 94.86399841308594 L -111.0381088256836 98.12621307373047 L -110.88780212402344 98.30400085449219 L -107.54000091552734 102.26399993896484 L -100.8030014038086 109.22899627685547 L -98.30400085449219 111.48947143554688 L -96.7887191772461 112.86011505126953 L -93.61599731445312 115.7300033569336 L -86.01100158691406 121.73500061035156 L -78.02200317382812 127.21900177001953 L -71.51737976074219 131.07200622558594 L -69.68399810791016 132.1580047607422 L -65.53600311279297 134.25405883789062 L -61.0359992980957 136.5279998779297 L -52.11399841308594 140.31100463867188 L -42.959999084472656 143.49000549316406 L -37.73208236694336 144.9219970703125 L -33.61399841308594 146.0500030517578 L -24.118000030517578 147.97999572753906 L -14.513999938964844 149.27200317382812 L -4.84499979019165 149.91900634765625 L 0 149.91900634765625 L 0.5753107070922852 149.91900634765625 L 4.84499979019165 149.91900634765625 L 10.25342845916748 149.55709838867188 L 14.513999938964844 149.27200317382812 L 19.876455307006836 148.55059814453125 L 24.118000030517578 147.97999572753906 L 29.4370059967041 146.89894104003906 L 33.61399841308594 146.0500030517578 L 42.959999084472656 143.49000549316406 L 52.11399841308594 140.31100463867188 L 61.0359992980957 136.5279998779297 L 65.53600311279297 134.25405883789062 L 69.68399810791016 132.1580047607422 L 71.51737976074219 131.07200622558594 L 78.02200317382812 127.21900177001953 L 86.01100158691406 121.73500061035156 L 93.61599731445312 115.7300033569336 L 96.7887191772461 112.86011505126953 L 100.8030014038086 109.22899627685547 L 107.54000091552734 102.26399993896484 L 110.88780212402344 98.30400085449219 L 111.0381088256836 98.12621307373047 L 113.7959976196289 94.86399841308594 L 119.54399871826172 87.06199645996094 L 124.75800323486328 78.89399719238281 L 129.4149932861328 70.39600372314453 L 131.07200622558594 66.82526397705078 L 131.69882202148438 65.4744873046875 L 133.49400329589844 61.60599899291992 L 135.44482421875 56.54157638549805 L 136.9770050048828 52.56399917602539 L 138.5810089111328 47.3927116394043 L 139.84800720214844 43.30799865722656 L 141.1055908203125 38.030128479003906 L 142.093994140625 33.88199996948242 L 143.70599365234375 24.32699966430664 L 144.67599487304688 14.6850004196167 M 105.11499786376953 57.70199966430664 L 105.24299621582031 55.35100173950195 L 105.11499786376953 52.999000549316406 L 104.73400115966797 50.67499923706055 L 104.10399627685547 48.40599822998047 L 103.23300170898438 46.21799850463867 L 102.12899780273438 44.13800048828125 L 100.80799865722656 42.1879997253418 L 99.28299713134766 40.393001556396484 L 98.30400085449219 39.46609878540039 L 97.572998046875 38.77399826049805 L 95.6989974975586 37.3489990234375 L 93.68099975585938 36.1349983215332 L 91.54299926757812 35.145999908447266 L 89.31199645996094 34.39400100708008 L 87.01200103759766 33.887001037597656 L 84.66999816894531 33.632999420166016 L 82.31500244140625 33.632999420166016 L 81.91999816894531 33.67585754394531 L 79.9739990234375 33.887001037597656 L 77.67400360107422 34.39400100708008 L 75.44200134277344 35.145999908447266 L 73.30500030517578 36.1349983215332 L 71.28700256347656 37.3489990234375 L 69.41200256347656 38.77399826049805 L 67.7020034790039 40.393001556396484 L 66.1780014038086 42.1879997253418 L 65.53600311279297 43.13497543334961 L 64.85600280761719 44.13800048828125 L 63.75299835205078 46.21799850463867 L 62.88100051879883 48.40599822998047 L 62.250999450683594 50.67499923706055 L 61.869998931884766 52.999000549316406 L 61.74300003051758 55.35100173950195 L 61.869998931884766 57.70199966430664 L 62.250999450683594 60.0260009765625 L 62.88100051879883 62.29600143432617 L 63.75299835205078 64.48300170898438 L 64.31112670898438 65.53600311279297 L 64.85600280761719 66.56400299072266 L 65.53600311279297 67.56651306152344 L 66.1780014038086 68.51300048828125 L 67.7020034790039 70.30799865722656 L 69.41200256347656 71.9280014038086 L 71.28700256347656 73.35299682617188 L 73.30500030517578 74.56700134277344 L 75.44200134277344 75.55599975585938 L 77.67400360107422 76.30799865722656 L 79.9739990234375 76.81400299072266 L 81.91999816894531 77.02597045898438 L 82.31500244140625 77.06900024414062 L 84.66999816894531 77.06900024414062 L 87.01200103759766 76.81400299072266 L 89.31199645996094 76.30799865722656 L 91.54299926757812 75.55599975585938 L 93.68099975585938 74.56700134277344 L 95.6989974975586 73.35299682617188 L 97.572998046875 71.9280014038086 L 98.30400085449219 71.2354736328125 L 99.28299713134766 70.30799865722656 L 100.80799865722656 68.51300048828125 L 102.12899780273438 66.56400299072266 L 102.67436981201172 65.53600311279297 L 103.23300170898438 64.48300170898438 L 104.10399627685547 62.29600143432617 L 104.73400115966797 60.0260009765625 L 105.11499786376953 57.70199966430664 M -18.753000259399414 -85.53800201416016 L -17.881000518798828 -83.3499984741211 L -17.1230525970459 -81.91999816894531 L -16.777999877929688 -81.26899719238281 L -16.384000778198242 -80.6881332397461 L -15.456000328063965 -79.31999969482422 L -13.932000160217285 -77.5250015258789 L -12.222000122070312 -75.90499877929688 L -10.347000122070312 -74.4800033569336 L -8.329000473022461 -73.26599884033203 L -6.191999912261963 -72.2770004272461 L -3.9600000381469727 -71.5250015258789 L -1.659999966621399 -71.01899719238281 L 0 -70.83818054199219 L 0.6809999942779541 -70.76399993896484 L 3.0360000133514404 -70.76399993896484 L 5.377999782562256 -71.01899719238281 L 7.677999973297119 -71.5250015258789 L 9.909000396728516 -72.2770004272461 L 12.04699993133545 -73.26599884033203 L 14.0649995803833 -74.4800033569336 L 15.939000129699707 -75.90499877929688 L 16.384000778198242 -76.32657623291016 L 17.64900016784668 -77.5250015258789 L 19.173999786376953 -79.31999969482422 L 20.4950008392334 -81.26899719238281 L 20.840364456176758 -81.91999816894531 L 21.599000930786133 -83.3499984741211 L 22.469999313354492 -85.53800201416016 L 23.100000381469727 -87.80699920654297 L 23.481000900268555 -90.13099670410156 L 23.608999252319336 -92.48200225830078 L 23.481000900268555 -94.83399963378906 L 23.100000381469727 -97.15799713134766 L 22.78180694580078 -98.30400085449219 L 22.469999313354492 -99.427001953125 L 21.599000930786133 -101.61499786376953 L 20.4950008392334 -103.69599914550781 L 19.173999786376953 -105.6449966430664 L 17.64900016784668 -107.44000244140625 L 15.939000129699707 -109.05899810791016 L 14.0649995803833 -110.48500061035156 L 12.04699993133545 -111.6989974975586 L 9.909000396728516 -112.68800354003906 L 7.677999973297119 -113.44000244140625 L 5.377999782562256 -113.94599914550781 L 3.0360000133514404 -114.19999694824219 L 0.6809999942779541 -114.19999694824219 L -1.1733197963562092e-13 -114.12611389160156 L -1.659999966621399 -113.94599914550781 L -3.9600000381469727 -113.44000244140625 L -6.191999912261963 -112.68800354003906 L -8.329000473022461 -111.6989974975586 L -10.347000122070312 -110.48500061035156 L -12.222000122070312 -109.05899810791016 L -13.932000160217285 -107.44000244140625 L -15.456000328063965 -105.6449966430664 L -16.777999877929688 -103.69599914550781 L -17.881000518798828 -101.61499786376953 L -18.753000259399414 -99.427001953125 L -19.064807891845703 -98.30400085449219 L -19.382999420166016 -97.15799713134766 L -19.763999938964844 -94.83399963378906 L -19.891000747680664 -92.48200225830078 L -19.763999938964844 -90.13099670410156 L -19.382999420166016 -87.80699920654297 L -18.753000259399414 -85.53800201416016 M -69.56099700927734 67.08899688720703 L -68.2416000366211 65.53600311279297 L -68.03600311279297 65.29399871826172 L -66.71499633789062 63.345001220703125 L -65.61199951171875 61.263999938964844 L -65.53600311279297 61.07330322265625 L -64.73999786376953 59.07600021362305 L -64.11000061035156 56.80699920654297 L -63.729000091552734 54.483001708984375 L -63.60200119018555 52.13100051879883 L -63.729000091552734 49.779998779296875 L -64.11000061035156 47.45600128173828 L -64.73999786376953 45.1870002746582 L -65.53600311279297 43.189697265625 L -65.61199951171875 42.999000549316406 L -66.71499633789062 40.917999267578125 L -68.03600311279297 38.96900177001953 L -69.56099700927734 37.17399978637695 L -71.27100372314453 35.55400085449219 L -73.14600372314453 34.12900161743164 L -75.16400146484375 32.915000915527344 L -75.48163604736328 32.768001556396484 L -77.3010025024414 31.926000595092773 L -79.53299713134766 31.173999786376953 L -81.83300018310547 30.667999267578125 L -81.91999816894531 30.658523559570312 L -84.17400360107422 30.413000106811523 L -86.52899932861328 30.413000106811523 L -88.87000274658203 30.667999267578125 L -91.16999816894531 31.173999786376953 L -93.4020004272461 31.926000595092773 L -95.22136688232422 32.768001556396484 L -95.53900146484375 32.915000915527344 L -97.55699920654297 34.12900161743164 L -98.30400085449219 34.696720123291016 L -99.43199920654297 35.55400085449219 L -101.14199829101562 37.17399978637695 L -102.66699981689453 38.96900177001953 L -103.98799896240234 40.917999267578125 L -105.09100341796875 42.999000549316406 L -105.96299743652344 45.1870002746582 L -106.59300231933594 47.45600128173828 L -106.87104797363281 49.152000427246094 L -106.9739990234375 49.779998779296875 L -107.10199737548828 52.13100051879883 L -106.9739990234375 54.483001708984375 L -106.59300231933594 56.80699920654297 L -105.96299743652344 59.07600021362305 L -105.09100341796875 61.263999938964844 L -103.98799896240234 63.345001220703125 L -102.66699981689453 65.29399871826172 L -102.4614028930664 65.53600311279297 L -101.14199829101562 67.08899688720703 L -99.43199920654297 68.70800018310547 L -98.30400085449219 69.56587982177734 L -97.55699920654297 70.13400268554688 L -95.53900146484375 71.3479995727539 L -93.4020004272461 72.33699798583984 L -91.16999816894531 73.08899688720703 L -88.87000274658203 73.59500122070312 L -86.52899932861328 73.8499984741211 L -84.17400360107422 73.8499984741211 L -81.91999816894531 73.60447692871094 L -81.83300018310547 73.59500122070312 L -79.53299713134766 73.08899688720703 L -77.3010025024414 72.33699798583984 L -75.16400146484375 71.3479995727539 L -73.14600372314453 70.13400268554688 L -71.27100372314453 68.70800018310547 L -69.56099700927734 67.08899688720703 M 64.11000061035156 -37.45600128173828 L 64.73999786376953 -35.1870002746582 L 65.53600311279297 -33.189697265625 L 65.61199951171875 -32.999000549316406 L 65.73443603515625 -32.768001556396484 L 66.71499633789062 -30.917999267578125 L 68.03700256347656 -28.9689998626709 L 69.56099700927734 -27.173999786376953 L 71.27100372314453 -25.554000854492188 L 73.14600372314453 -24.128999710083008 L 75.16400146484375 -22.915000915527344 L 77.3010025024414 -21.926000595092773 L 79.53299713134766 -21.173999786376953 L 81.83300018310547 -20.667999267578125 L 81.91999816894531 -20.658523559570312 L 84.17400360107422 -20.413000106811523 L 86.52899932861328 -20.413000106811523 L 88.87000274658203 -20.667999267578125 L 91.16999816894531 -21.173999786376953 L 93.4020004272461 -21.926000595092773 L 95.53900146484375 -22.915000915527344 L 97.55699920654297 -24.128999710083008 L 98.30400085449219 -24.696720123291016 L 99.43199920654297 -25.554000854492188 L 101.14199829101562 -27.173999786376953 L 102.66699981689453 -28.9689998626709 L 103.98799896240234 -30.917999267578125 L 104.96855926513672 -32.768001556396484 L 105.09100341796875 -32.999000549316406 L 105.96299743652344 -35.1870002746582 L 106.59300231933594 -37.45600128173828 L 106.9739990234375 -39.779998779296875 L 107.10199737548828 -42.13100051879883 L 106.9739990234375 -44.483001708984375 L 106.59300231933594 -46.80699920654297 L 105.96299743652344 -49.07600021362305 L 105.93270874023438 -49.152000427246094 L 105.09100341796875 -51.263999938964844 L 103.98799896240234 -53.345001220703125 L 102.66699981689453 -55.29399871826172 L 101.14199829101562 -57.0890007019043 L 99.43199920654297 -58.70800018310547 L 98.30400085449219 -59.565879821777344 L 97.55699920654297 -60.13399887084961 L 95.53900146484375 -61.347999572753906 L 93.4020004272461 -62.33700180053711 L 91.16999816894531 -63.0890007019043 L 88.87000274658203 -63.595001220703125 L 86.52899932861328 -63.849998474121094 L 84.17400360107422 -63.849998474121094 L 81.91999816894531 -63.60447692871094 L 81.83300018310547 -63.595001220703125 L 79.53299713134766 -63.0890007019043 L 77.3010025024414 -62.33700180053711 L 75.16400146484375 -61.347999572753906 L 73.14600372314453 -60.13399887084961 L 71.27100372314453 -58.70800018310547 L 69.56099700927734 -57.0890007019043 L 68.03700256347656 -55.29399871826172 L 66.71499633789062 -53.345001220703125 L 65.61199951171875 -51.263999938964844 L 65.53600311279297 -51.07330322265625 L 64.7702865600586 -49.152000427246094 L 64.73999786376953 -49.07600021362305 L 64.11000061035156 -46.80699920654297 L 63.729000091552734 -44.483001708984375 L 63.60200119018555 -42.13100051879883 L 63.729000091552734 -39.779998779296875 L 64.11000061035156 -37.45600128173828 M 27.392000198364258 81.21900177001953 L 27.112625122070312 81.91999816894531 L 26.520000457763672 83.40699768066406 L 25.889999389648438 85.6760025024414 L 25.509000778198242 88 L 25.381000518798828 90.35199737548828 L 25.509000778198242 92.7030029296875 L 25.889999389648438 95.0270004272461 L 26.520000457763672 97.2959976196289 L 26.92172622680664 98.30400085449219 L 27.392000198364258 99.48400115966797 L 28.4950008392334 101.56500244140625 L 29.81599998474121 103.51399993896484 L 31.340999603271484 105.30899810791016 L 32.768001556396484 106.66089630126953 L 33.05099868774414 106.92900085449219 L 34.92599868774414 108.35399627685547 L 36.944000244140625 109.56800079345703 L 39.08100128173828 110.55699920654297 L 41.3129997253418 111.30899810791016 L 43.612998962402344 111.81500244140625 L 45.95399856567383 112.06999969482422 L 48.308998107910156 112.06999969482422 L 49.152000427246094 111.9781723022461 L 50.650001525878906 111.81500244140625 L 52.95000076293945 111.30899810791016 L 55.18199920654297 110.55699920654297 L 57.319000244140625 109.56800079345703 L 59.33700180053711 108.35399627685547 L 61.21200180053711 106.92900085449219 L 62.922000885009766 105.30899810791016 L 64.44599914550781 103.51399993896484 L 65.53600311279297 101.90703582763672 L 65.76799774169922 101.56500244140625 L 66.87100219726562 99.48400115966797 L 67.34127044677734 98.30400085449219 L 67.74299621582031 97.2959976196289 L 68.37300109863281 95.0270004272461 L 68.75399780273438 92.7030029296875 L 68.88099670410156 90.35199737548828 L 68.75399780273438 88 L 68.37300109863281 85.6760025024414 L 67.74299621582031 83.40699768066406 L 67.15037536621094 81.91999816894531 L 66.87100219726562 81.21900177001953 L 65.76799774169922 79.13800048828125 L 65.53600311279297 78.79596710205078 L 64.44599914550781 77.18900299072266 L 62.922000885009766 75.39399719238281 L 61.21200180053711 73.77400207519531 L 59.33700180053711 72.3489990234375 L 57.319000244140625 71.13500213623047 L 55.18199920654297 70.14600372314453 L 52.95000076293945 69.39399719238281 L 50.650001525878906 68.88800048828125 L 49.152000427246094 68.72482299804688 L 48.308998107910156 68.63300323486328 L 45.95399856567383 68.63300323486328 L 43.612998962402344 68.88800048828125 L 41.3129997253418 69.39399719238281 L 39.08100128173828 70.14600372314453 L 36.944000244140625 71.13500213623047 L 34.92599868774414 72.3489990234375 L 33.05099868774414 73.77400207519531 L 32.768001556396484 74.04210662841797 L 31.340999603271484 75.39399719238281 L 29.81599998474121 77.18900299072266 L 28.4950008392334 79.13800048828125 L 27.392000198364258 81.21900177001953 M 16.777999877929688 91.26899719238281 L 16.384000778198242 90.6881332397461 L 15.456000328063965 89.31999969482422 L 13.932000160217285 87.5250015258789 L 12.222000122070312 85.90499877929688 L 10.347000122070312 84.4800033569336 L 8.329000473022461 83.26599884033203 L 6.191999912261963 82.2770004272461 L 5.132393836975098 81.91999816894531 L 3.9600000381469727 81.5250015258789 L 1.659999966621399 81.01899719238281 L 0 80.83818054199219 L -0.6809999942779541 80.76399993896484 L -3.0360000133514404 80.76399993896484 L -5.377999782562256 81.01899719238281 L -7.677999973297119 81.5250015258789 L -8.849868774414062 81.91999816894531 L -9.909000396728516 82.2770004272461 L -12.04699993133545 83.26599884033203 L -14.0649995803833 84.4800033569336 L -15.939000129699707 85.90499877929688 L -16.384000778198242 86.32657623291016 L -17.64900016784668 87.5250015258789 L -19.173999786376953 89.31999969482422 L -20.4950008392334 91.26899719238281 L -21.599000930786133 93.3499984741211 L -22.469999313354492 95.53700256347656 L -23.100000381469727 97.80699920654297 L -23.18147850036621 98.30400085449219 L -23.481000900268555 100.13099670410156 L -23.608999252319336 102.48200225830078 L -23.481000900268555 104.83399963378906 L -23.100000381469727 107.15799713134766 L -22.469999313354492 109.427001953125 L -21.599000930786133 111.61499786376953 L -20.4950008392334 113.69599914550781 L -19.82263946533203 114.68800354003906 L -19.173999786376953 115.6449966430664 L -17.64900016784668 117.44000244140625 L -15.939000129699707 119.05899810791016 L -14.0649995803833 120.48500061035156 L -12.04699993133545 121.6989974975586 L -9.909000396728516 122.68800354003906 L -7.677999973297119 123.44000244140625 L -5.377999782562256 123.94599914550781 L -3.0360000133514404 124.19999694824219 L -0.6809999942779541 124.19999694824219 L 0 124.12611389160156 L 1.659999966621399 123.94599914550781 L 3.9600000381469727 123.44000244140625 L 6.191999912261963 122.68800354003906 L 8.329000473022461 121.6989974975586 L 10.347000122070312 120.48500061035156 L 12.222000122070312 119.05899810791016 L 13.932000160217285 117.44000244140625 L 15.456000328063965 115.6449966430664 L 16.10512924194336 114.68800354003906 L 16.777999877929688 113.69599914550781 L 17.881000518798828 111.61499786376953 L 18.753000259399414 109.427001953125 L 19.382999420166016 107.15799713134766 L 19.763999938964844 104.83399963378906 L 19.891000747680664 102.48200225830078 L 19.763999938964844 100.13099670410156 L 19.464479446411133 98.30400085449219 L 19.382999420166016 97.80699920654297 L 18.753000259399414 95.53700256347656 L 17.881000518798828 93.3499984741211 L 16.777999877929688 91.26899719238281 M -70.09100341796875 97.625 L -69.73110961914062 98.30400085449219 L -68.98799896240234 99.70600128173828 L -67.66600036621094 101.65499877929688 L -66.14099884033203 103.44999694824219 L -65.53600311279297 104.02349090576172 L -64.43199920654297 105.06999969482422 L -62.55699920654297 106.49500274658203 L -60.53900146484375 107.70899963378906 L -58.4010009765625 108.697998046875 L -56.16999816894531 109.44999694824219 L -53.869998931884766 109.95600128173828 L -51.52799987792969 110.21099853515625 L -49.17300033569336 110.21099853515625 L -49.152000427246094 110.20870971679688 L -46.832000732421875 109.95600128173828 L -44.53200149536133 109.44999694824219 L -42.29999923706055 108.697998046875 L -40.16299819946289 107.70899963378906 L -38.14500045776367 106.49500274658203 L -36.27000045776367 105.06999969482422 L -34.560001373291016 103.44999694824219 L -33.0359992980957 101.65499877929688 L -32.768001556396484 101.25989532470703 L -31.714000701904297 99.70600128173828 L -30.97089195251465 98.30400085449219 L -30.611000061035156 97.625 L -29.73900032043457 95.43800354003906 L -29.108999252319336 93.16799926757812 L -28.72800064086914 90.84400177001953 L -28.60099983215332 88.49299621582031 L -28.72800064086914 86.14099884033203 L -29.108999252319336 83.81700134277344 L -29.635711669921875 81.91999816894531 L -29.73900032043457 81.5479965209961 L -30.05145263671875 80.76399993896484 L -30.611000061035156 79.36000061035156 L -31.714000701904297 77.27899932861328 L -32.768001556396484 75.72510528564453 L -33.0359992980957 75.33000183105469 L -34.560001373291016 73.53500366210938 L -36.27000045776367 71.91600036621094 L -38.14500045776367 70.49099731445312 L -40.16299819946289 69.2760009765625 L -42.29999923706055 68.28800201416016 L -44.53200149536133 67.53600311279297 L -46.832000732421875 67.02899932861328 L -49.152000427246094 66.77727508544922 L -49.17300033569336 66.7750015258789 L -51.52799987792969 66.7750015258789 L -53.869998931884766 67.02899932861328 L -56.16999816894531 67.53600311279297 L -58.4010009765625 68.28800201416016 L -60.53900146484375 69.2760009765625 L -62.55699920654297 70.49099731445312 L -64.43199920654297 71.91600036621094 L -65.53600311279297 72.96186065673828 L -66.14099884033203 73.53500366210938 L -67.66600036621094 75.33000183105469 L -68.98799896240234 77.27899932861328 L -70.09100341796875 79.36000061035156 L -70.96199798583984 81.5479965209961 L -71.0652847290039 81.91999816894531 L -71.59200286865234 83.81700134277344 L -71.9729995727539 86.14099884033203 L -72.10099792480469 88.49299621582031 L -71.9729995727539 90.84400177001953 L -71.59200286865234 93.16799926757812 L -70.96199798583984 95.43800354003906 L -70.09100341796875 97.625 M 29.108999252319336 -83.16799926757812 L 28.904401779174805 -81.91999816894531 L 28.72800064086914 -80.84400177001953 L 28.60099983215332 -78.49299621582031 L 28.72800064086914 -76.14099884033203 L 29.108999252319336 -73.81700134277344 L 29.73900032043457 -71.5479965209961 L 30.611000061035156 -69.36000061035156 L 31.714000701904297 -67.27899932861328 L 32.768001556396484 -65.72510528564453 L 32.896270751953125 -65.53600311279297 L 33.0359992980957 -65.33000183105469 L 34.560001373291016 -63.53499984741211 L 36.27000045776367 -61.91600036621094 L 38.14500045776367 -60.49100112915039 L 40.16299819946289 -59.2760009765625 L 42.29999923706055 -58.28799819946289 L 44.53200149536133 -57.5359992980957 L 46.832000732421875 -57.02899932861328 L 49.152000427246094 -56.777278900146484 L 49.17300033569336 -56.775001525878906 L 51.52799987792969 -56.775001525878906 L 53.869998931884766 -57.02899932861328 L 56.16999816894531 -57.5359992980957 L 58.4010009765625 -58.28799819946289 L 60.53900146484375 -59.2760009765625 L 62.55699920654297 -60.49100112915039 L 64.43199920654297 -61.91600036621094 L 65.53600311279297 -62.96186065673828 L 66.14099884033203 -63.53499984741211 L 67.66600036621094 -65.33000183105469 L 67.80573272705078 -65.53600311279297 L 68.98799896240234 -67.27899932861328 L 70.09100341796875 -69.36000061035156 L 70.96199798583984 -71.5479965209961 L 71.59200286865234 -73.81700134277344 L 71.9729995727539 -76.14099884033203 L 72.10099792480469 -78.49299621582031 L 71.9729995727539 -80.84400177001953 L 71.59200286865234 -83.16799926757812 L 70.96199798583984 -85.43800354003906 L 70.09100341796875 -87.625 L 68.98799896240234 -89.70600128173828 L 67.66600036621094 -91.65499877929688 L 66.14099884033203 -93.44999694824219 L 65.53600311279297 -94.02349090576172 L 64.43199920654297 -95.06999969482422 L 62.55699920654297 -96.49500274658203 L 60.53900146484375 -97.70899963378906 L 59.252742767333984 -98.30400085449219 L 58.4010009765625 -98.697998046875 L 56.16999816894531 -99.44999694824219 L 53.869998931884766 -99.95600128173828 L 51.52799987792969 -100.21099853515625 L 49.17300033569336 -100.21099853515625 L 46.832000732421875 -99.95600128173828 L 44.53200149536133 -99.44999694824219 L 42.29999923706055 -98.697998046875 L 41.44865798950195 -98.30400085449219 L 40.16299819946289 -97.70899963378906 L 38.14500045776367 -96.49500274658203 L 36.27000045776367 -95.06999969482422 L 34.560001373291016 -93.44999694824219 L 33.0359992980957 -91.65499877929688 L 32.768001556396484 -91.25989532470703 L 31.714000701904297 -89.70600128173828 L 30.611000061035156 -87.625 L 29.73900032043457 -85.43800354003906 L 29.108999252319336 -83.16799926757812 z" fill="none" stroke="rgb(0,0,255)" stroke-width="0.01mm" />
</svg>