solid generated by Pro/DESKTOP Version 8.0
	facet normal -0.000000e+000 0.000000e+000 -1.000000e+000
		outer loop
			vertex 4.080732e+000 -2.314298e+001 0.000000e+000
			vertex -4.316738e-015 -2.350000e+001 0.000000e+000
			vertex -4.080732e+000 -2.314298e+001 0.000000e+000
		endloop
	endfacet
	facet normal 0.000000e+000 0.000000e+000 -1.000000e+000
		outer loop
			vertex -4.080732e+000 -2.314298e+001 0.000000e+000
			vertex -8.037473e+000 -2.208278e+001 0.000000e+000
			vertex 4.080732e+000 -2.314298e+001 0.000000e+000
		endloop
	endfacet
	facet normal -0.000000e+000 0.000000e+000 -1.000000e+000
		outer loop
			vertex 8.037473e+000 -2.208278e+001 0.000000e+000
			vertex 4.080732e+000 -2.314298e+001 0.000000e+000
			vertex -8.037473e+000 -2.208278e+001 0.000000e+000
		endloop
	endfacet
	facet normal 0.000000e+000 0.000000e+000 -1.000000e+000
		outer loop
			vertex -8.037473e+000 -2.208278e+001 0.000000e+000
			vertex -1.175000e+001 -2.035160e+001 0.000000e+000
			vertex 8.037473e+000 -2.208278e+001 0.000000e+000
		endloop
	endfacet
	facet normal -0.000000e+000 0.000000e+000 -1.000000e+000
		outer loop
			vertex 1.175000e+001 -2.035160e+001 0.000000e+000
			vertex 8.037473e+000 -2.208278e+001 0.000000e+000
			vertex -1.175000e+001 -2.035160e+001 0.000000e+000
		endloop
	endfacet
	facet normal 0.000000e+000 0.000000e+000 -1.000000e+000
		outer loop
			vertex -1.175000e+001 -2.035160e+001 0.000000e+000
			vertex -1.510551e+001 -1.800204e+001 0.000000e+000
			vertex 1.175000e+001 -2.035160e+001 0.000000e+000
		endloop
	endfacet
	facet normal -0.000000e+000 0.000000e+000 -1.000000e+000
		outer loop
			vertex 1.510551e+001 -1.800204e+001 0.000000e+000
			vertex 1.175000e+001 -2.035160e+001 0.000000e+000
			vertex -1.510551e+001 -1.800204e+001 0.000000e+000
		endloop
	endfacet
	facet normal 0.000000e+000 0.000000e+000 -1.000000e+000
		outer loop
			vertex -1.800204e+001 -1.510551e+001 0.000000e+000
			vertex -4.583855e+000 -1.611058e+001 0.000000e+000
			vertex -1.545495e+000 -1.667855e+001 0.000000e+000
		endloop
	endfacet
	facet normal 0.000000e+000 -0.000000e+000 -1.000000e+000
		outer loop
			vertex -1.545495e+000 -1.667855e+001 0.000000e+000
			vertex 1.510551e+001 -1.800204e+001 0.000000e+000
			vertex -1.510551e+001 -1.800204e+001 0.000000e+000
		endloop
	endfacet
	facet normal 0.000000e+000 0.000000e+000 -1.000000e+000
		outer loop
			vertex -1.510551e+001 -1.800204e+001 0.000000e+000
			vertex -1.800204e+001 -1.510551e+001 0.000000e+000
			vertex -1.545495e+000 -1.667855e+001 0.000000e+000
		endloop
	endfacet
	facet normal 0.000000e+000 0.000000e+000 -1.000000e+000
		outer loop
			vertex 1.510551e+001 -1.800204e+001 0.000000e+000
			vertex -1.545495e+000 -1.667855e+001 0.000000e+000
			vertex 1.545495e+000 -1.667855e+001 0.000000e+000
		endloop
	endfacet
	facet normal 0.000000e+000 0.000000e+000 -1.000000e+000
		outer loop
			vertex 1.510551e+001 -1.800204e+001 0.000000e+000
			vertex 1.545495e+000 -1.667855e+001 0.000000e+000
			vertex 4.583855e+000 -1.611058e+001 0.000000e+000
		endloop
	endfacet
	facet normal 0.000000e+000 0.000000e+000 -1.000000e+000
		outer loop
			vertex 1.800204e+001 -1.510551e+001 0.000000e+000
			vertex 1.510551e+001 -1.800204e+001 0.000000e+000
			vertex 4.583855e+000 -1.611058e+001 0.000000e+000
		endloop
	endfacet
	facet normal 0.000000e+000 -0.000000e+000 -1.000000e+000
		outer loop
			vertex -7.466117e+000 -1.499399e+001 0.000000e+000
			vertex -4.583855e+000 -1.611058e+001 0.000000e+000
			vertex -1.800204e+001 -1.510551e+001 0.000000e+000
		endloop
	endfacet
	facet normal 0.000000e+000 0.000000e+000 -1.000000e+000
		outer loop
			vertex 4.583855e+000 -1.611058e+001 0.000000e+000
			vertex 7.466117e+000 -1.499399e+001 0.000000e+000
			vertex 1.800204e+001 -1.510551e+001 0.000000e+000
		endloop
	endfacet
	facet normal 0.000000e+000 0.000000e+000 -1.000000e+000
		outer loop
			vertex -2.035160e+001 -1.175000e+001 0.000000e+000
			vertex -1.009413e+001 -1.336679e+001 0.000000e+000
			vertex -7.466117e+000 -1.499399e+001 0.000000e+000
		endloop
	endfacet
	facet normal 0.000000e+000 0.000000e+000 -1.000000e+000
		outer loop
			vertex -1.800204e+001 -1.510551e+001 0.000000e+000
			vertex -2.035160e+001 -1.175000e+001 0.000000e+000
			vertex -7.466117e+000 -1.499399e+001 0.000000e+000
		endloop
	endfacet
	facet normal 0.000000e+000 0.000000e+000 -1.000000e+000
		outer loop
			vertex 1.800204e+001 -1.510551e+001 0.000000e+000
			vertex 7.466117e+000 -1.499399e+001 0.000000e+000
			vertex 1.009413e+001 -1.336679e+001 0.000000e+000
		endloop
	endfacet
	facet normal 0.000000e+000 0.000000e+000 -1.000000e+000
		outer loop
			vertex 2.035160e+001 -1.175000e+001 0.000000e+000
			vertex 1.800204e+001 -1.510551e+001 0.000000e+000
			vertex 1.009413e+001 -1.336679e+001 0.000000e+000
		endloop
	endfacet
	facet normal 0.000000e+000 -0.000000e+000 -1.000000e+000
		outer loop
			vertex -1.237840e+001 -1.128440e+001 0.000000e+000
			vertex -1.009413e+001 -1.336679e+001 0.000000e+000
			vertex -2.035160e+001 -1.175000e+001 0.000000e+000
		endloop
	endfacet
	facet normal 0.000000e+000 0.000000e+000 -1.000000e+000
		outer loop
			vertex 1.009413e+001 -1.336679e+001 0.000000e+000
			vertex 1.237840e+001 -1.128440e+001 0.000000e+000
			vertex 2.035160e+001 -1.175000e+001 0.000000e+000
		endloop
	endfacet
	facet normal 0.000000e+000 0.000000e+000 -1.000000e+000
		outer loop
			vertex -2.208278e+001 -8.037473e+000 0.000000e+000
			vertex -1.424114e+001 -8.817739e+000 0.000000e+000
			vertex -1.237840e+001 -1.128440e+001 0.000000e+000
		endloop
	endfacet
	facet normal 0.000000e+000 0.000000e+000 -1.000000e+000
		outer loop
			vertex -2.035160e+001 -1.175000e+001 0.000000e+000
			vertex -2.208278e+001 -8.037473e+000 0.000000e+000
			vertex -1.237840e+001 -1.128440e+001 0.000000e+000
		endloop
	endfacet
	facet normal 0.000000e+000 0.000000e+000 -1.000000e+000
		outer loop
			vertex 2.035160e+001 -1.175000e+001 0.000000e+000
			vertex 1.237840e+001 -1.128440e+001 0.000000e+000
			vertex 1.424114e+001 -8.817739e+000 0.000000e+000
		endloop
	endfacet
	facet normal 0.000000e+000 0.000000e+000 -1.000000e+000
		outer loop
			vertex 2.208278e+001 -8.037473e+000 0.000000e+000
			vertex 2.035160e+001 -1.175000e+001 0.000000e+000
			vertex 1.424114e+001 -8.817739e+000 0.000000e+000
		endloop
	endfacet
	facet normal 0.000000e+000 -0.000000e+000 -1.000000e+000
		outer loop
			vertex -1.561891e+001 -6.050798e+000 0.000000e+000
			vertex -1.424114e+001 -8.817739e+000 0.000000e+000
			vertex -2.208278e+001 -8.037473e+000 0.000000e+000
		endloop
	endfacet
	facet normal 0.000000e+000 0.000000e+000 -1.000000e+000
		outer loop
			vertex 1.424114e+001 -8.817739e+000 0.000000e+000
			vertex 1.561891e+001 -6.050798e+000 0.000000e+000
			vertex 2.208278e+001 -8.037473e+000 0.000000e+000
		endloop
	endfacet
	facet normal 0.000000e+000 0.000000e+000 -1.000000e+000
		outer loop
			vertex -2.208278e+001 -8.037473e+000 0.000000e+000
			vertex -2.314298e+001 -4.080732e+000 0.000000e+000
			vertex -1.561891e+001 -6.050798e+000 0.000000e+000
		endloop
	endfacet
	facet normal 0.000000e+000 0.000000e+000 -1.000000e+000
		outer loop
			vertex 2.314298e+001 -4.080732e+000 0.000000e+000
			vertex 2.208278e+001 -8.037473e+000 0.000000e+000
			vertex 1.561891e+001 -6.050798e+000 0.000000e+000
		endloop
	endfacet
	facet normal 0.000000e+000 -0.000000e+000 -1.000000e+000
		outer loop
			vertex -1.646480e+001 -3.077804e+000 0.000000e+000
			vertex -1.561891e+001 -6.050798e+000 0.000000e+000
			vertex -2.314298e+001 -4.080732e+000 0.000000e+000
		endloop
	endfacet
	facet normal 0.000000e+000 0.000000e+000 -1.000000e+000
		outer loop
			vertex 1.561891e+001 -6.050798e+000 0.000000e+000
			vertex 1.646480e+001 -3.077804e+000 0.000000e+000
			vertex 2.314298e+001 -4.080732e+000 0.000000e+000
		endloop
	endfacet
	facet normal 0.000000e+000 0.000000e+000 -1.000000e+000
		outer loop
			vertex -2.314298e+001 -4.080732e+000 0.000000e+000
			vertex -2.350000e+001 2.877825e-015 0.000000e+000
			vertex -1.646480e+001 -3.077804e+000 0.000000e+000
		endloop
	endfacet
	facet normal -0.000000e+000 -0.000000e+000 -1.000000e+000
		outer loop
			vertex -1.675000e+001 2.051216e-015 0.000000e+000
			vertex -1.646480e+001 -3.077804e+000 0.000000e+000
			vertex -2.350000e+001 2.877825e-015 0.000000e+000
		endloop
	endfacet
	facet normal 0.000000e+000 0.000000e+000 -1.000000e+000
		outer loop
			vertex 2.314298e+001 -4.080732e+000 0.000000e+000
			vertex 1.646480e+001 -3.077804e+000 0.000000e+000
			vertex 1.675000e+001 -2.051216e-015 0.000000e+000
		endloop
	endfacet
	facet normal -0.000000e+000 0.000000e+000 -1.000000e+000
		outer loop
			vertex 2.350000e+001 -2.877825e-015 0.000000e+000
			vertex 2.314298e+001 -4.080732e+000 0.000000e+000
			vertex 1.675000e+001 -2.051216e-015 0.000000e+000
		endloop
	endfacet
	facet normal 0.000000e+000 0.000000e+000 -1.000000e+000
		outer loop
			vertex 1.675000e+001 -2.051216e-015 0.000000e+000
			vertex 1.646480e+001 3.077804e+000 0.000000e+000
			vertex 2.350000e+001 -2.877825e-015 0.000000e+000
		endloop
	endfacet
	facet normal 0.000000e+000 0.000000e+000 -1.000000e+000
		outer loop
			vertex -2.314298e+001 4.080732e+000 0.000000e+000
			vertex -1.646480e+001 3.077804e+000 0.000000e+000
			vertex -1.675000e+001 2.051216e-015 0.000000e+000
		endloop
	endfacet
	facet normal 0.000000e+000 0.000000e+000 -1.000000e+000
		outer loop
			vertex -2.350000e+001 2.877825e-015 0.000000e+000
			vertex -2.314298e+001 4.080732e+000 0.000000e+000
			vertex -1.675000e+001 2.051216e-015 0.000000e+000
		endloop
	endfacet
	facet normal 0.000000e+000 -0.000000e+000 -1.000000e+000
		outer loop
			vertex 2.314298e+001 4.080732e+000 0.000000e+000
			vertex 2.350000e+001 -2.877825e-015 0.000000e+000
			vertex 1.646480e+001 3.077804e+000 0.000000e+000
		endloop
	endfacet
	facet normal 0.000000e+000 0.000000e+000 -1.000000e+000
		outer loop
			vertex -1.561891e+001 6.050798e+000 0.000000e+000
			vertex -1.646480e+001 3.077804e+000 0.000000e+000
			vertex -2.314298e+001 4.080732e+000 0.000000e+000
		endloop
	endfacet
	facet normal 0.000000e+000 0.000000e+000 -1.000000e+000
		outer loop
			vertex 1.646480e+001 3.077804e+000 0.000000e+000
			vertex 1.561891e+001 6.050798e+000 0.000000e+000
			vertex 2.314298e+001 4.080732e+000 0.000000e+000
		endloop
	endfacet
	facet normal 0.000000e+000 0.000000e+000 -1.000000e+000
		outer loop
			vertex -2.314298e+001 4.080732e+000 0.000000e+000
			vertex -2.208278e+001 8.037473e+000 0.000000e+000
			vertex -1.561891e+001 6.050798e+000 0.000000e+000
		endloop
	endfacet
	facet normal 0.000000e+000 -0.000000e+000 -1.000000e+000
		outer loop
			vertex 2.208278e+001 8.037473e+000 0.000000e+000
			vertex 2.314298e+001 4.080732e+000 0.000000e+000
			vertex 1.561891e+001 6.050798e+000 0.000000e+000
		endloop
	endfacet
	facet normal 0.000000e+000 0.000000e+000 -1.000000e+000
		outer loop
			vertex -1.424114e+001 8.817739e+000 0.000000e+000
			vertex -1.561891e+001 6.050798e+000 0.000000e+000
			vertex -2.208278e+001 8.037473e+000 0.000000e+000
		endloop
	endfacet
	facet normal 0.000000e+000 0.000000e+000 -1.000000e+000
		outer loop
			vertex 1.561891e+001 6.050798e+000 0.000000e+000
			vertex 1.424114e+001 8.817739e+000 0.000000e+000
			vertex 2.208278e+001 8.037473e+000 0.000000e+000
		endloop
	endfacet
	facet normal 0.000000e+000 0.000000e+000 -1.000000e+000
		outer loop
			vertex -2.035160e+001 1.175000e+001 0.000000e+000
			vertex -1.237840e+001 1.128440e+001 0.000000e+000
			vertex -1.424114e+001 8.817739e+000 0.000000e+000
		endloop
	endfacet
	facet normal 0.000000e+000 0.000000e+000 -1.000000e+000
		outer loop
			vertex -2.208278e+001 8.037473e+000 0.000000e+000
			vertex -2.035160e+001 1.175000e+001 0.000000e+000
			vertex -1.424114e+001 8.817739e+000 0.000000e+000
		endloop
	endfacet
	facet normal 0.000000e+000 0.000000e+000 -1.000000e+000
		outer loop
			vertex 2.208278e+001 8.037473e+000 0.000000e+000
			vertex 1.424114e+001 8.817739e+000 0.000000e+000
			vertex 1.237840e+001 1.128440e+001 0.000000e+000
		endloop
	endfacet
	facet normal 0.000000e+000 -0.000000e+000 -1.000000e+000
		outer loop
			vertex 2.035160e+001 1.175000e+001 0.000000e+000
			vertex 2.208278e+001 8.037473e+000 0.000000e+000
			vertex 1.237840e+001 1.128440e+001 0.000000e+000
		endloop
	endfacet
	facet normal 0.000000e+000 0.000000e+000 -1.000000e+000
		outer loop
			vertex -1.009413e+001 1.336679e+001 0.000000e+000
			vertex -1.237840e+001 1.128440e+001 0.000000e+000
			vertex -2.035160e+001 1.175000e+001 0.000000e+000
		endloop
	endfacet
	facet normal 0.000000e+000 0.000000e+000 -1.000000e+000
		outer loop
			vertex 1.237840e+001 1.128440e+001 0.000000e+000
			vertex 1.009413e+001 1.336679e+001 0.000000e+000
			vertex 2.035160e+001 1.175000e+001 0.000000e+000
		endloop
	endfacet
	facet normal 0.000000e+000 0.000000e+000 -1.000000e+000
		outer loop
			vertex -1.800204e+001 1.510551e+001 0.000000e+000
			vertex -7.466117e+000 1.499399e+001 0.000000e+000
			vertex -1.009413e+001 1.336679e+001 0.000000e+000
		endloop
	endfacet
	facet normal 0.000000e+000 0.000000e+000 -1.000000e+000
		outer loop
			vertex -2.035160e+001 1.175000e+001 0.000000e+000
			vertex -1.800204e+001 1.510551e+001 0.000000e+000
			vertex -1.009413e+001 1.336679e+001 0.000000e+000
		endloop
	endfacet
	facet normal 0.000000e+000 0.000000e+000 -1.000000e+000
		outer loop
			vertex 2.035160e+001 1.175000e+001 0.000000e+000
			vertex 1.009413e+001 1.336679e+001 0.000000e+000
			vertex 7.466117e+000 1.499399e+001 0.000000e+000
		endloop
	endfacet
	facet normal 0.000000e+000 -0.000000e+000 -1.000000e+000
		outer loop
			vertex 1.800204e+001 1.510551e+001 0.000000e+000
			vertex 2.035160e+001 1.175000e+001 0.000000e+000
			vertex 7.466117e+000 1.499399e+001 0.000000e+000
		endloop
	endfacet
	facet normal 0.000000e+000 0.000000e+000 -1.000000e+000
		outer loop
			vertex -4.583855e+000 1.611058e+001 0.000000e+000
			vertex -7.466117e+000 1.499399e+001 0.000000e+000
			vertex -1.800204e+001 1.510551e+001 0.000000e+000
		endloop
	endfacet
	facet normal 0.000000e+000 0.000000e+000 -1.000000e+000
		outer loop
			vertex 7.466117e+000 1.499399e+001 0.000000e+000
			vertex 4.583855e+000 1.611058e+001 0.000000e+000
			vertex 1.800204e+001 1.510551e+001 0.000000e+000
		endloop
	endfacet
	facet normal 0.000000e+000 0.000000e+000 -1.000000e+000
		outer loop
			vertex -1.510551e+001 1.800204e+001 0.000000e+000
			vertex 1.545495e+000 1.667855e+001 0.000000e+000
			vertex -1.545495e+000 1.667855e+001 0.000000e+000
		endloop
	endfacet
	facet normal 0.000000e+000 0.000000e+000 -1.000000e+000
		outer loop
			vertex -1.510551e+001 1.800204e+001 0.000000e+000
			vertex -1.545495e+000 1.667855e+001 0.000000e+000
			vertex -4.583855e+000 1.611058e+001 0.000000e+000
		endloop
	endfacet
	facet normal 0.000000e+000 0.000000e+000 -1.000000e+000
		outer loop
			vertex -1.800204e+001 1.510551e+001 0.000000e+000
			vertex -1.510551e+001 1.800204e+001 0.000000e+000
			vertex -4.583855e+000 1.611058e+001 0.000000e+000
		endloop
	endfacet
	facet normal 0.000000e+000 0.000000e+000 -1.000000e+000
		outer loop
			vertex 1.800204e+001 1.510551e+001 0.000000e+000
			vertex 4.583855e+000 1.611058e+001 0.000000e+000
			vertex 1.545495e+000 1.667855e+001 0.000000e+000
		endloop
	endfacet
	facet normal 0.000000e+000 0.000000e+000 -1.000000e+000
		outer loop
			vertex 1.545495e+000 1.667855e+001 0.000000e+000
			vertex -1.510551e+001 1.800204e+001 0.000000e+000
			vertex 1.510551e+001 1.800204e+001 0.000000e+000
		endloop
	endfacet
	facet normal 0.000000e+000 -0.000000e+000 -1.000000e+000
		outer loop
			vertex 1.510551e+001 1.800204e+001 0.000000e+000
			vertex 1.800204e+001 1.510551e+001 0.000000e+000
			vertex 1.545495e+000 1.667855e+001 0.000000e+000
		endloop
	endfacet
	facet normal 0.000000e+000 0.000000e+000 -1.000000e+000
		outer loop
			vertex -1.510551e+001 1.800204e+001 0.000000e+000
			vertex -1.175000e+001 2.035160e+001 0.000000e+000
			vertex 1.510551e+001 1.800204e+001 0.000000e+000
		endloop
	endfacet
	facet normal -0.000000e+000 -0.000000e+000 -1.000000e+000
		outer loop
			vertex 1.175000e+001 2.035160e+001 0.000000e+000
			vertex 1.510551e+001 1.800204e+001 0.000000e+000
			vertex -1.175000e+001 2.035160e+001 0.000000e+000
		endloop
	endfacet
	facet normal 0.000000e+000 0.000000e+000 -1.000000e+000
		outer loop
			vertex -1.175000e+001 2.035160e+001 0.000000e+000
			vertex -8.037473e+000 2.208278e+001 0.000000e+000
			vertex 1.175000e+001 2.035160e+001 0.000000e+000
		endloop
	endfacet
	facet normal -0.000000e+000 -0.000000e+000 -1.000000e+000
		outer loop
			vertex 8.037473e+000 2.208278e+001 0.000000e+000
			vertex 1.175000e+001 2.035160e+001 0.000000e+000
			vertex -8.037473e+000 2.208278e+001 0.000000e+000
		endloop
	endfacet
	facet normal 0.000000e+000 0.000000e+000 -1.000000e+000
		outer loop
			vertex -8.037473e+000 2.208278e+001 0.000000e+000
			vertex -4.080732e+000 2.314298e+001 0.000000e+000
			vertex 8.037473e+000 2.208278e+001 0.000000e+000
		endloop
	endfacet
	facet normal -0.000000e+000 -0.000000e+000 -1.000000e+000
		outer loop
			vertex 4.080732e+000 2.314298e+001 0.000000e+000
			vertex 8.037473e+000 2.208278e+001 0.000000e+000
			vertex -4.080732e+000 2.314298e+001 0.000000e+000
		endloop
	endfacet
	facet normal 0.000000e+000 0.000000e+000 -1.000000e+000
		outer loop
			vertex -4.080732e+000 2.314298e+001 0.000000e+000
			vertex 1.438912e-015 2.350000e+001 0.000000e+000
			vertex 4.080732e+000 2.314298e+001 0.000000e+000
		endloop
	endfacet
	facet normal 0.000000e+000 0.000000e+000 1.000000e+000
		outer loop
			vertex 4.080732e+000 2.314298e+001 5.000000e+000
			vertex 1.438912e-015 2.350000e+001 5.000000e+000
			vertex -4.080732e+000 2.314298e+001 5.000000e+000
		endloop
	endfacet
	facet normal -0.000000e+000 0.000000e+000 1.000000e+000
		outer loop
			vertex -4.080732e+000 2.314298e+001 5.000000e+000
			vertex -8.037473e+000 2.208278e+001 5.000000e+000
			vertex 4.080732e+000 2.314298e+001 5.000000e+000
		endloop
	endfacet
	facet normal 0.000000e+000 0.000000e+000 1.000000e+000
		outer loop
			vertex 8.037473e+000 2.208278e+001 5.000000e+000
			vertex 4.080732e+000 2.314298e+001 5.000000e+000
			vertex -8.037473e+000 2.208278e+001 5.000000e+000
		endloop
	endfacet
	facet normal -0.000000e+000 0.000000e+000 1.000000e+000
		outer loop
			vertex -8.037473e+000 2.208278e+001 5.000000e+000
			vertex -1.175000e+001 2.035160e+001 5.000000e+000
			vertex 8.037473e+000 2.208278e+001 5.000000e+000
		endloop
	endfacet
	facet normal 0.000000e+000 0.000000e+000 1.000000e+000
		outer loop
			vertex 1.175000e+001 2.035160e+001 5.000000e+000
			vertex 8.037473e+000 2.208278e+001 5.000000e+000
			vertex -1.175000e+001 2.035160e+001 5.000000e+000
		endloop
	endfacet
	facet normal -0.000000e+000 0.000000e+000 1.000000e+000
		outer loop
			vertex -1.175000e+001 2.035160e+001 5.000000e+000
			vertex -1.510551e+001 1.800204e+001 5.000000e+000
			vertex 1.175000e+001 2.035160e+001 5.000000e+000
		endloop
	endfacet
	facet normal 0.000000e+000 0.000000e+000 1.000000e+000
		outer loop
			vertex 1.510551e+001 1.800204e+001 5.000000e+000
			vertex 1.175000e+001 2.035160e+001 5.000000e+000
			vertex -1.510551e+001 1.800204e+001 5.000000e+000
		endloop
	endfacet
	facet normal 0.000000e+000 0.000000e+000 1.000000e+000
		outer loop
			vertex -1.800204e+001 1.510551e+001 5.000000e+000
			vertex -4.583855e+000 1.611058e+001 5.000000e+000
			vertex -1.545495e+000 1.667855e+001 5.000000e+000
		endloop
	endfacet
	facet normal 0.000000e+000 -0.000000e+000 1.000000e+000
		outer loop
			vertex -1.545495e+000 1.667855e+001 5.000000e+000
			vertex 1.510551e+001 1.800204e+001 5.000000e+000
			vertex -1.510551e+001 1.800204e+001 5.000000e+000
		endloop
	endfacet
	facet normal 0.000000e+000 0.000000e+000 1.000000e+000
		outer loop
			vertex -1.510551e+001 1.800204e+001 5.000000e+000
			vertex -1.800204e+001 1.510551e+001 5.000000e+000
			vertex -1.545495e+000 1.667855e+001 5.000000e+000
		endloop
	endfacet
	facet normal 0.000000e+000 0.000000e+000 1.000000e+000
		outer loop
			vertex 1.510551e+001 1.800204e+001 5.000000e+000
			vertex -1.545495e+000 1.667855e+001 5.000000e+000
			vertex 1.545495e+000 1.667855e+001 5.000000e+000
		endloop
	endfacet
	facet normal 0.000000e+000 0.000000e+000 1.000000e+000
		outer loop
			vertex 1.510551e+001 1.800204e+001 5.000000e+000
			vertex 1.545495e+000 1.667855e+001 5.000000e+000
			vertex 4.583855e+000 1.611058e+001 5.000000e+000
		endloop
	endfacet
	facet normal 0.000000e+000 0.000000e+000 1.000000e+000
		outer loop
			vertex 1.800204e+001 1.510551e+001 5.000000e+000
			vertex 1.510551e+001 1.800204e+001 5.000000e+000
			vertex 4.583855e+000 1.611058e+001 5.000000e+000
		endloop
	endfacet
	facet normal 0.000000e+000 -0.000000e+000 1.000000e+000
		outer loop
			vertex -7.466117e+000 1.499399e+001 5.000000e+000
			vertex -4.583855e+000 1.611058e+001 5.000000e+000
			vertex -1.800204e+001 1.510551e+001 5.000000e+000
		endloop
	endfacet
	facet normal 0.000000e+000 0.000000e+000 1.000000e+000
		outer loop
			vertex 4.583855e+000 1.611058e+001 5.000000e+000
			vertex 7.466117e+000 1.499399e+001 5.000000e+000
			vertex 1.800204e+001 1.510551e+001 5.000000e+000
		endloop
	endfacet
	facet normal 0.000000e+000 0.000000e+000 1.000000e+000
		outer loop
			vertex -2.035160e+001 1.175000e+001 5.000000e+000
			vertex -1.009413e+001 1.336679e+001 5.000000e+000
			vertex -7.466117e+000 1.499399e+001 5.000000e+000
		endloop
	endfacet
	facet normal 0.000000e+000 0.000000e+000 1.000000e+000
		outer loop
			vertex -1.800204e+001 1.510551e+001 5.000000e+000
			vertex -2.035160e+001 1.175000e+001 5.000000e+000
			vertex -7.466117e+000 1.499399e+001 5.000000e+000
		endloop
	endfacet
	facet normal 0.000000e+000 0.000000e+000 1.000000e+000
		outer loop
			vertex 1.800204e+001 1.510551e+001 5.000000e+000
			vertex 7.466117e+000 1.499399e+001 5.000000e+000
			vertex 1.009413e+001 1.336679e+001 5.000000e+000
		endloop
	endfacet
	facet normal 0.000000e+000 0.000000e+000 1.000000e+000
		outer loop
			vertex 2.035160e+001 1.175000e+001 5.000000e+000
			vertex 1.800204e+001 1.510551e+001 5.000000e+000
			vertex 1.009413e+001 1.336679e+001 5.000000e+000
		endloop
	endfacet
	facet normal 0.000000e+000 -0.000000e+000 1.000000e+000
		outer loop
			vertex -1.237840e+001 1.128440e+001 5.000000e+000
			vertex -1.009413e+001 1.336679e+001 5.000000e+000
			vertex -2.035160e+001 1.175000e+001 5.000000e+000
		endloop
	endfacet
	facet normal 0.000000e+000 0.000000e+000 1.000000e+000
		outer loop
			vertex 1.009413e+001 1.336679e+001 5.000000e+000
			vertex 1.237840e+001 1.128440e+001 5.000000e+000
			vertex 2.035160e+001 1.175000e+001 5.000000e+000
		endloop
	endfacet
	facet normal 0.000000e+000 0.000000e+000 1.000000e+000
		outer loop
			vertex -2.208278e+001 8.037473e+000 5.000000e+000
			vertex -1.424114e+001 8.817739e+000 5.000000e+000
			vertex -1.237840e+001 1.128440e+001 5.000000e+000
		endloop
	endfacet
	facet normal 0.000000e+000 0.000000e+000 1.000000e+000
		outer loop
			vertex -2.035160e+001 1.175000e+001 5.000000e+000
			vertex -2.208278e+001 8.037473e+000 5.000000e+000
			vertex -1.237840e+001 1.128440e+001 5.000000e+000
		endloop
	endfacet
	facet normal 0.000000e+000 0.000000e+000 1.000000e+000
		outer loop
			vertex 2.035160e+001 1.175000e+001 5.000000e+000
			vertex 1.237840e+001 1.128440e+001 5.000000e+000
			vertex 1.424114e+001 8.817739e+000 5.000000e+000
		endloop
	endfacet
	facet normal 0.000000e+000 0.000000e+000 1.000000e+000
		outer loop
			vertex 2.208278e+001 8.037473e+000 5.000000e+000
			vertex 2.035160e+001 1.175000e+001 5.000000e+000
			vertex 1.424114e+001 8.817739e+000 5.000000e+000
		endloop
	endfacet
	facet normal 0.000000e+000 -0.000000e+000 1.000000e+000
		outer loop
			vertex -1.561891e+001 6.050798e+000 5.000000e+000
			vertex -1.424114e+001 8.817739e+000 5.000000e+000
			vertex -2.208278e+001 8.037473e+000 5.000000e+000
		endloop
	endfacet
	facet normal 0.000000e+000 0.000000e+000 1.000000e+000
		outer loop
			vertex 1.424114e+001 8.817739e+000 5.000000e+000
			vertex 1.561891e+001 6.050798e+000 5.000000e+000
			vertex 2.208278e+001 8.037473e+000 5.000000e+000
		endloop
	endfacet
	facet normal 0.000000e+000 0.000000e+000 1.000000e+000
		outer loop
			vertex -2.208278e+001 8.037473e+000 5.000000e+000
			vertex -2.314298e+001 4.080732e+000 5.000000e+000
			vertex -1.561891e+001 6.050798e+000 5.000000e+000
		endloop
	endfacet
	facet normal 0.000000e+000 0.000000e+000 1.000000e+000
		outer loop
			vertex 2.314298e+001 4.080732e+000 5.000000e+000
			vertex 2.208278e+001 8.037473e+000 5.000000e+000
			vertex 1.561891e+001 6.050798e+000 5.000000e+000
		endloop
	endfacet
	facet normal 0.000000e+000 -0.000000e+000 1.000000e+000
		outer loop
			vertex -1.646480e+001 3.077804e+000 5.000000e+000
			vertex -1.561891e+001 6.050798e+000 5.000000e+000
			vertex -2.314298e+001 4.080732e+000 5.000000e+000
		endloop
	endfacet
	facet normal 0.000000e+000 0.000000e+000 1.000000e+000
		outer loop
			vertex 1.561891e+001 6.050798e+000 5.000000e+000
			vertex 1.646480e+001 3.077804e+000 5.000000e+000
			vertex 2.314298e+001 4.080732e+000 5.000000e+000
		endloop
	endfacet
	facet normal 0.000000e+000 0.000000e+000 1.000000e+000
		outer loop
			vertex -2.314298e+001 4.080732e+000 5.000000e+000
			vertex -2.350000e+001 2.877825e-015 5.000000e+000
			vertex -1.646480e+001 3.077804e+000 5.000000e+000
		endloop
	endfacet
	facet normal 0.000000e+000 -0.000000e+000 1.000000e+000
		outer loop
			vertex -1.675000e+001 2.051216e-015 5.000000e+000
			vertex -1.646480e+001 3.077804e+000 5.000000e+000
			vertex -2.350000e+001 2.877825e-015 5.000000e+000
		endloop
	endfacet
	facet normal 0.000000e+000 0.000000e+000 1.000000e+000
		outer loop
			vertex 2.314298e+001 4.080732e+000 5.000000e+000
			vertex 1.646480e+001 3.077804e+000 5.000000e+000
			vertex 1.675000e+001 -2.051216e-015 5.000000e+000
		endloop
	endfacet
	facet normal 0.000000e+000 0.000000e+000 1.000000e+000
		outer loop
			vertex 2.350000e+001 -2.877825e-015 5.000000e+000
			vertex 2.314298e+001 4.080732e+000 5.000000e+000
			vertex 1.675000e+001 -2.051216e-015 5.000000e+000
		endloop
	endfacet
	facet normal 0.000000e+000 0.000000e+000 1.000000e+000
		outer loop
			vertex 1.675000e+001 -2.051216e-015 5.000000e+000
			vertex 1.646480e+001 -3.077804e+000 5.000000e+000
			vertex 2.350000e+001 -2.877825e-015 5.000000e+000
		endloop
	endfacet
	facet normal 0.000000e+000 0.000000e+000 1.000000e+000
		outer loop
			vertex -2.314298e+001 -4.080732e+000 5.000000e+000
			vertex -1.646480e+001 -3.077804e+000 5.000000e+000
			vertex -1.675000e+001 2.051216e-015 5.000000e+000
		endloop
	endfacet
	facet normal 0.000000e+000 0.000000e+000 1.000000e+000
		outer loop
			vertex -2.350000e+001 2.877825e-015 5.000000e+000
			vertex -2.314298e+001 -4.080732e+000 5.000000e+000
			vertex -1.675000e+001 2.051216e-015 5.000000e+000
		endloop
	endfacet
	facet normal 0.000000e+000 -0.000000e+000 1.000000e+000
		outer loop
			vertex 2.314298e+001 -4.080732e+000 5.000000e+000
			vertex 2.350000e+001 -2.877825e-015 5.000000e+000
			vertex 1.646480e+001 -3.077804e+000 5.000000e+000
		endloop
	endfacet
	facet normal 0.000000e+000 0.000000e+000 1.000000e+000
		outer loop
			vertex -1.561891e+001 -6.050798e+000 5.000000e+000
			vertex -1.646480e+001 -3.077804e+000 5.000000e+000
			vertex -2.314298e+001 -4.080732e+000 5.000000e+000
		endloop
	endfacet
	facet normal 0.000000e+000 0.000000e+000 1.000000e+000
		outer loop
			vertex 1.646480e+001 -3.077804e+000 5.000000e+000
			vertex 1.561891e+001 -6.050798e+000 5.000000e+000
			vertex 2.314298e+001 -4.080732e+000 5.000000e+000
		endloop
	endfacet
	facet normal 0.000000e+000 0.000000e+000 1.000000e+000
		outer loop
			vertex -2.314298e+001 -4.080732e+000 5.000000e+000
			vertex -2.208278e+001 -8.037473e+000 5.000000e+000
			vertex -1.561891e+001 -6.050798e+000 5.000000e+000
		endloop
	endfacet
	facet normal 0.000000e+000 -0.000000e+000 1.000000e+000
		outer loop
			vertex 2.208278e+001 -8.037473e+000 5.000000e+000
			vertex 2.314298e+001 -4.080732e+000 5.000000e+000
			vertex 1.561891e+001 -6.050798e+000 5.000000e+000
		endloop
	endfacet
	facet normal 0.000000e+000 0.000000e+000 1.000000e+000
		outer loop
			vertex -1.424114e+001 -8.817739e+000 5.000000e+000
			vertex -1.561891e+001 -6.050798e+000 5.000000e+000
			vertex -2.208278e+001 -8.037473e+000 5.000000e+000
		endloop
	endfacet
	facet normal 0.000000e+000 0.000000e+000 1.000000e+000
		outer loop
			vertex 1.561891e+001 -6.050798e+000 5.000000e+000
			vertex 1.424114e+001 -8.817739e+000 5.000000e+000
			vertex 2.208278e+001 -8.037473e+000 5.000000e+000
		endloop
	endfacet
	facet normal 0.000000e+000 0.000000e+000 1.000000e+000
		outer loop
			vertex -2.035160e+001 -1.175000e+001 5.000000e+000
			vertex -1.237840e+001 -1.128440e+001 5.000000e+000
			vertex -1.424114e+001 -8.817739e+000 5.000000e+000
		endloop
	endfacet
	facet normal 0.000000e+000 0.000000e+000 1.000000e+000
		outer loop
			vertex -2.208278e+001 -8.037473e+000 5.000000e+000
			vertex -2.035160e+001 -1.175000e+001 5.000000e+000
			vertex -1.424114e+001 -8.817739e+000 5.000000e+000
		endloop
	endfacet
	facet normal 0.000000e+000 0.000000e+000 1.000000e+000
		outer loop
			vertex 2.208278e+001 -8.037473e+000 5.000000e+000
			vertex 1.424114e+001 -8.817739e+000 5.000000e+000
			vertex 1.237840e+001 -1.128440e+001 5.000000e+000
		endloop
	endfacet
	facet normal 0.000000e+000 -0.000000e+000 1.000000e+000
		outer loop
			vertex 2.035160e+001 -1.175000e+001 5.000000e+000
			vertex 2.208278e+001 -8.037473e+000 5.000000e+000
			vertex 1.237840e+001 -1.128440e+001 5.000000e+000
		endloop
	endfacet
	facet normal 0.000000e+000 0.000000e+000 1.000000e+000
		outer loop
			vertex -1.009413e+001 -1.336679e+001 5.000000e+000
			vertex -1.237840e+001 -1.128440e+001 5.000000e+000
			vertex -2.035160e+001 -1.175000e+001 5.000000e+000
		endloop
	endfacet
	facet normal 0.000000e+000 0.000000e+000 1.000000e+000
		outer loop
			vertex 1.237840e+001 -1.128440e+001 5.000000e+000
			vertex 1.009413e+001 -1.336679e+001 5.000000e+000
			vertex 2.035160e+001 -1.175000e+001 5.000000e+000
		endloop
	endfacet
	facet normal 0.000000e+000 0.000000e+000 1.000000e+000
		outer loop
			vertex -1.800204e+001 -1.510551e+001 5.000000e+000
			vertex -7.466117e+000 -1.499399e+001 5.000000e+000
			vertex -1.009413e+001 -1.336679e+001 5.000000e+000
		endloop
	endfacet
	facet normal 0.000000e+000 0.000000e+000 1.000000e+000
		outer loop
			vertex -2.035160e+001 -1.175000e+001 5.000000e+000
			vertex -1.800204e+001 -1.510551e+001 5.000000e+000
			vertex -1.009413e+001 -1.336679e+001 5.000000e+000
		endloop
	endfacet
	facet normal 0.000000e+000 0.000000e+000 1.000000e+000
		outer loop
			vertex 2.035160e+001 -1.175000e+001 5.000000e+000
			vertex 1.009413e+001 -1.336679e+001 5.000000e+000
			vertex 7.466117e+000 -1.499399e+001 5.000000e+000
		endloop
	endfacet
	facet normal 0.000000e+000 -0.000000e+000 1.000000e+000
		outer loop
			vertex 1.800204e+001 -1.510551e+001 5.000000e+000
			vertex 2.035160e+001 -1.175000e+001 5.000000e+000
			vertex 7.466117e+000 -1.499399e+001 5.000000e+000
		endloop
	endfacet
	facet normal 0.000000e+000 0.000000e+000 1.000000e+000
		outer loop
			vertex -4.583855e+000 -1.611058e+001 5.000000e+000
			vertex -7.466117e+000 -1.499399e+001 5.000000e+000
			vertex -1.800204e+001 -1.510551e+001 5.000000e+000
		endloop
	endfacet
	facet normal 0.000000e+000 0.000000e+000 1.000000e+000
		outer loop
			vertex 7.466117e+000 -1.499399e+001 5.000000e+000
			vertex 4.583855e+000 -1.611058e+001 5.000000e+000
			vertex 1.800204e+001 -1.510551e+001 5.000000e+000
		endloop
	endfacet
	facet normal 0.000000e+000 0.000000e+000 1.000000e+000
		outer loop
			vertex -1.510551e+001 -1.800204e+001 5.000000e+000
			vertex 1.545495e+000 -1.667855e+001 5.000000e+000
			vertex -1.545495e+000 -1.667855e+001 5.000000e+000
		endloop
	endfacet
	facet normal 0.000000e+000 0.000000e+000 1.000000e+000
		outer loop
			vertex -1.510551e+001 -1.800204e+001 5.000000e+000
			vertex -1.545495e+000 -1.667855e+001 5.000000e+000
			vertex -4.583855e+000 -1.611058e+001 5.000000e+000
		endloop
	endfacet
	facet normal 0.000000e+000 0.000000e+000 1.000000e+000
		outer loop
			vertex -1.800204e+001 -1.510551e+001 5.000000e+000
			vertex -1.510551e+001 -1.800204e+001 5.000000e+000
			vertex -4.583855e+000 -1.611058e+001 5.000000e+000
		endloop
	endfacet
	facet normal 0.000000e+000 0.000000e+000 1.000000e+000
		outer loop
			vertex 1.800204e+001 -1.510551e+001 5.000000e+000
			vertex 4.583855e+000 -1.611058e+001 5.000000e+000
			vertex 1.545495e+000 -1.667855e+001 5.000000e+000
		endloop
	endfacet
	facet normal 0.000000e+000 0.000000e+000 1.000000e+000
		outer loop
			vertex 1.545495e+000 -1.667855e+001 5.000000e+000
			vertex -1.510551e+001 -1.800204e+001 5.000000e+000
			vertex 1.510551e+001 -1.800204e+001 5.000000e+000
		endloop
	endfacet
	facet normal 0.000000e+000 -0.000000e+000 1.000000e+000
		outer loop
			vertex 1.510551e+001 -1.800204e+001 5.000000e+000
			vertex 1.800204e+001 -1.510551e+001 5.000000e+000
			vertex 1.545495e+000 -1.667855e+001 5.000000e+000
		endloop
	endfacet
	facet normal -0.000000e+000 0.000000e+000 1.000000e+000
		outer loop
			vertex -1.510551e+001 -1.800204e+001 5.000000e+000
			vertex -1.175000e+001 -2.035160e+001 5.000000e+000
			vertex 1.510551e+001 -1.800204e+001 5.000000e+000
		endloop
	endfacet
	facet normal 0.000000e+000 -0.000000e+000 1.000000e+000
		outer loop
			vertex 1.175000e+001 -2.035160e+001 5.000000e+000
			vertex 1.510551e+001 -1.800204e+001 5.000000e+000
			vertex -1.175000e+001 -2.035160e+001 5.000000e+000
		endloop
	endfacet
	facet normal -0.000000e+000 0.000000e+000 1.000000e+000
		outer loop
			vertex -1.175000e+001 -2.035160e+001 5.000000e+000
			vertex -8.037473e+000 -2.208278e+001 5.000000e+000
			vertex 1.175000e+001 -2.035160e+001 5.000000e+000
		endloop
	endfacet
	facet normal 0.000000e+000 -0.000000e+000 1.000000e+000
		outer loop
			vertex 8.037473e+000 -2.208278e+001 5.000000e+000
			vertex 1.175000e+001 -2.035160e+001 5.000000e+000
			vertex -8.037473e+000 -2.208278e+001 5.000000e+000
		endloop
	endfacet
	facet normal -0.000000e+000 0.000000e+000 1.000000e+000
		outer loop
			vertex -8.037473e+000 -2.208278e+001 5.000000e+000
			vertex -4.080732e+000 -2.314298e+001 5.000000e+000
			vertex 8.037473e+000 -2.208278e+001 5.000000e+000
		endloop
	endfacet
	facet normal 0.000000e+000 -0.000000e+000 1.000000e+000
		outer loop
			vertex 4.080732e+000 -2.314298e+001 5.000000e+000
			vertex 8.037473e+000 -2.208278e+001 5.000000e+000
			vertex -4.080732e+000 -2.314298e+001 5.000000e+000
		endloop
	endfacet
	facet normal -0.000000e+000 0.000000e+000 1.000000e+000
		outer loop
			vertex -4.080732e+000 -2.314298e+001 5.000000e+000
			vertex -4.316738e-015 -2.350000e+001 5.000000e+000
			vertex 4.080732e+000 -2.314298e+001 5.000000e+000
		endloop
	endfacet
	facet normal -9.961947e-001 8.715553e-002 0.000000e+000
		outer loop
			vertex -2.350000e+001 2.877825e-015 5.000000e+000
			vertex -2.314298e+001 4.080732e+000 5.000000e+000
			vertex -2.350000e+001 2.877825e-015 0.000000e+000
		endloop
	endfacet
	facet normal -9.961947e-001 8.715553e-002 0.000000e+000
		outer loop
			vertex -2.314298e+001 4.080732e+000 0.000000e+000
			vertex -2.350000e+001 2.877825e-015 0.000000e+000
			vertex -2.314298e+001 4.080732e+000 5.000000e+000
		endloop
	endfacet
	facet normal -9.659258e-001 2.588193e-001 0.000000e+000
		outer loop
			vertex -2.314298e+001 4.080732e+000 5.000000e+000
			vertex -2.208278e+001 8.037473e+000 5.000000e+000
			vertex -2.314298e+001 4.080732e+000 0.000000e+000
		endloop
	endfacet
	facet normal -9.659258e-001 2.588193e-001 0.000000e+000
		outer loop
			vertex -2.208278e+001 8.037473e+000 0.000000e+000
			vertex -2.314298e+001 4.080732e+000 0.000000e+000
			vertex -2.208278e+001 8.037473e+000 5.000000e+000
		endloop
	endfacet
	facet normal -9.063078e-001 4.226183e-001 0.000000e+000
		outer loop
			vertex -2.208278e+001 8.037473e+000 5.000000e+000
			vertex -2.035160e+001 1.175000e+001 5.000000e+000
			vertex -2.208278e+001 8.037473e+000 0.000000e+000
		endloop
	endfacet
	facet normal -9.063078e-001 4.226183e-001 0.000000e+000
		outer loop
			vertex -2.035160e+001 1.175000e+001 0.000000e+000
			vertex -2.208278e+001 8.037473e+000 0.000000e+000
			vertex -2.035160e+001 1.175000e+001 5.000000e+000
		endloop
	endfacet
	facet normal -8.191522e-001 5.735762e-001 0.000000e+000
		outer loop
			vertex -2.035160e+001 1.175000e+001 5.000000e+000
			vertex -1.800204e+001 1.510551e+001 5.000000e+000
			vertex -2.035160e+001 1.175000e+001 0.000000e+000
		endloop
	endfacet
	facet normal -8.191522e-001 5.735762e-001 0.000000e+000
		outer loop
			vertex -1.800204e+001 1.510551e+001 0.000000e+000
			vertex -2.035160e+001 1.175000e+001 0.000000e+000
			vertex -1.800204e+001 1.510551e+001 5.000000e+000
		endloop
	endfacet
	facet normal -7.071068e-001 7.071068e-001 0.000000e+000
		outer loop
			vertex -1.800204e+001 1.510551e+001 5.000000e+000
			vertex -1.510551e+001 1.800204e+001 5.000000e+000
			vertex -1.800204e+001 1.510551e+001 0.000000e+000
		endloop
	endfacet
	facet normal -7.071068e-001 7.071068e-001 0.000000e+000
		outer loop
			vertex -1.510551e+001 1.800204e+001 0.000000e+000
			vertex -1.800204e+001 1.510551e+001 0.000000e+000
			vertex -1.510551e+001 1.800204e+001 5.000000e+000
		endloop
	endfacet
	facet normal -5.735762e-001 8.191522e-001 0.000000e+000
		outer loop
			vertex -1.510551e+001 1.800204e+001 5.000000e+000
			vertex -1.175000e+001 2.035160e+001 5.000000e+000
			vertex -1.510551e+001 1.800204e+001 0.000000e+000
		endloop
	endfacet
	facet normal -5.735762e-001 8.191522e-001 0.000000e+000
		outer loop
			vertex -1.175000e+001 2.035160e+001 0.000000e+000
			vertex -1.510551e+001 1.800204e+001 0.000000e+000
			vertex -1.175000e+001 2.035160e+001 5.000000e+000
		endloop
	endfacet
	facet normal -4.226183e-001 9.063078e-001 0.000000e+000
		outer loop
			vertex -1.175000e+001 2.035160e+001 5.000000e+000
			vertex -8.037473e+000 2.208278e+001 5.000000e+000
			vertex -1.175000e+001 2.035160e+001 0.000000e+000
		endloop
	endfacet
	facet normal -4.226183e-001 9.063078e-001 0.000000e+000
		outer loop
			vertex -8.037473e+000 2.208278e+001 0.000000e+000
			vertex -1.175000e+001 2.035160e+001 0.000000e+000
			vertex -8.037473e+000 2.208278e+001 5.000000e+000
		endloop
	endfacet
	facet normal -2.588193e-001 9.659258e-001 0.000000e+000
		outer loop
			vertex -8.037473e+000 2.208278e+001 5.000000e+000
			vertex -4.080732e+000 2.314298e+001 5.000000e+000
			vertex -8.037473e+000 2.208278e+001 0.000000e+000
		endloop
	endfacet
	facet normal -2.588193e-001 9.659258e-001 0.000000e+000
		outer loop
			vertex -4.080732e+000 2.314298e+001 0.000000e+000
			vertex -8.037473e+000 2.208278e+001 0.000000e+000
			vertex -4.080732e+000 2.314298e+001 5.000000e+000
		endloop
	endfacet
	facet normal -8.715553e-002 9.961947e-001 0.000000e+000
		outer loop
			vertex -4.080732e+000 2.314298e+001 5.000000e+000
			vertex 1.438912e-015 2.350000e+001 5.000000e+000
			vertex -4.080732e+000 2.314298e+001 0.000000e+000
		endloop
	endfacet
	facet normal -8.715553e-002 9.961947e-001 0.000000e+000
		outer loop
			vertex 1.438912e-015 2.350000e+001 0.000000e+000
			vertex -4.080732e+000 2.314298e+001 0.000000e+000
			vertex 1.438912e-015 2.350000e+001 5.000000e+000
		endloop
	endfacet
	facet normal 8.715553e-002 9.961947e-001 0.000000e+000
		outer loop
			vertex 1.438912e-015 2.350000e+001 5.000000e+000
			vertex 4.080732e+000 2.314298e+001 5.000000e+000
			vertex 1.438912e-015 2.350000e+001 0.000000e+000
		endloop
	endfacet
	facet normal 8.715553e-002 9.961947e-001 -0.000000e+000
		outer loop
			vertex 4.080732e+000 2.314298e+001 0.000000e+000
			vertex 1.438912e-015 2.350000e+001 0.000000e+000
			vertex 4.080732e+000 2.314298e+001 5.000000e+000
		endloop
	endfacet
	facet normal 2.588193e-001 9.659258e-001 0.000000e+000
		outer loop
			vertex 4.080732e+000 2.314298e+001 5.000000e+000
			vertex 8.037473e+000 2.208278e+001 5.000000e+000
			vertex 4.080732e+000 2.314298e+001 0.000000e+000
		endloop
	endfacet
	facet normal 2.588193e-001 9.659258e-001 -0.000000e+000
		outer loop
			vertex 8.037473e+000 2.208278e+001 0.000000e+000
			vertex 4.080732e+000 2.314298e+001 0.000000e+000
			vertex 8.037473e+000 2.208278e+001 5.000000e+000
		endloop
	endfacet
	facet normal 4.226183e-001 9.063078e-001 0.000000e+000
		outer loop
			vertex 8.037473e+000 2.208278e+001 5.000000e+000
			vertex 1.175000e+001 2.035160e+001 5.000000e+000
			vertex 8.037473e+000 2.208278e+001 0.000000e+000
		endloop
	endfacet
	facet normal 4.226183e-001 9.063078e-001 -0.000000e+000
		outer loop
			vertex 1.175000e+001 2.035160e+001 0.000000e+000
			vertex 8.037473e+000 2.208278e+001 0.000000e+000
			vertex 1.175000e+001 2.035160e+001 5.000000e+000
		endloop
	endfacet
	facet normal 5.735762e-001 8.191522e-001 0.000000e+000
		outer loop
			vertex 1.175000e+001 2.035160e+001 5.000000e+000
			vertex 1.510551e+001 1.800204e+001 5.000000e+000
			vertex 1.175000e+001 2.035160e+001 0.000000e+000
		endloop
	endfacet
	facet normal 5.735762e-001 8.191522e-001 -0.000000e+000
		outer loop
			vertex 1.510551e+001 1.800204e+001 0.000000e+000
			vertex 1.175000e+001 2.035160e+001 0.000000e+000
			vertex 1.510551e+001 1.800204e+001 5.000000e+000
		endloop
	endfacet
	facet normal 7.071068e-001 7.071068e-001 0.000000e+000
		outer loop
			vertex 1.510551e+001 1.800204e+001 5.000000e+000
			vertex 1.800204e+001 1.510551e+001 5.000000e+000
			vertex 1.510551e+001 1.800204e+001 0.000000e+000
		endloop
	endfacet
	facet normal 7.071068e-001 7.071068e-001 -0.000000e+000
		outer loop
			vertex 1.800204e+001 1.510551e+001 0.000000e+000
			vertex 1.510551e+001 1.800204e+001 0.000000e+000
			vertex 1.800204e+001 1.510551e+001 5.000000e+000
		endloop
	endfacet
	facet normal 8.191522e-001 5.735762e-001 0.000000e+000
		outer loop
			vertex 1.800204e+001 1.510551e+001 5.000000e+000
			vertex 2.035160e+001 1.175000e+001 5.000000e+000
			vertex 1.800204e+001 1.510551e+001 0.000000e+000
		endloop
	endfacet
	facet normal 8.191522e-001 5.735762e-001 -0.000000e+000
		outer loop
			vertex 2.035160e+001 1.175000e+001 0.000000e+000
			vertex 1.800204e+001 1.510551e+001 0.000000e+000
			vertex 2.035160e+001 1.175000e+001 5.000000e+000
		endloop
	endfacet
	facet normal 9.063078e-001 4.226183e-001 0.000000e+000
		outer loop
			vertex 2.035160e+001 1.175000e+001 5.000000e+000
			vertex 2.208278e+001 8.037473e+000 5.000000e+000
			vertex 2.035160e+001 1.175000e+001 0.000000e+000
		endloop
	endfacet
	facet normal 9.063078e-001 4.226183e-001 -0.000000e+000
		outer loop
			vertex 2.208278e+001 8.037473e+000 0.000000e+000
			vertex 2.035160e+001 1.175000e+001 0.000000e+000
			vertex 2.208278e+001 8.037473e+000 5.000000e+000
		endloop
	endfacet
	facet normal 9.659258e-001 2.588193e-001 0.000000e+000
		outer loop
			vertex 2.208278e+001 8.037473e+000 5.000000e+000
			vertex 2.314298e+001 4.080732e+000 5.000000e+000
			vertex 2.208278e+001 8.037473e+000 0.000000e+000
		endloop
	endfacet
	facet normal 9.659258e-001 2.588193e-001 -0.000000e+000
		outer loop
			vertex 2.314298e+001 4.080732e+000 0.000000e+000
			vertex 2.208278e+001 8.037473e+000 0.000000e+000
			vertex 2.314298e+001 4.080732e+000 5.000000e+000
		endloop
	endfacet
	facet normal 9.961947e-001 8.715553e-002 0.000000e+000
		outer loop
			vertex 2.314298e+001 4.080732e+000 5.000000e+000
			vertex 2.350000e+001 -2.877825e-015 5.000000e+000
			vertex 2.314298e+001 4.080732e+000 0.000000e+000
		endloop
	endfacet
	facet normal 9.961947e-001 8.715553e-002 -0.000000e+000
		outer loop
			vertex 2.350000e+001 -2.877825e-015 0.000000e+000
			vertex 2.314298e+001 4.080732e+000 0.000000e+000
			vertex 2.350000e+001 -2.877825e-015 5.000000e+000
		endloop
	endfacet
	facet normal 9.961947e-001 -8.715553e-002 0.000000e+000
		outer loop
			vertex 2.350000e+001 -2.877825e-015 5.000000e+000
			vertex 2.314298e+001 -4.080732e+000 5.000000e+000
			vertex 2.350000e+001 -2.877825e-015 0.000000e+000
		endloop
	endfacet
	facet normal 9.961947e-001 -8.715553e-002 0.000000e+000
		outer loop
			vertex 2.314298e+001 -4.080732e+000 0.000000e+000
			vertex 2.350000e+001 -2.877825e-015 0.000000e+000
			vertex 2.314298e+001 -4.080732e+000 5.000000e+000
		endloop
	endfacet
	facet normal 9.659258e-001 -2.588193e-001 0.000000e+000
		outer loop
			vertex 2.314298e+001 -4.080732e+000 5.000000e+000
			vertex 2.208278e+001 -8.037473e+000 5.000000e+000
			vertex 2.314298e+001 -4.080732e+000 0.000000e+000
		endloop
	endfacet
	facet normal 9.659258e-001 -2.588193e-001 0.000000e+000
		outer loop
			vertex 2.208278e+001 -8.037473e+000 0.000000e+000
			vertex 2.314298e+001 -4.080732e+000 0.000000e+000
			vertex 2.208278e+001 -8.037473e+000 5.000000e+000
		endloop
	endfacet
	facet normal 9.063078e-001 -4.226183e-001 0.000000e+000
		outer loop
			vertex 2.208278e+001 -8.037473e+000 5.000000e+000
			vertex 2.035160e+001 -1.175000e+001 5.000000e+000
			vertex 2.208278e+001 -8.037473e+000 0.000000e+000
		endloop
	endfacet
	facet normal 9.063078e-001 -4.226183e-001 0.000000e+000
		outer loop
			vertex 2.035160e+001 -1.175000e+001 0.000000e+000
			vertex 2.208278e+001 -8.037473e+000 0.000000e+000
			vertex 2.035160e+001 -1.175000e+001 5.000000e+000
		endloop
	endfacet
	facet normal 8.191522e-001 -5.735762e-001 0.000000e+000
		outer loop
			vertex 2.035160e+001 -1.175000e+001 5.000000e+000
			vertex 1.800204e+001 -1.510551e+001 5.000000e+000
			vertex 2.035160e+001 -1.175000e+001 0.000000e+000
		endloop
	endfacet
	facet normal 8.191522e-001 -5.735762e-001 0.000000e+000
		outer loop
			vertex 1.800204e+001 -1.510551e+001 0.000000e+000
			vertex 2.035160e+001 -1.175000e+001 0.000000e+000
			vertex 1.800204e+001 -1.510551e+001 5.000000e+000
		endloop
	endfacet
	facet normal 7.071068e-001 -7.071068e-001 0.000000e+000
		outer loop
			vertex 1.800204e+001 -1.510551e+001 5.000000e+000
			vertex 1.510551e+001 -1.800204e+001 5.000000e+000
			vertex 1.800204e+001 -1.510551e+001 0.000000e+000
		endloop
	endfacet
	facet normal 7.071068e-001 -7.071068e-001 0.000000e+000
		outer loop
			vertex 1.510551e+001 -1.800204e+001 0.000000e+000
			vertex 1.800204e+001 -1.510551e+001 0.000000e+000
			vertex 1.510551e+001 -1.800204e+001 5.000000e+000
		endloop
	endfacet
	facet normal 5.735762e-001 -8.191522e-001 0.000000e+000
		outer loop
			vertex 1.510551e+001 -1.800204e+001 5.000000e+000
			vertex 1.175000e+001 -2.035160e+001 5.000000e+000
			vertex 1.510551e+001 -1.800204e+001 0.000000e+000
		endloop
	endfacet
	facet normal 5.735762e-001 -8.191522e-001 0.000000e+000
		outer loop
			vertex 1.175000e+001 -2.035160e+001 0.000000e+000
			vertex 1.510551e+001 -1.800204e+001 0.000000e+000
			vertex 1.175000e+001 -2.035160e+001 5.000000e+000
		endloop
	endfacet
	facet normal 4.226183e-001 -9.063078e-001 0.000000e+000
		outer loop
			vertex 1.175000e+001 -2.035160e+001 5.000000e+000
			vertex 8.037473e+000 -2.208278e+001 5.000000e+000
			vertex 1.175000e+001 -2.035160e+001 0.000000e+000
		endloop
	endfacet
	facet normal 4.226183e-001 -9.063078e-001 0.000000e+000
		outer loop
			vertex 8.037473e+000 -2.208278e+001 0.000000e+000
			vertex 1.175000e+001 -2.035160e+001 0.000000e+000
			vertex 8.037473e+000 -2.208278e+001 5.000000e+000
		endloop
	endfacet
	facet normal 2.588193e-001 -9.659258e-001 0.000000e+000
		outer loop
			vertex 8.037473e+000 -2.208278e+001 5.000000e+000
			vertex 4.080732e+000 -2.314298e+001 5.000000e+000
			vertex 8.037473e+000 -2.208278e+001 0.000000e+000
		endloop
	endfacet
	facet normal 2.588193e-001 -9.659258e-001 0.000000e+000
		outer loop
			vertex 4.080732e+000 -2.314298e+001 0.000000e+000
			vertex 8.037473e+000 -2.208278e+001 0.000000e+000
			vertex 4.080732e+000 -2.314298e+001 5.000000e+000
		endloop
	endfacet
	facet normal 8.715553e-002 -9.961947e-001 0.000000e+000
		outer loop
			vertex 4.080732e+000 -2.314298e+001 5.000000e+000
			vertex -4.316738e-015 -2.350000e+001 5.000000e+000
			vertex 4.080732e+000 -2.314298e+001 0.000000e+000
		endloop
	endfacet
	facet normal 8.715553e-002 -9.961947e-001 0.000000e+000
		outer loop
			vertex -4.316738e-015 -2.350000e+001 0.000000e+000
			vertex 4.080732e+000 -2.314298e+001 0.000000e+000
			vertex -4.316738e-015 -2.350000e+001 5.000000e+000
		endloop
	endfacet
	facet normal -8.715553e-002 -9.961947e-001 -0.000000e+000
		outer loop
			vertex -4.316738e-015 -2.350000e+001 5.000000e+000
			vertex -4.080732e+000 -2.314298e+001 5.000000e+000
			vertex -4.316738e-015 -2.350000e+001 0.000000e+000
		endloop
	endfacet
	facet normal -8.715553e-002 -9.961947e-001 0.000000e+000
		outer loop
			vertex -4.080732e+000 -2.314298e+001 0.000000e+000
			vertex -4.316738e-015 -2.350000e+001 0.000000e+000
			vertex -4.080732e+000 -2.314298e+001 5.000000e+000
		endloop
	endfacet
	facet normal -2.588193e-001 -9.659258e-001 -0.000000e+000
		outer loop
			vertex -4.080732e+000 -2.314298e+001 5.000000e+000
			vertex -8.037473e+000 -2.208278e+001 5.000000e+000
			vertex -4.080732e+000 -2.314298e+001 0.000000e+000
		endloop
	endfacet
	facet normal -2.588193e-001 -9.659258e-001 0.000000e+000
		outer loop
			vertex -8.037473e+000 -2.208278e+001 0.000000e+000
			vertex -4.080732e+000 -2.314298e+001 0.000000e+000
			vertex -8.037473e+000 -2.208278e+001 5.000000e+000
		endloop
	endfacet
	facet normal -4.226183e-001 -9.063078e-001 -0.000000e+000
		outer loop
			vertex -8.037473e+000 -2.208278e+001 5.000000e+000
			vertex -1.175000e+001 -2.035160e+001 5.000000e+000
			vertex -8.037473e+000 -2.208278e+001 0.000000e+000
		endloop
	endfacet
	facet normal -4.226183e-001 -9.063078e-001 0.000000e+000
		outer loop
			vertex -1.175000e+001 -2.035160e+001 0.000000e+000
			vertex -8.037473e+000 -2.208278e+001 0.000000e+000
			vertex -1.175000e+001 -2.035160e+001 5.000000e+000
		endloop
	endfacet
	facet normal -5.735762e-001 -8.191522e-001 -0.000000e+000
		outer loop
			vertex -1.175000e+001 -2.035160e+001 5.000000e+000
			vertex -1.510551e+001 -1.800204e+001 5.000000e+000
			vertex -1.175000e+001 -2.035160e+001 0.000000e+000
		endloop
	endfacet
	facet normal -5.735762e-001 -8.191522e-001 0.000000e+000
		outer loop
			vertex -1.510551e+001 -1.800204e+001 0.000000e+000
			vertex -1.175000e+001 -2.035160e+001 0.000000e+000
			vertex -1.510551e+001 -1.800204e+001 5.000000e+000
		endloop
	endfacet
	facet normal -7.071068e-001 -7.071068e-001 -0.000000e+000
		outer loop
			vertex -1.510551e+001 -1.800204e+001 5.000000e+000
			vertex -1.800204e+001 -1.510551e+001 5.000000e+000
			vertex -1.510551e+001 -1.800204e+001 0.000000e+000
		endloop
	endfacet
	facet normal -7.071068e-001 -7.071068e-001 0.000000e+000
		outer loop
			vertex -1.800204e+001 -1.510551e+001 0.000000e+000
			vertex -1.510551e+001 -1.800204e+001 0.000000e+000
			vertex -1.800204e+001 -1.510551e+001 5.000000e+000
		endloop
	endfacet
	facet normal -8.191522e-001 -5.735762e-001 -0.000000e+000
		outer loop
			vertex -1.800204e+001 -1.510551e+001 5.000000e+000
			vertex -2.035160e+001 -1.175000e+001 5.000000e+000
			vertex -1.800204e+001 -1.510551e+001 0.000000e+000
		endloop
	endfacet
	facet normal -8.191522e-001 -5.735762e-001 0.000000e+000
		outer loop
			vertex -2.035160e+001 -1.175000e+001 0.000000e+000
			vertex -1.800204e+001 -1.510551e+001 0.000000e+000
			vertex -2.035160e+001 -1.175000e+001 5.000000e+000
		endloop
	endfacet
	facet normal -9.063078e-001 -4.226183e-001 -0.000000e+000
		outer loop
			vertex -2.035160e+001 -1.175000e+001 5.000000e+000
			vertex -2.208278e+001 -8.037473e+000 5.000000e+000
			vertex -2.035160e+001 -1.175000e+001 0.000000e+000
		endloop
	endfacet
	facet normal -9.063078e-001 -4.226183e-001 0.000000e+000
		outer loop
			vertex -2.208278e+001 -8.037473e+000 0.000000e+000
			vertex -2.035160e+001 -1.175000e+001 0.000000e+000
			vertex -2.208278e+001 -8.037473e+000 5.000000e+000
		endloop
	endfacet
	facet normal -9.659258e-001 -2.588193e-001 -0.000000e+000
		outer loop
			vertex -2.208278e+001 -8.037473e+000 5.000000e+000
			vertex -2.314298e+001 -4.080732e+000 5.000000e+000
			vertex -2.208278e+001 -8.037473e+000 0.000000e+000
		endloop
	endfacet
	facet normal -9.659258e-001 -2.588193e-001 0.000000e+000
		outer loop
			vertex -2.314298e+001 -4.080732e+000 0.000000e+000
			vertex -2.208278e+001 -8.037473e+000 0.000000e+000
			vertex -2.314298e+001 -4.080732e+000 5.000000e+000
		endloop
	endfacet
	facet normal -9.961947e-001 -8.715553e-002 -0.000000e+000
		outer loop
			vertex -2.314298e+001 -4.080732e+000 5.000000e+000
			vertex -2.350000e+001 2.877825e-015 5.000000e+000
			vertex -2.314298e+001 -4.080732e+000 0.000000e+000
		endloop
	endfacet
	facet normal -9.961947e-001 -8.715553e-002 0.000000e+000
		outer loop
			vertex -2.350000e+001 2.877825e-015 0.000000e+000
			vertex -2.314298e+001 -4.080732e+000 0.000000e+000
			vertex -2.350000e+001 2.877825e-015 5.000000e+000
		endloop
	endfacet
	facet normal -9.957342e-001 9.226842e-002 0.000000e+000
		outer loop
			vertex 1.675000e+001 -2.051216e-015 0.000000e+000
			vertex 1.646480e+001 -3.077804e+000 0.000000e+000
			vertex 1.675000e+001 -2.051216e-015 5.000000e+000
		endloop
	endfacet
	facet normal -9.957342e-001 9.226842e-002 0.000000e+000
		outer loop
			vertex 1.646480e+001 -3.077804e+000 5.000000e+000
			vertex 1.675000e+001 -2.051216e-015 5.000000e+000
			vertex 1.646480e+001 -3.077804e+000 0.000000e+000
		endloop
	endfacet
	facet normal -9.618257e-001 2.736630e-001 0.000000e+000
		outer loop
			vertex 1.646480e+001 -3.077804e+000 0.000000e+000
			vertex 1.561891e+001 -6.050798e+000 0.000000e+000
			vertex 1.646480e+001 -3.077804e+000 5.000000e+000
		endloop
	endfacet
	facet normal -9.618257e-001 2.736630e-001 0.000000e+000
		outer loop
			vertex 1.561891e+001 -6.050798e+000 5.000000e+000
			vertex 1.646480e+001 -3.077804e+000 5.000000e+000
			vertex 1.561891e+001 -6.050798e+000 0.000000e+000
		endloop
	endfacet
	facet normal -8.951632e-001 4.457385e-001 0.000000e+000
		outer loop
			vertex 1.561891e+001 -6.050798e+000 0.000000e+000
			vertex 1.424114e+001 -8.817739e+000 0.000000e+000
			vertex 1.561891e+001 -6.050798e+000 5.000000e+000
		endloop
	endfacet
	facet normal -8.951632e-001 4.457385e-001 0.000000e+000
		outer loop
			vertex 1.424114e+001 -8.817739e+000 5.000000e+000
			vertex 1.561891e+001 -6.050798e+000 5.000000e+000
			vertex 1.424114e+001 -8.817739e+000 0.000000e+000
		endloop
	endfacet
	facet normal -7.980172e-001 6.026347e-001 0.000000e+000
		outer loop
			vertex 1.424114e+001 -8.817739e+000 0.000000e+000
			vertex 1.237840e+001 -1.128440e+001 0.000000e+000
			vertex 1.424114e+001 -8.817739e+000 5.000000e+000
		endloop
	endfacet
	facet normal -7.980172e-001 6.026347e-001 0.000000e+000
		outer loop
			vertex 1.237840e+001 -1.128440e+001 5.000000e+000
			vertex 1.424114e+001 -8.817739e+000 5.000000e+000
			vertex 1.237840e+001 -1.128440e+001 0.000000e+000
		endloop
	endfacet
	facet normal -6.736958e-001 7.390088e-001 0.000000e+000
		outer loop
			vertex 1.237840e+001 -1.128440e+001 0.000000e+000
			vertex 1.009413e+001 -1.336679e+001 0.000000e+000
			vertex 1.237840e+001 -1.128440e+001 5.000000e+000
		endloop
	endfacet
	facet normal -6.736958e-001 7.390088e-001 0.000000e+000
		outer loop
			vertex 1.009413e+001 -1.336679e+001 5.000000e+000
			vertex 1.237840e+001 -1.128440e+001 5.000000e+000
			vertex 1.009413e+001 -1.336679e+001 0.000000e+000
		endloop
	endfacet
	facet normal -5.264321e-001 8.502172e-001 0.000000e+000
		outer loop
			vertex 1.009413e+001 -1.336679e+001 0.000000e+000
			vertex 7.466117e+000 -1.499399e+001 0.000000e+000
			vertex 1.009413e+001 -1.336679e+001 5.000000e+000
		endloop
	endfacet
	facet normal -5.264321e-001 8.502172e-001 0.000000e+000
		outer loop
			vertex 7.466117e+000 -1.499399e+001 5.000000e+000
			vertex 1.009413e+001 -1.336679e+001 5.000000e+000
			vertex 7.466117e+000 -1.499399e+001 0.000000e+000
		endloop
	endfacet
	facet normal -3.612419e-001 9.324721e-001 0.000000e+000
		outer loop
			vertex 7.466117e+000 -1.499399e+001 0.000000e+000
			vertex 4.583855e+000 -1.611058e+001 0.000000e+000
			vertex 7.466117e+000 -1.499399e+001 5.000000e+000
		endloop
	endfacet
	facet normal -3.612419e-001 9.324721e-001 0.000000e+000
		outer loop
			vertex 4.583855e+000 -1.611058e+001 5.000000e+000
			vertex 7.466117e+000 -1.499399e+001 5.000000e+000
			vertex 4.583855e+000 -1.611058e+001 0.000000e+000
		endloop
	endfacet
	facet normal -1.837492e-001 9.829732e-001 0.000000e+000
		outer loop
			vertex 4.583855e+000 -1.611058e+001 0.000000e+000
			vertex 1.545495e+000 -1.667855e+001 0.000000e+000
			vertex 4.583855e+000 -1.611058e+001 5.000000e+000
		endloop
	endfacet
	facet normal -1.837492e-001 9.829732e-001 0.000000e+000
		outer loop
			vertex 1.545495e+000 -1.667855e+001 5.000000e+000
			vertex 4.583855e+000 -1.611058e+001 5.000000e+000
			vertex 1.545495e+000 -1.667855e+001 0.000000e+000
		endloop
	endfacet
	facet normal 0.000000e+000 1.000000e+000 -0.000000e+000
		outer loop
			vertex 1.545495e+000 -1.667855e+001 0.000000e+000
			vertex -1.545495e+000 -1.667855e+001 0.000000e+000
			vertex 1.545495e+000 -1.667855e+001 5.000000e+000
		endloop
	endfacet
	facet normal -0.000000e+000 1.000000e+000 0.000000e+000
		outer loop
			vertex -1.545495e+000 -1.667855e+001 5.000000e+000
			vertex 1.545495e+000 -1.667855e+001 5.000000e+000
			vertex -1.545495e+000 -1.667855e+001 0.000000e+000
		endloop
	endfacet
	facet normal 1.837492e-001 9.829732e-001 -0.000000e+000
		outer loop
			vertex -1.545495e+000 -1.667855e+001 0.000000e+000
			vertex -4.583855e+000 -1.611058e+001 0.000000e+000
			vertex -1.545495e+000 -1.667855e+001 5.000000e+000
		endloop
	endfacet
	facet normal 1.837492e-001 9.829732e-001 0.000000e+000
		outer loop
			vertex -4.583855e+000 -1.611058e+001 5.000000e+000
			vertex -1.545495e+000 -1.667855e+001 5.000000e+000
			vertex -4.583855e+000 -1.611058e+001 0.000000e+000
		endloop
	endfacet
	facet normal 3.612419e-001 9.324721e-001 -0.000000e+000
		outer loop
			vertex -4.583855e+000 -1.611058e+001 0.000000e+000
			vertex -7.466117e+000 -1.499399e+001 0.000000e+000
			vertex -4.583855e+000 -1.611058e+001 5.000000e+000
		endloop
	endfacet
	facet normal 3.612419e-001 9.324721e-001 0.000000e+000
		outer loop
			vertex -7.466117e+000 -1.499399e+001 5.000000e+000
			vertex -4.583855e+000 -1.611058e+001 5.000000e+000
			vertex -7.466117e+000 -1.499399e+001 0.000000e+000
		endloop
	endfacet
	facet normal 5.264321e-001 8.502172e-001 -0.000000e+000
		outer loop
			vertex -7.466117e+000 -1.499399e+001 0.000000e+000
			vertex -1.009413e+001 -1.336679e+001 0.000000e+000
			vertex -7.466117e+000 -1.499399e+001 5.000000e+000
		endloop
	endfacet
	facet normal 5.264321e-001 8.502172e-001 0.000000e+000
		outer loop
			vertex -1.009413e+001 -1.336679e+001 5.000000e+000
			vertex -7.466117e+000 -1.499399e+001 5.000000e+000
			vertex -1.009413e+001 -1.336679e+001 0.000000e+000
		endloop
	endfacet
	facet normal 6.736958e-001 7.390088e-001 -0.000000e+000
		outer loop
			vertex -1.009413e+001 -1.336679e+001 0.000000e+000
			vertex -1.237840e+001 -1.128440e+001 0.000000e+000
			vertex -1.009413e+001 -1.336679e+001 5.000000e+000
		endloop
	endfacet
	facet normal 6.736958e-001 7.390088e-001 0.000000e+000
		outer loop
			vertex -1.237840e+001 -1.128440e+001 5.000000e+000
			vertex -1.009413e+001 -1.336679e+001 5.000000e+000
			vertex -1.237840e+001 -1.128440e+001 0.000000e+000
		endloop
	endfacet
	facet normal 7.980172e-001 6.026347e-001 -0.000000e+000
		outer loop
			vertex -1.237840e+001 -1.128440e+001 0.000000e+000
			vertex -1.424114e+001 -8.817739e+000 0.000000e+000
			vertex -1.237840e+001 -1.128440e+001 5.000000e+000
		endloop
	endfacet
	facet normal 7.980172e-001 6.026347e-001 0.000000e+000
		outer loop
			vertex -1.424114e+001 -8.817739e+000 5.000000e+000
			vertex -1.237840e+001 -1.128440e+001 5.000000e+000
			vertex -1.424114e+001 -8.817739e+000 0.000000e+000
		endloop
	endfacet
	facet normal 8.951632e-001 4.457385e-001 -0.000000e+000
		outer loop
			vertex -1.424114e+001 -8.817739e+000 0.000000e+000
			vertex -1.561891e+001 -6.050798e+000 0.000000e+000
			vertex -1.424114e+001 -8.817739e+000 5.000000e+000
		endloop
	endfacet
	facet normal 8.951632e-001 4.457385e-001 0.000000e+000
		outer loop
			vertex -1.561891e+001 -6.050798e+000 5.000000e+000
			vertex -1.424114e+001 -8.817739e+000 5.000000e+000
			vertex -1.561891e+001 -6.050798e+000 0.000000e+000
		endloop
	endfacet
	facet normal 9.618257e-001 2.736630e-001 -0.000000e+000
		outer loop
			vertex -1.561891e+001 -6.050798e+000 0.000000e+000
			vertex -1.646480e+001 -3.077804e+000 0.000000e+000
			vertex -1.561891e+001 -6.050798e+000 5.000000e+000
		endloop
	endfacet
	facet normal 9.618257e-001 2.736630e-001 0.000000e+000
		outer loop
			vertex -1.646480e+001 -3.077804e+000 5.000000e+000
			vertex -1.561891e+001 -6.050798e+000 5.000000e+000
			vertex -1.646480e+001 -3.077804e+000 0.000000e+000
		endloop
	endfacet
	facet normal 9.957342e-001 9.226842e-002 -0.000000e+000
		outer loop
			vertex -1.646480e+001 -3.077804e+000 0.000000e+000
			vertex -1.675000e+001 2.051216e-015 0.000000e+000
			vertex -1.646480e+001 -3.077804e+000 5.000000e+000
		endloop
	endfacet
	facet normal 9.957342e-001 9.226842e-002 0.000000e+000
		outer loop
			vertex -1.675000e+001 2.051216e-015 5.000000e+000
			vertex -1.646480e+001 -3.077804e+000 5.000000e+000
			vertex -1.675000e+001 2.051216e-015 0.000000e+000
		endloop
	endfacet
	facet normal 9.957342e-001 -9.226842e-002 0.000000e+000
		outer loop
			vertex -1.675000e+001 2.051216e-015 0.000000e+000
			vertex -1.646480e+001 3.077804e+000 0.000000e+000
			vertex -1.675000e+001 2.051216e-015 5.000000e+000
		endloop
	endfacet
	facet normal 9.957342e-001 -9.226842e-002 0.000000e+000
		outer loop
			vertex -1.646480e+001 3.077804e+000 5.000000e+000
			vertex -1.675000e+001 2.051216e-015 5.000000e+000
			vertex -1.646480e+001 3.077804e+000 0.000000e+000
		endloop
	endfacet
	facet normal 9.618257e-001 -2.736630e-001 0.000000e+000
		outer loop
			vertex -1.646480e+001 3.077804e+000 0.000000e+000
			vertex -1.561891e+001 6.050798e+000 0.000000e+000
			vertex -1.646480e+001 3.077804e+000 5.000000e+000
		endloop
	endfacet
	facet normal 9.618257e-001 -2.736630e-001 0.000000e+000
		outer loop
			vertex -1.561891e+001 6.050798e+000 5.000000e+000
			vertex -1.646480e+001 3.077804e+000 5.000000e+000
			vertex -1.561891e+001 6.050798e+000 0.000000e+000
		endloop
	endfacet
	facet normal 8.951632e-001 -4.457385e-001 0.000000e+000
		outer loop
			vertex -1.561891e+001 6.050798e+000 0.000000e+000
			vertex -1.424114e+001 8.817739e+000 0.000000e+000
			vertex -1.561891e+001 6.050798e+000 5.000000e+000
		endloop
	endfacet
	facet normal 8.951632e-001 -4.457385e-001 0.000000e+000
		outer loop
			vertex -1.424114e+001 8.817739e+000 5.000000e+000
			vertex -1.561891e+001 6.050798e+000 5.000000e+000
			vertex -1.424114e+001 8.817739e+000 0.000000e+000
		endloop
	endfacet
	facet normal 7.980172e-001 -6.026347e-001 0.000000e+000
		outer loop
			vertex -1.424114e+001 8.817739e+000 0.000000e+000
			vertex -1.237840e+001 1.128440e+001 0.000000e+000
			vertex -1.424114e+001 8.817739e+000 5.000000e+000
		endloop
	endfacet
	facet normal 7.980172e-001 -6.026347e-001 0.000000e+000
		outer loop
			vertex -1.237840e+001 1.128440e+001 5.000000e+000
			vertex -1.424114e+001 8.817739e+000 5.000000e+000
			vertex -1.237840e+001 1.128440e+001 0.000000e+000
		endloop
	endfacet
	facet normal 6.736958e-001 -7.390088e-001 0.000000e+000
		outer loop
			vertex -1.237840e+001 1.128440e+001 0.000000e+000
			vertex -1.009413e+001 1.336679e+001 0.000000e+000
			vertex -1.237840e+001 1.128440e+001 5.000000e+000
		endloop
	endfacet
	facet normal 6.736958e-001 -7.390088e-001 0.000000e+000
		outer loop
			vertex -1.009413e+001 1.336679e+001 5.000000e+000
			vertex -1.237840e+001 1.128440e+001 5.000000e+000
			vertex -1.009413e+001 1.336679e+001 0.000000e+000
		endloop
	endfacet
	facet normal 5.264321e-001 -8.502172e-001 0.000000e+000
		outer loop
			vertex -1.009413e+001 1.336679e+001 0.000000e+000
			vertex -7.466117e+000 1.499399e+001 0.000000e+000
			vertex -1.009413e+001 1.336679e+001 5.000000e+000
		endloop
	endfacet
	facet normal 5.264321e-001 -8.502172e-001 0.000000e+000
		outer loop
			vertex -7.466117e+000 1.499399e+001 5.000000e+000
			vertex -1.009413e+001 1.336679e+001 5.000000e+000
			vertex -7.466117e+000 1.499399e+001 0.000000e+000
		endloop
	endfacet
	facet normal 3.612419e-001 -9.324721e-001 0.000000e+000
		outer loop
			vertex -7.466117e+000 1.499399e+001 0.000000e+000
			vertex -4.583855e+000 1.611058e+001 0.000000e+000
			vertex -7.466117e+000 1.499399e+001 5.000000e+000
		endloop
	endfacet
	facet normal 3.612419e-001 -9.324721e-001 0.000000e+000
		outer loop
			vertex -4.583855e+000 1.611058e+001 5.000000e+000
			vertex -7.466117e+000 1.499399e+001 5.000000e+000
			vertex -4.583855e+000 1.611058e+001 0.000000e+000
		endloop
	endfacet
	facet normal 1.837492e-001 -9.829732e-001 0.000000e+000
		outer loop
			vertex -4.583855e+000 1.611058e+001 0.000000e+000
			vertex -1.545495e+000 1.667855e+001 0.000000e+000
			vertex -4.583855e+000 1.611058e+001 5.000000e+000
		endloop
	endfacet
	facet normal 1.837492e-001 -9.829732e-001 0.000000e+000
		outer loop
			vertex -1.545495e+000 1.667855e+001 5.000000e+000
			vertex -4.583855e+000 1.611058e+001 5.000000e+000
			vertex -1.545495e+000 1.667855e+001 0.000000e+000
		endloop
	endfacet
	facet normal 0.000000e+000 -1.000000e+000 0.000000e+000
		outer loop
			vertex -1.545495e+000 1.667855e+001 0.000000e+000
			vertex 1.545495e+000 1.667855e+001 0.000000e+000
			vertex -1.545495e+000 1.667855e+001 5.000000e+000
		endloop
	endfacet
	facet normal -0.000000e+000 -1.000000e+000 -0.000000e+000
		outer loop
			vertex 1.545495e+000 1.667855e+001 5.000000e+000
			vertex -1.545495e+000 1.667855e+001 5.000000e+000
			vertex 1.545495e+000 1.667855e+001 0.000000e+000
		endloop
	endfacet
	facet normal -1.837492e-001 -9.829732e-001 0.000000e+000
		outer loop
			vertex 1.545495e+000 1.667855e+001 0.000000e+000
			vertex 4.583855e+000 1.611058e+001 0.000000e+000
			vertex 1.545495e+000 1.667855e+001 5.000000e+000
		endloop
	endfacet
	facet normal -1.837492e-001 -9.829732e-001 -0.000000e+000
		outer loop
			vertex 4.583855e+000 1.611058e+001 5.000000e+000
			vertex 1.545495e+000 1.667855e+001 5.000000e+000
			vertex 4.583855e+000 1.611058e+001 0.000000e+000
		endloop
	endfacet
	facet normal -3.612419e-001 -9.324721e-001 0.000000e+000
		outer loop
			vertex 4.583855e+000 1.611058e+001 0.000000e+000
			vertex 7.466117e+000 1.499399e+001 0.000000e+000
			vertex 4.583855e+000 1.611058e+001 5.000000e+000
		endloop
	endfacet
	facet normal -3.612419e-001 -9.324721e-001 -0.000000e+000
		outer loop
			vertex 7.466117e+000 1.499399e+001 5.000000e+000
			vertex 4.583855e+000 1.611058e+001 5.000000e+000
			vertex 7.466117e+000 1.499399e+001 0.000000e+000
		endloop
	endfacet
	facet normal -5.264321e-001 -8.502172e-001 0.000000e+000
		outer loop
			vertex 7.466117e+000 1.499399e+001 0.000000e+000
			vertex 1.009413e+001 1.336679e+001 0.000000e+000
			vertex 7.466117e+000 1.499399e+001 5.000000e+000
		endloop
	endfacet
	facet normal -5.264321e-001 -8.502172e-001 -0.000000e+000
		outer loop
			vertex 1.009413e+001 1.336679e+001 5.000000e+000
			vertex 7.466117e+000 1.499399e+001 5.000000e+000
			vertex 1.009413e+001 1.336679e+001 0.000000e+000
		endloop
	endfacet
	facet normal -6.736958e-001 -7.390088e-001 0.000000e+000
		outer loop
			vertex 1.009413e+001 1.336679e+001 0.000000e+000
			vertex 1.237840e+001 1.128440e+001 0.000000e+000
			vertex 1.009413e+001 1.336679e+001 5.000000e+000
		endloop
	endfacet
	facet normal -6.736958e-001 -7.390088e-001 -0.000000e+000
		outer loop
			vertex 1.237840e+001 1.128440e+001 5.000000e+000
			vertex 1.009413e+001 1.336679e+001 5.000000e+000
			vertex 1.237840e+001 1.128440e+001 0.000000e+000
		endloop
	endfacet
	facet normal -7.980172e-001 -6.026347e-001 0.000000e+000
		outer loop
			vertex 1.237840e+001 1.128440e+001 0.000000e+000
			vertex 1.424114e+001 8.817739e+000 0.000000e+000
			vertex 1.237840e+001 1.128440e+001 5.000000e+000
		endloop
	endfacet
	facet normal -7.980172e-001 -6.026347e-001 -0.000000e+000
		outer loop
			vertex 1.424114e+001 8.817739e+000 5.000000e+000
			vertex 1.237840e+001 1.128440e+001 5.000000e+000
			vertex 1.424114e+001 8.817739e+000 0.000000e+000
		endloop
	endfacet
	facet normal -8.951632e-001 -4.457385e-001 0.000000e+000
		outer loop
			vertex 1.424114e+001 8.817739e+000 0.000000e+000
			vertex 1.561891e+001 6.050798e+000 0.000000e+000
			vertex 1.424114e+001 8.817739e+000 5.000000e+000
		endloop
	endfacet
	facet normal -8.951632e-001 -4.457385e-001 -0.000000e+000
		outer loop
			vertex 1.561891e+001 6.050798e+000 5.000000e+000
			vertex 1.424114e+001 8.817739e+000 5.000000e+000
			vertex 1.561891e+001 6.050798e+000 0.000000e+000
		endloop
	endfacet
	facet normal -9.618257e-001 -2.736630e-001 0.000000e+000
		outer loop
			vertex 1.561891e+001 6.050798e+000 0.000000e+000
			vertex 1.646480e+001 3.077804e+000 0.000000e+000
			vertex 1.561891e+001 6.050798e+000 5.000000e+000
		endloop
	endfacet
	facet normal -9.618257e-001 -2.736630e-001 -0.000000e+000
		outer loop
			vertex 1.646480e+001 3.077804e+000 5.000000e+000
			vertex 1.561891e+001 6.050798e+000 5.000000e+000
			vertex 1.646480e+001 3.077804e+000 0.000000e+000
		endloop
	endfacet
	facet normal -9.957342e-001 -9.226842e-002 0.000000e+000
		outer loop
			vertex 1.646480e+001 3.077804e+000 0.000000e+000
			vertex 1.675000e+001 -2.051216e-015 0.000000e+000
			vertex 1.646480e+001 3.077804e+000 5.000000e+000
		endloop
	endfacet
	facet normal -9.957342e-001 -9.226842e-002 -0.000000e+000
		outer loop
			vertex 1.675000e+001 -2.051216e-015 5.000000e+000
			vertex 1.646480e+001 3.077804e+000 5.000000e+000
			vertex 1.675000e+001 -2.051216e-015 0.000000e+000
		endloop
	endfacet
endsolid
