solid generated by Pro/DESKTOP Version 8.0
	facet normal -0.000000e+000 0.000000e+000 -1.000000e+000
		outer loop
			vertex 4.080732e+000 -2.314298e+001 0.000000e+000
			vertex -4.316738e-015 -2.350000e+001 0.000000e+000
			vertex -4.080732e+000 -2.314298e+001 0.000000e+000
		endloop
	endfacet
	facet normal 0.000000e+000 0.000000e+000 -1.000000e+000
		outer loop
			vertex -4.080732e+000 -2.314298e+001 0.000000e+000
			vertex -8.037473e+000 -2.208278e+001 0.000000e+000
			vertex 4.080732e+000 -2.314298e+001 0.000000e+000
		endloop
	endfacet
	facet normal -0.000000e+000 0.000000e+000 -1.000000e+000
		outer loop
			vertex 8.037473e+000 -2.208278e+001 0.000000e+000
			vertex 4.080732e+000 -2.314298e+001 0.000000e+000
			vertex -8.037473e+000 -2.208278e+001 0.000000e+000
		endloop
	endfacet
	facet normal 0.000000e+000 0.000000e+000 -1.000000e+000
		outer loop
			vertex -8.037473e+000 -2.208278e+001 0.000000e+000
			vertex -1.175000e+001 -2.035160e+001 0.000000e+000
			vertex 8.037473e+000 -2.208278e+001 0.000000e+000
		endloop
	endfacet
	facet normal -0.000000e+000 0.000000e+000 -1.000000e+000
		outer loop
			vertex 1.175000e+001 -2.035160e+001 0.000000e+000
			vertex 8.037473e+000 -2.208278e+001 0.000000e+000
			vertex -1.175000e+001 -2.035160e+001 0.000000e+000
		endloop
	endfacet
	facet normal 0.000000e+000 0.000000e+000 -1.000000e+000
		outer loop
			vertex -1.175000e+001 -2.035160e+001 0.000000e+000
			vertex -1.510551e+001 -1.800204e+001 0.000000e+000
			vertex 1.175000e+001 -2.035160e+001 0.000000e+000
		endloop
	endfacet
	facet normal -0.000000e+000 0.000000e+000 -1.000000e+000
		outer loop
			vertex 1.510551e+001 -1.800204e+001 0.000000e+000
			vertex 1.175000e+001 -2.035160e+001 0.000000e+000
			vertex -1.510551e+001 -1.800204e+001 0.000000e+000
		endloop
	endfacet
	facet normal 0.000000e+000 0.000000e+000 -1.000000e+000
		outer loop
			vertex -1.510551e+001 -1.800204e+001 0.000000e+000
			vertex -1.800204e+001 -1.510551e+001 0.000000e+000
			vertex 1.510551e+001 -1.800204e+001 0.000000e+000
		endloop
	endfacet
	facet normal -0.000000e+000 0.000000e+000 -1.000000e+000
		outer loop
			vertex 1.800204e+001 -1.510551e+001 0.000000e+000
			vertex 1.510551e+001 -1.800204e+001 0.000000e+000
			vertex -1.800204e+001 -1.510551e+001 0.000000e+000
		endloop
	endfacet
	facet normal 0.000000e+000 0.000000e+000 -1.000000e+000
		outer loop
			vertex -1.800204e+001 -1.510551e+001 0.000000e+000
			vertex -2.035160e+001 -1.175000e+001 0.000000e+000
			vertex 1.800204e+001 -1.510551e+001 0.000000e+000
		endloop
	endfacet
	facet normal -0.000000e+000 0.000000e+000 -1.000000e+000
		outer loop
			vertex 2.035160e+001 -1.175000e+001 0.000000e+000
			vertex 1.800204e+001 -1.510551e+001 0.000000e+000
			vertex -2.035160e+001 -1.175000e+001 0.000000e+000
		endloop
	endfacet
	facet normal 0.000000e+000 0.000000e+000 -1.000000e+000
		outer loop
			vertex -2.035160e+001 -1.175000e+001 0.000000e+000
			vertex -2.208278e+001 -8.037473e+000 0.000000e+000
			vertex 2.035160e+001 -1.175000e+001 0.000000e+000
		endloop
	endfacet
	facet normal -0.000000e+000 0.000000e+000 -1.000000e+000
		outer loop
			vertex 2.208278e+001 -8.037473e+000 0.000000e+000
			vertex 2.035160e+001 -1.175000e+001 0.000000e+000
			vertex -2.208278e+001 -8.037473e+000 0.000000e+000
		endloop
	endfacet
	facet normal 0.000000e+000 0.000000e+000 -1.000000e+000
		outer loop
			vertex -2.208278e+001 -8.037473e+000 0.000000e+000
			vertex -2.314298e+001 -4.080732e+000 0.000000e+000
			vertex 2.208278e+001 -8.037473e+000 0.000000e+000
		endloop
	endfacet
	facet normal -0.000000e+000 0.000000e+000 -1.000000e+000
		outer loop
			vertex 2.314298e+001 -4.080732e+000 0.000000e+000
			vertex 2.208278e+001 -8.037473e+000 0.000000e+000
			vertex -2.314298e+001 -4.080732e+000 0.000000e+000
		endloop
	endfacet
	facet normal 0.000000e+000 0.000000e+000 -1.000000e+000
		outer loop
			vertex -2.314298e+001 -4.080732e+000 0.000000e+000
			vertex -2.350000e+001 2.877825e-015 0.000000e+000
			vertex 2.314298e+001 -4.080732e+000 0.000000e+000
		endloop
	endfacet
	facet normal -0.000000e+000 0.000000e+000 -1.000000e+000
		outer loop
			vertex 2.350000e+001 -2.877825e-015 0.000000e+000
			vertex 2.314298e+001 -4.080732e+000 0.000000e+000
			vertex -2.350000e+001 2.877825e-015 0.000000e+000
		endloop
	endfacet
	facet normal 0.000000e+000 0.000000e+000 -1.000000e+000
		outer loop
			vertex -2.350000e+001 2.877825e-015 0.000000e+000
			vertex -2.314298e+001 4.080732e+000 0.000000e+000
			vertex 2.350000e+001 -2.877825e-015 0.000000e+000
		endloop
	endfacet
	facet normal -0.000000e+000 -0.000000e+000 -1.000000e+000
		outer loop
			vertex 2.314298e+001 4.080732e+000 0.000000e+000
			vertex 2.350000e+001 -2.877825e-015 0.000000e+000
			vertex -2.314298e+001 4.080732e+000 0.000000e+000
		endloop
	endfacet
	facet normal 0.000000e+000 0.000000e+000 -1.000000e+000
		outer loop
			vertex -2.314298e+001 4.080732e+000 0.000000e+000
			vertex -2.208278e+001 8.037473e+000 0.000000e+000
			vertex 2.314298e+001 4.080732e+000 0.000000e+000
		endloop
	endfacet
	facet normal -0.000000e+000 -0.000000e+000 -1.000000e+000
		outer loop
			vertex 2.208278e+001 8.037473e+000 0.000000e+000
			vertex 2.314298e+001 4.080732e+000 0.000000e+000
			vertex -2.208278e+001 8.037473e+000 0.000000e+000
		endloop
	endfacet
	facet normal 0.000000e+000 0.000000e+000 -1.000000e+000
		outer loop
			vertex -2.208278e+001 8.037473e+000 0.000000e+000
			vertex -2.035160e+001 1.175000e+001 0.000000e+000
			vertex 2.208278e+001 8.037473e+000 0.000000e+000
		endloop
	endfacet
	facet normal -0.000000e+000 -0.000000e+000 -1.000000e+000
		outer loop
			vertex 2.035160e+001 1.175000e+001 0.000000e+000
			vertex 2.208278e+001 8.037473e+000 0.000000e+000
			vertex -2.035160e+001 1.175000e+001 0.000000e+000
		endloop
	endfacet
	facet normal 0.000000e+000 0.000000e+000 -1.000000e+000
		outer loop
			vertex -2.035160e+001 1.175000e+001 0.000000e+000
			vertex -1.800204e+001 1.510551e+001 0.000000e+000
			vertex 2.035160e+001 1.175000e+001 0.000000e+000
		endloop
	endfacet
	facet normal -0.000000e+000 -0.000000e+000 -1.000000e+000
		outer loop
			vertex 1.800204e+001 1.510551e+001 0.000000e+000
			vertex 2.035160e+001 1.175000e+001 0.000000e+000
			vertex -1.800204e+001 1.510551e+001 0.000000e+000
		endloop
	endfacet
	facet normal 0.000000e+000 0.000000e+000 -1.000000e+000
		outer loop
			vertex -1.800204e+001 1.510551e+001 0.000000e+000
			vertex -1.510551e+001 1.800204e+001 0.000000e+000
			vertex 1.800204e+001 1.510551e+001 0.000000e+000
		endloop
	endfacet
	facet normal -0.000000e+000 -0.000000e+000 -1.000000e+000
		outer loop
			vertex 1.510551e+001 1.800204e+001 0.000000e+000
			vertex 1.800204e+001 1.510551e+001 0.000000e+000
			vertex -1.510551e+001 1.800204e+001 0.000000e+000
		endloop
	endfacet
	facet normal 0.000000e+000 0.000000e+000 -1.000000e+000
		outer loop
			vertex -1.510551e+001 1.800204e+001 0.000000e+000
			vertex -1.175000e+001 2.035160e+001 0.000000e+000
			vertex 1.510551e+001 1.800204e+001 0.000000e+000
		endloop
	endfacet
	facet normal -0.000000e+000 -0.000000e+000 -1.000000e+000
		outer loop
			vertex 1.175000e+001 2.035160e+001 0.000000e+000
			vertex 1.510551e+001 1.800204e+001 0.000000e+000
			vertex -1.175000e+001 2.035160e+001 0.000000e+000
		endloop
	endfacet
	facet normal 0.000000e+000 0.000000e+000 -1.000000e+000
		outer loop
			vertex -1.175000e+001 2.035160e+001 0.000000e+000
			vertex -8.037473e+000 2.208278e+001 0.000000e+000
			vertex 1.175000e+001 2.035160e+001 0.000000e+000
		endloop
	endfacet
	facet normal -0.000000e+000 -0.000000e+000 -1.000000e+000
		outer loop
			vertex 8.037473e+000 2.208278e+001 0.000000e+000
			vertex 1.175000e+001 2.035160e+001 0.000000e+000
			vertex -8.037473e+000 2.208278e+001 0.000000e+000
		endloop
	endfacet
	facet normal 0.000000e+000 0.000000e+000 -1.000000e+000
		outer loop
			vertex -8.037473e+000 2.208278e+001 0.000000e+000
			vertex -4.080732e+000 2.314298e+001 0.000000e+000
			vertex 8.037473e+000 2.208278e+001 0.000000e+000
		endloop
	endfacet
	facet normal -0.000000e+000 -0.000000e+000 -1.000000e+000
		outer loop
			vertex 4.080732e+000 2.314298e+001 0.000000e+000
			vertex 8.037473e+000 2.208278e+001 0.000000e+000
			vertex -4.080732e+000 2.314298e+001 0.000000e+000
		endloop
	endfacet
	facet normal 0.000000e+000 0.000000e+000 -1.000000e+000
		outer loop
			vertex -4.080732e+000 2.314298e+001 0.000000e+000
			vertex 1.438912e-015 2.350000e+001 0.000000e+000
			vertex 4.080732e+000 2.314298e+001 0.000000e+000
		endloop
	endfacet
	facet normal 0.000000e+000 0.000000e+000 1.000000e+000
		outer loop
			vertex 4.080732e+000 2.314298e+001 5.000000e+000
			vertex 1.438912e-015 2.350000e+001 5.000000e+000
			vertex -4.080732e+000 2.314298e+001 5.000000e+000
		endloop
	endfacet
	facet normal -0.000000e+000 0.000000e+000 1.000000e+000
		outer loop
			vertex -4.080732e+000 2.314298e+001 5.000000e+000
			vertex -8.037473e+000 2.208278e+001 5.000000e+000
			vertex 4.080732e+000 2.314298e+001 5.000000e+000
		endloop
	endfacet
	facet normal 0.000000e+000 0.000000e+000 1.000000e+000
		outer loop
			vertex 8.037473e+000 2.208278e+001 5.000000e+000
			vertex 4.080732e+000 2.314298e+001 5.000000e+000
			vertex -8.037473e+000 2.208278e+001 5.000000e+000
		endloop
	endfacet
	facet normal -0.000000e+000 0.000000e+000 1.000000e+000
		outer loop
			vertex -8.037473e+000 2.208278e+001 5.000000e+000
			vertex -1.175000e+001 2.035160e+001 5.000000e+000
			vertex 8.037473e+000 2.208278e+001 5.000000e+000
		endloop
	endfacet
	facet normal 0.000000e+000 0.000000e+000 1.000000e+000
		outer loop
			vertex 1.175000e+001 2.035160e+001 5.000000e+000
			vertex 8.037473e+000 2.208278e+001 5.000000e+000
			vertex -1.175000e+001 2.035160e+001 5.000000e+000
		endloop
	endfacet
	facet normal -0.000000e+000 0.000000e+000 1.000000e+000
		outer loop
			vertex -1.175000e+001 2.035160e+001 5.000000e+000
			vertex -1.510551e+001 1.800204e+001 5.000000e+000
			vertex 1.175000e+001 2.035160e+001 5.000000e+000
		endloop
	endfacet
	facet normal 0.000000e+000 0.000000e+000 1.000000e+000
		outer loop
			vertex 1.510551e+001 1.800204e+001 5.000000e+000
			vertex 1.175000e+001 2.035160e+001 5.000000e+000
			vertex -1.510551e+001 1.800204e+001 5.000000e+000
		endloop
	endfacet
	facet normal -0.000000e+000 0.000000e+000 1.000000e+000
		outer loop
			vertex -1.510551e+001 1.800204e+001 5.000000e+000
			vertex -1.800204e+001 1.510551e+001 5.000000e+000
			vertex 1.510551e+001 1.800204e+001 5.000000e+000
		endloop
	endfacet
	facet normal 0.000000e+000 0.000000e+000 1.000000e+000
		outer loop
			vertex 1.800204e+001 1.510551e+001 5.000000e+000
			vertex 1.510551e+001 1.800204e+001 5.000000e+000
			vertex -1.800204e+001 1.510551e+001 5.000000e+000
		endloop
	endfacet
	facet normal -0.000000e+000 0.000000e+000 1.000000e+000
		outer loop
			vertex -1.800204e+001 1.510551e+001 5.000000e+000
			vertex -2.035160e+001 1.175000e+001 5.000000e+000
			vertex 1.800204e+001 1.510551e+001 5.000000e+000
		endloop
	endfacet
	facet normal 0.000000e+000 0.000000e+000 1.000000e+000
		outer loop
			vertex 2.035160e+001 1.175000e+001 5.000000e+000
			vertex 1.800204e+001 1.510551e+001 5.000000e+000
			vertex -2.035160e+001 1.175000e+001 5.000000e+000
		endloop
	endfacet
	facet normal -0.000000e+000 0.000000e+000 1.000000e+000
		outer loop
			vertex -2.035160e+001 1.175000e+001 5.000000e+000
			vertex -2.208278e+001 8.037473e+000 5.000000e+000
			vertex 2.035160e+001 1.175000e+001 5.000000e+000
		endloop
	endfacet
	facet normal 0.000000e+000 0.000000e+000 1.000000e+000
		outer loop
			vertex 2.208278e+001 8.037473e+000 5.000000e+000
			vertex 2.035160e+001 1.175000e+001 5.000000e+000
			vertex -2.208278e+001 8.037473e+000 5.000000e+000
		endloop
	endfacet
	facet normal -0.000000e+000 0.000000e+000 1.000000e+000
		outer loop
			vertex -2.208278e+001 8.037473e+000 5.000000e+000
			vertex -2.314298e+001 4.080732e+000 5.000000e+000
			vertex 2.208278e+001 8.037473e+000 5.000000e+000
		endloop
	endfacet
	facet normal 0.000000e+000 0.000000e+000 1.000000e+000
		outer loop
			vertex 2.314298e+001 4.080732e+000 5.000000e+000
			vertex 2.208278e+001 8.037473e+000 5.000000e+000
			vertex -2.314298e+001 4.080732e+000 5.000000e+000
		endloop
	endfacet
	facet normal -0.000000e+000 0.000000e+000 1.000000e+000
		outer loop
			vertex -2.314298e+001 4.080732e+000 5.000000e+000
			vertex -2.350000e+001 2.877825e-015 5.000000e+000
			vertex 2.314298e+001 4.080732e+000 5.000000e+000
		endloop
	endfacet
	facet normal 0.000000e+000 0.000000e+000 1.000000e+000
		outer loop
			vertex 2.350000e+001 -2.877825e-015 5.000000e+000
			vertex 2.314298e+001 4.080732e+000 5.000000e+000
			vertex -2.350000e+001 2.877825e-015 5.000000e+000
		endloop
	endfacet
	facet normal 0.000000e+000 0.000000e+000 1.000000e+000
		outer loop
			vertex -2.350000e+001 2.877825e-015 5.000000e+000
			vertex -2.314298e+001 -4.080732e+000 5.000000e+000
			vertex 2.350000e+001 -2.877825e-015 5.000000e+000
		endloop
	endfacet
	facet normal 0.000000e+000 -0.000000e+000 1.000000e+000
		outer loop
			vertex 2.314298e+001 -4.080732e+000 5.000000e+000
			vertex 2.350000e+001 -2.877825e-015 5.000000e+000
			vertex -2.314298e+001 -4.080732e+000 5.000000e+000
		endloop
	endfacet
	facet normal -0.000000e+000 0.000000e+000 1.000000e+000
		outer loop
			vertex -2.314298e+001 -4.080732e+000 5.000000e+000
			vertex -2.208278e+001 -8.037473e+000 5.000000e+000
			vertex 2.314298e+001 -4.080732e+000 5.000000e+000
		endloop
	endfacet
	facet normal 0.000000e+000 -0.000000e+000 1.000000e+000
		outer loop
			vertex 2.208278e+001 -8.037473e+000 5.000000e+000
			vertex 2.314298e+001 -4.080732e+000 5.000000e+000
			vertex -2.208278e+001 -8.037473e+000 5.000000e+000
		endloop
	endfacet
	facet normal -0.000000e+000 0.000000e+000 1.000000e+000
		outer loop
			vertex -2.208278e+001 -8.037473e+000 5.000000e+000
			vertex -2.035160e+001 -1.175000e+001 5.000000e+000
			vertex 2.208278e+001 -8.037473e+000 5.000000e+000
		endloop
	endfacet
	facet normal 0.000000e+000 -0.000000e+000 1.000000e+000
		outer loop
			vertex 2.035160e+001 -1.175000e+001 5.000000e+000
			vertex 2.208278e+001 -8.037473e+000 5.000000e+000
			vertex -2.035160e+001 -1.175000e+001 5.000000e+000
		endloop
	endfacet
	facet normal -0.000000e+000 0.000000e+000 1.000000e+000
		outer loop
			vertex -2.035160e+001 -1.175000e+001 5.000000e+000
			vertex -1.800204e+001 -1.510551e+001 5.000000e+000
			vertex 2.035160e+001 -1.175000e+001 5.000000e+000
		endloop
	endfacet
	facet normal 0.000000e+000 -0.000000e+000 1.000000e+000
		outer loop
			vertex 1.800204e+001 -1.510551e+001 5.000000e+000
			vertex 2.035160e+001 -1.175000e+001 5.000000e+000
			vertex -1.800204e+001 -1.510551e+001 5.000000e+000
		endloop
	endfacet
	facet normal -0.000000e+000 0.000000e+000 1.000000e+000
		outer loop
			vertex -1.800204e+001 -1.510551e+001 5.000000e+000
			vertex -1.510551e+001 -1.800204e+001 5.000000e+000
			vertex 1.800204e+001 -1.510551e+001 5.000000e+000
		endloop
	endfacet
	facet normal 0.000000e+000 -0.000000e+000 1.000000e+000
		outer loop
			vertex 1.510551e+001 -1.800204e+001 5.000000e+000
			vertex 1.800204e+001 -1.510551e+001 5.000000e+000
			vertex -1.510551e+001 -1.800204e+001 5.000000e+000
		endloop
	endfacet
	facet normal -0.000000e+000 0.000000e+000 1.000000e+000
		outer loop
			vertex -1.510551e+001 -1.800204e+001 5.000000e+000
			vertex -1.175000e+001 -2.035160e+001 5.000000e+000
			vertex 1.510551e+001 -1.800204e+001 5.000000e+000
		endloop
	endfacet
	facet normal 0.000000e+000 -0.000000e+000 1.000000e+000
		outer loop
			vertex 1.175000e+001 -2.035160e+001 5.000000e+000
			vertex 1.510551e+001 -1.800204e+001 5.000000e+000
			vertex -1.175000e+001 -2.035160e+001 5.000000e+000
		endloop
	endfacet
	facet normal -0.000000e+000 0.000000e+000 1.000000e+000
		outer loop
			vertex -1.175000e+001 -2.035160e+001 5.000000e+000
			vertex -8.037473e+000 -2.208278e+001 5.000000e+000
			vertex 1.175000e+001 -2.035160e+001 5.000000e+000
		endloop
	endfacet
	facet normal 0.000000e+000 -0.000000e+000 1.000000e+000
		outer loop
			vertex 8.037473e+000 -2.208278e+001 5.000000e+000
			vertex 1.175000e+001 -2.035160e+001 5.000000e+000
			vertex -8.037473e+000 -2.208278e+001 5.000000e+000
		endloop
	endfacet
	facet normal -0.000000e+000 0.000000e+000 1.000000e+000
		outer loop
			vertex -8.037473e+000 -2.208278e+001 5.000000e+000
			vertex -4.080732e+000 -2.314298e+001 5.000000e+000
			vertex 8.037473e+000 -2.208278e+001 5.000000e+000
		endloop
	endfacet
	facet normal 0.000000e+000 -0.000000e+000 1.000000e+000
		outer loop
			vertex 4.080732e+000 -2.314298e+001 5.000000e+000
			vertex 8.037473e+000 -2.208278e+001 5.000000e+000
			vertex -4.080732e+000 -2.314298e+001 5.000000e+000
		endloop
	endfacet
	facet normal -0.000000e+000 0.000000e+000 1.000000e+000
		outer loop
			vertex -4.080732e+000 -2.314298e+001 5.000000e+000
			vertex -4.316738e-015 -2.350000e+001 5.000000e+000
			vertex 4.080732e+000 -2.314298e+001 5.000000e+000
		endloop
	endfacet
	facet normal -9.961947e-001 8.715553e-002 0.000000e+000
		outer loop
			vertex -2.350000e+001 2.877825e-015 5.000000e+000
			vertex -2.314298e+001 4.080732e+000 5.000000e+000
			vertex -2.350000e+001 2.877825e-015 0.000000e+000
		endloop
	endfacet
	facet normal -9.961947e-001 8.715553e-002 0.000000e+000
		outer loop
			vertex -2.314298e+001 4.080732e+000 0.000000e+000
			vertex -2.350000e+001 2.877825e-015 0.000000e+000
			vertex -2.314298e+001 4.080732e+000 5.000000e+000
		endloop
	endfacet
	facet normal -9.659258e-001 2.588193e-001 0.000000e+000
		outer loop
			vertex -2.314298e+001 4.080732e+000 5.000000e+000
			vertex -2.208278e+001 8.037473e+000 5.000000e+000
			vertex -2.314298e+001 4.080732e+000 0.000000e+000
		endloop
	endfacet
	facet normal -9.659258e-001 2.588193e-001 0.000000e+000
		outer loop
			vertex -2.208278e+001 8.037473e+000 0.000000e+000
			vertex -2.314298e+001 4.080732e+000 0.000000e+000
			vertex -2.208278e+001 8.037473e+000 5.000000e+000
		endloop
	endfacet
	facet normal -9.063078e-001 4.226183e-001 0.000000e+000
		outer loop
			vertex -2.208278e+001 8.037473e+000 5.000000e+000
			vertex -2.035160e+001 1.175000e+001 5.000000e+000
			vertex -2.208278e+001 8.037473e+000 0.000000e+000
		endloop
	endfacet
	facet normal -9.063078e-001 4.226183e-001 0.000000e+000
		outer loop
			vertex -2.035160e+001 1.175000e+001 0.000000e+000
			vertex -2.208278e+001 8.037473e+000 0.000000e+000
			vertex -2.035160e+001 1.175000e+001 5.000000e+000
		endloop
	endfacet
	facet normal -8.191522e-001 5.735762e-001 0.000000e+000
		outer loop
			vertex -2.035160e+001 1.175000e+001 5.000000e+000
			vertex -1.800204e+001 1.510551e+001 5.000000e+000
			vertex -2.035160e+001 1.175000e+001 0.000000e+000
		endloop
	endfacet
	facet normal -8.191522e-001 5.735762e-001 0.000000e+000
		outer loop
			vertex -1.800204e+001 1.510551e+001 0.000000e+000
			vertex -2.035160e+001 1.175000e+001 0.000000e+000
			vertex -1.800204e+001 1.510551e+001 5.000000e+000
		endloop
	endfacet
	facet normal -7.071068e-001 7.071068e-001 0.000000e+000
		outer loop
			vertex -1.800204e+001 1.510551e+001 5.000000e+000
			vertex -1.510551e+001 1.800204e+001 5.000000e+000
			vertex -1.800204e+001 1.510551e+001 0.000000e+000
		endloop
	endfacet
	facet normal -7.071068e-001 7.071068e-001 0.000000e+000
		outer loop
			vertex -1.510551e+001 1.800204e+001 0.000000e+000
			vertex -1.800204e+001 1.510551e+001 0.000000e+000
			vertex -1.510551e+001 1.800204e+001 5.000000e+000
		endloop
	endfacet
	facet normal -5.735762e-001 8.191522e-001 0.000000e+000
		outer loop
			vertex -1.510551e+001 1.800204e+001 5.000000e+000
			vertex -1.175000e+001 2.035160e+001 5.000000e+000
			vertex -1.510551e+001 1.800204e+001 0.000000e+000
		endloop
	endfacet
	facet normal -5.735762e-001 8.191522e-001 0.000000e+000
		outer loop
			vertex -1.175000e+001 2.035160e+001 0.000000e+000
			vertex -1.510551e+001 1.800204e+001 0.000000e+000
			vertex -1.175000e+001 2.035160e+001 5.000000e+000
		endloop
	endfacet
	facet normal -4.226183e-001 9.063078e-001 0.000000e+000
		outer loop
			vertex -1.175000e+001 2.035160e+001 5.000000e+000
			vertex -8.037473e+000 2.208278e+001 5.000000e+000
			vertex -1.175000e+001 2.035160e+001 0.000000e+000
		endloop
	endfacet
	facet normal -4.226183e-001 9.063078e-001 0.000000e+000
		outer loop
			vertex -8.037473e+000 2.208278e+001 0.000000e+000
			vertex -1.175000e+001 2.035160e+001 0.000000e+000
			vertex -8.037473e+000 2.208278e+001 5.000000e+000
		endloop
	endfacet
	facet normal -2.588193e-001 9.659258e-001 0.000000e+000
		outer loop
			vertex -8.037473e+000 2.208278e+001 5.000000e+000
			vertex -4.080732e+000 2.314298e+001 5.000000e+000
			vertex -8.037473e+000 2.208278e+001 0.000000e+000
		endloop
	endfacet
	facet normal -2.588193e-001 9.659258e-001 0.000000e+000
		outer loop
			vertex -4.080732e+000 2.314298e+001 0.000000e+000
			vertex -8.037473e+000 2.208278e+001 0.000000e+000
			vertex -4.080732e+000 2.314298e+001 5.000000e+000
		endloop
	endfacet
	facet normal -8.715553e-002 9.961947e-001 0.000000e+000
		outer loop
			vertex -4.080732e+000 2.314298e+001 5.000000e+000
			vertex 1.438912e-015 2.350000e+001 5.000000e+000
			vertex -4.080732e+000 2.314298e+001 0.000000e+000
		endloop
	endfacet
	facet normal -8.715553e-002 9.961947e-001 0.000000e+000
		outer loop
			vertex 1.438912e-015 2.350000e+001 0.000000e+000
			vertex -4.080732e+000 2.314298e+001 0.000000e+000
			vertex 1.438912e-015 2.350000e+001 5.000000e+000
		endloop
	endfacet
	facet normal 8.715553e-002 9.961947e-001 0.000000e+000
		outer loop
			vertex 1.438912e-015 2.350000e+001 5.000000e+000
			vertex 4.080732e+000 2.314298e+001 5.000000e+000
			vertex 1.438912e-015 2.350000e+001 0.000000e+000
		endloop
	endfacet
	facet normal 8.715553e-002 9.961947e-001 -0.000000e+000
		outer loop
			vertex 4.080732e+000 2.314298e+001 0.000000e+000
			vertex 1.438912e-015 2.350000e+001 0.000000e+000
			vertex 4.080732e+000 2.314298e+001 5.000000e+000
		endloop
	endfacet
	facet normal 2.588193e-001 9.659258e-001 0.000000e+000
		outer loop
			vertex 4.080732e+000 2.314298e+001 5.000000e+000
			vertex 8.037473e+000 2.208278e+001 5.000000e+000
			vertex 4.080732e+000 2.314298e+001 0.000000e+000
		endloop
	endfacet
	facet normal 2.588193e-001 9.659258e-001 -0.000000e+000
		outer loop
			vertex 8.037473e+000 2.208278e+001 0.000000e+000
			vertex 4.080732e+000 2.314298e+001 0.000000e+000
			vertex 8.037473e+000 2.208278e+001 5.000000e+000
		endloop
	endfacet
	facet normal 4.226183e-001 9.063078e-001 0.000000e+000
		outer loop
			vertex 8.037473e+000 2.208278e+001 5.000000e+000
			vertex 1.175000e+001 2.035160e+001 5.000000e+000
			vertex 8.037473e+000 2.208278e+001 0.000000e+000
		endloop
	endfacet
	facet normal 4.226183e-001 9.063078e-001 -0.000000e+000
		outer loop
			vertex 1.175000e+001 2.035160e+001 0.000000e+000
			vertex 8.037473e+000 2.208278e+001 0.000000e+000
			vertex 1.175000e+001 2.035160e+001 5.000000e+000
		endloop
	endfacet
	facet normal 5.735762e-001 8.191522e-001 0.000000e+000
		outer loop
			vertex 1.175000e+001 2.035160e+001 5.000000e+000
			vertex 1.510551e+001 1.800204e+001 5.000000e+000
			vertex 1.175000e+001 2.035160e+001 0.000000e+000
		endloop
	endfacet
	facet normal 5.735762e-001 8.191522e-001 -0.000000e+000
		outer loop
			vertex 1.510551e+001 1.800204e+001 0.000000e+000
			vertex 1.175000e+001 2.035160e+001 0.000000e+000
			vertex 1.510551e+001 1.800204e+001 5.000000e+000
		endloop
	endfacet
	facet normal 7.071068e-001 7.071068e-001 0.000000e+000
		outer loop
			vertex 1.510551e+001 1.800204e+001 5.000000e+000
			vertex 1.800204e+001 1.510551e+001 5.000000e+000
			vertex 1.510551e+001 1.800204e+001 0.000000e+000
		endloop
	endfacet
	facet normal 7.071068e-001 7.071068e-001 -0.000000e+000
		outer loop
			vertex 1.800204e+001 1.510551e+001 0.000000e+000
			vertex 1.510551e+001 1.800204e+001 0.000000e+000
			vertex 1.800204e+001 1.510551e+001 5.000000e+000
		endloop
	endfacet
	facet normal 8.191522e-001 5.735762e-001 0.000000e+000
		outer loop
			vertex 1.800204e+001 1.510551e+001 5.000000e+000
			vertex 2.035160e+001 1.175000e+001 5.000000e+000
			vertex 1.800204e+001 1.510551e+001 0.000000e+000
		endloop
	endfacet
	facet normal 8.191522e-001 5.735762e-001 -0.000000e+000
		outer loop
			vertex 2.035160e+001 1.175000e+001 0.000000e+000
			vertex 1.800204e+001 1.510551e+001 0.000000e+000
			vertex 2.035160e+001 1.175000e+001 5.000000e+000
		endloop
	endfacet
	facet normal 9.063078e-001 4.226183e-001 0.000000e+000
		outer loop
			vertex 2.035160e+001 1.175000e+001 5.000000e+000
			vertex 2.208278e+001 8.037473e+000 5.000000e+000
			vertex 2.035160e+001 1.175000e+001 0.000000e+000
		endloop
	endfacet
	facet normal 9.063078e-001 4.226183e-001 -0.000000e+000
		outer loop
			vertex 2.208278e+001 8.037473e+000 0.000000e+000
			vertex 2.035160e+001 1.175000e+001 0.000000e+000
			vertex 2.208278e+001 8.037473e+000 5.000000e+000
		endloop
	endfacet
	facet normal 9.659258e-001 2.588193e-001 0.000000e+000
		outer loop
			vertex 2.208278e+001 8.037473e+000 5.000000e+000
			vertex 2.314298e+001 4.080732e+000 5.000000e+000
			vertex 2.208278e+001 8.037473e+000 0.000000e+000
		endloop
	endfacet
	facet normal 9.659258e-001 2.588193e-001 -0.000000e+000
		outer loop
			vertex 2.314298e+001 4.080732e+000 0.000000e+000
			vertex 2.208278e+001 8.037473e+000 0.000000e+000
			vertex 2.314298e+001 4.080732e+000 5.000000e+000
		endloop
	endfacet
	facet normal 9.961947e-001 8.715553e-002 0.000000e+000
		outer loop
			vertex 2.314298e+001 4.080732e+000 5.000000e+000
			vertex 2.350000e+001 -2.877825e-015 5.000000e+000
			vertex 2.314298e+001 4.080732e+000 0.000000e+000
		endloop
	endfacet
	facet normal 9.961947e-001 8.715553e-002 -0.000000e+000
		outer loop
			vertex 2.350000e+001 -2.877825e-015 0.000000e+000
			vertex 2.314298e+001 4.080732e+000 0.000000e+000
			vertex 2.350000e+001 -2.877825e-015 5.000000e+000
		endloop
	endfacet
	facet normal 9.961947e-001 -8.715553e-002 0.000000e+000
		outer loop
			vertex 2.350000e+001 -2.877825e-015 5.000000e+000
			vertex 2.314298e+001 -4.080732e+000 5.000000e+000
			vertex 2.350000e+001 -2.877825e-015 0.000000e+000
		endloop
	endfacet
	facet normal 9.961947e-001 -8.715553e-002 0.000000e+000
		outer loop
			vertex 2.314298e+001 -4.080732e+000 0.000000e+000
			vertex 2.350000e+001 -2.877825e-015 0.000000e+000
			vertex 2.314298e+001 -4.080732e+000 5.000000e+000
		endloop
	endfacet
	facet normal 9.659258e-001 -2.588193e-001 0.000000e+000
		outer loop
			vertex 2.314298e+001 -4.080732e+000 5.000000e+000
			vertex 2.208278e+001 -8.037473e+000 5.000000e+000
			vertex 2.314298e+001 -4.080732e+000 0.000000e+000
		endloop
	endfacet
	facet normal 9.659258e-001 -2.588193e-001 0.000000e+000
		outer loop
			vertex 2.208278e+001 -8.037473e+000 0.000000e+000
			vertex 2.314298e+001 -4.080732e+000 0.000000e+000
			vertex 2.208278e+001 -8.037473e+000 5.000000e+000
		endloop
	endfacet
	facet normal 9.063078e-001 -4.226183e-001 0.000000e+000
		outer loop
			vertex 2.208278e+001 -8.037473e+000 5.000000e+000
			vertex 2.035160e+001 -1.175000e+001 5.000000e+000
			vertex 2.208278e+001 -8.037473e+000 0.000000e+000
		endloop
	endfacet
	facet normal 9.063078e-001 -4.226183e-001 0.000000e+000
		outer loop
			vertex 2.035160e+001 -1.175000e+001 0.000000e+000
			vertex 2.208278e+001 -8.037473e+000 0.000000e+000
			vertex 2.035160e+001 -1.175000e+001 5.000000e+000
		endloop
	endfacet
	facet normal 8.191522e-001 -5.735762e-001 0.000000e+000
		outer loop
			vertex 2.035160e+001 -1.175000e+001 5.000000e+000
			vertex 1.800204e+001 -1.510551e+001 5.000000e+000
			vertex 2.035160e+001 -1.175000e+001 0.000000e+000
		endloop
	endfacet
	facet normal 8.191522e-001 -5.735762e-001 0.000000e+000
		outer loop
			vertex 1.800204e+001 -1.510551e+001 0.000000e+000
			vertex 2.035160e+001 -1.175000e+001 0.000000e+000
			vertex 1.800204e+001 -1.510551e+001 5.000000e+000
		endloop
	endfacet
	facet normal 7.071068e-001 -7.071068e-001 0.000000e+000
		outer loop
			vertex 1.800204e+001 -1.510551e+001 5.000000e+000
			vertex 1.510551e+001 -1.800204e+001 5.000000e+000
			vertex 1.800204e+001 -1.510551e+001 0.000000e+000
		endloop
	endfacet
	facet normal 7.071068e-001 -7.071068e-001 0.000000e+000
		outer loop
			vertex 1.510551e+001 -1.800204e+001 0.000000e+000
			vertex 1.800204e+001 -1.510551e+001 0.000000e+000
			vertex 1.510551e+001 -1.800204e+001 5.000000e+000
		endloop
	endfacet
	facet normal 5.735762e-001 -8.191522e-001 0.000000e+000
		outer loop
			vertex 1.510551e+001 -1.800204e+001 5.000000e+000
			vertex 1.175000e+001 -2.035160e+001 5.000000e+000
			vertex 1.510551e+001 -1.800204e+001 0.000000e+000
		endloop
	endfacet
	facet normal 5.735762e-001 -8.191522e-001 0.000000e+000
		outer loop
			vertex 1.175000e+001 -2.035160e+001 0.000000e+000
			vertex 1.510551e+001 -1.800204e+001 0.000000e+000
			vertex 1.175000e+001 -2.035160e+001 5.000000e+000
		endloop
	endfacet
	facet normal 4.226183e-001 -9.063078e-001 0.000000e+000
		outer loop
			vertex 1.175000e+001 -2.035160e+001 5.000000e+000
			vertex 8.037473e+000 -2.208278e+001 5.000000e+000
			vertex 1.175000e+001 -2.035160e+001 0.000000e+000
		endloop
	endfacet
	facet normal 4.226183e-001 -9.063078e-001 0.000000e+000
		outer loop
			vertex 8.037473e+000 -2.208278e+001 0.000000e+000
			vertex 1.175000e+001 -2.035160e+001 0.000000e+000
			vertex 8.037473e+000 -2.208278e+001 5.000000e+000
		endloop
	endfacet
	facet normal 2.588193e-001 -9.659258e-001 0.000000e+000
		outer loop
			vertex 8.037473e+000 -2.208278e+001 5.000000e+000
			vertex 4.080732e+000 -2.314298e+001 5.000000e+000
			vertex 8.037473e+000 -2.208278e+001 0.000000e+000
		endloop
	endfacet
	facet normal 2.588193e-001 -9.659258e-001 0.000000e+000
		outer loop
			vertex 4.080732e+000 -2.314298e+001 0.000000e+000
			vertex 8.037473e+000 -2.208278e+001 0.000000e+000
			vertex 4.080732e+000 -2.314298e+001 5.000000e+000
		endloop
	endfacet
	facet normal 8.715553e-002 -9.961947e-001 0.000000e+000
		outer loop
			vertex 4.080732e+000 -2.314298e+001 5.000000e+000
			vertex -4.316738e-015 -2.350000e+001 5.000000e+000
			vertex 4.080732e+000 -2.314298e+001 0.000000e+000
		endloop
	endfacet
	facet normal 8.715553e-002 -9.961947e-001 0.000000e+000
		outer loop
			vertex -4.316738e-015 -2.350000e+001 0.000000e+000
			vertex 4.080732e+000 -2.314298e+001 0.000000e+000
			vertex -4.316738e-015 -2.350000e+001 5.000000e+000
		endloop
	endfacet
	facet normal -8.715553e-002 -9.961947e-001 -0.000000e+000
		outer loop
			vertex -4.316738e-015 -2.350000e+001 5.000000e+000
			vertex -4.080732e+000 -2.314298e+001 5.000000e+000
			vertex -4.316738e-015 -2.350000e+001 0.000000e+000
		endloop
	endfacet
	facet normal -8.715553e-002 -9.961947e-001 0.000000e+000
		outer loop
			vertex -4.080732e+000 -2.314298e+001 0.000000e+000
			vertex -4.316738e-015 -2.350000e+001 0.000000e+000
			vertex -4.080732e+000 -2.314298e+001 5.000000e+000
		endloop
	endfacet
	facet normal -2.588193e-001 -9.659258e-001 -0.000000e+000
		outer loop
			vertex -4.080732e+000 -2.314298e+001 5.000000e+000
			vertex -8.037473e+000 -2.208278e+001 5.000000e+000
			vertex -4.080732e+000 -2.314298e+001 0.000000e+000
		endloop
	endfacet
	facet normal -2.588193e-001 -9.659258e-001 0.000000e+000
		outer loop
			vertex -8.037473e+000 -2.208278e+001 0.000000e+000
			vertex -4.080732e+000 -2.314298e+001 0.000000e+000
			vertex -8.037473e+000 -2.208278e+001 5.000000e+000
		endloop
	endfacet
	facet normal -4.226183e-001 -9.063078e-001 -0.000000e+000
		outer loop
			vertex -8.037473e+000 -2.208278e+001 5.000000e+000
			vertex -1.175000e+001 -2.035160e+001 5.000000e+000
			vertex -8.037473e+000 -2.208278e+001 0.000000e+000
		endloop
	endfacet
	facet normal -4.226183e-001 -9.063078e-001 0.000000e+000
		outer loop
			vertex -1.175000e+001 -2.035160e+001 0.000000e+000
			vertex -8.037473e+000 -2.208278e+001 0.000000e+000
			vertex -1.175000e+001 -2.035160e+001 5.000000e+000
		endloop
	endfacet
	facet normal -5.735762e-001 -8.191522e-001 -0.000000e+000
		outer loop
			vertex -1.175000e+001 -2.035160e+001 5.000000e+000
			vertex -1.510551e+001 -1.800204e+001 5.000000e+000
			vertex -1.175000e+001 -2.035160e+001 0.000000e+000
		endloop
	endfacet
	facet normal -5.735762e-001 -8.191522e-001 0.000000e+000
		outer loop
			vertex -1.510551e+001 -1.800204e+001 0.000000e+000
			vertex -1.175000e+001 -2.035160e+001 0.000000e+000
			vertex -1.510551e+001 -1.800204e+001 5.000000e+000
		endloop
	endfacet
	facet normal -7.071068e-001 -7.071068e-001 -0.000000e+000
		outer loop
			vertex -1.510551e+001 -1.800204e+001 5.000000e+000
			vertex -1.800204e+001 -1.510551e+001 5.000000e+000
			vertex -1.510551e+001 -1.800204e+001 0.000000e+000
		endloop
	endfacet
	facet normal -7.071068e-001 -7.071068e-001 0.000000e+000
		outer loop
			vertex -1.800204e+001 -1.510551e+001 0.000000e+000
			vertex -1.510551e+001 -1.800204e+001 0.000000e+000
			vertex -1.800204e+001 -1.510551e+001 5.000000e+000
		endloop
	endfacet
	facet normal -8.191522e-001 -5.735762e-001 -0.000000e+000
		outer loop
			vertex -1.800204e+001 -1.510551e+001 5.000000e+000
			vertex -2.035160e+001 -1.175000e+001 5.000000e+000
			vertex -1.800204e+001 -1.510551e+001 0.000000e+000
		endloop
	endfacet
	facet normal -8.191522e-001 -5.735762e-001 0.000000e+000
		outer loop
			vertex -2.035160e+001 -1.175000e+001 0.000000e+000
			vertex -1.800204e+001 -1.510551e+001 0.000000e+000
			vertex -2.035160e+001 -1.175000e+001 5.000000e+000
		endloop
	endfacet
	facet normal -9.063078e-001 -4.226183e-001 -0.000000e+000
		outer loop
			vertex -2.035160e+001 -1.175000e+001 5.000000e+000
			vertex -2.208278e+001 -8.037473e+000 5.000000e+000
			vertex -2.035160e+001 -1.175000e+001 0.000000e+000
		endloop
	endfacet
	facet normal -9.063078e-001 -4.226183e-001 0.000000e+000
		outer loop
			vertex -2.208278e+001 -8.037473e+000 0.000000e+000
			vertex -2.035160e+001 -1.175000e+001 0.000000e+000
			vertex -2.208278e+001 -8.037473e+000 5.000000e+000
		endloop
	endfacet
	facet normal -9.659258e-001 -2.588193e-001 -0.000000e+000
		outer loop
			vertex -2.208278e+001 -8.037473e+000 5.000000e+000
			vertex -2.314298e+001 -4.080732e+000 5.000000e+000
			vertex -2.208278e+001 -8.037473e+000 0.000000e+000
		endloop
	endfacet
	facet normal -9.659258e-001 -2.588193e-001 0.000000e+000
		outer loop
			vertex -2.314298e+001 -4.080732e+000 0.000000e+000
			vertex -2.208278e+001 -8.037473e+000 0.000000e+000
			vertex -2.314298e+001 -4.080732e+000 5.000000e+000
		endloop
	endfacet
	facet normal -9.961947e-001 -8.715553e-002 -0.000000e+000
		outer loop
			vertex -2.314298e+001 -4.080732e+000 5.000000e+000
			vertex -2.350000e+001 2.877825e-015 5.000000e+000
			vertex -2.314298e+001 -4.080732e+000 0.000000e+000
		endloop
	endfacet
	facet normal -9.961947e-001 -8.715553e-002 0.000000e+000
		outer loop
			vertex -2.350000e+001 2.877825e-015 0.000000e+000
			vertex -2.314298e+001 -4.080732e+000 0.000000e+000
			vertex -2.350000e+001 2.877825e-015 5.000000e+000
		endloop
	endfacet
endsolid
