<?xml version="1.0" standalone="no"?>
<!DOCTYPE svg PUBLIC "-//W3C//DTD SVG 1.1//EN"
  "http://www.w3.org/Graphics/SVG/1.1/DTD/svg11.dtd">
<svg width="262mm" height="261.82598876953125mm" viewBox="-131 -130.91299438476562 262 261.82598876953125" xmlns="http://www.w3.org/2000/svg" version="1.1">
	<title>svgOutput</title>
	<desc>made with tinkercad</desc>
<path d="M -128.61500549316406 18.92799949645996 L -128.89476013183594 16.384000778198242 L -129.6529998779297 9.48900032043457 L -130 4.440892164675075e-17 L -129.93203735351562 -1.8586927652359009 L -129.80999755859375 -5.195662021636963 L -129.6823272705078 -8.687028884887695 L -129.6529998779297 -9.48900032043457 L -128.89476013183594 -16.384000778198242 L -128.61500549316406 -18.92799949645996 L -126.88999938964844 -28.266000747680664 L -125.71292114257812 -32.768001556396484 L -124.48799896240234 -37.452999114990234 L -121.4219970703125 -46.439998626708984 L -120.26942443847656 -49.152000427246094 L -117.70800018310547 -55.17900085449219 L -113.36699676513672 -63.624000549316406 L -112.20012664794922 -65.53600311279297 L -108.41999816894531 -71.7300033569336 L -102.8949966430664 -79.4530029296875 L -98.30400085449219 -84.96824645996094 L -97.32587432861328 -86.1432876586914 L -96.81999969482422 -86.7509994506836 L -90.2300033569336 -93.58799743652344 L -84.96617889404297 -98.30400085449219 L -83.15799713134766 -99.92400360107422 L -75.64199829101562 -105.72799682617188 L -67.72200012207031 -110.96700286865234 L -65.53600311279297 -112.1941146850586 L -59.44200134277344 -115.61499786376953 L -50.84400177001953 -119.6449966430664 L -41.9739990234375 -123.03700256347656 L -32.88100051879883 -125.77300262451172 L -32.83568572998047 -125.78309631347656 L -32.768001556396484 -125.79817962646484 L -23.613000869750977 -127.83799743652344 L -16.384000778198242 -128.90138244628906 L -14.218000411987305 -129.22000122070312 L -4.748000144958496 -129.91299438476562 L 0 -129.91299438476562 L 1.8641703128814697 -129.91299438476562 L 4.748000144958496 -129.91299438476562 L 5.18356466293335 -129.88111877441406 L 14.218000411987305 -129.22000122070312 L 16.384000778198242 -128.90138244628906 L 23.613000869750977 -127.83799743652344 L 32.768001556396484 -125.79817962646484 L 32.88100051879883 -125.77300262451172 L 41.9739990234375 -123.03700256347656 L 49.152000427246094 -120.29204559326172 L 50.84400177001953 -119.6449966430664 L 59.441001892089844 -115.61499786376953 L 65.53600311279297 -112.1939697265625 L 67.72200012207031 -110.96700286865234 L 75.64199829101562 -105.72799682617188 L 83.15699768066406 -99.92400360107422 L 84.96543884277344 -98.30400085449219 L 90.2300033569336 -93.58799743652344 L 96.81999969482422 -86.7509994506836 L 98.30400085449219 -84.96824645996094 L 102.8949966430664 -79.4530029296875 L 108.41999816894531 -71.7300033569336 L 112.1993637084961 -65.53600311279297 L 113.36599731445312 -63.624000549316406 L 117.70800018310547 -55.17900085449219 L 121.4219970703125 -46.439998626708984 L 124.48799896240234 -37.452999114990234 L 125.71292114257812 -32.768001556396484 L 126.88999938964844 -28.266000747680664 L 127.78290557861328 -23.432418823242188 L 128.61500549316406 -18.92799949645996 L 128.89476013183594 -16.384000778198242 L 129.6529998779297 -9.48900032043457 L 130 4.440892164675075e-17 L 129.93203735351562 1.8586927652359009 L 129.80999755859375 5.195662021636963 L 129.6529998779297 9.48900032043457 L 128.89476013183594 16.384000778198242 L 128.61500549316406 18.92799949645996 L 126.88999938964844 28.266000747680664 L 125.71292114257812 32.768001556396484 L 124.48799896240234 37.452999114990234 L 121.4219970703125 46.439998626708984 L 120.26942443847656 49.152000427246094 L 119.9878158569336 49.81461715698242 L 117.70800018310547 55.17900085449219 L 113.36599731445312 63.624000549316406 L 112.1993637084961 65.53600311279297 L 108.41999816894531 71.7300033569336 L 102.8949966430664 79.4530029296875 L 98.30400085449219 84.96824645996094 L 96.81999969482422 86.7509994506836 L 90.2300033569336 93.58699798583984 L 84.96514892578125 98.30400085449219 L 83.15699768066406 99.92400360107422 L 75.64199829101562 105.72799682617188 L 67.72200012207031 110.96700286865234 L 65.53600311279297 112.1939697265625 L 59.441001892089844 115.61499786376953 L 50.84400177001953 119.6449966430664 L 41.9739990234375 123.03700256347656 L 32.88100051879883 125.77300262451172 L 32.83568572998047 125.78309631347656 L 32.768001556396484 125.79817962646484 L 23.613000869750977 127.83799743652344 L 23.396379470825195 127.86986541748047 L 16.384000778198242 128.90138244628906 L 14.218000411987305 129.22000122070312 L 4.748000144958496 129.91299438476562 L 0 129.91299438476562 L -1.8641703128814697 129.91299438476562 L -4.748000144958496 129.91299438476562 L -5.18356466293335 129.88111877441406 L -8.690264701843262 129.62451171875 L -14.218000411987305 129.22000122070312 L -16.384000778198242 128.90138244628906 L -23.613000869750977 127.83799743652344 L -32.768001556396484 125.79817962646484 L -32.88100051879883 125.77300262451172 L -41.9739990234375 123.03700256347656 L -49.152000427246094 120.29204559326172 L -49.78958511352539 120.04822540283203 L -50.84400177001953 119.6449966430664 L -59.44200134277344 115.61499786376953 L -65.53600311279297 112.1941146850586 L -67.72200012207031 110.96700286865234 L -75.64199829101562 105.72799682617188 L -83.15799713134766 99.92400360107422 L -84.96589660644531 98.30400085449219 L -90.2300033569336 93.58699798583984 L -96.81999969482422 86.7509994506836 L -98.30400085449219 84.96824645996094 L -102.8949966430664 79.4530029296875 L -108.41999816894531 71.7300033569336 L -112.20012664794922 65.53600311279297 L -113.36699676513672 63.624000549316406 L -117.70800018310547 55.17900085449219 L -121.4219970703125 46.439998626708984 L -124.48799896240234 37.452999114990234 L -125.71292114257812 32.768001556396484 L -126.88999938964844 28.266000747680664 L -128.61500549316406 18.92799949645996 M -98.30400085449219 34.38410949707031 L -96.76200103759766 34.47100067138672 L -94.24299621582031 34.32899856567383 L -91.75599670410156 33.90599822998047 L -89.33100128173828 33.20800018310547 L -88.2692642211914 32.768001556396484 L -87 32.242000579833984 L -84.79199981689453 31.02199935913086 L -82.73400115966797 29.562000274658203 L -80.85199737548828 27.881000518798828 L -79.1709976196289 25.999000549316406 L -77.71099853515625 23.94099998474121 L -76.49099731445312 21.732999801635742 L -75.5250015258789 19.402000427246094 L -74.8270034790039 16.976999282836914 L -74.40399932861328 14.489999771118164 L -74.26200103759766 11.970999717712402 L -74.40399932861328 9.451000213623047 L -74.8270034790039 6.964000225067139 L -75.5250015258789 4.539000034332275 L -76.49099731445312 2.2079999446868896 L -77.71099853515625 4.440892164675075e-17 L -79.1709976196289 -2.058000087738037 L -80.85199737548828 -3.938999891281128 L -82.73400115966797 -5.620999813079834 L -84.79199981689453 -7.080999851226807 L -87 -8.300999641418457 L -89.33100128173828 -9.267000198364258 L -91.75599670410156 -9.96500015258789 L -94.24299621582031 -10.387999534606934 L -96.76200103759766 -10.529000282287598 L -98.30400085449219 -10.442721366882324 L -99.28199768066406 -10.387999534606934 L -101.76899719238281 -9.96500015258789 L -104.19400024414062 -9.267000198364258 L -106.5250015258789 -8.300999641418457 L -108.73300170898438 -7.080999851226807 L -110.79100036621094 -5.620999813079834 L -112.6719970703125 -3.938999891281128 L -114.35399627685547 -2.058000087738037 L -115.81400299072266 4.440892164675075e-17 L -117.03399658203125 2.2079999446868896 L -118 4.539000034332275 L -118.697998046875 6.964000225067139 L -119.12100219726562 9.451000213623047 L -119.26200103759766 11.970999717712402 L -119.12100219726562 14.489999771118164 L -118.79885864257812 16.384000778198242 L -118.697998046875 16.976999282836914 L -118 19.402000427246094 L -117.03399658203125 21.732999801635742 L -115.81400299072266 23.94099998474121 L -114.35399627685547 25.999000549316406 L -112.6719970703125 27.881000518798828 L -110.79100036621094 29.562000274658203 L -108.73300170898438 31.02199935913086 L -106.5250015258789 32.242000579833984 L -105.2557373046875 32.768001556396484 L -104.19400024414062 33.20800018310547 L -101.76899719238281 33.90599822998047 L -99.28199768066406 34.32899856567383 L -98.30400085449219 34.38410949707031 M 80.68399810791016 82.81999969482422 L 80.83707427978516 81.91999816894531 L 81.10700225830078 80.33300018310547 L 81.24800109863281 77.81300354003906 L 81.10700225830078 75.29399871826172 L 80.68399810791016 72.80699920654297 L 79.98500061035156 70.38200378417969 L 79.0199966430664 68.0510025024414 L 77.79900360107422 65.84300231933594 L 77.58120727539062 65.53600311279297 L 76.33899688720703 63.78499984741211 L 74.65799713134766 61.90299987792969 L 72.7770004272461 60.22200012207031 L 70.71900177001953 58.762001037597656 L 68.51000213623047 57.54199981689453 L 66.17900085449219 56.57600021362305 L 65.53600311279297 56.39057922363281 L 63.755001068115234 55.87699890136719 L 61.266998291015625 55.45500183105469 L 58.74800109863281 55.3129997253418 L 56.229000091552734 55.45500183105469 L 53.74100112915039 55.87699890136719 L 51.31700134277344 56.57600021362305 L 48.986000061035156 57.54199981689453 L 46.777000427246094 58.762001037597656 L 44.71900177001953 60.22200012207031 L 42.8380012512207 61.90299987792969 L 41.15700149536133 63.78499984741211 L 39.914794921875 65.53600311279297 L 39.696998596191406 65.84300231933594 L 38.47600173950195 68.0510025024414 L 37.51100158691406 70.38200378417969 L 36.8120002746582 72.80699920654297 L 36.388999938964844 75.29399871826172 L 36.24800109863281 77.81300354003906 L 36.388999938964844 80.33300018310547 L 36.6589241027832 81.91999816894531 L 36.8120002746582 82.81999969482422 L 37.51100158691406 85.24500274658203 L 38.47600173950195 87.57599639892578 L 39.696998596191406 89.78399658203125 L 41.15700149536133 91.84200286865234 L 42.8380012512207 93.7229995727539 L 44.71900177001953 95.40499877929688 L 46.777000427246094 96.86499786376953 L 48.986000061035156 98.08499908447266 L 49.51445770263672 98.30400085449219 L 51.31700134277344 99.0510025024414 L 53.74100112915039 99.7490005493164 L 56.229000091552734 100.1719970703125 L 58.74800109863281 100.31300354003906 L 61.266998291015625 100.1719970703125 L 63.755001068115234 99.7490005493164 L 65.53600311279297 99.23615264892578 L 66.17900085449219 99.0510025024414 L 67.9815444946289 98.30400085449219 L 68.51000213623047 98.08499908447266 L 70.71900177001953 96.86499786376953 L 72.7770004272461 95.40499877929688 L 74.65799713134766 93.7229995727539 L 76.33899688720703 91.84200286865234 L 77.79900360107422 89.78399658203125 L 79.0199966430664 87.57599639892578 L 79.98500061035156 85.24500274658203 L 80.68399810791016 82.81999969482422 M 80.02200317382812 58.2859992980957 L 81.91999816894531 59.07255935668945 L 82.35299682617188 59.25199890136719 L 84.7770004272461 59.95000076293945 L 87.26499938964844 60.37300109863281 L 89.78399658203125 60.513999938964844 L 92.3030014038086 60.37300109863281 L 94.79100036621094 59.95000076293945 L 97.21499633789062 59.25199890136719 L 98.30400085449219 58.80070114135742 L 99.5459976196289 58.2859992980957 L 101.75499725341797 57.066001892089844 L 103.81300354003906 55.60599899291992 L 105.69400024414062 53.92399978637695 L 107.375 52.042999267578125 L 108.83499908447266 49.98500061035156 L 109.29563903808594 49.152000427246094 L 110.05599975585938 47.777000427246094 L 111.02100372314453 45.44599914550781 L 111.72000122070312 43.020999908447266 L 112.14299774169922 40.534000396728516 L 112.28399658203125 38.013999938964844 L 112.14299774169922 35.494998931884766 L 111.72000122070312 33.007999420166016 L 111.65081787109375 32.768001556396484 L 111.02100372314453 30.58300018310547 L 110.05599975585938 28.25200080871582 L 108.83499908447266 26.04400062561035 L 107.375 23.986000061035156 L 105.69400024414062 22.104000091552734 L 103.81300354003906 20.42300033569336 L 101.75499725341797 18.96299934387207 L 99.5459976196289 17.743000030517578 L 98.30400085449219 17.22829818725586 L 97.21499633789062 16.777000427246094 L 95.8521499633789 16.384000778198242 L 94.79100036621094 16.077999114990234 L 92.3030014038086 15.656000137329102 L 89.78399658203125 15.513999938964844 L 87.26499938964844 15.656000137329102 L 84.7770004272461 16.077999114990234 L 83.71585083007812 16.384000778198242 L 82.35299682617188 16.777000427246094 L 80.02200317382812 17.743000030517578 L 77.81300354003906 18.96299934387207 L 75.75499725341797 20.42300033569336 L 73.8740005493164 22.104000091552734 L 72.19300079345703 23.986000061035156 L 70.73300170898438 26.04400062561035 L 69.51200103759766 28.25200080871582 L 68.5469970703125 30.58300018310547 L 67.91718292236328 32.768001556396484 L 67.8479995727539 33.007999420166016 L 67.42500305175781 35.494998931884766 L 67.28399658203125 38.013999938964844 L 67.42500305175781 40.534000396728516 L 67.8479995727539 43.020999908447266 L 68.5469970703125 45.44599914550781 L 69.51200103759766 47.777000427246094 L 70.2723617553711 49.152000427246094 L 70.73300170898438 49.98500061035156 L 72.19300079345703 52.042999267578125 L 73.8740005493164 53.92399978637695 L 75.75499725341797 55.60599899291992 L 77.81300354003906 57.066001892089844 L 80.02200317382812 58.2859992980957 M -98.15379333496094 49.152000427246094 L -98.30400085449219 49.51445770263672 L -99.0510025024414 51.31700134277344 L -99.7490005493164 53.74100112915039 L -100.1719970703125 56.229000091552734 L -100.31300354003906 58.74800109863281 L -100.1719970703125 61.266998291015625 L -99.7490005493164 63.755001068115234 L -99.23615264892578 65.53600311279297 L -99.0510025024414 66.17900085449219 L -98.30400085449219 67.9815444946289 L -98.08499908447266 68.51000213623047 L -96.86499786376953 70.71900177001953 L -95.40499877929688 72.7770004272461 L -93.7229995727539 74.65799713134766 L -91.84200286865234 76.33899688720703 L -89.78399658203125 77.79900360107422 L -87.57599639892578 79.0199966430664 L -85.24500274658203 79.98500061035156 L -82.81999969482422 80.68399810791016 L -81.91999816894531 80.83707427978516 L -80.33300018310547 81.10700225830078 L -77.81300354003906 81.24800109863281 L -75.29399871826172 81.10700225830078 L -72.80699920654297 80.68399810791016 L -70.38200378417969 79.98500061035156 L -68.0510025024414 79.0199966430664 L -65.84300231933594 77.79900360107422 L -65.53600311279297 77.58120727539062 L -63.78499984741211 76.33899688720703 L -61.90299987792969 74.65799713134766 L -60.22200012207031 72.7770004272461 L -58.762001037597656 70.71900177001953 L -57.54199981689453 68.51000213623047 L -56.57600021362305 66.17900085449219 L -56.390846252441406 65.53600311279297 L -55.87799835205078 63.755001068115234 L -55.45500183105469 61.266998291015625 L -55.3129997253418 58.74800109863281 L -55.45500183105469 56.229000091552734 L -55.87799835205078 53.74100112915039 L -56.57600021362305 51.31700134277344 L -57.54199981689453 48.986000061035156 L -58.762001037597656 46.777000427246094 L -60.22200012207031 44.720001220703125 L -61.90299987792969 42.8380012512207 L -63.78499984741211 41.15700149536133 L -65.53600311279297 39.914794921875 L -65.84300231933594 39.696998596191406 L -68.0510025024414 38.47600173950195 L -70.38200378417969 37.51100158691406 L -72.80699920654297 36.8120002746582 L -75.29399871826172 36.38999938964844 L -77.81300354003906 36.24800109863281 L -80.33300018310547 36.38999938964844 L -81.91999816894531 36.65928649902344 L -82.81999969482422 36.8120002746582 L -85.24500274658203 37.51100158691406 L -87.57599639892578 38.47600173950195 L -89.78399658203125 39.696998596191406 L -91.84200286865234 41.15700149536133 L -93.7229995727539 42.8380012512207 L -95.40499877929688 44.720001220703125 L -96.86499786376953 46.777000427246094 L -98.08499908447266 48.986000061035156 L -98.15379333496094 49.152000427246094 M 2.2079999446868896 76.49099731445312 L -2.4428133737282483e-14 77.71099853515625 L -2.058000087738037 79.1709976196289 L -3.938999891281128 80.85199737548828 L -4.893503665924072 81.91999816894531 L -5.620999813079834 82.73400115966797 L -7.080999851226807 84.79199981689453 L -8.300999641418457 87 L -9.267000198364258 89.33100128173828 L -9.96500015258789 91.75599670410156 L -10.387999534606934 94.24299621582031 L -10.529000282287598 96.76200103759766 L -10.442721366882324 98.30400085449219 L -10.387999534606934 99.28199768066406 L -9.96500015258789 101.76899719238281 L -9.267000198364258 104.19400024414062 L -8.300999641418457 106.5250015258789 L -7.080999851226807 108.73300170898438 L -5.620999813079834 110.79100036621094 L -3.938999891281128 112.6719970703125 L -2.058000087738037 114.35399627685547 L 0 115.81400299072266 L 2.2079999446868896 117.03399658203125 L 4.539000034332275 118 L 6.964000225067139 118.697998046875 L 9.451000213623047 119.12100219726562 L 11.970999717712402 119.26200103759766 L 14.489999771118164 119.12100219726562 L 16.384000778198242 118.79885864257812 L 16.976999282836914 118.697998046875 L 19.402000427246094 118 L 21.732999801635742 117.03399658203125 L 23.94099998474121 115.81400299072266 L 25.999000549316406 114.35399627685547 L 27.8799991607666 112.6719970703125 L 29.562000274658203 110.79100036621094 L 31.02199935913086 108.73300170898438 L 32.242000579833984 106.5250015258789 L 32.768001556396484 105.2557373046875 L 33.20800018310547 104.19400024414062 L 33.90599822998047 101.76899719238281 L 34.32899856567383 99.28199768066406 L 34.38410949707031 98.30400085449219 L 34.47100067138672 96.76200103759766 L 34.32899856567383 94.24299621582031 L 33.90599822998047 91.75599670410156 L 33.20800018310547 89.33100128173828 L 32.768001556396484 88.2692642211914 L 32.242000579833984 87 L 31.02199935913086 84.79199981689453 L 29.562000274658203 82.73400115966797 L 27.8799991607666 80.85199737548828 L 25.999000549316406 79.1709976196289 L 23.94099998474121 77.71099853515625 L 21.732999801635742 76.49099731445312 L 19.402000427246094 75.5250015258789 L 16.976999282836914 74.82599639892578 L 14.489999771118164 74.40399932861328 L 11.970999717712402 74.26200103759766 L 9.451000213623047 74.40399932861328 L 6.964000225067139 74.82599639892578 L 4.539000034332275 75.5250015258789 L 2.2079999446868896 76.49099731445312 M 114.35399627685547 2.058000087738037 L 115.81400299072266 4.440892164675075e-17 L 117.03399658203125 -2.2079999446868896 L 118 -4.539000034332275 L 118.697998046875 -6.964000225067139 L 119.12100219726562 -9.451000213623047 L 119.26200103759766 -11.970999717712402 L 119.12100219726562 -14.489999771118164 L 118.79885864257812 -16.384000778198242 L 118.697998046875 -16.976999282836914 L 118 -19.402000427246094 L 117.03399658203125 -21.732999801635742 L 115.81400299072266 -23.94099998474121 L 114.35399627685547 -25.999000549316406 L 112.6719970703125 -27.881000518798828 L 110.79100036621094 -29.562000274658203 L 108.73300170898438 -31.02199935913086 L 106.5250015258789 -32.242000579833984 L 105.2557373046875 -32.768001556396484 L 104.19400024414062 -33.20800018310547 L 101.76899719238281 -33.90599822998047 L 99.28199768066406 -34.32899856567383 L 98.30400085449219 -34.38410949707031 L 96.76200103759766 -34.47100067138672 L 94.24299621582031 -34.32899856567383 L 91.84166717529297 -33.920570373535156 L 91.75599670410156 -33.90599822998047 L 89.33100128173828 -33.20800018310547 L 88.2692642211914 -32.768001556396484 L 87 -32.242000579833984 L 84.79199981689453 -31.02199935913086 L 82.73400115966797 -29.562000274658203 L 80.85199737548828 -27.881000518798828 L 79.1709976196289 -25.999000549316406 L 77.71099853515625 -23.94099998474121 L 76.49099731445312 -21.732999801635742 L 75.5250015258789 -19.402000427246094 L 74.82599639892578 -16.976999282836914 L 74.40399932861328 -14.489999771118164 L 74.26200103759766 -11.970999717712402 L 74.40399932861328 -9.451000213623047 L 74.82599639892578 -6.964000225067139 L 75.5250015258789 -4.539000034332275 L 76.49099731445312 -2.2079999446868896 L 77.71099853515625 4.440892164675075e-17 L 79.1709976196289 2.058000087738037 L 80.85199737548828 3.938999891281128 L 82.73400115966797 5.620999813079834 L 84.79199981689453 7.080999851226807 L 87 8.300999641418457 L 89.33100128173828 9.267000198364258 L 91.75599670410156 9.96500015258789 L 94.24299621582031 10.387999534606934 L 96.76200103759766 10.529000282287598 L 98.30400085449219 10.442721366882324 L 99.28199768066406 10.387999534606934 L 101.76899719238281 9.96500015258789 L 104.19400024414062 9.267000198364258 L 106.5250015258789 8.300999641418457 L 108.73300170898438 7.080999851226807 L 110.79100036621094 5.620999813079834 L 112.6719970703125 3.938999891281128 L 114.35399627685547 2.058000087738037 M -2.2079999446868896 -76.49099731445312 L 0 -77.71099853515625 L 2.058000087738037 -79.1709976196289 L 3.938999891281128 -80.85199737548828 L 4.893503665924072 -81.91999816894531 L 5.620999813079834 -82.73400115966797 L 7.080999851226807 -84.79199981689453 L 8.300999641418457 -87 L 9.267000198364258 -89.33100128173828 L 9.96500015258789 -91.75599670410156 L 10.387999534606934 -94.24299621582031 L 10.529000282287598 -96.76200103759766 L 10.442721366882324 -98.30400085449219 L 10.387999534606934 -99.28199768066406 L 9.96500015258789 -101.76899719238281 L 9.267000198364258 -104.19400024414062 L 8.300999641418457 -106.5250015258789 L 7.080999851226807 -108.73300170898438 L 5.620999813079834 -110.79100036621094 L 3.938999891281128 -112.6719970703125 L 2.058000087738037 -114.35399627685547 L -2.0412548740059502e-14 -115.81400299072266 L -2.2079999446868896 -117.03399658203125 L -4.539000034332275 -118 L -6.964000225067139 -118.697998046875 L -9.451000213623047 -119.12100219726562 L -11.970999717712402 -119.26200103759766 L -14.489999771118164 -119.12100219726562 L -16.384000778198242 -118.79885864257812 L -16.976999282836914 -118.697998046875 L -19.402000427246094 -118 L -21.732999801635742 -117.03399658203125 L -23.94099998474121 -115.81400299072266 L -25.999000549316406 -114.35399627685547 L -27.881000518798828 -112.6719970703125 L -29.562000274658203 -110.79100036621094 L -31.02199935913086 -108.73300170898438 L -32.242000579833984 -106.5250015258789 L -32.768001556396484 -105.2557373046875 L -33.20800018310547 -104.19400024414062 L -33.90700149536133 -101.76899719238281 L -34.32899856567383 -99.28199768066406 L -34.38410949707031 -98.30400085449219 L -34.47100067138672 -96.76200103759766 L -34.32899856567383 -94.24299621582031 L -33.90700149536133 -91.75599670410156 L -33.20800018310547 -89.33100128173828 L -32.768001556396484 -88.2692642211914 L -32.242000579833984 -87 L -31.02199935913086 -84.79199981689453 L -29.562000274658203 -82.73400115966797 L -27.881000518798828 -80.85199737548828 L -25.999000549316406 -79.1709976196289 L -23.94099998474121 -77.71099853515625 L -21.732999801635742 -76.49099731445312 L -19.402000427246094 -75.5250015258789 L -16.976999282836914 -74.82599639892578 L -14.489999771118164 -74.40399932861328 L -11.970999717712402 -74.26200103759766 L -9.451000213623047 -74.40399932861328 L -6.964000225067139 -74.82599639892578 L -4.539000034332275 -75.5250015258789 L -2.2079999446868896 -76.49099731445312 M -16.777000427246094 82.35299682617188 L -16.95644187927246 81.91999816894531 L -17.743000030517578 80.02200317382812 L -18.96299934387207 77.81300354003906 L -20.42300033569336 75.75499725341797 L -22.104000091552734 73.8740005493164 L -23.986000061035156 72.19300079345703 L -26.04400062561035 70.73300170898438 L -28.25200080871582 69.51200103759766 L -30.58300018310547 68.5469970703125 L -32.768001556396484 67.91718292236328 L -33.007999420166016 67.8479995727539 L -35.494998931884766 67.42500305175781 L -38.013999938964844 67.28399658203125 L -40.534000396728516 67.42500305175781 L -43.020999908447266 67.8479995727539 L -45.44599914550781 68.5469970703125 L -47.777000427246094 69.51200103759766 L -49.152000427246094 70.2723617553711 L -49.98500061035156 70.73300170898438 L -52.042999267578125 72.19300079345703 L -53.92399978637695 73.8740005493164 L -55.60599899291992 75.75499725341797 L -57.066001892089844 77.81300354003906 L -58.2859992980957 80.02200317382812 L -59.07255935668945 81.91999816894531 L -59.25199890136719 82.35299682617188 L -59.95000076293945 84.7770004272461 L -60.37300109863281 87.26499938964844 L -60.513999938964844 89.78399658203125 L -60.37300109863281 92.3030014038086 L -59.95000076293945 94.79100036621094 L -59.25199890136719 97.21499633789062 L -58.80070114135742 98.30400085449219 L -58.2859992980957 99.5459976196289 L -57.066001892089844 101.75499725341797 L -55.60599899291992 103.81199645996094 L -53.92399978637695 105.69400024414062 L -52.042999267578125 107.375 L -49.98500061035156 108.83499908447266 L -49.152000427246094 109.29563903808594 L -47.777000427246094 110.05599975585938 L -45.44599914550781 111.02100372314453 L -43.020999908447266 111.72000122070312 L -40.534000396728516 112.14199829101562 L -38.013999938964844 112.28399658203125 L -35.494998931884766 112.14199829101562 L -33.007999420166016 111.72000122070312 L -32.768001556396484 111.65081787109375 L -30.58300018310547 111.02100372314453 L -28.25200080871582 110.05599975585938 L -26.04400062561035 108.83499908447266 L -23.986000061035156 107.375 L -22.104000091552734 105.69400024414062 L -20.42300033569336 103.81199645996094 L -18.96299934387207 101.75499725341797 L -17.743000030517578 99.5459976196289 L -17.22829818725586 98.30400085449219 L -16.777000427246094 97.21499633789062 L -16.077999114990234 94.79100036621094 L -16.003347396850586 94.35087585449219 L -15.656000137329102 92.3030014038086 L -15.513999938964844 89.78399658203125 L -15.656000137329102 87.26499938964844 L -16.077999114990234 84.7770004272461 L -16.777000427246094 82.35299682617188 M 16.777000427246094 -82.35299682617188 L 16.95644187927246 -81.91999816894531 L 17.743000030517578 -80.02200317382812 L 18.96299934387207 -77.81300354003906 L 20.42300033569336 -75.75499725341797 L 22.104000091552734 -73.8740005493164 L 23.986000061035156 -72.19300079345703 L 26.04400062561035 -70.73300170898438 L 28.25200080871582 -69.51200103759766 L 30.58300018310547 -68.5469970703125 L 32.768001556396484 -67.91718292236328 L 33.007999420166016 -67.8479995727539 L 35.494998931884766 -67.42500305175781 L 38.013999938964844 -67.28399658203125 L 40.534000396728516 -67.42500305175781 L 43.020999908447266 -67.8479995727539 L 45.44599914550781 -68.5469970703125 L 47.777000427246094 -69.51200103759766 L 49.152000427246094 -70.2723617553711 L 49.98500061035156 -70.73300170898438 L 52.042999267578125 -72.19300079345703 L 53.92399978637695 -73.8740005493164 L 55.60599899291992 -75.75499725341797 L 57.066001892089844 -77.81300354003906 L 58.2859992980957 -80.02200317382812 L 59.07255935668945 -81.91999816894531 L 59.25199890136719 -82.35299682617188 L 59.95000076293945 -84.7770004272461 L 60.37300109863281 -87.26499938964844 L 60.513999938964844 -89.78399658203125 L 60.37300109863281 -92.3030014038086 L 59.95000076293945 -94.79100036621094 L 59.25199890136719 -97.21499633789062 L 58.80070114135742 -98.30400085449219 L 58.2859992980957 -99.5459976196289 L 57.066001892089844 -101.75499725341797 L 55.60599899291992 -103.81300354003906 L 53.92399978637695 -105.69400024414062 L 52.042999267578125 -107.375 L 49.98500061035156 -108.83499908447266 L 49.152000427246094 -109.29563903808594 L 47.777000427246094 -110.05599975585938 L 45.44599914550781 -111.02100372314453 L 43.020999908447266 -111.72000122070312 L 40.534000396728516 -112.14299774169922 L 38.013999938964844 -112.28399658203125 L 35.494998931884766 -112.14299774169922 L 33.007999420166016 -111.72000122070312 L 32.768001556396484 -111.65081787109375 L 30.58300018310547 -111.02100372314453 L 28.25200080871582 -110.05599975585938 L 26.04400062561035 -108.83499908447266 L 23.986000061035156 -107.375 L 22.104000091552734 -105.69400024414062 L 20.42300033569336 -103.81300354003906 L 18.96299934387207 -101.75499725341797 L 17.743000030517578 -99.5459976196289 L 17.22829818725586 -98.30400085449219 L 16.777000427246094 -97.21499633789062 L 16.077999114990234 -94.79100036621094 L 15.656000137329102 -92.3030014038086 L 15.513999938964844 -89.78399658203125 L 15.656000137329102 -87.26499938964844 L 16.077999114990234 -84.7770004272461 L 16.777000427246094 -82.35299682617188 M -80.68399810791016 -82.81999969482422 L -80.83707427978516 -81.91999816894531 L -81.10700225830078 -80.33300018310547 L -81.24800109863281 -77.81300354003906 L -81.10700225830078 -75.29399871826172 L -80.68399810791016 -72.80699920654297 L -79.98500061035156 -70.38200378417969 L -79.0199966430664 -68.0510025024414 L -77.79900360107422 -65.84300231933594 L -77.58120727539062 -65.53600311279297 L -76.33899688720703 -63.78499984741211 L -74.65799713134766 -61.90299987792969 L -72.7770004272461 -60.22200012207031 L -70.71900177001953 -58.762001037597656 L -68.51000213623047 -57.54199981689453 L -66.17900085449219 -56.57600021362305 L -65.53600311279297 -56.39057922363281 L -63.755001068115234 -55.87699890136719 L -61.266998291015625 -55.45500183105469 L -58.74800109863281 -55.3129997253418 L -56.229000091552734 -55.45500183105469 L -53.74100112915039 -55.87699890136719 L -51.31700134277344 -56.57600021362305 L -48.986000061035156 -57.54199981689453 L -46.777000427246094 -58.762001037597656 L -44.720001220703125 -60.22200012207031 L -42.8380012512207 -61.90299987792969 L -41.15700149536133 -63.78499984741211 L -39.914794921875 -65.53600311279297 L -39.696998596191406 -65.84300231933594 L -38.47600173950195 -68.0510025024414 L -37.51100158691406 -70.38200378417969 L -36.8120002746582 -72.80699920654297 L -36.38999938964844 -75.29399871826172 L -36.24800109863281 -77.81300354003906 L -36.38999938964844 -80.33300018310547 L -36.65928649902344 -81.91999816894531 L -36.8120002746582 -82.81999969482422 L -37.51100158691406 -85.24500274658203 L -38.47600173950195 -87.57599639892578 L -39.696998596191406 -89.78399658203125 L -41.15700149536133 -91.84200286865234 L -42.8380012512207 -93.7229995727539 L -44.720001220703125 -95.40499877929688 L -46.777000427246094 -96.86499786376953 L -48.986000061035156 -98.08499908447266 L -49.51445770263672 -98.30400085449219 L -51.31700134277344 -99.0510025024414 L -53.74100112915039 -99.7490005493164 L -56.229000091552734 -100.1719970703125 L -58.74800109863281 -100.31300354003906 L -61.266998291015625 -100.1719970703125 L -63.755001068115234 -99.7490005493164 L -65.53600311279297 -99.23615264892578 L -66.17900085449219 -99.0510025024414 L -67.9815444946289 -98.30400085449219 L -68.51000213623047 -98.08499908447266 L -70.71900177001953 -96.86499786376953 L -72.7770004272461 -95.40499877929688 L -74.65799713134766 -93.7229995727539 L -76.33899688720703 -91.84200286865234 L -77.79900360107422 -89.78399658203125 L -79.0199966430664 -87.57599639892578 L -79.98500061035156 -85.24500274658203 L -80.68399810791016 -82.81999969482422 M -99.5459976196289 -17.743000030517578 L -98.30400085449219 -17.22829818725586 L -97.21499633789062 -16.777000427246094 L -95.8521499633789 -16.384000778198242 L -94.79100036621094 -16.077999114990234 L -92.3030014038086 -15.656000137329102 L -89.78399658203125 -15.513999938964844 L -87.26499938964844 -15.656000137329102 L -84.7770004272461 -16.077999114990234 L -83.71585083007812 -16.384000778198242 L -82.35299682617188 -16.777000427246094 L -80.02200317382812 -17.743000030517578 L -77.81300354003906 -18.96299934387207 L -75.75499725341797 -20.42300033569336 L -73.8740005493164 -22.104000091552734 L -72.19300079345703 -23.986000061035156 L -70.73300170898438 -26.04400062561035 L -69.51200103759766 -28.25200080871582 L -68.5469970703125 -30.58300018310547 L -67.91718292236328 -32.768001556396484 L -67.8479995727539 -33.007999420166016 L -67.42500305175781 -35.494998931884766 L -67.28399658203125 -38.013999938964844 L -67.42500305175781 -40.534000396728516 L -67.8479995727539 -43.020999908447266 L -68.5469970703125 -45.44599914550781 L -69.51200103759766 -47.777000427246094 L -70.2723617553711 -49.152000427246094 L -70.73300170898438 -49.98500061035156 L -72.19300079345703 -52.042999267578125 L -73.8740005493164 -53.92399978637695 L -75.75499725341797 -55.60599899291992 L -77.81300354003906 -57.066001892089844 L -80.02200317382812 -58.2859992980957 L -81.91999816894531 -59.07255935668945 L -82.35299682617188 -59.25199890136719 L -84.7770004272461 -59.95000076293945 L -87.26499938964844 -60.37300109863281 L -89.78399658203125 -60.513999938964844 L -92.3030014038086 -60.37300109863281 L -94.79100036621094 -59.95000076293945 L -97.21499633789062 -59.25199890136719 L -98.30400085449219 -58.80070114135742 L -99.5459976196289 -58.2859992980957 L -101.75499725341797 -57.066001892089844 L -103.81300354003906 -55.60599899291992 L -105.69400024414062 -53.92399978637695 L -107.375 -52.042999267578125 L -108.83499908447266 -49.98500061035156 L -109.29563903808594 -49.152000427246094 L -110.05599975585938 -47.777000427246094 L -111.02100372314453 -45.44599914550781 L -111.72000122070312 -43.020999908447266 L -112.14299774169922 -40.534000396728516 L -112.28399658203125 -38.013999938964844 L -112.14299774169922 -35.494998931884766 L -111.72000122070312 -33.007999420166016 L -111.65081787109375 -32.768001556396484 L -111.02100372314453 -30.58300018310547 L -110.05599975585938 -28.25200080871582 L -108.83499908447266 -26.04400062561035 L -107.375 -23.986000061035156 L -105.69400024414062 -22.104000091552734 L -103.81300354003906 -20.42300033569336 L -101.75499725341797 -18.96299934387207 L -99.5459976196289 -17.743000030517578 M 65.84300231933594 -77.79900360107422 L 65.53600311279297 -77.58120727539062 L 63.78499984741211 -76.33899688720703 L 61.90299987792969 -74.65799713134766 L 60.22200012207031 -72.7770004272461 L 58.762001037597656 -70.71900177001953 L 57.54199981689453 -68.51000213623047 L 56.57600021362305 -66.17900085449219 L 56.39057922363281 -65.53600311279297 L 55.87699890136719 -63.755001068115234 L 55.45500183105469 -61.266998291015625 L 55.3129997253418 -58.74800109863281 L 55.45500183105469 -56.229000091552734 L 55.87699890136719 -53.74100112915039 L 56.57600021362305 -51.31700134277344 L 57.54199981689453 -48.986000061035156 L 58.762001037597656 -46.777000427246094 L 60.22200012207031 -44.720001220703125 L 61.90299987792969 -42.8380012512207 L 63.78499984741211 -41.15700149536133 L 65.53600311279297 -39.914794921875 L 65.84300231933594 -39.696998596191406 L 68.0510025024414 -38.47600173950195 L 70.38200378417969 -37.51100158691406 L 72.80699920654297 -36.8120002746582 L 75.29399871826172 -36.38999938964844 L 77.81300354003906 -36.24800109863281 L 80.33300018310547 -36.38999938964844 L 81.91999816894531 -36.65928649902344 L 82.81999969482422 -36.8120002746582 L 85.24500274658203 -37.51100158691406 L 87.57599639892578 -38.47600173950195 L 89.78399658203125 -39.696998596191406 L 91.84200286865234 -41.15700149536133 L 93.7229995727539 -42.8380012512207 L 95.40499877929688 -44.720001220703125 L 96.86499786376953 -46.777000427246094 L 98.08499908447266 -48.986000061035156 L 98.15379333496094 -49.152000427246094 L 98.30400085449219 -49.51445770263672 L 99.0510025024414 -51.31700134277344 L 99.7490005493164 -53.74100112915039 L 100.1719970703125 -56.229000091552734 L 100.31300354003906 -58.74800109863281 L 100.1719970703125 -61.266998291015625 L 99.7490005493164 -63.755001068115234 L 99.23615264892578 -65.53600311279297 L 99.0510025024414 -66.17900085449219 L 98.30400085449219 -67.9815444946289 L 98.08499908447266 -68.51000213623047 L 96.86499786376953 -70.71900177001953 L 95.40499877929688 -72.7770004272461 L 93.7229995727539 -74.65799713134766 L 91.84200286865234 -76.33899688720703 L 89.78399658203125 -77.79900360107422 L 87.57599639892578 -79.0199966430664 L 85.24500274658203 -79.98500061035156 L 82.81999969482422 -80.68399810791016 L 81.91999816894531 -80.83707427978516 L 80.33300018310547 -81.10700225830078 L 77.81300354003906 -81.24800109863281 L 75.29399871826172 -81.10700225830078 L 72.80699920654297 -80.68399810791016 L 70.38200378417969 -79.98500061035156 L 68.0510025024414 -79.0199966430664 L 65.84300231933594 -77.79900360107422 z" fill="none" stroke="rgb(0,0,255)" stroke-width="0.01mm" />
</svg>