  0
SECTION
  2
HEADER
  9
$ACADVER
  1
AC1015
  9
$ACADMAINTVER
 70
     6
  9
$DWGCODEPAGE
  3
DOS850
  9
$INSBASE
 10
0.0
 20
0.0
 30
0.0
  9
$EXTMIN
 10
0.0
 20
0.0
 30
0.0
  9
$EXTMAX
 10
595.0
 20
420.0
 30
0.0
  9
$LIMMIN
 10
0.0
 20
0.0
  9
$LIMMAX
 10
595.0
 20
420.0
  9
$ORTHOMODE
 70
     0
  9
$REGENMODE
 70
     1
  9
$FILLMODE
 70
     1
  9
$QTEXTMODE
 70
     0
  9
$MIRRTEXT
 70
     1
  9
$LTSCALE
 40
25.4
  9
$ATTMODE
 70
     1
  9
$TEXTSIZE
 40
3.5
  9
$TRACEWID
 40
0.05
  9
$TEXTSTYLE
  7
Standard
  9
$CLAYER
  8
0
  9
$CELTYPE
  6
Continuous
  9
$CECOLOR
 62
   256
  9
$CELTSCALE
 40
1.0
  9
$DISPSILH
 70
     0
  9
$DIMSCALE
 40
1.0
  9
$DIMASZ
 40
5.0
  9
$DIMEXO
 40
3.0
  9
$DIMDLI
 40
0.38
  9
$DIMRND
 40
0.0
  9
$DIMDLE
 40
0.0
  9
$DIMEXE
 40
2.0
  9
$DIMTP
 40
0.0
  9
$DIMTM
 40
0.0
  9
$DIMTXT
 40
3.5
  9
$DIMCEN
 40
4.0
  9
$DIMTSZ
 40
0.0
  9
$DIMTOL
 70
     0
  9
$DIMLIM
 70
     0
  9
$DIMTIH
 70
     1
  9
$DIMTOH
 70
     1
  9
$DIMSE1
 70
     0
  9
$DIMSE2
 70
     0
  9
$DIMTAD
 70
     0
  9
$DIMZIN
 70
     0
  9
$DIMBLK
  1

  9
$DIMASO
 70
     1
  9
$DIMSHO
 70
     1
  9
$DIMPOST
  1

  9
$DIMAPOST
  1

  9
$DIMALT
 70
     0
  9
$DIMALTD
 70
     2
  9
$DIMALTF
 40
25.4
  9
$DIMLFAC
 40
1.0
  9
$DIMTOFL
 70
     0
  9
$DIMTVP
 40
0.0
  9
$DIMTIX
 70
     0
  9
$DIMSOXD
 70
     0
  9
$DIMSAH
 70
     0
  9
$DIMBLK1
  1

  9
$DIMBLK2
  1

  9
$DIMSTYLE
  2
Standard
  9
$DIMCLRD
 70
     0
  9
$DIMCLRE
 70
     0
  9
$DIMCLRT
 70
     0
  9
$DIMTFAC
 40
1.0
  9
$DIMGAP
 40
1.0
  9
$DIMJUST
 70
     0
  9
$DIMSD1
 70
     0
  9
$DIMSD2
 70
     0
  9
$DIMTOLJ
 70
     1
  9
$DIMTZIN
 70
     0
  9
$DIMALTZ
 70
     0
  9
$DIMALTTZ
 70
     0
  9
$DIMUPT
 70
     0
  9
$DIMDEC
 70
     4
  9
$DIMTDEC
 70
     4
  9
$DIMALTU
 70
     2
  9
$DIMALTTD
 70
     2
  9
$DIMTXSTY
  7
Standard
  9
$DIMAUNIT
 70
     0
  9
$DIMADEC
 70
     0
  9
$DIMALTRND
 40
0.0
  9
$DIMAZIN
 70
     0
  9
$DIMDSEP
 70
     0
  9
$DIMATFIT
 70
     3
  9
$DIMFRAC
 70
     0
  9
$DIMLDRBLK
  1

  9
$DIMLUNIT
 70
     2
  9
$DIMLWD
 70
     0
  9
$DIMLWE
 70
     0
  9
$DIMTMOVE
 70
     0
  9
$LUNITS
 70
     2
  9
$LUPREC
 70
     4
  9
$SKETCHINC
 40
0.1
  9
$FILLETRAD
 40
0.0
  9
$AUNITS
 70
     0
  9
$AUPREC
 70
     0
  9
$MENU
  1
acad
  9
$ELEVATION
 40
0.0
  9
$PELEVATION
 40
0.0
  9
$THICKNESS
 40
0.0
  9
$LIMCHECK
 70
     0
  9
$CHAMFERA
 40
0.0
  9
$CHAMFERB
 40
0.0
  9
$CHAMFERC
 40
0.0
  9
$CHAMFERD
 40
0.0
  9
$SKPOLY
 70
     0
  9
$TDCREATE
 40
0.000000000
  9
$TDUCREATE
 40
0.000000000
  9
$TDUPDATE
 40
0.000000000
  9
$TDUUPDATE
 40
0.000000000
  9
$TDINDWG
 40
0.0000000000
  9
$TDUSRTIMER
 40
0.0000000000
  9
$USRTIMER
 70
     1
  9
$ANGBASE
 50
0.0
  9
$ANGDIR
 70
     0
  9
$PDMODE
 70
     0
  9
$PDSIZE
 40
0.0
  9
$PLINEWID
 40
0.0
  9
$SPLFRAME
 70
     0
  9
$SPLINETYPE
 70
     6
  9
$SPLINESEGS
 70
     8
  9
$HANDSEED
  5
18E
  9
$SURFTAB1
 70
     6
  9
$SURFTAB2
 70
     6
  9
$SURFTYPE
 70
     6
  9
$SURFU
 70
     6
  9
$SURFV
 70
     6
  9
$UCSBASE
  2

  9
$UCSNAME
  2

  9
$UCSORG
 10
0.0
 20
0.0
 30
0.0
  9
$UCSXDIR
 10
1.0
 20
0.0
 30
0.0
  9
$UCSYDIR
 10
0.0
 20
1.0
 30
0.0
  9
$UCSORTHOREF
  2

  9
$UCSORTHOVIEW
 70
     0
  9
$UCSORGTOP
 10
0.0
 20
0.0
 30
0.0
  9
$UCSORGBOTTOM
 10
0.0
 20
0.0
 30
0.0
  9
$UCSORGLEFT
 10
0.0
 20
0.0
 30
0.0
  9
$UCSORGRIGHT
 10
0.0
 20
0.0
 30
0.0
  9
$UCSORGFRONT
 10
0.0
 20
0.0
 30
0.0
  9
$UCSORGBACK
 10
0.0
 20
0.0
 30
0.0
  9
$PUCSBASE
  2

  9
$PUCSNAME
  2

  9
$PUCSORG
 10
0.0
 20
0.0
 30
0.0
  9
$PUCSXDIR
 10
1.0
 20
0.0
 30
0.0
  9
$PUCSYDIR
 10
0.0
 20
1.0
 30
0.0
  9
$PUCSORTHOREF
  2

  9
$PUCSORTHOVIEW
 70
     0
  9
$PUCSORGTOP
 10
0.0
 20
0.0
 30
0.0
  9
$PUCSORGBOTTOM
 10
0.0
 20
0.0
 30
0.0
  9
$PUCSORGLEFT
 10
0.0
 20
0.0
 30
0.0
  9
$PUCSORGRIGHT
 10
0.0
 20
0.0
 30
0.0
  9
$PUCSORGFRONT
 10
0.0
 20
0.0
 30
0.0
  9
$PUCSORGBACK
 10
0.0
 20
0.0
 30
0.0
  9
$USERI1
 70
     0
  9
$USERI2
 70
     0
  9
$USERI3
 70
     0
  9
$USERI4
 70
     0
  9
$USERI5
 70
     0
  9
$USERR1
 40
0.0
  9
$USERR2
 40
0.0
  9
$USERR3
 40
0.0
  9
$USERR4
 40
0.0
  9
$USERR5
 40
0.0
  9
$WORLDVIEW
 70
     1
  9
$SHADEDGE
 70
     3
  9
$SHADEDIF
 70
    70
  9
$TILEMODE
 70
     1
  9
$MAXACTVP
 70
    16
  9
$PINSBASE
 10
0.0
 20
0.0
 30
0.0
  9
$PLIMCHECK
 70
     0
  9
$PEXTMIN
 10
1.000000E+20
 20
1.000000E+20
 30
1.000000E+20
  9
$PEXTMAX
 10
-1.000000E+20
 20
-1.000000E+20
 30
-1.000000E+20
  9
$PLIMMIN
 10
0.0
 20
0.0
  9
$PLIMMAX
 10
595.0
 20
420.0
  9
$UNITMODE
 70
     0
  9
$VISRETAIN
 70
     0
  9
$PLINEGEN
 70
     1
  9
$PSLTSCALE
 70
     0
  9
$TREEDEPTH
 70
  3020
  9
$CMLSTYLE
  2
Standard
  9
$CMLJUST
 70
     0
  9
$CMLSCALE
 40
1.0
  9
$PROXYGRAPHICS
 70
     0
  9
$MEASUREMENT
 70
     0
  9
$CELWEIGHT
370
     0
  9
$ENDCAPS
280
     0
  9
$JOINSTYLE
280
     0
  9
$LWDISPLAY
290
     0
  9
$INSUNITS
 70
     0
  9
$HYPERLINKBASE
  1

  9
$XEDIT
290
     1
  9
$CEPSNTYPE
380
     0
  9
$PSTYLEMODE
290
     0
  9
$FINGERPRINTGUID
  2

  9
$VERSIONGUID
  2

  9
$EXTNAMES
290
     1
  9
$PSVPSCALE
 40
0.0
  0
ENDSEC
  0
SECTION
  2
CLASSES
  0
CLASS
  1
LWPOLYLINE
  2
AcDbPolyline
  3
"AutoCAD"
 90
        0
280
     0
281
     1
  0
CLASS
  1
IMAGE
  2
AcDbRasterImage
  3
ISM
 90
      127
280
     0
281
     1
  0
CLASS
  1
OLE2FRAME
  2
AcDbOle2Frame
  3
""
 90
        0
280
     0
281
     1
  0
CLASS
  1
HATCH
  2
AcDbHatch
  3
"ACAD_SEDONA"
 90
        0
280
     0
281
     1
  0
CLASS
  1
DICTIONARYVAR
  2
AcDbDictionaryVar
  3
"AutoCAD"
 90
        0
280
     0
281
     0
  0
CLASS
  1
RASTERVARIABLES
  2
AcDbRasterVariables
  3
ISM
 90
        0
280
     0
281
     0
  0
CLASS
  1
IMAGEDEF
  2
AcDbRasterImageDef
  3
ISM
 90
        0
280
     0
281
     0
  0
CLASS
  1
IMAGEDEF_REACTOR
  2
AcDbRasterImageDefReactor
  3
ISM
 90
        1
280
     0
281
     0
  0
CLASS
  1
IDBUFFER
  2
AcDbIdBuffer
  3
"Acad"
 90
        0
280
     0
281
     0
  0
CLASS
  1
SPATIAL_FILTER
  2
AcDbSpatialFilter
  3
"Acad"
 90
        0
280
     0
281
     0
  0
CLASS
  1
XRECORD
  2
AcDbXrecord
  3
"<Built In>"
 90
        0
280
     0
281
     0
  0
CLASS
  1
SORTENTSTABLE
  2
AcDbSortentsTable
  3
"AutoCAD"
 90
        0
280
     0
281
     0
  0
CLASS
  1
LAYER_INDEX
  2
AcDbLayerIndex
  3
"Acad"
 90
        0
280
     0
281
     0
  0
CLASS
  1
SPATIAL_INDEX
  2
AcDbSpatialIndex
  3
"Acad"
 90
        0
280
     0
281
     0
  0
CLASS
  1
OBJECT_PTR
  2
CAseDLPNTableRecord
  3
"ASE-LPNTableRecord"
 90
        1
280
     0
281
     0
  0
CLASS
  1
LAYOUT
  2
AcDbLayout
  3
"AutoCAD 2000"
 90
        1
280
     0
281
     0
  0
CLASS
  1
PLOTSETTINGS
  2
AcDbPlotSettings
  3
"AutoCAD 2000"
 90
        1
280
     0
281
     0
  0
CLASS
  1
ACDBDICTIONARYWDFLT
  2
AcDbDictionaryWithDefault
  3
"AutoCAD 2000"
 90
        1
280
     0
281
     0
  0
CLASS
  1
ACDBPLACEHOLDER
  2
AcDbPlaceHolder
  3
"AutoCAD 2000"
 90
        1
280
     0
281
     0
  0
CLASS
  1
VBA_PROJECT
  2
AcDbVbaProject
  3
"acadvba"
 90
        1
280
     0
281
     0
  0
CLASS
  1
WIPEOUT
  2
AcDbWipeout
  3
WipeOut|AutoCAD Express Tool|expresstools@autodesk.com
 90
      127
280
     0
281
     1
  0
CLASS
  1
WIPEOUTVARIABLES
  2
AcDbWipeoutVariables
  3
WipeOut|AutoCAD Express Tool|expresstools@autodesk.com
 90
        0
280
     0
281
     0
  0
CLASS
  1
RTEXT
  2
RText
  3
RText|AutoCAD Express Tool|expresstools@autodesk.com
 90
        0
280
     0
281
     1
  0
CLASS
  1
ARCALIGNEDTEXT
  2
AcDbArcAlignedText
  3
ATEXT|AutoCAD Express Tool|expresstools@autodesk.com
 90
        0
280
     0
281
     1
  0
ENDSEC
  0
SECTION
  2
TABLES
  0
TABLE
  2
VPORT
  5
7
100
AcDbSymbolTable
 70
     1
  0
VPORT
  5
15
100
AcDbSymbolTableRecord
100
AcDbViewportTableRecord
  2
*ACTIVE
 70
     0
 10
0.0
 20
0.0
 11
1.0
 21
1.0
 12
6.591288
 22
4.579184
 13
0.0
 23
0.0
 14
1.0
 24
1.0
 15
0.0
 25
0.0
 16
0.0
 26
0.0
 36
1.0
 17
0.0
 27
0.0
 37
0.0
 40
9.158369
 41
0.688564
 42
50.0
 43
0.0
 44
0.0
 50
0.0
 51
0.0
 71
     0
 72
   100
 73
     1
 74
     1
 75
     0
 76
     0
 77
     0
 78
     0
281
     0
 65
     0
110
0.0
120
0.0
130
0.0
111
1.0
121
0.0
131
0.0
112
0.0
122
1.0
132
0.0
345
0
346
0
 79
     0
146
0.0
  0
ENDTAB
  0
TABLE
  2
LTYPE
  5
4
100
AcDbSymbolTable
 70
     7
  0
LTYPE
  5
11
100
AcDbSymbolTableRecord
100
AcDbLinetypeTableRecord
  2
ByBlock
 70
    64
  3

 72
    65
 73
     0
 40
0.0
  0
LTYPE
  5
12
100
AcDbSymbolTableRecord
100
AcDbLinetypeTableRecord
  2
ByLayer
 70
    64
  3

 72
    65
 73
     0
 40
0.0
  0
LTYPE
  5
13
100
AcDbSymbolTableRecord
100
AcDbLinetypeTableRecord
  2
Continuous
 70
    64
  3
Solid line
 72
    65
 73
     0
 40
0.0
  0
LTYPE
  5
24
100
AcDbSymbolTableRecord
100
AcDbLinetypeTableRecord
  2
HIDDEN
 70
    64
  3
_ _ _ _ _ _ _ _ _ _ _ _ _ _ _ _ _ _ _ _ _ _ _ _
 72
    65
 73
     2
 40
0.1875
 49
0.125
 74
     0
 49
-0.0625
 74
     0
  0
LTYPE
  5
25
100
AcDbSymbolTableRecord
100
AcDbLinetypeTableRecord
  2
DOTTED
 70
    64
  3
...............................................
 72
    65
 73
     2
 40
0.125
 49
0.0
 74
     0
 49
-0.125
 74
     0
  0
LTYPE
  5
26
100
AcDbSymbolTableRecord
100
AcDbLinetypeTableRecord
  2
CENTER
 70
    64
  3
____ _ ____ _ ____ _ ____ _ ____ _ ____ _ ____ 
 72
    65
 73
     4
 40
1.125
 49
0.75
 74
     0
 49
-0.125
 74
     0
 49
0.125
 74
     0
 49
-0.125
 74
     0
  0
LTYPE
  5
27
100
AcDbSymbolTableRecord
100
AcDbLinetypeTableRecord
  2
PHANTOM
 70
    64
  3
______  __  __  ______  __  __  ______  __  __ 
 72
    65
 73
     6
 40
1.25
 49
0.625
 74
     0
 49
-0.125
 74
     0
 49
0.125
 74
     0
 49
-0.125
 74
     0
 49
0.125
 74
     0
 49
-0.125
 74
     0
  0
ENDTAB
  0
TABLE
  2
LAYER
  5
2
100
AcDbSymbolTable
 70
     2
  0
LAYER
  5
14
100
AcDbSymbolTableRecord
100
AcDbLayerTableRecord
  2
0
 70
     0
 62
     7
  6
Continuous
290
     1
370
    -3
390
1D
  0
LAYER
  5
28
100
AcDbSymbolTableRecord
100
AcDbLayerTableRecord
  2
TEXT
 70
     0
 62
     8
  6
Continuous
290
     1
370
    -3
390
1F
  0
ENDTAB
  0
TABLE
  2
STYLE
  5
3
100
AcDbSymbolTable
 70
     1
  0
STYLE
  5
17
100
AcDbSymbolTableRecord
100
AcDbTextStyleTableRecord
  2
Standard
 70
     0
 40
0.0
 41
1.0
 50
0.0
 71
     0
 42
0.0
  3
txt
  4

  0
ENDTAB
  0
TABLE
  2
VIEW
  5
5
100
AcDbSymbolTable
 70
     0
  0
ENDTAB
  0
TABLE
  2
UCS
  5
6
100
AcDbSymbolTable
 70
     0
  0
ENDTAB
  0
TABLE
  2
APPID
  5
8
100
AcDbSymbolTable
 70
     1
  0
APPID
  5
16
100
AcDbSymbolTableRecord
100
AcDbRegAppTableRecord
  2
ACAD
 70
     0
  0
ENDTAB
  0
TABLE
  2
DIMSTYLE
  5
9
100
AcDbSymbolTable
 70
     1
100
AcDbDimStyleTable
 71
     0
  0
DIMSTYLE
105
18
100
AcDbSymbolTableRecord
100
AcDbDimStyleTableRecord
  2
Standard
 70
     0
  3

  4

 40
1.0
 41
0.18
 42
0.0625
 43
0.38
 44
0.18
 45
0.0
 46
0.0
 47
0.0
 48
0.0
 71
     0
 72
     0
 73
     1
 74
     1
 75
     0
 76
     0
 77
     0
 78
     0
 79
     0
140
0.18
141
0.09
142
0.0
143
25.4
144
1.0
145
0.0
146
1.0
147
0.09
148
0.0
170
     0
171
     2
172
     0
173
     0
174
     0
175
     0
176
     0
177
     0
178
     0
179
     0
271
     4
272
     4
273
     2
274
     2
275
     0
276
     0
277
     2
278
    46
279
     0
280
     0
281
     0
282
     0
283
     1
284
     0
285
     0
286
     0
288
     0
340
17
341
0
342
0
343
0
344
0
371
    -2
372
    -2
  0
ENDTAB
  0
TABLE
  2
BLOCK_RECORD
  5
1
100
AcDbSymbolTable
 70
    57
  0
BLOCK_RECORD
  5
A
100
AcDbSymbolTableRecord
100
AcDbBlockTableRecord
  2
*MODEL_SPACE
340
20
  0
BLOCK_RECORD
  5
B
100
AcDbSymbolTableRecord
100
AcDbBlockTableRecord
  2
*PAPER_SPACE
340
21
  0
BLOCK_RECORD
  5
29
100
AcDbSymbolTableRecord
100
AcDbBlockTableRecord
  2
*B0
340
0
  0
BLOCK_RECORD
  5
3A
100
AcDbSymbolTableRecord
100
AcDbBlockTableRecord
  2
*B1
340
0
  0
BLOCK_RECORD
  5
46
100
AcDbSymbolTableRecord
100
AcDbBlockTableRecord
  2
*B2
340
0
  0
BLOCK_RECORD
  5
56
100
AcDbSymbolTableRecord
100
AcDbBlockTableRecord
  2
*B3
340
0
  0
BLOCK_RECORD
  5
59
100
AcDbSymbolTableRecord
100
AcDbBlockTableRecord
  2
*B4
340
0
  0
BLOCK_RECORD
  5
61
100
AcDbSymbolTableRecord
100
AcDbBlockTableRecord
  2
*B5
340
0
  0
BLOCK_RECORD
  5
69
100
AcDbSymbolTableRecord
100
AcDbBlockTableRecord
  2
*B6
340
0
  0
BLOCK_RECORD
  5
8D
100
AcDbSymbolTableRecord
100
AcDbBlockTableRecord
  2
*B7
340
0
  0
BLOCK_RECORD
  5
99
100
AcDbSymbolTableRecord
100
AcDbBlockTableRecord
  2
*B8
340
0
  0
BLOCK_RECORD
  5
9E
100
AcDbSymbolTableRecord
100
AcDbBlockTableRecord
  2
*B9
340
0
  0
BLOCK_RECORD
  5
A3
100
AcDbSymbolTableRecord
100
AcDbBlockTableRecord
  2
*B10
340
0
  0
BLOCK_RECORD
  5
A8
100
AcDbSymbolTableRecord
100
AcDbBlockTableRecord
  2
*B11
340
0
  0
BLOCK_RECORD
  5
AD
100
AcDbSymbolTableRecord
100
AcDbBlockTableRecord
  2
*B12
340
0
  0
BLOCK_RECORD
  5
B2
100
AcDbSymbolTableRecord
100
AcDbBlockTableRecord
  2
*B13
340
0
  0
BLOCK_RECORD
  5
B7
100
AcDbSymbolTableRecord
100
AcDbBlockTableRecord
  2
*B14
340
0
  0
BLOCK_RECORD
  5
BC
100
AcDbSymbolTableRecord
100
AcDbBlockTableRecord
  2
*B15
340
0
  0
BLOCK_RECORD
  5
C1
100
AcDbSymbolTableRecord
100
AcDbBlockTableRecord
  2
*B16
340
0
  0
BLOCK_RECORD
  5
C6
100
AcDbSymbolTableRecord
100
AcDbBlockTableRecord
  2
*B17
340
0
  0
BLOCK_RECORD
  5
CB
100
AcDbSymbolTableRecord
100
AcDbBlockTableRecord
  2
*B18
340
0
  0
BLOCK_RECORD
  5
D0
100
AcDbSymbolTableRecord
100
AcDbBlockTableRecord
  2
*B19
340
0
  0
BLOCK_RECORD
  5
D5
100
AcDbSymbolTableRecord
100
AcDbBlockTableRecord
  2
*B20
340
0
  0
BLOCK_RECORD
  5
DA
100
AcDbSymbolTableRecord
100
AcDbBlockTableRecord
  2
*B21
340
0
  0
BLOCK_RECORD
  5
DF
100
AcDbSymbolTableRecord
100
AcDbBlockTableRecord
  2
*B22
340
0
  0
BLOCK_RECORD
  5
E4
100
AcDbSymbolTableRecord
100
AcDbBlockTableRecord
  2
*B23
340
0
  0
BLOCK_RECORD
  5
E9
100
AcDbSymbolTableRecord
100
AcDbBlockTableRecord
  2
*B24
340
0
  0
BLOCK_RECORD
  5
EE
100
AcDbSymbolTableRecord
100
AcDbBlockTableRecord
  2
*B25
340
0
  0
BLOCK_RECORD
  5
F3
100
AcDbSymbolTableRecord
100
AcDbBlockTableRecord
  2
*B26
340
0
  0
BLOCK_RECORD
  5
F8
100
AcDbSymbolTableRecord
100
AcDbBlockTableRecord
  2
*B27
340
0
  0
BLOCK_RECORD
  5
FD
100
AcDbSymbolTableRecord
100
AcDbBlockTableRecord
  2
*B28
340
0
  0
BLOCK_RECORD
  5
102
100
AcDbSymbolTableRecord
100
AcDbBlockTableRecord
  2
*B29
340
0
  0
BLOCK_RECORD
  5
107
100
AcDbSymbolTableRecord
100
AcDbBlockTableRecord
  2
*B30
340
0
  0
BLOCK_RECORD
  5
10C
100
AcDbSymbolTableRecord
100
AcDbBlockTableRecord
  2
*B31
340
0
  0
BLOCK_RECORD
  5
111
100
AcDbSymbolTableRecord
100
AcDbBlockTableRecord
  2
*B32
340
0
  0
BLOCK_RECORD
  5
116
100
AcDbSymbolTableRecord
100
AcDbBlockTableRecord
  2
*B33
340
0
  0
BLOCK_RECORD
  5
11B
100
AcDbSymbolTableRecord
100
AcDbBlockTableRecord
  2
*B34
340
0
  0
BLOCK_RECORD
  5
120
100
AcDbSymbolTableRecord
100
AcDbBlockTableRecord
  2
*B35
340
0
  0
BLOCK_RECORD
  5
125
100
AcDbSymbolTableRecord
100
AcDbBlockTableRecord
  2
*B36
340
0
  0
BLOCK_RECORD
  5
12A
100
AcDbSymbolTableRecord
100
AcDbBlockTableRecord
  2
*B37
340
0
  0
BLOCK_RECORD
  5
12F
100
AcDbSymbolTableRecord
100
AcDbBlockTableRecord
  2
*B38
340
0
  0
BLOCK_RECORD
  5
134
100
AcDbSymbolTableRecord
100
AcDbBlockTableRecord
  2
*B39
340
0
  0
BLOCK_RECORD
  5
139
100
AcDbSymbolTableRecord
100
AcDbBlockTableRecord
  2
*B40
340
0
  0
BLOCK_RECORD
  5
13E
100
AcDbSymbolTableRecord
100
AcDbBlockTableRecord
  2
*B41
340
0
  0
BLOCK_RECORD
  5
143
100
AcDbSymbolTableRecord
100
AcDbBlockTableRecord
  2
*B42
340
0
  0
BLOCK_RECORD
  5
148
100
AcDbSymbolTableRecord
100
AcDbBlockTableRecord
  2
*B43
340
0
  0
BLOCK_RECORD
  5
14D
100
AcDbSymbolTableRecord
100
AcDbBlockTableRecord
  2
*B44
340
0
  0
BLOCK_RECORD
  5
152
100
AcDbSymbolTableRecord
100
AcDbBlockTableRecord
  2
*B45
340
0
  0
BLOCK_RECORD
  5
157
100
AcDbSymbolTableRecord
100
AcDbBlockTableRecord
  2
*B46
340
0
  0
BLOCK_RECORD
  5
15C
100
AcDbSymbolTableRecord
100
AcDbBlockTableRecord
  2
*B47
340
0
  0
BLOCK_RECORD
  5
161
100
AcDbSymbolTableRecord
100
AcDbBlockTableRecord
  2
*B48
340
0
  0
BLOCK_RECORD
  5
166
100
AcDbSymbolTableRecord
100
AcDbBlockTableRecord
  2
*B49
340
0
  0
BLOCK_RECORD
  5
16B
100
AcDbSymbolTableRecord
100
AcDbBlockTableRecord
  2
*B50
340
0
  0
BLOCK_RECORD
  5
170
100
AcDbSymbolTableRecord
100
AcDbBlockTableRecord
  2
*B51
340
0
  0
BLOCK_RECORD
  5
175
100
AcDbSymbolTableRecord
100
AcDbBlockTableRecord
  2
*B52
340
0
  0
BLOCK_RECORD
  5
17A
100
AcDbSymbolTableRecord
100
AcDbBlockTableRecord
  2
*B53
340
0
  0
BLOCK_RECORD
  5
17F
100
AcDbSymbolTableRecord
100
AcDbBlockTableRecord
  2
*B54
340
0
  0
BLOCK_RECORD
  5
184
100
AcDbSymbolTableRecord
100
AcDbBlockTableRecord
  2
*B55
340
0
  0
BLOCK_RECORD
  5
189
100
AcDbSymbolTableRecord
100
AcDbBlockTableRecord
  2
*B56
340
0
  0
ENDTAB
  0
ENDSEC
  0
SECTION
  2
BLOCKS
  0
BLOCK
  5
D
100
AcDbEntity
  8
0
100
AcDbBlockBegin
  2
*MODEL_SPACE
 70
     0
 10
0.0
 20
0.0
 30
0.0
  3
*MODEL_SPACE
  1

  0
ENDBLK
  5
E
100
AcDbEntity
  8
0
100
AcDbBlockEnd
  0
BLOCK
  5
F
100
AcDbEntity
 67
     1
  8
0
100
AcDbBlockBegin
  2
*PAPER_SPACE
 70
     0
 10
0.0
 20
0.0
 30
0.0
  3
*PAPER_SPACE
  1

  0
ENDBLK
  5
10
100
AcDbEntity
 67
     1
  8
0
100
AcDbBlockEnd
  0
BLOCK
  5
2A
100
AcDbEntity
  8
0
100
AcDbBlockBegin
  2
*B0
 70
     0
 10
0.0
 20
0.0
 30
0.0
  3
*B0
  1

  0
CIRCLE
  5
2B
100
AcDbEntity
  8
0
  6
Continuous
 62
   152
100
AcDbCircle
 10
248.181255
 20
218.024784
 30
0.0
 40
130.0
  0
CIRCLE
  5
2C
100
AcDbEntity
  8
0
  6
Continuous
 62
   152
100
AcDbCircle
 10
198.304625
 20
300.051132
 30
0.0
 40
22.0
  0
CIRCLE
  5
2D
100
AcDbEntity
  8
0
  6
Continuous
 62
   152
100
AcDbCircle
 10
163.973652
 20
264.12337
 30
0.0
 40
22.0
  0
CIRCLE
  5
2E
100
AcDbEntity
  8
0
  6
Continuous
 62
   152
100
AcDbCircle
 10
152.206039
 20
215.843529
 30
0.0
 40
22.0
  0
CIRCLE
  5
2F
100
AcDbEntity
  8
0
  6
Continuous
 62
   152
100
AcDbCircle
 10
246.0
 20
314.0
 30
0.0
 40
22.0
  0
CIRCLE
  5
30
100
AcDbEntity
  8
0
  6
Continuous
 62
   152
100
AcDbCircle
 10
298.057885
 20
135.998436
 30
0.0
 40
22.0
  0
CIRCLE
  5
31
100
AcDbEntity
  8
0
  6
Continuous
 62
   152
100
AcDbCircle
 10
332.388858
 20
171.926198
 30
0.0
 40
22.0
  0
CIRCLE
  5
32
100
AcDbEntity
  8
0
  6
Continuous
 62
   152
100
AcDbCircle
 10
202.082669
 20
133.817181
 30
0.0
 40
22.0
  0
CIRCLE
  5
33
100
AcDbEntity
  8
0
  6
Continuous
 62
   152
100
AcDbCircle
 10
166.154907
 20
168.148154
 30
0.0
 40
22.0
  0
CIRCLE
  5
34
100
AcDbEntity
  8
0
  6
Continuous
 62
   152
100
AcDbCircle
 10
344.156471
 20
220.206039
 30
0.0
 40
22.0
  0
CIRCLE
  5
35
100
AcDbEntity
  8
0
  6
Continuous
 62
   152
100
AcDbCircle
 10
250.36251
 20
122.049568
 30
0.0
 40
22.0
  0
CIRCLE
  5
36
100
AcDbEntity
  8
0
  6
Continuous
 62
   152
100
AcDbCircle
 10
294.279841
 20
302.232387
 30
0.0
 40
22.0
  0
CIRCLE
  5
37
100
AcDbEntity
  8
0
  6
Continuous
 62
   152
100
AcDbCircle
 10
330.207603
 20
267.901414
 30
0.0
 40
22.0
  0
ENDBLK
  5
38
100
AcDbEntity
  8
0
100
AcDbBlockEnd
  0
BLOCK
  5
3B
100
AcDbEntity
  8
0
100
AcDbBlockBegin
  2
*B1
 70
     0
 10
0.0
 20
0.0
 30
0.0
  3
*B1
  1

  0
LINE
  5
3C
100
AcDbEntity
  8
0
  6
Continuous
 62
   172
100
AcDbLine
 10
585.0
 20
10.0
 30
0.0
 11
475.0
 21
10.0
 31
0.0
  0
LINE
  5
3D
100
AcDbEntity
  8
0
  6
Continuous
 62
   172
100
AcDbLine
 10
475.0
 20
10.0
 30
0.0
 11
475.0
 21
115.0
 31
0.0
  0
LINE
  5
3E
100
AcDbEntity
  8
0
  6
Continuous
 62
   172
100
AcDbLine
 10
475.0
 20
115.0
 30
0.0
 11
585.0
 21
115.0
 31
0.0
  0
LINE
  5
3F
100
AcDbEntity
  8
0
  6
Continuous
 62
   172
100
AcDbLine
 10
585.0
 20
115.0
 30
0.0
 11
585.0
 21
10.0
 31
0.0
  0
LINE
  5
40
100
AcDbEntity
  8
0
  6
Continuous
 62
   172
100
AcDbLine
 10
475.0
 20
25.0
 30
0.0
 11
585.0
 21
25.0
 31
0.0
  0
LINE
  5
41
100
AcDbEntity
  8
0
  6
Continuous
 62
   172
100
AcDbLine
 10
525.0
 20
10.0
 30
0.0
 11
525.0
 21
45.0
 31
0.0
  0
LINE
  5
42
100
AcDbEntity
  8
0
  6
Continuous
 62
   172
100
AcDbLine
 10
475.0
 20
61.0
 30
0.0
 11
585.0
 21
61.0
 31
0.0
  0
LINE
  5
43
100
AcDbEntity
  8
0
  6
Continuous
 62
   172
100
AcDbLine
 10
475.0
 20
45.0
 30
0.0
 11
585.0
 21
45.0
 31
0.0
  0
ENDBLK
  5
44
100
AcDbEntity
  8
0
100
AcDbBlockEnd
  0
BLOCK
  5
47
100
AcDbEntity
  8
0
100
AcDbBlockBegin
  2
*B2
 70
     0
 10
0.0
 20
0.0
 30
0.0
  3
*B2
  1

  0
LINE
  5
48
100
AcDbEntity
  8
0
  6
Continuous
 62
   172
100
AcDbLine
 10
525.0
 20
40.0
 30
0.0
 11
585.0
 21
40.0
 31
0.0
  0
LINE
  5
49
100
AcDbEntity
  8
0
  6
Continuous
 62
   172
100
AcDbLine
 10
485.0
 20
61.0
 30
0.0
 11
485.0
 21
115.0
 31
0.0
  0
LINE
  5
4A
100
AcDbEntity
  8
0
  6
Continuous
 62
   172
100
AcDbLine
 10
525.0
 20
35.0
 30
0.0
 11
585.0
 21
35.0
 31
0.0
  0
LINE
  5
4B
100
AcDbEntity
  8
0
  6
Continuous
 62
   172
100
AcDbLine
 10
565.0
 20
61.0
 30
0.0
 11
565.0
 21
115.0
 31
0.0
  0
LINE
  5
4C
100
AcDbEntity
  8
0
  6
Continuous
 62
   172
100
AcDbLine
 10
475.0
 20
19.0
 30
0.0
 11
585.0
 21
19.0
 31
0.0
  0
LINE
  5
4D
100
AcDbEntity
  8
0
  6
Continuous
 62
   172
100
AcDbLine
 10
575.0
 20
61.0
 30
0.0
 11
575.0
 21
115.0
 31
0.0
  0
LINE
  5
4E
100
AcDbEntity
  8
0
  6
Continuous
 62
   172
100
AcDbLine
 10
475.0
 20
79.0
 30
0.0
 11
585.0
 21
79.0
 31
0.0
  0
LINE
  5
4F
100
AcDbEntity
  8
0
  6
Continuous
 62
   172
100
AcDbLine
 10
525.0
 20
30.0
 30
0.0
 11
585.0
 21
30.0
 31
0.0
  0
LINE
  5
50
100
AcDbEntity
  8
0
  6
Continuous
 62
   172
100
AcDbLine
 10
475.0
 20
103.0
 30
0.0
 11
585.0
 21
103.0
 31
0.0
  0
LINE
  5
51
100
AcDbEntity
  8
0
  6
Continuous
 62
   172
100
AcDbLine
 10
475.0
 20
91.0
 30
0.0
 11
585.0
 21
91.0
 31
0.0
  0
LINE
  5
52
100
AcDbEntity
  8
0
  6
Continuous
 62
   172
100
AcDbLine
 10
565.0
 20
25.0
 30
0.0
 11
565.0
 21
45.0
 31
0.0
  0
LINE
  5
53
100
AcDbEntity
  8
0
  6
Continuous
 62
   172
100
AcDbLine
 10
475.0
 20
67.0
 30
0.0
 11
585.0
 21
67.0
 31
0.0
  0
ENDBLK
  5
54
100
AcDbEntity
  8
0
100
AcDbBlockEnd
  0
BLOCK
  5
57
100
AcDbEntity
  8
0
100
AcDbBlockBegin
  2
*B3
 70
     0
 10
0.0
 20
0.0
 30
0.0
  3
*B3
  1

  0
ENDBLK
  5
58
100
AcDbEntity
  8
0
100
AcDbBlockEnd
  0
BLOCK
  5
5A
100
AcDbEntity
  8
0
100
AcDbBlockBegin
  2
*B4
 70
     0
 10
0.0
 20
0.0
 30
0.0
  3
*B4
  1

  0
LINE
  5
5B
100
AcDbEntity
  8
0
  6
Continuous
 62
   172
100
AcDbLine
 10
10.0
 20
10.0
 30
0.0
 11
585.0
 21
10.0
 31
0.0
  0
LINE
  5
5C
100
AcDbEntity
  8
0
  6
Continuous
 62
   172
100
AcDbLine
 10
585.0
 20
10.0
 30
0.0
 11
585.0
 21
410.0
 31
0.0
  0
LINE
  5
5D
100
AcDbEntity
  8
0
  6
Continuous
 62
   172
100
AcDbLine
 10
585.0
 20
410.0
 30
0.0
 11
10.0
 21
410.0
 31
0.0
  0
LINE
  5
5E
100
AcDbEntity
  8
0
  6
Continuous
 62
   172
100
AcDbLine
 10
10.0
 20
410.0
 30
0.0
 11
10.0
 21
10.0
 31
0.0
  0
ENDBLK
  5
5F
100
AcDbEntity
  8
0
100
AcDbBlockEnd
  0
BLOCK
  5
62
100
AcDbEntity
  8
0
100
AcDbBlockBegin
  2
*B5
 70
     0
 10
0.0
 20
0.0
 30
0.0
  3
*B5
  1

  0
LINE
  5
63
100
AcDbEntity
  8
0
  6
Continuous
 62
   172
100
AcDbLine
 10
580.0
 20
210.0
 30
0.0
 11
595.0
 21
210.0
 31
0.0
  0
LINE
  5
64
100
AcDbEntity
  8
0
  6
Continuous
 62
   172
100
AcDbLine
 10
15.0
 20
210.0
 30
0.0
 11
0.0
 21
210.0
 31
0.0
  0
LINE
  5
65
100
AcDbEntity
  8
0
  6
Continuous
 62
   172
100
AcDbLine
 10
297.5
 20
15.0
 30
0.0
 11
297.5
 21
0.0
 31
0.0
  0
LINE
  5
66
100
AcDbEntity
  8
0
  6
Continuous
 62
   172
100
AcDbLine
 10
297.5
 20
405.0
 30
0.0
 11
297.5
 21
420.0
 31
0.0
  0
ENDBLK
  5
67
100
AcDbEntity
  8
0
100
AcDbBlockEnd
  0
BLOCK
  5
6A
100
AcDbEntity
  8
0
100
AcDbBlockBegin
  2
*B6
 70
     0
 10
0.0
 20
0.0
 30
0.0
  3
*B6
  1

  0
LINE
  5
6B
100
AcDbEntity
  8
0
  6
Continuous
 62
   172
100
AcDbLine
 10
470.0
 20
410.0
 30
0.0
 11
470.0
 21
415.0
 31
0.0
  0
LINE
  5
6C
100
AcDbEntity
  8
0
  6
Continuous
 62
   172
100
AcDbLine
 10
297.5
 20
410.0
 30
0.0
 11
297.5
 21
415.0
 31
0.0
  0
LINE
  5
6D
100
AcDbEntity
  8
0
  6
Continuous
 62
   172
100
AcDbLine
 10
585.0
 20
310.0
 30
0.0
 11
590.0
 21
310.0
 31
0.0
  0
LINE
  5
6E
100
AcDbEntity
  8
0
  6
Continuous
 62
   172
100
AcDbLine
 10
5.0
 20
310.0
 30
0.0
 11
10.0
 21
310.0
 31
0.0
  0
LINE
  5
6F
100
AcDbEntity
  8
0
  6
Continuous
 62
   172
100
AcDbLine
 10
585.0
 20
210.0
 30
0.0
 11
590.0
 21
210.0
 31
0.0
  0
LINE
  5
70
100
AcDbEntity
  8
0
  6
Continuous
 62
   172
100
AcDbLine
 10
5.0
 20
360.0
 30
0.0
 11
10.0
 21
360.0
 31
0.0
  0
LINE
  5
71
100
AcDbEntity
  8
0
  6
Continuous
 62
   172
100
AcDbLine
 10
5.0
 20
110.0
 30
0.0
 11
10.0
 21
110.0
 31
0.0
  0
LINE
  5
72
100
AcDbEntity
  8
0
  6
Continuous
 62
   172
100
AcDbLine
 10
585.0
 20
360.0
 30
0.0
 11
590.0
 21
360.0
 31
0.0
  0
LINE
  5
73
100
AcDbEntity
  8
0
  6
Continuous
 62
   172
100
AcDbLine
 10
412.5
 20
410.0
 30
0.0
 11
412.5
 21
415.0
 31
0.0
  0
LINE
  5
74
100
AcDbEntity
  8
0
  6
Continuous
 62
   172
100
AcDbLine
 10
355.0
 20
410.0
 30
0.0
 11
355.0
 21
415.0
 31
0.0
  0
LINE
  5
75
100
AcDbEntity
  8
0
  6
Continuous
 62
   172
100
AcDbLine
 10
5.0
 20
160.0
 30
0.0
 11
10.0
 21
160.0
 31
0.0
  0
LINE
  5
76
100
AcDbEntity
  8
0
  6
Continuous
 62
   172
100
AcDbLine
 10
5.0
 20
60.0
 30
0.0
 11
10.0
 21
60.0
 31
0.0
  0
LINE
  5
77
100
AcDbEntity
  8
0
  6
Continuous
 62
   172
100
AcDbLine
 10
585.0
 20
260.0
 30
0.0
 11
590.0
 21
260.0
 31
0.0
  0
LINE
  5
78
100
AcDbEntity
  8
0
  6
Continuous
 62
   172
100
AcDbLine
 10
585.0
 20
60.0
 30
0.0
 11
590.0
 21
60.0
 31
0.0
  0
LINE
  5
79
100
AcDbEntity
  8
0
  6
Continuous
 62
   172
100
AcDbLine
 10
5.0
 20
210.0
 30
0.0
 11
10.0
 21
210.0
 31
0.0
  0
LINE
  5
7A
100
AcDbEntity
  8
0
  6
Continuous
 62
   172
100
AcDbLine
 10
67.5
 20
10.0
 30
0.0
 11
67.5
 21
5.0
 31
0.0
  0
LINE
  5
7B
100
AcDbEntity
  8
0
  6
Continuous
 62
   172
100
AcDbLine
 10
125.0
 20
10.0
 30
0.0
 11
125.0
 21
5.0
 31
0.0
  0
LINE
  5
7C
100
AcDbEntity
  8
0
  6
Continuous
 62
   172
100
AcDbLine
 10
240.0
 20
10.0
 30
0.0
 11
240.0
 21
5.0
 31
0.0
  0
LINE
  5
7D
100
AcDbEntity
  8
0
  6
Continuous
 62
   172
100
AcDbLine
 10
297.5
 20
10.0
 30
0.0
 11
297.5
 21
5.0
 31
0.0
  0
LINE
  5
7E
100
AcDbEntity
  8
0
  6
Continuous
 62
   172
100
AcDbLine
 10
182.5
 20
10.0
 30
0.0
 11
182.5
 21
5.0
 31
0.0
  0
LINE
  5
7F
100
AcDbEntity
  8
0
  6
Continuous
 62
   172
100
AcDbLine
 10
412.5
 20
10.0
 30
0.0
 11
412.5
 21
5.0
 31
0.0
  0
LINE
  5
80
100
AcDbEntity
  8
0
  6
Continuous
 62
   172
100
AcDbLine
 10
470.0
 20
10.0
 30
0.0
 11
470.0
 21
5.0
 31
0.0
  0
LINE
  5
81
100
AcDbEntity
  8
0
  6
Continuous
 62
   172
100
AcDbLine
 10
527.5
 20
10.0
 30
0.0
 11
527.5
 21
5.0
 31
0.0
  0
LINE
  5
82
100
AcDbEntity
  8
0
  6
Continuous
 62
   172
100
AcDbLine
 10
125.0
 20
410.0
 30
0.0
 11
125.0
 21
415.0
 31
0.0
  0
LINE
  5
83
100
AcDbEntity
  8
0
  6
Continuous
 62
   172
100
AcDbLine
 10
355.0
 20
10.0
 30
0.0
 11
355.0
 21
5.0
 31
0.0
  0
LINE
  5
84
100
AcDbEntity
  8
0
  6
Continuous
 62
   172
100
AcDbLine
 10
67.5
 20
410.0
 30
0.0
 11
67.5
 21
415.0
 31
0.0
  0
LINE
  5
85
100
AcDbEntity
  8
0
  6
Continuous
 62
   172
100
AcDbLine
 10
5.0
 20
260.0
 30
0.0
 11
10.0
 21
260.0
 31
0.0
  0
LINE
  5
86
100
AcDbEntity
  8
0
  6
Continuous
 62
   172
100
AcDbLine
 10
585.0
 20
160.0
 30
0.0
 11
590.0
 21
160.0
 31
0.0
  0
LINE
  5
87
100
AcDbEntity
  8
0
  6
Continuous
 62
   172
100
AcDbLine
 10
182.5
 20
410.0
 30
0.0
 11
182.5
 21
415.0
 31
0.0
  0
LINE
  5
88
100
AcDbEntity
  8
0
  6
Continuous
 62
   172
100
AcDbLine
 10
585.0
 20
110.0
 30
0.0
 11
590.0
 21
110.0
 31
0.0
  0
LINE
  5
89
100
AcDbEntity
  8
0
  6
Continuous
 62
   172
100
AcDbLine
 10
527.5
 20
410.0
 30
0.0
 11
527.5
 21
415.0
 31
0.0
  0
LINE
  5
8A
100
AcDbEntity
  8
0
  6
Continuous
 62
   172
100
AcDbLine
 10
240.0
 20
410.0
 30
0.0
 11
240.0
 21
415.0
 31
0.0
  0
ENDBLK
  5
8B
100
AcDbEntity
  8
0
100
AcDbBlockEnd
  0
BLOCK
  5
8E
100
AcDbEntity
  8
0
100
AcDbBlockBegin
  2
*B7
 70
     0
 10
0.0
 20
0.0
 30
0.0
  3
*B7
  1

  0
LINE
  5
8F
100
AcDbEntity
  8
0
  6
Continuous
 62
   172
100
AcDbLine
 10
0.0
 20
420.0
 30
0.0
 11
10.0
 21
420.0
 31
0.0
  0
LINE
  5
90
100
AcDbEntity
  8
0
  6
Continuous
 62
   172
100
AcDbLine
 10
0.0
 20
420.0
 30
0.0
 11
0.0
 21
410.0
 31
0.0
  0
LINE
  5
91
100
AcDbEntity
  8
0
  6
Continuous
 62
   172
100
AcDbLine
 10
595.0
 20
420.0
 30
0.0
 11
585.0
 21
420.0
 31
0.0
  0
LINE
  5
92
100
AcDbEntity
  8
0
  6
Continuous
 62
   172
100
AcDbLine
 10
0.0
 20
0.0
 30
0.0
 11
10.0
 21
0.0
 31
0.0
  0
LINE
  5
93
100
AcDbEntity
  8
0
  6
Continuous
 62
   172
100
AcDbLine
 10
595.0
 20
0.0
 30
0.0
 11
585.0
 21
0.0
 31
0.0
  0
LINE
  5
94
100
AcDbEntity
  8
0
  6
Continuous
 62
   172
100
AcDbLine
 10
595.0
 20
420.0
 30
0.0
 11
595.0
 21
410.0
 31
0.0
  0
LINE
  5
95
100
AcDbEntity
  8
0
  6
Continuous
 62
   172
100
AcDbLine
 10
0.0
 20
0.0
 30
0.0
 11
0.0
 21
10.0
 31
0.0
  0
LINE
  5
96
100
AcDbEntity
  8
0
  6
Continuous
 62
   172
100
AcDbLine
 10
595.0
 20
0.0
 30
0.0
 11
595.0
 21
10.0
 31
0.0
  0
ENDBLK
  5
97
100
AcDbEntity
  8
0
100
AcDbBlockEnd
  0
BLOCK
  5
9A
100
AcDbEntity
  8
0
100
AcDbBlockBegin
  2
*B8
 70
     0
 10
0.0
 20
0.0
 30
0.0
  3
*B8
  1

  0
TEXT
  5
9B
100
AcDbEntity
  8
TEXT
  6
Continuous
 62
     0
100
AcDbText
 10
588.928571
 20
33.75
 30
0.0
 40
2.5
  1
A
100
AcDbText
  0
ENDBLK
  5
9C
100
AcDbEntity
  8
0
100
AcDbBlockEnd
  0
BLOCK
  5
9F
100
AcDbEntity
  8
0
100
AcDbBlockBegin
  2
*B9
 70
     0
 10
0.0
 20
0.0
 30
0.0
  3
*B9
  1

  0
TEXT
  5
A0
100
AcDbEntity
  8
TEXT
  6
Continuous
 62
     0
100
AcDbText
 10
526.75
 20
31.5
 30
0.0
 40
2.0
  1
チェック
100
AcDbText
  0
ENDBLK
  5
A1
100
AcDbEntity
  8
0
100
AcDbBlockEnd
  0
BLOCK
  5
A4
100
AcDbEntity
  8
0
100
AcDbBlockBegin
  2
*B10
 70
     0
 10
0.0
 20
0.0
 30
0.0
  3
*B10
  1

  0
TEXT
  5
A5
100
AcDbEntity
  8
TEXT
  6
Continuous
 62
     0
100
AcDbText
 10
3.869048
 20
233.75
 30
0.0
 40
2.5
  1
E
100
AcDbText
  0
ENDBLK
  5
A6
100
AcDbEntity
  8
0
100
AcDbBlockEnd
  0
BLOCK
  5
A9
100
AcDbEntity
  8
0
100
AcDbBlockBegin
  2
*B11
 70
     0
 10
0.0
 20
0.0
 30
0.0
  3
*B11
  1

  0
TEXT
  5
AA
100
AcDbEntity
  8
TEXT
  6
Continuous
 62
     0
100
AcDbText
 10
526.75
 20
36.5
 30
0.0
 40
2.0
  1
図面作成
100
AcDbText
  0
ENDBLK
  5
AB
100
AcDbEntity
  8
0
100
AcDbBlockEnd
  0
BLOCK
  5
AE
100
AcDbEntity
  8
0
100
AcDbBlockBegin
  2
*B12
 70
     0
 10
0.0
 20
0.0
 30
0.0
  3
*B12
  1

  0
TEXT
  5
AF
100
AcDbEntity
  8
TEXT
  6
Continuous
 62
     0
100
AcDbText
 10
479.928571
 20
20.5
 30
0.0
 40
3.0
  1
プロジェクト番号
100
AcDbText
  0
ENDBLK
  5
B0
100
AcDbEntity
  8
0
100
AcDbBlockEnd
  0
BLOCK
  5
B3
100
AcDbEntity
  8
0
100
AcDbBlockBegin
  2
*B13
 70
     0
 10
0.0
 20
0.0
 30
0.0
  3
*B13
  1

  0
TEXT
  5
B4
100
AcDbEntity
  8
TEXT
  6
Continuous
 62
     0
100
AcDbText
 10
382.559524
 20
413.75
 30
0.0
 40
2.5
  1
7
100
AcDbText
  0
ENDBLK
  5
B5
100
AcDbEntity
  8
0
100
AcDbBlockEnd
  0
BLOCK
  5
B8
100
AcDbEntity
  8
0
100
AcDbBlockBegin
  2
*B14
 70
     0
 10
0.0
 20
0.0
 30
0.0
  3
*B14
  1

  0
TEXT
  5
B9
100
AcDbEntity
  8
TEXT
  6
Continuous
 62
     0
100
AcDbText
 10
565.764706
 20
63.0
 30
0.0
 40
2.0
  1
修正者
100
AcDbText
  0
ENDBLK
  5
BA
100
AcDbEntity
  8
0
100
AcDbBlockEnd
  0
BLOCK
  5
BD
100
AcDbEntity
  8
0
100
AcDbBlockBegin
  2
*B15
 70
     0
 10
0.0
 20
0.0
 30
0.0
  3
*B15
  1

  0
TEXT
  5
BE
100
AcDbEntity
  8
TEXT
  6
Continuous
 62
     0
100
AcDbText
 10
477.625
 20
56.5
 30
0.0
 40
3.0
  1
タイトル
100
AcDbText
  0
ENDBLK
  5
BF
100
AcDbEntity
  8
0
100
AcDbBlockEnd
  0
BLOCK
  5
C2
100
AcDbEntity
  8
0
100
AcDbBlockBegin
  2
*B16
 70
     0
 10
0.0
 20
0.0
 30
0.0
  3
*B16
  1

  0
TEXT
  5
C3
100
AcDbEntity
  8
TEXT
  6
Continuous
 62
     0
100
AcDbText
 10
535.0
 20
20.5
 30
0.0
 40
3.0
  1
図面番号
100
AcDbText
  0
ENDBLK
  5
C4
100
AcDbEntity
  8
0
100
AcDbBlockEnd
  0
BLOCK
  5
C7
100
AcDbEntity
  8
0
100
AcDbBlockBegin
  2
*B17
 70
     0
 10
0.0
 20
0.0
 30
0.0
  3
*B17
  1

  0
TEXT
  5
C8
100
AcDbEntity
  8
TEXT
  6
Continuous
 62
     0
100
AcDbText
 10
588.75
 20
183.75
 30
0.0
 40
2.5
  1
D
100
AcDbText
  0
ENDBLK
  5
C9
100
AcDbEntity
  8
0
100
AcDbBlockEnd
  0
BLOCK
  5
CC
100
AcDbEntity
  8
0
100
AcDbBlockBegin
  2
*B18
 70
     0
 10
0.0
 20
0.0
 30
0.0
  3
*B18
  1

  0
TEXT
  5
CD
100
AcDbEntity
  8
TEXT
  6
Continuous
 62
     0
100
AcDbText
 10
3.75
 20
183.75
 30
0.0
 40
2.5
  1
D
100
AcDbText
  0
ENDBLK
  5
CE
100
AcDbEntity
  8
0
100
AcDbBlockEnd
  0
BLOCK
  5
D1
100
AcDbEntity
  8
0
100
AcDbBlockBegin
  2
*B19
 70
     0
 10
0.0
 20
0.0
 30
0.0
  3
*B19
  1

  0
TEXT
  5
D2
100
AcDbEntity
  8
TEXT
  6
Continuous
 62
     0
100
AcDbText
 10
588.690476
 20
383.75
 30
0.0
 40
2.5
  1
H
100
AcDbText
  0
ENDBLK
  5
D3
100
AcDbEntity
  8
0
100
AcDbBlockEnd
  0
BLOCK
  5
D6
100
AcDbEntity
  8
0
100
AcDbBlockBegin
  2
*B20
 70
     0
 10
0.0
 20
0.0
 30
0.0
  3
*B20
  1

  0
TEXT
  5
D7
100
AcDbEntity
  8
TEXT
  6
Continuous
 62
     0
100
AcDbText
 10
497.559524
 20
3.75
 30
0.0
 40
2.5
  1
9
100
AcDbText
  0
ENDBLK
  5
D8
100
AcDbEntity
  8
0
100
AcDbBlockEnd
  0
BLOCK
  5
DB
100
AcDbEntity
  8
0
100
AcDbBlockBegin
  2
*B21
 70
     0
 10
0.0
 20
0.0
 30
0.0
  3
*B21
  1

  0
TEXT
  5
DC
100
AcDbEntity
  8
TEXT
  6
Continuous
 62
     0
100
AcDbText
 10
577.176471
 20
63.0
 30
0.0
 40
2.0
  1
日付
100
AcDbText
  0
ENDBLK
  5
DD
100
AcDbEntity
  8
0
100
AcDbBlockEnd
  0
BLOCK
  5
E0
100
AcDbEntity
  8
0
100
AcDbBlockBegin
  2
*B22
 70
     0
 10
0.0
 20
0.0
 30
0.0
  3
*B22
  1

  0
TEXT
  5
E1
100
AcDbEntity
  8
TEXT
  6
Continuous
 62
     0
100
AcDbText
 10
497.559524
 20
413.75
 30
0.0
 40
2.5
  1
9
100
AcDbText
  0
ENDBLK
  5
E2
100
AcDbEntity
  8
0
100
AcDbBlockEnd
  0
BLOCK
  5
E5
100
AcDbEntity
  8
0
100
AcDbBlockBegin
  2
*B23
 70
     0
 10
0.0
 20
0.0
 30
0.0
  3
*B23
  1

  0
TEXT
  5
E6
100
AcDbEntity
  8
TEXT
  6
Continuous
 62
     0
100
AcDbText
 10
571.47619
 20
41.5
 30
0.0
 40
2.0
  1
日付
100
AcDbText
  0
ENDBLK
  5
E7
100
AcDbEntity
  8
0
100
AcDbBlockEnd
  0
BLOCK
  5
EA
100
AcDbEntity
  8
0
100
AcDbBlockBegin
  2
*B24
 70
     0
 10
0.0
 20
0.0
 30
0.0
  3
*B24
  1

  0
TEXT
  5
EB
100
AcDbEntity
  8
TEXT
  6
Continuous
 62
     0
100
AcDbText
 10
3.75
 20
133.75
 30
0.0
 40
2.5
  1
C
100
AcDbText
  0
ENDBLK
  5
EC
100
AcDbEntity
  8
0
100
AcDbBlockEnd
  0
BLOCK
  5
EF
100
AcDbEntity
  8
0
100
AcDbBlockBegin
  2
*B25
 70
     0
 10
0.0
 20
0.0
 30
0.0
  3
*B25
  1

  0
TEXT
  5
F0
100
AcDbEntity
  8
TEXT
  6
Continuous
 62
     0
100
AcDbText
 10
440.059524
 20
413.75
 30
0.0
 40
2.5
  1
8
100
AcDbText
  0
ENDBLK
  5
F1
100
AcDbEntity
  8
0
100
AcDbBlockEnd
  0
BLOCK
  5
F4
100
AcDbEntity
  8
0
100
AcDbBlockBegin
  2
*B26
 70
     0
 10
0.0
 20
0.0
 30
0.0
  3
*B26
  1

  0
TEXT
  5
F5
100
AcDbEntity
  8
TEXT
  6
Continuous
 62
     0
100
AcDbText
 10
588.869048
 20
233.75
 30
0.0
 40
2.5
  1
E
100
AcDbText
  0
ENDBLK
  5
F6
100
AcDbEntity
  8
0
100
AcDbBlockEnd
  0
BLOCK
  5
F9
100
AcDbEntity
  8
0
100
AcDbBlockBegin
  2
*B27
 70
     0
 10
0.0
 20
0.0
 30
0.0
  3
*B27
  1

  0
TEXT
  5
FA
100
AcDbEntity
  8
TEXT
  6
Continuous
 62
     0
100
AcDbText
 10
553.869048
 20
413.75
 30
0.0
 40
2.5
  1
10
100
AcDbText
  0
ENDBLK
  5
FB
100
AcDbEntity
  8
0
100
AcDbBlockEnd
  0
BLOCK
  5
FE
100
AcDbEntity
  8
0
100
AcDbBlockBegin
  2
*B28
 70
     0
 10
0.0
 20
0.0
 30
0.0
  3
*B28
  1

  0
TEXT
  5
FF
100
AcDbEntity
  8
TEXT
  6
Continuous
 62
     0
100
AcDbText
 10
3.928571
 20
283.75
 30
0.0
 40
2.5
  1
F
100
AcDbText
  0
ENDBLK
  5
100
100
AcDbEntity
  8
0
100
AcDbBlockEnd
  0
BLOCK
  5
103
100
AcDbEntity
  8
0
100
AcDbBlockBegin
  2
*B29
 70
     0
 10
0.0
 20
0.0
 30
0.0
  3
*B29
  1

  0
TEXT
  5
104
100
AcDbEntity
  8
TEXT
  6
Continuous
 62
     0
100
AcDbText
 10
588.75
 20
133.75
 30
0.0
 40
2.5
  1
C
100
AcDbText
  0
ENDBLK
  5
105
100
AcDbEntity
  8
0
100
AcDbBlockEnd
  0
BLOCK
  5
108
100
AcDbEntity
  8
0
100
AcDbBlockBegin
  2
*B30
 70
     0
 10
0.0
 20
0.0
 30
0.0
  3
*B30
  1

  0
TEXT
  5
109
100
AcDbEntity
  8
TEXT
  6
Continuous
 62
     0
100
AcDbText
 10
3.75
 20
333.75
 30
0.0
 40
2.5
  1
G
100
AcDbText
  0
ENDBLK
  5
10A
100
AcDbEntity
  8
0
100
AcDbBlockEnd
  0
BLOCK
  5
10D
100
AcDbEntity
  8
0
100
AcDbBlockBegin
  2
*B31
 70
     0
 10
0.0
 20
0.0
 30
0.0
  3
*B31
  1

  0
TEXT
  5
10E
100
AcDbEntity
  8
TEXT
  6
Continuous
 62
     0
100
AcDbText
 10
2.375
 20
1.5
 30
0.0
 40
1.0
  1
図面シート - A2、横向き
100
AcDbText
  0
ENDBLK
  5
10F
100
AcDbEntity
  8
0
100
AcDbBlockEnd
  0
BLOCK
  5
112
100
AcDbEntity
  8
0
100
AcDbBlockBegin
  2
*B32
 70
     0
 10
0.0
 20
0.0
 30
0.0
  3
*B32
  1

  0
TEXT
  5
113
100
AcDbEntity
  8
TEXT
  6
Continuous
 62
     0
100
AcDbText
 10
526.75
 20
26.5
 30
0.0
 40
2.0
  1
承認
100
AcDbText
  0
ENDBLK
  5
114
100
AcDbEntity
  8
0
100
AcDbBlockEnd
  0
BLOCK
  5
117
100
AcDbEntity
  8
0
100
AcDbBlockBegin
  2
*B33
 70
     0
 10
0.0
 20
0.0
 30
0.0
  3
*B33
  1

  0
TEXT
  5
118
100
AcDbEntity
  8
TEXT
  6
Continuous
 62
     0
100
AcDbText
 10
3.75
 20
83.75
 30
0.0
 40
2.5
  1
B
100
AcDbText
  0
ENDBLK
  5
119
100
AcDbEntity
  8
0
100
AcDbBlockEnd
  0
BLOCK
  5
11C
100
AcDbEntity
  8
0
100
AcDbBlockBegin
  2
*B34
 70
     0
 10
0.0
 20
0.0
 30
0.0
  3
*B34
  1

  0
TEXT
  5
11D
100
AcDbEntity
  8
TEXT
  6
Continuous
 62
     0
100
AcDbText
 10
3.690476
 20
383.75
 30
0.0
 40
2.5
  1
H
100
AcDbText
  0
ENDBLK
  5
11E
100
AcDbEntity
  8
0
100
AcDbBlockEnd
  0
BLOCK
  5
121
100
AcDbEntity
  8
0
100
AcDbBlockBegin
  2
*B35
 70
     0
 10
0.0
 20
0.0
 30
0.0
  3
*B35
  1

  0
TEXT
  5
122
100
AcDbEntity
  8
TEXT
  6
Continuous
 62
     0
100
AcDbText
 10
553.869048
 20
3.75
 30
0.0
 40
2.5
  1
10
100
AcDbText
  0
ENDBLK
  5
123
100
AcDbEntity
  8
0
100
AcDbBlockEnd
  0
BLOCK
  5
126
100
AcDbEntity
  8
0
100
AcDbBlockBegin
  2
*B36
 70
     0
 10
0.0
 20
0.0
 30
0.0
  3
*B36
  1

  0
TEXT
  5
127
100
AcDbEntity
  8
TEXT
  6
Continuous
 62
     0
100
AcDbText
 10
588.75
 20
333.75
 30
0.0
 40
2.5
  1
G
100
AcDbText
  0
ENDBLK
  5
128
100
AcDbEntity
  8
0
100
AcDbBlockEnd
  0
BLOCK
  5
12B
100
AcDbEntity
  8
0
100
AcDbBlockBegin
  2
*B37
 70
     0
 10
0.0
 20
0.0
 30
0.0
  3
*B37
  1

  0
TEXT
  5
12C
100
AcDbEntity
  8
TEXT
  6
Continuous
 62
     0
100
AcDbText
 10
588.928571
 20
283.75
 30
0.0
 40
2.5
  1
F
100
AcDbText
  0
ENDBLK
  5
12D
100
AcDbEntity
  8
0
100
AcDbBlockEnd
  0
BLOCK
  5
130
100
AcDbEntity
  8
0
100
AcDbBlockBegin
  2
*B38
 70
     0
 10
0.0
 20
0.0
 30
0.0
  3
*B38
  1

  0
TEXT
  5
131
100
AcDbEntity
  8
TEXT
  6
Continuous
 62
     0
100
AcDbText
 10
210.059524
 20
3.75
 30
0.0
 40
2.5
  1
4
100
AcDbText
  0
ENDBLK
  5
132
100
AcDbEntity
  8
0
100
AcDbBlockEnd
  0
BLOCK
  5
135
100
AcDbEntity
  8
0
100
AcDbBlockBegin
  2
*B39
 70
     0
 10
0.0
 20
0.0
 30
0.0
  3
*B39
  1

  0
TEXT
  5
136
100
AcDbEntity
  8
TEXT
  6
Continuous
 62
     0
100
AcDbText
 10
95.059524
 20
413.75
 30
0.0
 40
2.5
  1
2
100
AcDbText
  0
ENDBLK
  5
137
100
AcDbEntity
  8
0
100
AcDbBlockEnd
  0
BLOCK
  5
13A
100
AcDbEntity
  8
0
100
AcDbBlockBegin
  2
*B40
 70
     0
 10
0.0
 20
0.0
 30
0.0
  3
*B40
  1

  0
TEXT
  5
13B
100
AcDbEntity
  8
TEXT
  6
Continuous
 62
     0
100
AcDbText
 10
37.559524
 20
3.75
 30
0.0
 40
2.5
  1
1
100
AcDbText
  0
ENDBLK
  5
13C
100
AcDbEntity
  8
0
100
AcDbBlockEnd
  0
BLOCK
  5
13F
100
AcDbEntity
  8
0
100
AcDbBlockBegin
  2
*B41
 70
     0
 10
0.0
 20
0.0
 30
0.0
  3
*B41
  1

  0
TEXT
  5
140
100
AcDbEntity
  8
TEXT
  6
Continuous
 62
     0
100
AcDbText
 10
267.559524
 20
3.75
 30
0.0
 40
2.5
  1
5
100
AcDbText
  0
ENDBLK
  5
141
100
AcDbEntity
  8
0
100
AcDbBlockEnd
  0
BLOCK
  5
144
100
AcDbEntity
  8
0
100
AcDbBlockBegin
  2
*B42
 70
     0
 10
0.0
 20
0.0
 30
0.0
  3
*B42
  1

  0
TEXT
  5
145
100
AcDbEntity
  8
TEXT
  6
Continuous
 62
     0
100
AcDbText
 10
267.559524
 20
413.75
 30
0.0
 40
2.5
  1
5
100
AcDbText
  0
ENDBLK
  5
146
100
AcDbEntity
  8
0
100
AcDbBlockEnd
  0
BLOCK
  5
149
100
AcDbEntity
  8
0
100
AcDbBlockBegin
  2
*B43
 70
     0
 10
0.0
 20
0.0
 30
0.0
  3
*B43
  1

  0
TEXT
  5
14A
100
AcDbEntity
  8
TEXT
  6
Continuous
 62
     0
100
AcDbText
 10
325.059524
 20
3.75
 30
0.0
 40
2.5
  1
6
100
AcDbText
  0
ENDBLK
  5
14B
100
AcDbEntity
  8
0
100
AcDbBlockEnd
  0
BLOCK
  5
14E
100
AcDbEntity
  8
0
100
AcDbBlockBegin
  2
*B44
 70
     0
 10
0.0
 20
0.0
 30
0.0
  3
*B44
  1

  0
TEXT
  5
14F
100
AcDbEntity
  8
TEXT
  6
Continuous
 62
     0
100
AcDbText
 10
487.176471
 20
63.0
 30
0.0
 40
2.0
  1
説明
100
AcDbText
  0
ENDBLK
  5
150
100
AcDbEntity
  8
0
100
AcDbBlockEnd
  0
BLOCK
  5
153
100
AcDbEntity
  8
0
100
AcDbBlockBegin
  2
*B45
 70
     0
 10
0.0
 20
0.0
 30
0.0
  3
*B45
  1

  0
TEXT
  5
154
100
AcDbEntity
  8
TEXT
  6
Continuous
 62
     0
100
AcDbText
 10
3.928571
 20
33.75
 30
0.0
 40
2.5
  1
A
100
AcDbText
  0
ENDBLK
  5
155
100
AcDbEntity
  8
0
100
AcDbBlockEnd
  0
BLOCK
  5
158
100
AcDbEntity
  8
0
100
AcDbBlockBegin
  2
*B46
 70
     0
 10
0.0
 20
0.0
 30
0.0
  3
*B46
  1

  0
TEXT
  5
159
100
AcDbEntity
  8
TEXT
  6
Continuous
 62
     0
100
AcDbText
 10
152.559524
 20
3.75
 30
0.0
 40
2.5
  1
3
100
AcDbText
  0
ENDBLK
  5
15A
100
AcDbEntity
  8
0
100
AcDbBlockEnd
  0
BLOCK
  5
15D
100
AcDbEntity
  8
0
100
AcDbBlockBegin
  2
*B47
 70
     0
 10
0.0
 20
0.0
 30
0.0
  3
*B47
  1

  0
TEXT
  5
15E
100
AcDbEntity
  8
TEXT
  6
Continuous
 62
     0
100
AcDbText
 10
152.559524
 20
413.75
 30
0.0
 40
2.5
  1
3
100
AcDbText
  0
ENDBLK
  5
15F
100
AcDbEntity
  8
0
100
AcDbBlockEnd
  0
BLOCK
  5
162
100
AcDbEntity
  8
0
100
AcDbBlockBegin
  2
*B48
 70
     0
 10
0.0
 20
0.0
 30
0.0
  3
*B48
  1

  0
TEXT
  5
163
100
AcDbEntity
  8
TEXT
  6
Continuous
 62
     0
100
AcDbText
 10
210.059524
 20
413.75
 30
0.0
 40
2.5
  1
4
100
AcDbText
  0
ENDBLK
  5
164
100
AcDbEntity
  8
0
100
AcDbBlockEnd
  0
BLOCK
  5
167
100
AcDbEntity
  8
0
100
AcDbBlockBegin
  2
*B49
 70
     0
 10
0.0
 20
0.0
 30
0.0
  3
*B49
  1

  0
TEXT
  5
168
100
AcDbEntity
  8
TEXT
  6
Continuous
 62
     0
100
AcDbText
 10
325.059524
 20
413.75
 30
0.0
 40
2.5
  1
6
100
AcDbText
  0
ENDBLK
  5
169
100
AcDbEntity
  8
0
100
AcDbBlockEnd
  0
BLOCK
  5
16C
100
AcDbEntity
  8
0
100
AcDbBlockBegin
  2
*B50
 70
     0
 10
0.0
 20
0.0
 30
0.0
  3
*B50
  1

  0
TEXT
  5
16D
100
AcDbEntity
  8
TEXT
  6
Continuous
 62
     0
100
AcDbText
 10
382.559524
 20
3.75
 30
0.0
 40
2.5
  1
7
100
AcDbText
  0
ENDBLK
  5
16E
100
AcDbEntity
  8
0
100
AcDbBlockEnd
  0
BLOCK
  5
171
100
AcDbEntity
  8
0
100
AcDbBlockBegin
  2
*B51
 70
     0
 10
0.0
 20
0.0
 30
0.0
  3
*B51
  1

  0
TEXT
  5
172
100
AcDbEntity
  8
TEXT
  6
Continuous
 62
     0
100
AcDbText
 10
588.75
 20
83.75
 30
0.0
 40
2.5
  1
B
100
AcDbText
  0
ENDBLK
  5
173
100
AcDbEntity
  8
0
100
AcDbBlockEnd
  0
BLOCK
  5
176
100
AcDbEntity
  8
0
100
AcDbBlockBegin
  2
*B52
 70
     0
 10
0.0
 20
0.0
 30
0.0
  3
*B52
  1

  0
TEXT
  5
177
100
AcDbEntity
  8
TEXT
  6
Continuous
 62
     0
100
AcDbText
 10
440.059524
 20
3.75
 30
0.0
 40
2.5
  1
8
100
AcDbText
  0
ENDBLK
  5
178
100
AcDbEntity
  8
0
100
AcDbBlockEnd
  0
BLOCK
  5
17B
100
AcDbEntity
  8
0
100
AcDbBlockBegin
  2
*B53
 70
     0
 10
0.0
 20
0.0
 30
0.0
  3
*B53
  1

  0
TEXT
  5
17C
100
AcDbEntity
  8
TEXT
  6
Continuous
 62
     0
100
AcDbText
 10
477.176471
 20
63.0
 30
0.0
 40
2.0
  1
修正
100
AcDbText
  0
ENDBLK
  5
17D
100
AcDbEntity
  8
0
100
AcDbBlockEnd
  0
BLOCK
  5
180
100
AcDbEntity
  8
0
100
AcDbBlockBegin
  2
*B54
 70
     0
 10
0.0
 20
0.0
 30
0.0
  3
*B54
  1

  0
TEXT
  5
181
100
AcDbEntity
  8
TEXT
  6
Continuous
 62
     0
100
AcDbText
 10
526.75
 20
41.5
 30
0.0
 40
2.0
  1
スケール
100
AcDbText
  0
ENDBLK
  5
182
100
AcDbEntity
  8
0
100
AcDbBlockEnd
  0
BLOCK
  5
185
100
AcDbEntity
  8
0
100
AcDbBlockBegin
  2
*B55
 70
     0
 10
0.0
 20
0.0
 30
0.0
  3
*B55
  1

  0
TEXT
  5
186
100
AcDbEntity
  8
TEXT
  6
Continuous
 62
     0
100
AcDbText
 10
95.059524
 20
3.75
 30
0.0
 40
2.5
  1
2
100
AcDbText
  0
ENDBLK
  5
187
100
AcDbEntity
  8
0
100
AcDbBlockEnd
  0
BLOCK
  5
18A
100
AcDbEntity
  8
0
100
AcDbBlockBegin
  2
*B56
 70
     0
 10
0.0
 20
0.0
 30
0.0
  3
*B56
  1

  0
TEXT
  5
18B
100
AcDbEntity
  8
TEXT
  6
Continuous
 62
     0
100
AcDbText
 10
37.559524
 20
413.75
 30
0.0
 40
2.5
  1
1
100
AcDbText
  0
ENDBLK
  5
18C
100
AcDbEntity
  8
0
100
AcDbBlockEnd
  0
ENDSEC
  0
SECTION
  2
ENTITIES
  0
INSERT
  5
39
100
AcDbEntity
  8
0
  6
Continuous
 62
   152
100
AcDbBlockReference
  2
*B0
 10
0.0
 20
0.0
 30
0.0
  0
INSERT
  5
45
100
AcDbEntity
  8
0
  6
Continuous
 62
   172
100
AcDbBlockReference
  2
*B1
 10
0.0
 20
0.0
 30
0.0
  0
INSERT
  5
55
100
AcDbEntity
  8
0
  6
Continuous
 62
   172
100
AcDbBlockReference
  2
*B2
 10
0.0
 20
0.0
 30
0.0
  0
INSERT
  5
60
100
AcDbEntity
  8
0
  6
Continuous
 62
   172
100
AcDbBlockReference
  2
*B4
 10
0.0
 20
0.0
 30
0.0
  0
INSERT
  5
68
100
AcDbEntity
  8
0
  6
Continuous
 62
   172
100
AcDbBlockReference
  2
*B5
 10
0.0
 20
0.0
 30
0.0
  0
INSERT
  5
8C
100
AcDbEntity
  8
0
  6
Continuous
 62
   172
100
AcDbBlockReference
  2
*B6
 10
0.0
 20
0.0
 30
0.0
  0
INSERT
  5
98
100
AcDbEntity
  8
0
  6
Continuous
 62
   172
100
AcDbBlockReference
  2
*B7
 10
0.0
 20
0.0
 30
0.0
  0
INSERT
  5
9D
100
AcDbEntity
  8
TEXT
  6
Continuous
 62
     0
100
AcDbBlockReference
  2
*B8
 10
0.0
 20
0.0
 30
0.0
  0
INSERT
  5
A2
100
AcDbEntity
  8
TEXT
  6
Continuous
 62
     0
100
AcDbBlockReference
  2
*B9
 10
0.0
 20
0.0
 30
0.0
  0
INSERT
  5
A7
100
AcDbEntity
  8
TEXT
  6
Continuous
 62
     0
100
AcDbBlockReference
  2
*B10
 10
0.0
 20
0.0
 30
0.0
  0
INSERT
  5
AC
100
AcDbEntity
  8
TEXT
  6
Continuous
 62
     0
100
AcDbBlockReference
  2
*B11
 10
0.0
 20
0.0
 30
0.0
  0
INSERT
  5
B1
100
AcDbEntity
  8
TEXT
  6
Continuous
 62
     0
100
AcDbBlockReference
  2
*B12
 10
0.0
 20
0.0
 30
0.0
  0
INSERT
  5
B6
100
AcDbEntity
  8
TEXT
  6
Continuous
 62
     0
100
AcDbBlockReference
  2
*B13
 10
0.0
 20
0.0
 30
0.0
  0
INSERT
  5
BB
100
AcDbEntity
  8
TEXT
  6
Continuous
 62
     0
100
AcDbBlockReference
  2
*B14
 10
0.0
 20
0.0
 30
0.0
  0
INSERT
  5
C0
100
AcDbEntity
  8
TEXT
  6
Continuous
 62
     0
100
AcDbBlockReference
  2
*B15
 10
0.0
 20
0.0
 30
0.0
  0
INSERT
  5
C5
100
AcDbEntity
  8
TEXT
  6
Continuous
 62
     0
100
AcDbBlockReference
  2
*B16
 10
0.0
 20
0.0
 30
0.0
  0
INSERT
  5
CA
100
AcDbEntity
  8
TEXT
  6
Continuous
 62
     0
100
AcDbBlockReference
  2
*B17
 10
0.0
 20
0.0
 30
0.0
  0
INSERT
  5
CF
100
AcDbEntity
  8
TEXT
  6
Continuous
 62
     0
100
AcDbBlockReference
  2
*B18
 10
0.0
 20
0.0
 30
0.0
  0
INSERT
  5
D4
100
AcDbEntity
  8
TEXT
  6
Continuous
 62
     0
100
AcDbBlockReference
  2
*B19
 10
0.0
 20
0.0
 30
0.0
  0
INSERT
  5
D9
100
AcDbEntity
  8
TEXT
  6
Continuous
 62
     0
100
AcDbBlockReference
  2
*B20
 10
0.0
 20
0.0
 30
0.0
  0
INSERT
  5
DE
100
AcDbEntity
  8
TEXT
  6
Continuous
 62
     0
100
AcDbBlockReference
  2
*B21
 10
0.0
 20
0.0
 30
0.0
  0
INSERT
  5
E3
100
AcDbEntity
  8
TEXT
  6
Continuous
 62
     0
100
AcDbBlockReference
  2
*B22
 10
0.0
 20
0.0
 30
0.0
  0
INSERT
  5
E8
100
AcDbEntity
  8
TEXT
  6
Continuous
 62
     0
100
AcDbBlockReference
  2
*B23
 10
0.0
 20
0.0
 30
0.0
  0
INSERT
  5
ED
100
AcDbEntity
  8
TEXT
  6
Continuous
 62
     0
100
AcDbBlockReference
  2
*B24
 10
0.0
 20
0.0
 30
0.0
  0
INSERT
  5
F2
100
AcDbEntity
  8
TEXT
  6
Continuous
 62
     0
100
AcDbBlockReference
  2
*B25
 10
0.0
 20
0.0
 30
0.0
  0
INSERT
  5
F7
100
AcDbEntity
  8
TEXT
  6
Continuous
 62
     0
100
AcDbBlockReference
  2
*B26
 10
0.0
 20
0.0
 30
0.0
  0
INSERT
  5
FC
100
AcDbEntity
  8
TEXT
  6
Continuous
 62
     0
100
AcDbBlockReference
  2
*B27
 10
0.0
 20
0.0
 30
0.0
  0
INSERT
  5
101
100
AcDbEntity
  8
TEXT
  6
Continuous
 62
     0
100
AcDbBlockReference
  2
*B28
 10
0.0
 20
0.0
 30
0.0
  0
INSERT
  5
106
100
AcDbEntity
  8
TEXT
  6
Continuous
 62
     0
100
AcDbBlockReference
  2
*B29
 10
0.0
 20
0.0
 30
0.0
  0
INSERT
  5
10B
100
AcDbEntity
  8
TEXT
  6
Continuous
 62
     0
100
AcDbBlockReference
  2
*B30
 10
0.0
 20
0.0
 30
0.0
  0
INSERT
  5
110
100
AcDbEntity
  8
TEXT
  6
Continuous
 62
     0
100
AcDbBlockReference
  2
*B31
 10
0.0
 20
0.0
 30
0.0
  0
INSERT
  5
115
100
AcDbEntity
  8
TEXT
  6
Continuous
 62
     0
100
AcDbBlockReference
  2
*B32
 10
0.0
 20
0.0
 30
0.0
  0
INSERT
  5
11A
100
AcDbEntity
  8
TEXT
  6
Continuous
 62
     0
100
AcDbBlockReference
  2
*B33
 10
0.0
 20
0.0
 30
0.0
  0
INSERT
  5
11F
100
AcDbEntity
  8
TEXT
  6
Continuous
 62
     0
100
AcDbBlockReference
  2
*B34
 10
0.0
 20
0.0
 30
0.0
  0
INSERT
  5
124
100
AcDbEntity
  8
TEXT
  6
Continuous
 62
     0
100
AcDbBlockReference
  2
*B35
 10
0.0
 20
0.0
 30
0.0
  0
INSERT
  5
129
100
AcDbEntity
  8
TEXT
  6
Continuous
 62
     0
100
AcDbBlockReference
  2
*B36
 10
0.0
 20
0.0
 30
0.0
  0
INSERT
  5
12E
100
AcDbEntity
  8
TEXT
  6
Continuous
 62
     0
100
AcDbBlockReference
  2
*B37
 10
0.0
 20
0.0
 30
0.0
  0
INSERT
  5
133
100
AcDbEntity
  8
TEXT
  6
Continuous
 62
     0
100
AcDbBlockReference
  2
*B38
 10
0.0
 20
0.0
 30
0.0
  0
INSERT
  5
138
100
AcDbEntity
  8
TEXT
  6
Continuous
 62
     0
100
AcDbBlockReference
  2
*B39
 10
0.0
 20
0.0
 30
0.0
  0
INSERT
  5
13D
100
AcDbEntity
  8
TEXT
  6
Continuous
 62
     0
100
AcDbBlockReference
  2
*B40
 10
0.0
 20
0.0
 30
0.0
  0
INSERT
  5
142
100
AcDbEntity
  8
TEXT
  6
Continuous
 62
     0
100
AcDbBlockReference
  2
*B41
 10
0.0
 20
0.0
 30
0.0
  0
INSERT
  5
147
100
AcDbEntity
  8
TEXT
  6
Continuous
 62
     0
100
AcDbBlockReference
  2
*B42
 10
0.0
 20
0.0
 30
0.0
  0
INSERT
  5
14C
100
AcDbEntity
  8
TEXT
  6
Continuous
 62
     0
100
AcDbBlockReference
  2
*B43
 10
0.0
 20
0.0
 30
0.0
  0
INSERT
  5
151
100
AcDbEntity
  8
TEXT
  6
Continuous
 62
     0
100
AcDbBlockReference
  2
*B44
 10
0.0
 20
0.0
 30
0.0
  0
INSERT
  5
156
100
AcDbEntity
  8
TEXT
  6
Continuous
 62
     0
100
AcDbBlockReference
  2
*B45
 10
0.0
 20
0.0
 30
0.0
  0
INSERT
  5
15B
100
AcDbEntity
  8
TEXT
  6
Continuous
 62
     0
100
AcDbBlockReference
  2
*B46
 10
0.0
 20
0.0
 30
0.0
  0
INSERT
  5
160
100
AcDbEntity
  8
TEXT
  6
Continuous
 62
     0
100
AcDbBlockReference
  2
*B47
 10
0.0
 20
0.0
 30
0.0
  0
INSERT
  5
165
100
AcDbEntity
  8
TEXT
  6
Continuous
 62
     0
100
AcDbBlockReference
  2
*B48
 10
0.0
 20
0.0
 30
0.0
  0
INSERT
  5
16A
100
AcDbEntity
  8
TEXT
  6
Continuous
 62
     0
100
AcDbBlockReference
  2
*B49
 10
0.0
 20
0.0
 30
0.0
  0
INSERT
  5
16F
100
AcDbEntity
  8
TEXT
  6
Continuous
 62
     0
100
AcDbBlockReference
  2
*B50
 10
0.0
 20
0.0
 30
0.0
  0
INSERT
  5
174
100
AcDbEntity
  8
TEXT
  6
Continuous
 62
     0
100
AcDbBlockReference
  2
*B51
 10
0.0
 20
0.0
 30
0.0
  0
INSERT
  5
179
100
AcDbEntity
  8
TEXT
  6
Continuous
 62
     0
100
AcDbBlockReference
  2
*B52
 10
0.0
 20
0.0
 30
0.0
  0
INSERT
  5
17E
100
AcDbEntity
  8
TEXT
  6
Continuous
 62
     0
100
AcDbBlockReference
  2
*B53
 10
0.0
 20
0.0
 30
0.0
  0
INSERT
  5
183
100
AcDbEntity
  8
TEXT
  6
Continuous
 62
     0
100
AcDbBlockReference
  2
*B54
 10
0.0
 20
0.0
 30
0.0
  0
INSERT
  5
188
100
AcDbEntity
  8
TEXT
  6
Continuous
 62
     0
100
AcDbBlockReference
  2
*B55
 10
0.0
 20
0.0
 30
0.0
  0
INSERT
  5
18D
100
AcDbEntity
  8
TEXT
  6
Continuous
 62
     0
100
AcDbBlockReference
  2
*B56
 10
0.0
 20
0.0
 30
0.0
  0
ENDSEC
  0
SECTION
  2
OBJECTS
  0
DICTIONARY
  5
19
100
AcDbDictionary
280
     0
281
     1
  3
ACAD_GROUP
350
1A
  3
ACAD_MLINESTYLE
350
1B
  3
ACAD_LAYOUT
350
1E
  3
ACAD_PLOTSETTINGS
350
22
  3
ACAD_PLOTSTYLENAME
350
1F
  3
ACAD_WIPEOUT_VARS
350
23
  0
DICTIONARY
  5
1A
102
{ACAD_REACTORS
330
19
102
}
100
AcDbDictionary
280
     0
281
     1
  0
DICTIONARY
  5
1B
102
{ACAD_REACTORS
330
19
102
}
100
AcDbDictionary
280
     0
281
     1
  3
Standard
350
1C
  0
MLINESTYLE
  5
1C
102
{ACAD_REACTORS
330
1B
102
}
100
AcDbMlineStyle
  2
Standard
 70
     0
  3

 62
     0
 51
90.0
 52
90.0
 71
     2
 49
0.5
 62
   256
  6
BYLAYER
 49
-0.5
 62
   256
  6
BYLAYER
  0
ACDBDICTIONARYWDFLT
  5
1F
102
{ACAD_REACTORS
330
19
102
}
100
AcDbDictionary
281
     1
  3
Normal
350
1D
100
AcDbDictionaryWithDefault
340
1D
  0
ACDBPLACEHOLDER
  5
1D
102
{ACAD_REACTORS
330
1F
102
}
  0
LAYOUT
  5
20
102
{ACAD_REACTORS
330
1E
102
}
100
AcDbPlotSettings
  1

  2

  4

  6

 40
0.0
 41
0.0
 42
0.0
 43
0.0
 44
0.0
 45
0.0
 46
0.0
 47
0.0
 48
0.0
 49
0.0
140
0.0
141
0.0
142
1.0
143
1.0
 70
     0
 72
     0
 73
     0
 74
     0
  7

 75
     0
147
1.0
148
0.0
149
0.0
100
AcDbLayout
  1
Model
 70
     0
 71
     0
 10
0.0
 20
0.0
 11
0.0
 21
0.0
 12
0.0
 22
0.0
 32
0.0
 14
0.0
 24
0.0
 34
0.0
 15
0.0
 25
0.0
 35
0.0
146
0.0
 13
0.0
 23
0.0
 33
0.0
 16
0.0
 26
0.0
 36
0.0
 17
0.0
 27
0.0
 37
0.0
 76
     0
330
A
331
0
345
0
346
0
  0
LAYOUT
  5
21
102
{ACAD_REACTORS
330
1E
102
}
100
AcDbPlotSettings
  1

  2

  4

  6

 40
0.0
 41
0.0
 42
0.0
 43
0.0
 44
0.0
 45
0.0
 46
0.0
 47
0.0
 48
0.0
 49
0.0
140
0.0
141
0.0
142
1.0
143
1.0
 70
     0
 72
     0
 73
     0
 74
     0
  7

 75
     0
147
1.0
148
0.0
149
0.0
100
AcDbLayout
  1
Layout1
 70
     0
 71
     0
 10
0.0
 20
0.0
 11
0.0
 21
0.0
 12
0.0
 22
0.0
 32
0.0
 14
0.0
 24
0.0
 34
0.0
 15
0.0
 25
0.0
 35
0.0
146
0.0
 13
0.0
 23
0.0
 33
0.0
 16
0.0
 26
0.0
 36
0.0
 17
0.0
 27
0.0
 37
0.0
 76
     0
330
B
331
0
345
0
346
0
  0
DICTIONARY
  5
1E
102
{ACAD_REACTORS
330
19
102
}
100
AcDbDictionary
280
     0
281
     1
  3
Layout1
350
21
  3
Model
350
20
  0
DICTIONARY
  5
22
102
{ACAD_REACTORS
330
19
102
}
100
AcDbDictionary
280
     0
281
     1
  0
WIPEOUTVARIABLES
  5
23
100
AcDbWipeoutVariables
 70
     1
  0
ENDSEC
  0
EOF
