solid generated by Pro/DESKTOP Version 8.0
	facet normal 0.000000e+000 0.000000e+000 -1.000000e+000
		outer loop
			vertex 2.983429e-016 2.250000e+000 0.000000e+000
			vertex 1.090000e+001 1.260000e+001 0.000000e+000
			vertex 1.090000e+001 1.060000e+001 0.000000e+000
		endloop
	endfacet
	facet normal 0.000000e+000 0.000000e+000 -1.000000e+000
		outer loop
			vertex 2.983429e-016 2.250000e+000 0.000000e+000
			vertex 1.090000e+001 1.060000e+001 0.000000e+000
			vertex 1.099797e+001 9.720146e+000 0.000000e+000
		endloop
	endfacet
	facet normal 0.000000e+000 0.000000e+000 -1.000000e+000
		outer loop
			vertex 2.983429e-016 2.250000e+000 0.000000e+000
			vertex 1.099797e+001 9.720146e+000 0.000000e+000
			vertex 1.129641e+001 8.863869e+000 0.000000e+000
		endloop
	endfacet
	facet normal 0.000000e+000 0.000000e+000 -1.000000e+000
		outer loop
			vertex 2.983429e-016 2.250000e+000 0.000000e+000
			vertex 1.129641e+001 8.863869e+000 0.000000e+000
			vertex 1.177653e+001 8.101210e+000 0.000000e+000
		endloop
	endfacet
	facet normal 0.000000e+000 0.000000e+000 -1.000000e+000
		outer loop
			vertex 2.983429e-016 2.250000e+000 0.000000e+000
			vertex 1.177653e+001 8.101210e+000 0.000000e+000
			vertex 1.240044e+001 7.477151e+000 0.000000e+000
		endloop
	endfacet
	facet normal 0.000000e+000 0.000000e+000 -1.000000e+000
		outer loop
			vertex 2.983429e-016 2.250000e+000 0.000000e+000
			vertex 1.240044e+001 7.477151e+000 0.000000e+000
			vertex 1.316333e+001 6.996674e+000 0.000000e+000
		endloop
	endfacet
	facet normal 0.000000e+000 0.000000e+000 -1.000000e+000
		outer loop
			vertex 2.983429e-016 2.250000e+000 0.000000e+000
			vertex 1.316333e+001 6.996674e+000 0.000000e+000
			vertex 1.401989e+001 6.698026e+000 0.000000e+000
		endloop
	endfacet
	facet normal 0.000000e+000 0.000000e+000 -1.000000e+000
		outer loop
			vertex 2.983429e-016 2.250000e+000 0.000000e+000
			vertex 1.401989e+001 6.698026e+000 0.000000e+000
			vertex 1.490000e+001 6.600000e+000 0.000000e+000
		endloop
	endfacet
	facet normal 0.000000e+000 0.000000e+000 -1.000000e+000
		outer loop
			vertex 2.983429e-016 2.250000e+000 0.000000e+000
			vertex 1.490000e+001 6.600000e+000 0.000000e+000
			vertex 2.690000e+001 6.600000e+000 0.000000e+000
		endloop
	endfacet
	facet normal 0.000000e+000 0.000000e+000 -1.000000e+000
		outer loop
			vertex 2.983429e-016 2.250000e+000 0.000000e+000
			vertex 2.690000e+001 6.600000e+000 0.000000e+000
			vertex 2.777985e+001 6.697968e+000 0.000000e+000
		endloop
	endfacet
	facet normal 0.000000e+000 0.000000e+000 -1.000000e+000
		outer loop
			vertex 3.080197e+001 9.719889e+000 0.000000e+000
			vertex 3.090000e+001 1.060000e+001 0.000000e+000
			vertex 4.180000e+001 1.905000e+001 0.000000e+000
		endloop
	endfacet
	facet normal 0.000000e+000 0.000000e+000 -1.000000e+000
		outer loop
			vertex 3.050333e+001 8.863325e+000 0.000000e+000
			vertex 3.080197e+001 9.719889e+000 0.000000e+000
			vertex 4.180000e+001 1.905000e+001 0.000000e+000
		endloop
	endfacet
	facet normal 0.000000e+000 0.000000e+000 -1.000000e+000
		outer loop
			vertex 3.002285e+001 8.100438e+000 0.000000e+000
			vertex 3.050333e+001 8.863325e+000 0.000000e+000
			vertex 4.180000e+001 1.905000e+001 0.000000e+000
		endloop
	endfacet
	facet normal 0.000000e+000 0.000000e+000 -1.000000e+000
		outer loop
			vertex 2.939879e+001 7.476533e+000 0.000000e+000
			vertex 3.002285e+001 8.100438e+000 0.000000e+000
			vertex 4.180000e+001 1.905000e+001 0.000000e+000
		endloop
	endfacet
	facet normal 0.000000e+000 0.000000e+000 -1.000000e+000
		outer loop
			vertex 2.939879e+001 7.476533e+000 0.000000e+000
			vertex 4.180000e+001 1.905000e+001 0.000000e+000
			vertex 4.180000e+001 2.250000e+000 0.000000e+000
		endloop
	endfacet
	facet normal 0.000000e+000 0.000000e+000 -1.000000e+000
		outer loop
			vertex 2.863613e+001 6.996411e+000 0.000000e+000
			vertex 2.939879e+001 7.476533e+000 0.000000e+000
			vertex 4.180000e+001 2.250000e+000 0.000000e+000
		endloop
	endfacet
	facet normal 0.000000e+000 0.000000e+000 -1.000000e+000
		outer loop
			vertex 2.777985e+001 6.697968e+000 0.000000e+000
			vertex 2.863613e+001 6.996411e+000 0.000000e+000
			vertex 4.180000e+001 2.250000e+000 0.000000e+000
		endloop
	endfacet
	facet normal 0.000000e+000 0.000000e+000 -1.000000e+000
		outer loop
			vertex 4.180000e+001 2.250000e+000 0.000000e+000
			vertex 2.983429e-016 2.250000e+000 0.000000e+000
			vertex 2.777985e+001 6.697968e+000 0.000000e+000
		endloop
	endfacet
	facet normal 0.000000e+000 0.000000e+000 -1.000000e+000
		outer loop
			vertex 4.180000e+001 1.905000e+001 0.000000e+000
			vertex 3.090000e+001 1.060000e+001 0.000000e+000
			vertex 3.090000e+001 1.260000e+001 0.000000e+000
		endloop
	endfacet
	facet normal 0.000000e+000 0.000000e+000 -1.000000e+000
		outer loop
			vertex 4.180000e+001 1.905000e+001 0.000000e+000
			vertex 3.090000e+001 1.260000e+001 0.000000e+000
			vertex 3.080203e+001 1.347985e+001 0.000000e+000
		endloop
	endfacet
	facet normal 0.000000e+000 0.000000e+000 -1.000000e+000
		outer loop
			vertex 4.180000e+001 1.905000e+001 0.000000e+000
			vertex 3.080203e+001 1.347985e+001 0.000000e+000
			vertex 3.050359e+001 1.433613e+001 0.000000e+000
		endloop
	endfacet
	facet normal 0.000000e+000 0.000000e+000 -1.000000e+000
		outer loop
			vertex 4.180000e+001 1.905000e+001 0.000000e+000
			vertex 3.050359e+001 1.433613e+001 0.000000e+000
			vertex 3.002347e+001 1.509879e+001 0.000000e+000
		endloop
	endfacet
	facet normal 0.000000e+000 0.000000e+000 -1.000000e+000
		outer loop
			vertex 4.180000e+001 1.905000e+001 0.000000e+000
			vertex 3.002347e+001 1.509879e+001 0.000000e+000
			vertex 2.939956e+001 1.572285e+001 0.000000e+000
		endloop
	endfacet
	facet normal 0.000000e+000 0.000000e+000 -1.000000e+000
		outer loop
			vertex 4.180000e+001 1.905000e+001 0.000000e+000
			vertex 2.939956e+001 1.572285e+001 0.000000e+000
			vertex 2.863668e+001 1.620333e+001 0.000000e+000
		endloop
	endfacet
	facet normal 0.000000e+000 0.000000e+000 -1.000000e+000
		outer loop
			vertex 4.180000e+001 1.905000e+001 0.000000e+000
			vertex 2.863668e+001 1.620333e+001 0.000000e+000
			vertex 2.778011e+001 1.650197e+001 0.000000e+000
		endloop
	endfacet
	facet normal 0.000000e+000 0.000000e+000 -1.000000e+000
		outer loop
			vertex 4.180000e+001 1.905000e+001 0.000000e+000
			vertex 2.778011e+001 1.650197e+001 0.000000e+000
			vertex 2.690000e+001 1.660000e+001 0.000000e+000
		endloop
	endfacet
	facet normal 0.000000e+000 0.000000e+000 -1.000000e+000
		outer loop
			vertex 4.180000e+001 1.905000e+001 0.000000e+000
			vertex 2.690000e+001 1.660000e+001 0.000000e+000
			vertex 1.490000e+001 1.660000e+001 0.000000e+000
		endloop
	endfacet
	facet normal 0.000000e+000 0.000000e+000 -1.000000e+000
		outer loop
			vertex 1.099803e+001 1.348011e+001 0.000000e+000
			vertex 1.090000e+001 1.260000e+001 0.000000e+000
			vertex 2.983429e-016 2.250000e+000 0.000000e+000
		endloop
	endfacet
	facet normal 0.000000e+000 0.000000e+000 -1.000000e+000
		outer loop
			vertex 1.129667e+001 1.433667e+001 0.000000e+000
			vertex 1.099803e+001 1.348011e+001 0.000000e+000
			vertex 2.983429e-016 2.250000e+000 0.000000e+000
		endloop
	endfacet
	facet normal 0.000000e+000 0.000000e+000 -1.000000e+000
		outer loop
			vertex 1.177715e+001 1.509956e+001 0.000000e+000
			vertex 1.129667e+001 1.433667e+001 0.000000e+000
			vertex 2.983429e-016 2.250000e+000 0.000000e+000
		endloop
	endfacet
	facet normal -0.000000e+000 0.000000e+000 -1.000000e+000
		outer loop
			vertex 1.177715e+001 1.509956e+001 0.000000e+000
			vertex 2.983429e-016 2.250000e+000 0.000000e+000
			vertex 0.000000e+000 1.905000e+001 0.000000e+000
		endloop
	endfacet
	facet normal -0.000000e+000 0.000000e+000 -1.000000e+000
		outer loop
			vertex 1.240121e+001 1.572347e+001 0.000000e+000
			vertex 1.177715e+001 1.509956e+001 0.000000e+000
			vertex 0.000000e+000 1.905000e+001 0.000000e+000
		endloop
	endfacet
	facet normal -0.000000e+000 0.000000e+000 -1.000000e+000
		outer loop
			vertex 1.316387e+001 1.620359e+001 0.000000e+000
			vertex 1.240121e+001 1.572347e+001 0.000000e+000
			vertex 0.000000e+000 1.905000e+001 0.000000e+000
		endloop
	endfacet
	facet normal -0.000000e+000 0.000000e+000 -1.000000e+000
		outer loop
			vertex 1.402015e+001 1.650203e+001 0.000000e+000
			vertex 1.316387e+001 1.620359e+001 0.000000e+000
			vertex 0.000000e+000 1.905000e+001 0.000000e+000
		endloop
	endfacet
	facet normal -0.000000e+000 0.000000e+000 -1.000000e+000
		outer loop
			vertex 1.490000e+001 1.660000e+001 0.000000e+000
			vertex 1.402015e+001 1.650203e+001 0.000000e+000
			vertex 0.000000e+000 1.905000e+001 0.000000e+000
		endloop
	endfacet
	facet normal 0.000000e+000 0.000000e+000 -1.000000e+000
		outer loop
			vertex 0.000000e+000 1.905000e+001 0.000000e+000
			vertex 4.180000e+001 1.905000e+001 0.000000e+000
			vertex 1.490000e+001 1.660000e+001 0.000000e+000
		endloop
	endfacet
	facet normal 0.000000e+000 0.000000e+000 1.000000e+000
		outer loop
			vertex 2.628259e-017 1.757000e+001 1.000000e+000
			vertex 1.090000e+001 1.060000e+001 1.000000e+000
			vertex 1.090000e+001 1.260000e+001 1.000000e+000
		endloop
	endfacet
	facet normal 0.000000e+000 0.000000e+000 1.000000e+000
		outer loop
			vertex 2.628259e-017 1.757000e+001 1.000000e+000
			vertex 1.090000e+001 1.260000e+001 1.000000e+000
			vertex 1.099803e+001 1.348011e+001 1.000000e+000
		endloop
	endfacet
	facet normal 0.000000e+000 0.000000e+000 1.000000e+000
		outer loop
			vertex 2.628259e-017 1.757000e+001 1.000000e+000
			vertex 1.099803e+001 1.348011e+001 1.000000e+000
			vertex 1.129667e+001 1.433667e+001 1.000000e+000
		endloop
	endfacet
	facet normal 0.000000e+000 0.000000e+000 1.000000e+000
		outer loop
			vertex 2.628259e-017 1.757000e+001 1.000000e+000
			vertex 1.129667e+001 1.433667e+001 1.000000e+000
			vertex 1.177715e+001 1.509956e+001 1.000000e+000
		endloop
	endfacet
	facet normal 0.000000e+000 0.000000e+000 1.000000e+000
		outer loop
			vertex 2.628259e-017 1.757000e+001 1.000000e+000
			vertex 1.177715e+001 1.509956e+001 1.000000e+000
			vertex 1.240121e+001 1.572347e+001 1.000000e+000
		endloop
	endfacet
	facet normal 0.000000e+000 0.000000e+000 1.000000e+000
		outer loop
			vertex 2.628259e-017 1.757000e+001 1.000000e+000
			vertex 1.240121e+001 1.572347e+001 1.000000e+000
			vertex 1.316387e+001 1.620359e+001 1.000000e+000
		endloop
	endfacet
	facet normal 0.000000e+000 0.000000e+000 1.000000e+000
		outer loop
			vertex 2.628259e-017 1.757000e+001 1.000000e+000
			vertex 1.316387e+001 1.620359e+001 1.000000e+000
			vertex 1.402015e+001 1.650203e+001 1.000000e+000
		endloop
	endfacet
	facet normal 0.000000e+000 0.000000e+000 1.000000e+000
		outer loop
			vertex 2.628259e-017 1.757000e+001 1.000000e+000
			vertex 1.402015e+001 1.650203e+001 1.000000e+000
			vertex 1.490000e+001 1.660000e+001 1.000000e+000
		endloop
	endfacet
	facet normal 0.000000e+000 0.000000e+000 1.000000e+000
		outer loop
			vertex 2.628259e-017 1.757000e+001 1.000000e+000
			vertex 1.490000e+001 1.660000e+001 1.000000e+000
			vertex 2.690000e+001 1.660000e+001 1.000000e+000
		endloop
	endfacet
	facet normal 0.000000e+000 0.000000e+000 1.000000e+000
		outer loop
			vertex 3.080203e+001 1.347985e+001 1.000000e+000
			vertex 3.090000e+001 1.260000e+001 1.000000e+000
			vertex 4.180000e+001 5.600000e+000 1.000000e+000
		endloop
	endfacet
	facet normal 0.000000e+000 0.000000e+000 1.000000e+000
		outer loop
			vertex 3.050359e+001 1.433613e+001 1.000000e+000
			vertex 3.080203e+001 1.347985e+001 1.000000e+000
			vertex 4.180000e+001 5.600000e+000 1.000000e+000
		endloop
	endfacet
	facet normal 0.000000e+000 0.000000e+000 1.000000e+000
		outer loop
			vertex 3.002347e+001 1.509879e+001 1.000000e+000
			vertex 3.050359e+001 1.433613e+001 1.000000e+000
			vertex 4.180000e+001 5.600000e+000 1.000000e+000
		endloop
	endfacet
	facet normal 0.000000e+000 0.000000e+000 1.000000e+000
		outer loop
			vertex 2.939956e+001 1.572285e+001 1.000000e+000
			vertex 3.002347e+001 1.509879e+001 1.000000e+000
			vertex 4.180000e+001 5.600000e+000 1.000000e+000
		endloop
	endfacet
	facet normal -0.000000e+000 0.000000e+000 1.000000e+000
		outer loop
			vertex 2.939956e+001 1.572285e+001 1.000000e+000
			vertex 4.180000e+001 5.600000e+000 1.000000e+000
			vertex 4.180000e+001 1.757000e+001 1.000000e+000
		endloop
	endfacet
	facet normal -0.000000e+000 0.000000e+000 1.000000e+000
		outer loop
			vertex 2.863668e+001 1.620333e+001 1.000000e+000
			vertex 2.939956e+001 1.572285e+001 1.000000e+000
			vertex 4.180000e+001 1.757000e+001 1.000000e+000
		endloop
	endfacet
	facet normal -0.000000e+000 0.000000e+000 1.000000e+000
		outer loop
			vertex 2.778011e+001 1.650197e+001 1.000000e+000
			vertex 2.863668e+001 1.620333e+001 1.000000e+000
			vertex 4.180000e+001 1.757000e+001 1.000000e+000
		endloop
	endfacet
	facet normal -0.000000e+000 0.000000e+000 1.000000e+000
		outer loop
			vertex 2.690000e+001 1.660000e+001 1.000000e+000
			vertex 2.778011e+001 1.650197e+001 1.000000e+000
			vertex 4.180000e+001 1.757000e+001 1.000000e+000
		endloop
	endfacet
	facet normal 0.000000e+000 0.000000e+000 1.000000e+000
		outer loop
			vertex 4.180000e+001 1.757000e+001 1.000000e+000
			vertex 2.628259e-017 1.757000e+001 1.000000e+000
			vertex 2.690000e+001 1.660000e+001 1.000000e+000
		endloop
	endfacet
	facet normal 0.000000e+000 0.000000e+000 1.000000e+000
		outer loop
			vertex 4.180000e+001 5.600000e+000 1.000000e+000
			vertex 3.090000e+001 1.260000e+001 1.000000e+000
			vertex 3.090000e+001 1.060000e+001 1.000000e+000
		endloop
	endfacet
	facet normal 0.000000e+000 0.000000e+000 1.000000e+000
		outer loop
			vertex 4.180000e+001 5.600000e+000 1.000000e+000
			vertex 3.090000e+001 1.060000e+001 1.000000e+000
			vertex 3.080197e+001 9.719889e+000 1.000000e+000
		endloop
	endfacet
	facet normal 0.000000e+000 0.000000e+000 1.000000e+000
		outer loop
			vertex 4.180000e+001 5.600000e+000 1.000000e+000
			vertex 3.080197e+001 9.719889e+000 1.000000e+000
			vertex 3.050333e+001 8.863325e+000 1.000000e+000
		endloop
	endfacet
	facet normal 0.000000e+000 0.000000e+000 1.000000e+000
		outer loop
			vertex 4.180000e+001 5.600000e+000 1.000000e+000
			vertex 3.050333e+001 8.863325e+000 1.000000e+000
			vertex 3.002285e+001 8.100438e+000 1.000000e+000
		endloop
	endfacet
	facet normal 0.000000e+000 0.000000e+000 1.000000e+000
		outer loop
			vertex 4.180000e+001 5.600000e+000 1.000000e+000
			vertex 3.002285e+001 8.100438e+000 1.000000e+000
			vertex 2.939879e+001 7.476533e+000 1.000000e+000
		endloop
	endfacet
	facet normal 0.000000e+000 0.000000e+000 1.000000e+000
		outer loop
			vertex 4.180000e+001 5.600000e+000 1.000000e+000
			vertex 2.939879e+001 7.476533e+000 1.000000e+000
			vertex 2.863613e+001 6.996411e+000 1.000000e+000
		endloop
	endfacet
	facet normal 0.000000e+000 0.000000e+000 1.000000e+000
		outer loop
			vertex 4.180000e+001 5.600000e+000 1.000000e+000
			vertex 2.863613e+001 6.996411e+000 1.000000e+000
			vertex 2.777985e+001 6.697968e+000 1.000000e+000
		endloop
	endfacet
	facet normal 0.000000e+000 0.000000e+000 1.000000e+000
		outer loop
			vertex 4.180000e+001 5.600000e+000 1.000000e+000
			vertex 2.777985e+001 6.697968e+000 1.000000e+000
			vertex 2.690000e+001 6.600000e+000 1.000000e+000
		endloop
	endfacet
	facet normal 0.000000e+000 0.000000e+000 1.000000e+000
		outer loop
			vertex 4.180000e+001 5.600000e+000 1.000000e+000
			vertex 2.690000e+001 6.600000e+000 1.000000e+000
			vertex 1.490000e+001 6.600000e+000 1.000000e+000
		endloop
	endfacet
	facet normal 0.000000e+000 0.000000e+000 1.000000e+000
		outer loop
			vertex 1.099797e+001 9.720146e+000 1.000000e+000
			vertex 1.090000e+001 1.060000e+001 1.000000e+000
			vertex 2.628259e-017 1.757000e+001 1.000000e+000
		endloop
	endfacet
	facet normal 0.000000e+000 0.000000e+000 1.000000e+000
		outer loop
			vertex 1.129641e+001 8.863869e+000 1.000000e+000
			vertex 1.099797e+001 9.720146e+000 1.000000e+000
			vertex 2.628259e-017 1.757000e+001 1.000000e+000
		endloop
	endfacet
	facet normal 0.000000e+000 0.000000e+000 1.000000e+000
		outer loop
			vertex 1.177653e+001 8.101210e+000 1.000000e+000
			vertex 1.129641e+001 8.863869e+000 1.000000e+000
			vertex 2.628259e-017 1.757000e+001 1.000000e+000
		endloop
	endfacet
	facet normal 0.000000e+000 0.000000e+000 1.000000e+000
		outer loop
			vertex 1.240044e+001 7.477151e+000 1.000000e+000
			vertex 1.177653e+001 8.101210e+000 1.000000e+000
			vertex 2.628259e-017 1.757000e+001 1.000000e+000
		endloop
	endfacet
	facet normal 0.000000e+000 0.000000e+000 1.000000e+000
		outer loop
			vertex 1.240044e+001 7.477151e+000 1.000000e+000
			vertex 2.628259e-017 1.757000e+001 1.000000e+000
			vertex 2.388519e-016 5.600000e+000 1.000000e+000
		endloop
	endfacet
	facet normal 0.000000e+000 0.000000e+000 1.000000e+000
		outer loop
			vertex 1.316333e+001 6.996674e+000 1.000000e+000
			vertex 1.240044e+001 7.477151e+000 1.000000e+000
			vertex 2.388519e-016 5.600000e+000 1.000000e+000
		endloop
	endfacet
	facet normal 0.000000e+000 0.000000e+000 1.000000e+000
		outer loop
			vertex 1.401989e+001 6.698026e+000 1.000000e+000
			vertex 1.316333e+001 6.996674e+000 1.000000e+000
			vertex 2.388519e-016 5.600000e+000 1.000000e+000
		endloop
	endfacet
	facet normal 0.000000e+000 0.000000e+000 1.000000e+000
		outer loop
			vertex 1.490000e+001 6.600000e+000 1.000000e+000
			vertex 1.401989e+001 6.698026e+000 1.000000e+000
			vertex 2.388519e-016 5.600000e+000 1.000000e+000
		endloop
	endfacet
	facet normal 0.000000e+000 0.000000e+000 1.000000e+000
		outer loop
			vertex 2.388519e-016 5.600000e+000 1.000000e+000
			vertex 4.180000e+001 5.600000e+000 1.000000e+000
			vertex 1.490000e+001 6.600000e+000 1.000000e+000
		endloop
	endfacet
	facet normal 0.000000e+000 0.000000e+000 1.000000e+000
		outer loop
			vertex 4.180000e+001 4.600000e+000 1.000000e+000
			vertex 2.566104e-016 4.600000e+000 1.000000e+000
			vertex 4.180000e+001 2.250000e+000 1.000000e+000
		endloop
	endfacet
	facet normal 0.000000e+000 -0.000000e+000 1.000000e+000
		outer loop
			vertex 2.983429e-016 2.250000e+000 1.000000e+000
			vertex 4.180000e+001 2.250000e+000 1.000000e+000
			vertex 2.566104e-016 4.600000e+000 1.000000e+000
		endloop
	endfacet
	facet normal -0.000000e+000 -1.000000e+000 -0.000000e+000
		outer loop
			vertex 4.180000e+001 2.250000e+000 1.000000e+000
			vertex 2.983429e-016 2.250000e+000 1.000000e+000
			vertex 4.180000e+001 2.250000e+000 0.000000e+000
		endloop
	endfacet
	facet normal 0.000000e+000 -1.000000e+000 0.000000e+000
		outer loop
			vertex 2.983429e-016 2.250000e+000 0.000000e+000
			vertex 4.180000e+001 2.250000e+000 0.000000e+000
			vertex 2.983429e-016 2.250000e+000 1.000000e+000
		endloop
	endfacet
	facet normal 1.000000e+000 -0.000000e+000 0.000000e+000
		outer loop
			vertex 4.180000e+001 4.600000e+000 1.800000e+000
			vertex 4.180000e+001 4.600000e+000 1.000000e+000
			vertex 4.180000e+001 5.600000e+000 1.800000e+000
		endloop
	endfacet
	facet normal 1.000000e+000 0.000000e+000 -0.000000e+000
		outer loop
			vertex 4.180000e+001 5.600000e+000 1.000000e+000
			vertex 4.180000e+001 5.600000e+000 1.800000e+000
			vertex 4.180000e+001 4.600000e+000 1.000000e+000
		endloop
	endfacet
	facet normal 1.000000e+000 -0.000000e+000 0.000000e+000
		outer loop
			vertex 4.180000e+001 1.757000e+001 5.250000e+001
			vertex 4.180000e+001 1.757000e+001 1.000000e+000
			vertex 4.180000e+001 1.905000e+001 5.250000e+001
		endloop
	endfacet
	facet normal 1.000000e+000 0.000000e+000 0.000000e+000
		outer loop
			vertex 4.180000e+001 2.250000e+000 0.000000e+000
			vertex 4.180000e+001 1.757000e+001 1.000000e+000
			vertex 4.180000e+001 5.600000e+000 1.000000e+000
		endloop
	endfacet
	facet normal 1.000000e+000 0.000000e+000 0.000000e+000
		outer loop
			vertex 4.180000e+001 2.250000e+000 0.000000e+000
			vertex 4.180000e+001 5.600000e+000 1.000000e+000
			vertex 4.180000e+001 4.600000e+000 1.000000e+000
		endloop
	endfacet
	facet normal 1.000000e+000 -0.000000e+000 0.000000e+000
		outer loop
			vertex 4.180000e+001 2.250000e+000 1.000000e+000
			vertex 4.180000e+001 2.250000e+000 0.000000e+000
			vertex 4.180000e+001 4.600000e+000 1.000000e+000
		endloop
	endfacet
	facet normal 1.000000e+000 0.000000e+000 0.000000e+000
		outer loop
			vertex 4.180000e+001 1.757000e+001 1.000000e+000
			vertex 4.180000e+001 2.250000e+000 0.000000e+000
			vertex 4.180000e+001 1.905000e+001 0.000000e+000
		endloop
	endfacet
	facet normal 1.000000e+000 0.000000e+000 -0.000000e+000
		outer loop
			vertex 4.180000e+001 1.905000e+001 0.000000e+000
			vertex 4.180000e+001 1.905000e+001 5.250000e+001
			vertex 4.180000e+001 1.757000e+001 1.000000e+000
		endloop
	endfacet
	facet normal 0.000000e+000 1.000000e+000 0.000000e+000
		outer loop
			vertex 4.180000e+001 1.905000e+001 5.250000e+001
			vertex 4.180000e+001 1.905000e+001 0.000000e+000
			vertex 0.000000e+000 1.905000e+001 5.250000e+001
		endloop
	endfacet
	facet normal 0.000000e+000 1.000000e+000 0.000000e+000
		outer loop
			vertex 0.000000e+000 1.905000e+001 0.000000e+000
			vertex 0.000000e+000 1.905000e+001 5.250000e+001
			vertex 4.180000e+001 1.905000e+001 0.000000e+000
		endloop
	endfacet
	facet normal -1.000000e+000 -1.775849e-017 -0.000000e+000
		outer loop
			vertex 2.388519e-016 5.600000e+000 1.800000e+000
			vertex 2.388519e-016 5.600000e+000 1.000000e+000
			vertex 2.566104e-016 4.600000e+000 1.800000e+000
		endloop
	endfacet
	facet normal -1.000000e+000 -1.775849e-017 0.000000e+000
		outer loop
			vertex 2.566104e-016 4.600000e+000 1.000000e+000
			vertex 2.566104e-016 4.600000e+000 1.800000e+000
			vertex 2.388519e-016 5.600000e+000 1.000000e+000
		endloop
	endfacet
	facet normal -1.000000e+000 -1.775851e-017 -7.634372e-023
		outer loop
			vertex 0.000000e+000 1.905000e+001 0.000000e+000
			vertex 2.983429e-016 2.250000e+000 1.000000e+000
			vertex 2.566104e-016 4.600000e+000 1.000000e+000
		endloop
	endfacet
	facet normal -1.000000e+000 -1.775849e-017 2.536571e-022
		outer loop
			vertex 0.000000e+000 1.905000e+001 0.000000e+000
			vertex 2.566104e-016 4.600000e+000 1.000000e+000
			vertex 2.388519e-016 5.600000e+000 1.000000e+000
		endloop
	endfacet
	facet normal -1.000000e+000 -1.775851e-017 -1.550326e-024
		outer loop
			vertex 0.000000e+000 1.905000e+001 0.000000e+000
			vertex 2.388519e-016 5.600000e+000 1.000000e+000
			vertex 2.628259e-017 1.757000e+001 1.000000e+000
		endloop
	endfacet
	facet normal -1.000000e+000 -1.775851e-017 0.000000e+000
		outer loop
			vertex 0.000000e+000 1.905000e+001 0.000000e+000
			vertex 2.628259e-017 1.757000e+001 1.000000e+000
			vertex 2.628259e-017 1.757000e+001 5.250000e+001
		endloop
	endfacet
	facet normal -1.000000e+000 -1.775851e-017 -0.000000e+000
		outer loop
			vertex 0.000000e+000 1.905000e+001 5.250000e+001
			vertex 0.000000e+000 1.905000e+001 0.000000e+000
			vertex 2.628259e-017 1.757000e+001 5.250000e+001
		endloop
	endfacet
	facet normal -1.000000e+000 -1.775851e-017 0.000000e+000
		outer loop
			vertex 2.983429e-016 2.250000e+000 0.000000e+000
			vertex 2.983429e-016 2.250000e+000 1.000000e+000
			vertex 0.000000e+000 1.905000e+001 0.000000e+000
		endloop
	endfacet
	facet normal 0.000000e+000 0.000000e+000 1.000000e+000
		outer loop
			vertex 4.180000e+001 1.905000e+001 5.250000e+001
			vertex 0.000000e+000 1.905000e+001 5.250000e+001
			vertex 4.180000e+001 1.757000e+001 5.250000e+001
		endloop
	endfacet
	facet normal 0.000000e+000 -0.000000e+000 1.000000e+000
		outer loop
			vertex 2.628259e-017 1.757000e+001 5.250000e+001
			vertex 4.180000e+001 1.757000e+001 5.250000e+001
			vertex 0.000000e+000 1.905000e+001 5.250000e+001
		endloop
	endfacet
	facet normal 0.000000e+000 -1.000000e+000 0.000000e+000
		outer loop
			vertex 2.628259e-017 1.757000e+001 5.250000e+001
			vertex 2.628259e-017 1.757000e+001 1.000000e+000
			vertex 4.180000e+001 1.757000e+001 5.250000e+001
		endloop
	endfacet
	facet normal 0.000000e+000 -1.000000e+000 0.000000e+000
		outer loop
			vertex 4.180000e+001 1.757000e+001 1.000000e+000
			vertex 4.180000e+001 1.757000e+001 5.250000e+001
			vertex 2.628259e-017 1.757000e+001 1.000000e+000
		endloop
	endfacet
	facet normal 0.000000e+000 0.000000e+000 1.000000e+000
		outer loop
			vertex 4.180000e+001 5.600000e+000 1.800000e+000
			vertex 2.388519e-016 5.600000e+000 1.800000e+000
			vertex 4.180000e+001 4.600000e+000 1.800000e+000
		endloop
	endfacet
	facet normal 0.000000e+000 -0.000000e+000 1.000000e+000
		outer loop
			vertex 2.566104e-016 4.600000e+000 1.800000e+000
			vertex 4.180000e+001 4.600000e+000 1.800000e+000
			vertex 2.388519e-016 5.600000e+000 1.800000e+000
		endloop
	endfacet
	facet normal -0.000000e+000 1.000000e+000 0.000000e+000
		outer loop
			vertex 2.388519e-016 5.600000e+000 1.800000e+000
			vertex 4.180000e+001 5.600000e+000 1.800000e+000
			vertex 2.388519e-016 5.600000e+000 1.000000e+000
		endloop
	endfacet
	facet normal 0.000000e+000 1.000000e+000 -0.000000e+000
		outer loop
			vertex 4.180000e+001 5.600000e+000 1.000000e+000
			vertex 2.388519e-016 5.600000e+000 1.000000e+000
			vertex 4.180000e+001 5.600000e+000 1.800000e+000
		endloop
	endfacet
	facet normal -0.000000e+000 -1.000000e+000 -0.000000e+000
		outer loop
			vertex 4.180000e+001 4.600000e+000 1.800000e+000
			vertex 2.566104e-016 4.600000e+000 1.800000e+000
			vertex 4.180000e+001 4.600000e+000 1.000000e+000
		endloop
	endfacet
	facet normal 0.000000e+000 -1.000000e+000 0.000000e+000
		outer loop
			vertex 2.566104e-016 4.600000e+000 1.000000e+000
			vertex 4.180000e+001 4.600000e+000 1.000000e+000
			vertex 2.566104e-016 4.600000e+000 1.800000e+000
		endloop
	endfacet
	facet normal 1.000000e+000 0.000000e+000 0.000000e+000
		outer loop
			vertex 1.090000e+001 1.260000e+001 1.000000e+000
			vertex 1.090000e+001 1.060000e+001 1.000000e+000
			vertex 1.090000e+001 1.260000e+001 0.000000e+000
		endloop
	endfacet
	facet normal 1.000000e+000 0.000000e+000 0.000000e+000
		outer loop
			vertex 1.090000e+001 1.060000e+001 0.000000e+000
			vertex 1.090000e+001 1.260000e+001 0.000000e+000
			vertex 1.090000e+001 1.060000e+001 1.000000e+000
		endloop
	endfacet
	facet normal -0.000000e+000 -1.000000e+000 -0.000000e+000
		outer loop
			vertex 2.690000e+001 1.660000e+001 1.000000e+000
			vertex 1.490000e+001 1.660000e+001 1.000000e+000
			vertex 2.690000e+001 1.660000e+001 0.000000e+000
		endloop
	endfacet
	facet normal 0.000000e+000 -1.000000e+000 0.000000e+000
		outer loop
			vertex 1.490000e+001 1.660000e+001 0.000000e+000
			vertex 2.690000e+001 1.660000e+001 0.000000e+000
			vertex 1.490000e+001 1.660000e+001 1.000000e+000
		endloop
	endfacet
	facet normal -1.000000e+000 0.000000e+000 0.000000e+000
		outer loop
			vertex 3.090000e+001 1.060000e+001 1.000000e+000
			vertex 3.090000e+001 1.260000e+001 1.000000e+000
			vertex 3.090000e+001 1.060000e+001 0.000000e+000
		endloop
	endfacet
	facet normal -1.000000e+000 0.000000e+000 0.000000e+000
		outer loop
			vertex 3.090000e+001 1.260000e+001 0.000000e+000
			vertex 3.090000e+001 1.060000e+001 0.000000e+000
			vertex 3.090000e+001 1.260000e+001 1.000000e+000
		endloop
	endfacet
	facet normal -0.000000e+000 1.000000e+000 0.000000e+000
		outer loop
			vertex 1.490000e+001 6.600000e+000 1.000000e+000
			vertex 2.690000e+001 6.600000e+000 1.000000e+000
			vertex 1.490000e+001 6.600000e+000 0.000000e+000
		endloop
	endfacet
	facet normal 0.000000e+000 1.000000e+000 -0.000000e+000
		outer loop
			vertex 2.690000e+001 6.600000e+000 0.000000e+000
			vertex 1.490000e+001 6.600000e+000 0.000000e+000
			vertex 2.690000e+001 6.600000e+000 1.000000e+000
		endloop
	endfacet
	facet normal -9.938545e-001 1.106940e-001 0.000000e+000
		outer loop
			vertex 3.090000e+001 1.060000e+001 0.000000e+000
			vertex 3.080197e+001 9.719889e+000 0.000000e+000
			vertex 3.090000e+001 1.060000e+001 1.000000e+000
		endloop
	endfacet
	facet normal -9.938545e-001 1.106940e-001 0.000000e+000
		outer loop
			vertex 3.080197e+001 9.719889e+000 1.000000e+000
			vertex 3.090000e+001 1.060000e+001 1.000000e+000
			vertex 3.080197e+001 9.719889e+000 0.000000e+000
		endloop
	endfacet
	facet normal -9.442530e-001 3.292208e-001 0.000000e+000
		outer loop
			vertex 3.080197e+001 9.719889e+000 0.000000e+000
			vertex 3.050333e+001 8.863325e+000 0.000000e+000
			vertex 3.080197e+001 9.719889e+000 1.000000e+000
		endloop
	endfacet
	facet normal -9.442530e-001 3.292208e-001 0.000000e+000
		outer loop
			vertex 3.050333e+001 8.863325e+000 1.000000e+000
			vertex 3.080197e+001 9.719889e+000 1.000000e+000
			vertex 3.050333e+001 8.863325e+000 0.000000e+000
		endloop
	endfacet
	facet normal -8.461627e-001 5.329247e-001 0.000000e+000
		outer loop
			vertex 3.050333e+001 8.863325e+000 0.000000e+000
			vertex 3.002285e+001 8.100438e+000 0.000000e+000
			vertex 3.050333e+001 8.863325e+000 1.000000e+000
		endloop
	endfacet
	facet normal -8.461627e-001 5.329247e-001 0.000000e+000
		outer loop
			vertex 3.002285e+001 8.100438e+000 1.000000e+000
			vertex 3.050333e+001 8.863325e+000 1.000000e+000
			vertex 3.002285e+001 8.100438e+000 0.000000e+000
		endloop
	endfacet
	facet normal -7.070187e-001 7.071949e-001 0.000000e+000
		outer loop
			vertex 3.002285e+001 8.100438e+000 0.000000e+000
			vertex 2.939879e+001 7.476533e+000 0.000000e+000
			vertex 3.002285e+001 8.100438e+000 1.000000e+000
		endloop
	endfacet
	facet normal -7.070187e-001 7.071949e-001 0.000000e+000
		outer loop
			vertex 2.939879e+001 7.476533e+000 1.000000e+000
			vertex 3.002285e+001 8.100438e+000 1.000000e+000
			vertex 2.939879e+001 7.476533e+000 0.000000e+000
		endloop
	endfacet
	facet normal -5.327561e-001 8.462688e-001 0.000000e+000
		outer loop
			vertex 2.939879e+001 7.476533e+000 0.000000e+000
			vertex 2.863613e+001 6.996411e+000 0.000000e+000
			vertex 2.939879e+001 7.476533e+000 1.000000e+000
		endloop
	endfacet
	facet normal -5.327561e-001 8.462688e-001 0.000000e+000
		outer loop
			vertex 2.863613e+001 6.996411e+000 1.000000e+000
			vertex 2.939879e+001 7.476533e+000 1.000000e+000
			vertex 2.863613e+001 6.996411e+000 0.000000e+000
		endloop
	endfacet
	facet normal -3.291197e-001 9.442882e-001 0.000000e+000
		outer loop
			vertex 2.863613e+001 6.996411e+000 0.000000e+000
			vertex 2.777985e+001 6.697968e+000 0.000000e+000
			vertex 2.863613e+001 6.996411e+000 1.000000e+000
		endloop
	endfacet
	facet normal -3.291197e-001 9.442882e-001 0.000000e+000
		outer loop
			vertex 2.777985e+001 6.697968e+000 1.000000e+000
			vertex 2.863613e+001 6.996411e+000 1.000000e+000
			vertex 2.777985e+001 6.697968e+000 0.000000e+000
		endloop
	endfacet
	facet normal -1.106615e-001 9.938582e-001 0.000000e+000
		outer loop
			vertex 2.777985e+001 6.697968e+000 0.000000e+000
			vertex 2.690000e+001 6.600000e+000 0.000000e+000
			vertex 2.777985e+001 6.697968e+000 1.000000e+000
		endloop
	endfacet
	facet normal -1.106615e-001 9.938582e-001 0.000000e+000
		outer loop
			vertex 2.690000e+001 6.600000e+000 1.000000e+000
			vertex 2.777985e+001 6.697968e+000 1.000000e+000
			vertex 2.690000e+001 6.600000e+000 0.000000e+000
		endloop
	endfacet
	facet normal 9.938545e-001 -1.106939e-001 0.000000e+000
		outer loop
			vertex 1.090000e+001 1.260000e+001 0.000000e+000
			vertex 1.099803e+001 1.348011e+001 0.000000e+000
			vertex 1.090000e+001 1.260000e+001 1.000000e+000
		endloop
	endfacet
	facet normal 9.938545e-001 -1.106939e-001 0.000000e+000
		outer loop
			vertex 1.099803e+001 1.348011e+001 1.000000e+000
			vertex 1.090000e+001 1.260000e+001 1.000000e+000
			vertex 1.099803e+001 1.348011e+001 0.000000e+000
		endloop
	endfacet
	facet normal 9.442526e-001 -3.292221e-001 0.000000e+000
		outer loop
			vertex 1.099803e+001 1.348011e+001 0.000000e+000
			vertex 1.129667e+001 1.433667e+001 0.000000e+000
			vertex 1.099803e+001 1.348011e+001 1.000000e+000
		endloop
	endfacet
	facet normal 9.442526e-001 -3.292221e-001 0.000000e+000
		outer loop
			vertex 1.129667e+001 1.433667e+001 1.000000e+000
			vertex 1.099803e+001 1.348011e+001 1.000000e+000
			vertex 1.129667e+001 1.433667e+001 0.000000e+000
		endloop
	endfacet
	facet normal 8.461630e-001 -5.329242e-001 0.000000e+000
		outer loop
			vertex 1.129667e+001 1.433667e+001 0.000000e+000
			vertex 1.177715e+001 1.509956e+001 0.000000e+000
			vertex 1.129667e+001 1.433667e+001 1.000000e+000
		endloop
	endfacet
	facet normal 8.461630e-001 -5.329242e-001 0.000000e+000
		outer loop
			vertex 1.177715e+001 1.509956e+001 1.000000e+000
			vertex 1.129667e+001 1.433667e+001 1.000000e+000
			vertex 1.177715e+001 1.509956e+001 0.000000e+000
		endloop
	endfacet
	facet normal 7.070192e-001 -7.071944e-001 0.000000e+000
		outer loop
			vertex 1.177715e+001 1.509956e+001 0.000000e+000
			vertex 1.240121e+001 1.572347e+001 0.000000e+000
			vertex 1.177715e+001 1.509956e+001 1.000000e+000
		endloop
	endfacet
	facet normal 7.070192e-001 -7.071944e-001 0.000000e+000
		outer loop
			vertex 1.240121e+001 1.572347e+001 1.000000e+000
			vertex 1.177715e+001 1.509956e+001 1.000000e+000
			vertex 1.240121e+001 1.572347e+001 0.000000e+000
		endloop
	endfacet
	facet normal 5.327558e-001 -8.462691e-001 0.000000e+000
		outer loop
			vertex 1.240121e+001 1.572347e+001 0.000000e+000
			vertex 1.316387e+001 1.620359e+001 0.000000e+000
			vertex 1.240121e+001 1.572347e+001 1.000000e+000
		endloop
	endfacet
	facet normal 5.327558e-001 -8.462691e-001 0.000000e+000
		outer loop
			vertex 1.316387e+001 1.620359e+001 1.000000e+000
			vertex 1.240121e+001 1.572347e+001 1.000000e+000
			vertex 1.316387e+001 1.620359e+001 0.000000e+000
		endloop
	endfacet
	facet normal 3.291195e-001 -9.442883e-001 0.000000e+000
		outer loop
			vertex 1.316387e+001 1.620359e+001 0.000000e+000
			vertex 1.402015e+001 1.650203e+001 0.000000e+000
			vertex 1.316387e+001 1.620359e+001 1.000000e+000
		endloop
	endfacet
	facet normal 3.291195e-001 -9.442883e-001 0.000000e+000
		outer loop
			vertex 1.402015e+001 1.650203e+001 1.000000e+000
			vertex 1.316387e+001 1.620359e+001 1.000000e+000
			vertex 1.402015e+001 1.650203e+001 0.000000e+000
		endloop
	endfacet
	facet normal 1.106615e-001 -9.938582e-001 0.000000e+000
		outer loop
			vertex 1.402015e+001 1.650203e+001 0.000000e+000
			vertex 1.490000e+001 1.660000e+001 0.000000e+000
			vertex 1.402015e+001 1.650203e+001 1.000000e+000
		endloop
	endfacet
	facet normal 1.106615e-001 -9.938582e-001 0.000000e+000
		outer loop
			vertex 1.490000e+001 1.660000e+001 1.000000e+000
			vertex 1.402015e+001 1.650203e+001 1.000000e+000
			vertex 1.490000e+001 1.660000e+001 0.000000e+000
		endloop
	endfacet
	facet normal -1.106940e-001 -9.938545e-001 0.000000e+000
		outer loop
			vertex 2.690000e+001 1.660000e+001 0.000000e+000
			vertex 2.778011e+001 1.650197e+001 0.000000e+000
			vertex 2.690000e+001 1.660000e+001 1.000000e+000
		endloop
	endfacet
	facet normal -1.106940e-001 -9.938545e-001 -0.000000e+000
		outer loop
			vertex 2.778011e+001 1.650197e+001 1.000000e+000
			vertex 2.690000e+001 1.660000e+001 1.000000e+000
			vertex 2.778011e+001 1.650197e+001 0.000000e+000
		endloop
	endfacet
	facet normal -3.292208e-001 -9.442530e-001 0.000000e+000
		outer loop
			vertex 2.778011e+001 1.650197e+001 0.000000e+000
			vertex 2.863668e+001 1.620333e+001 0.000000e+000
			vertex 2.778011e+001 1.650197e+001 1.000000e+000
		endloop
	endfacet
	facet normal -3.292208e-001 -9.442530e-001 -0.000000e+000
		outer loop
			vertex 2.863668e+001 1.620333e+001 1.000000e+000
			vertex 2.778011e+001 1.650197e+001 1.000000e+000
			vertex 2.863668e+001 1.620333e+001 0.000000e+000
		endloop
	endfacet
	facet normal -5.329262e-001 -8.461617e-001 0.000000e+000
		outer loop
			vertex 2.863668e+001 1.620333e+001 0.000000e+000
			vertex 2.939956e+001 1.572285e+001 0.000000e+000
			vertex 2.863668e+001 1.620333e+001 1.000000e+000
		endloop
	endfacet
	facet normal -5.329262e-001 -8.461617e-001 -0.000000e+000
		outer loop
			vertex 2.939956e+001 1.572285e+001 1.000000e+000
			vertex 2.863668e+001 1.620333e+001 1.000000e+000
			vertex 2.939956e+001 1.572285e+001 0.000000e+000
		endloop
	endfacet
	facet normal -7.071939e-001 -7.070197e-001 0.000000e+000
		outer loop
			vertex 2.939956e+001 1.572285e+001 0.000000e+000
			vertex 3.002347e+001 1.509879e+001 0.000000e+000
			vertex 2.939956e+001 1.572285e+001 1.000000e+000
		endloop
	endfacet
	facet normal -7.071939e-001 -7.070197e-001 -0.000000e+000
		outer loop
			vertex 3.002347e+001 1.509879e+001 1.000000e+000
			vertex 2.939956e+001 1.572285e+001 1.000000e+000
			vertex 3.002347e+001 1.509879e+001 0.000000e+000
		endloop
	endfacet
	facet normal -8.462691e-001 -5.327558e-001 0.000000e+000
		outer loop
			vertex 3.002347e+001 1.509879e+001 0.000000e+000
			vertex 3.050359e+001 1.433613e+001 0.000000e+000
			vertex 3.002347e+001 1.509879e+001 1.000000e+000
		endloop
	endfacet
	facet normal -8.462691e-001 -5.327558e-001 -0.000000e+000
		outer loop
			vertex 3.050359e+001 1.433613e+001 1.000000e+000
			vertex 3.002347e+001 1.509879e+001 1.000000e+000
			vertex 3.050359e+001 1.433613e+001 0.000000e+000
		endloop
	endfacet
	facet normal -9.442883e-001 -3.291195e-001 0.000000e+000
		outer loop
			vertex 3.050359e+001 1.433613e+001 0.000000e+000
			vertex 3.080203e+001 1.347985e+001 0.000000e+000
			vertex 3.050359e+001 1.433613e+001 1.000000e+000
		endloop
	endfacet
	facet normal -9.442883e-001 -3.291195e-001 -0.000000e+000
		outer loop
			vertex 3.080203e+001 1.347985e+001 1.000000e+000
			vertex 3.050359e+001 1.433613e+001 1.000000e+000
			vertex 3.080203e+001 1.347985e+001 0.000000e+000
		endloop
	endfacet
	facet normal -9.938582e-001 -1.106615e-001 0.000000e+000
		outer loop
			vertex 3.080203e+001 1.347985e+001 0.000000e+000
			vertex 3.090000e+001 1.260000e+001 0.000000e+000
			vertex 3.080203e+001 1.347985e+001 1.000000e+000
		endloop
	endfacet
	facet normal -9.938582e-001 -1.106615e-001 -0.000000e+000
		outer loop
			vertex 3.090000e+001 1.260000e+001 1.000000e+000
			vertex 3.080203e+001 1.347985e+001 1.000000e+000
			vertex 3.090000e+001 1.260000e+001 0.000000e+000
		endloop
	endfacet
	facet normal 1.106944e-001 9.938545e-001 -0.000000e+000
		outer loop
			vertex 1.490000e+001 6.600000e+000 0.000000e+000
			vertex 1.401989e+001 6.698026e+000 0.000000e+000
			vertex 1.490000e+001 6.600000e+000 1.000000e+000
		endloop
	endfacet
	facet normal 1.106944e-001 9.938545e-001 0.000000e+000
		outer loop
			vertex 1.401989e+001 6.698026e+000 1.000000e+000
			vertex 1.490000e+001 6.600000e+000 1.000000e+000
			vertex 1.401989e+001 6.698026e+000 0.000000e+000
		endloop
	endfacet
	facet normal 3.292216e-001 9.442527e-001 -0.000000e+000
		outer loop
			vertex 1.401989e+001 6.698026e+000 0.000000e+000
			vertex 1.316333e+001 6.996674e+000 0.000000e+000
			vertex 1.401989e+001 6.698026e+000 1.000000e+000
		endloop
	endfacet
	facet normal 3.292216e-001 9.442527e-001 0.000000e+000
		outer loop
			vertex 1.316333e+001 6.996674e+000 1.000000e+000
			vertex 1.401989e+001 6.698026e+000 1.000000e+000
			vertex 1.316333e+001 6.996674e+000 0.000000e+000
		endloop
	endfacet
	facet normal 5.329251e-001 8.461624e-001 -0.000000e+000
		outer loop
			vertex 1.316333e+001 6.996674e+000 0.000000e+000
			vertex 1.240044e+001 7.477151e+000 0.000000e+000
			vertex 1.316333e+001 6.996674e+000 1.000000e+000
		endloop
	endfacet
	facet normal 5.329251e-001 8.461624e-001 0.000000e+000
		outer loop
			vertex 1.240044e+001 7.477151e+000 1.000000e+000
			vertex 1.316333e+001 6.996674e+000 1.000000e+000
			vertex 1.240044e+001 7.477151e+000 0.000000e+000
		endloop
	endfacet
	facet normal 7.071941e-001 7.070194e-001 -0.000000e+000
		outer loop
			vertex 1.240044e+001 7.477151e+000 0.000000e+000
			vertex 1.177653e+001 8.101210e+000 0.000000e+000
			vertex 1.240044e+001 7.477151e+000 1.000000e+000
		endloop
	endfacet
	facet normal 7.071941e-001 7.070194e-001 0.000000e+000
		outer loop
			vertex 1.177653e+001 8.101210e+000 1.000000e+000
			vertex 1.240044e+001 7.477151e+000 1.000000e+000
			vertex 1.177653e+001 8.101210e+000 0.000000e+000
		endloop
	endfacet
	facet normal 8.462683e-001 5.327570e-001 -0.000000e+000
		outer loop
			vertex 1.177653e+001 8.101210e+000 0.000000e+000
			vertex 1.129641e+001 8.863869e+000 0.000000e+000
			vertex 1.177653e+001 8.101210e+000 1.000000e+000
		endloop
	endfacet
	facet normal 8.462683e-001 5.327570e-001 0.000000e+000
		outer loop
			vertex 1.129641e+001 8.863869e+000 1.000000e+000
			vertex 1.177653e+001 8.101210e+000 1.000000e+000
			vertex 1.129641e+001 8.863869e+000 0.000000e+000
		endloop
	endfacet
	facet normal 9.442886e-001 3.291186e-001 -0.000000e+000
		outer loop
			vertex 1.129641e+001 8.863869e+000 0.000000e+000
			vertex 1.099797e+001 9.720146e+000 0.000000e+000
			vertex 1.129641e+001 8.863869e+000 1.000000e+000
		endloop
	endfacet
	facet normal 9.442886e-001 3.291186e-001 0.000000e+000
		outer loop
			vertex 1.099797e+001 9.720146e+000 1.000000e+000
			vertex 1.129641e+001 8.863869e+000 1.000000e+000
			vertex 1.099797e+001 9.720146e+000 0.000000e+000
		endloop
	endfacet
	facet normal 9.938582e-001 1.106615e-001 -0.000000e+000
		outer loop
			vertex 1.099797e+001 9.720146e+000 0.000000e+000
			vertex 1.090000e+001 1.060000e+001 0.000000e+000
			vertex 1.099797e+001 9.720146e+000 1.000000e+000
		endloop
	endfacet
	facet normal 9.938582e-001 1.106615e-001 0.000000e+000
		outer loop
			vertex 1.090000e+001 1.060000e+001 1.000000e+000
			vertex 1.099797e+001 9.720146e+000 1.000000e+000
			vertex 1.090000e+001 1.060000e+001 0.000000e+000
		endloop
	endfacet
endsolid
