<?xml version="1.0" standalone="no"?>
<!DOCTYPE svg PUBLIC "-//W3C//DTD SVG 1.1//EN"
  "http://www.w3.org/Graphics/SVG/1.1/DTD/svg11.dtd">
<svg width="262mm" height="261.82598876953125mm" viewBox="-131 -130.91299438476562 262 261.82598876953125" xmlns="http://www.w3.org/2000/svg" version="1.1">
	<title>svgOutput</title>
	<desc>made with tinkercad</desc>
<path d="M -113.36699676513672 -63.624000549316406 L -112.20012664794922 -65.53600311279297 L -108.41999816894531 -71.7300033569336 L -102.8949966430664 -79.4530029296875 L -96.81999969482422 -86.7509994506836 L -90.2300033569336 -93.58799743652344 L -83.15799713134766 -99.92400360107422 L -75.64199829101562 -105.72799682617188 L -67.72200012207031 -110.96700286865234 L -65.53600311279297 -112.1941146850586 L -59.44200134277344 -115.61499786376953 L -50.84400177001953 -119.6449966430664 L -41.9739990234375 -123.03700256347656 L -32.88100051879883 -125.77300262451172 L -23.613000869750977 -127.83799743652344 L -14.218000411987305 -129.22000122070312 L -4.748000144958496 -129.91299438476562 L 0 -129.91299438476562 L 4.748000144958496 -129.91299438476562 L 14.218000411987305 -129.22000122070312 L 23.613000869750977 -127.83799743652344 L 32.88100051879883 -125.77300262451172 L 41.9739990234375 -123.03700256347656 L 50.84400177001953 -119.6449966430664 L 59.441001892089844 -115.61499786376953 L 65.53600311279297 -112.1939697265625 L 67.72200012207031 -110.96700286865234 L 75.64199829101562 -105.72799682617188 L 83.15699768066406 -99.92400360107422 L 90.2300033569336 -93.58799743652344 L 96.81999969482422 -86.7509994506836 L 102.8949966430664 -79.4530029296875 L 108.41999816894531 -71.7300033569336 L 112.1993637084961 -65.53600311279297 L 113.36599731445312 -63.624000549316406 L 117.70800018310547 -55.17900085449219 L 121.4219970703125 -46.439998626708984 L 124.48799896240234 -37.452999114990234 L 126.88999938964844 -28.266000747680664 L 128.61500549316406 -18.92799949645996 L 129.6529998779297 -9.48900032043457 L 130 4.440892164675075e-17 L 129.6529998779297 9.48900032043457 L 129.50552368164062 10.829999923706055 L 128.61500549316406 18.92799949645996 L 126.88999938964844 28.266000747680664 L 124.48799896240234 37.452999114990234 L 121.4219970703125 46.439998626708984 L 117.70800018310547 55.17900085449219 L 114.54988861083984 61.32138442993164 L 113.36599731445312 63.624000549316406 L 112.1993637084961 65.53600311279297 L 108.41999816894531 71.7300033569336 L 102.8949966430664 79.4530029296875 L 96.81999969482422 86.7509994506836 L 90.2300033569336 93.58699798583984 L 83.15699768066406 99.92400360107422 L 75.64199829101562 105.72799682617188 L 67.72200012207031 110.96700286865234 L 65.53600311279297 112.1939697265625 L 59.441001892089844 115.61499786376953 L 55.352317810058594 117.53164672851562 L 50.84400177001953 119.6449966430664 L 41.9739990234375 123.03700256347656 L 32.88100051879883 125.77300262451172 L 23.613000869750977 127.83799743652344 L 14.218000411987305 129.22000122070312 L 4.748000144958496 129.91299438476562 L 4.170000076293945 129.91299438476562 L 0 129.91299438476562 L -4.748000144958496 129.91299438476562 L -10.829999923706055 129.46792602539062 L -14.218000411987305 129.22000122070312 L -23.613000869750977 127.83799743652344 L -32.88100051879883 125.77300262451172 L -41.9739990234375 123.03700256347656 L -50.84400177001953 119.6449966430664 L -59.44200134277344 115.61499786376953 L -65.53600311279297 112.1941146850586 L -67.72200012207031 110.96700286865234 L -75.64199829101562 105.72799682617188 L -83.15799713134766 99.92400360107422 L -90.2300033569336 93.58699798583984 L -96.81999969482422 86.7509994506836 L -102.8949966430664 79.4530029296875 L -108.41999816894531 71.7300033569336 L -112.20012664794922 65.53600311279297 L -113.36699676513672 63.624000549316406 L -117.59893798828125 55.391170501708984 L -117.70800018310547 55.17900085449219 L -121.4219970703125 46.439998626708984 L -124.48799896240234 37.452999114990234 L -126.88999938964844 28.266000747680664 L -128.61500549316406 18.92799949645996 L -129.6529998779297 9.48900032043457 L -129.84750366210938 4.170000076293945 L -130 4.440892164675075e-17 L -129.6529998779297 -9.48900032043457 L -129.50552368164062 -10.829999923706055 L -128.61500549316406 -18.92799949645996 L -126.88999938964844 -28.266000747680664 L -124.48799896240234 -37.452999114990234 L -121.4219970703125 -46.439998626708984 L -117.70800018310547 -55.17900085449219 L -113.36699676513672 -63.624000549316406 M 75 -48.11619567871094 L 65.53600311279297 -42.65199279785156 L 62.867000579833984 -41.111000061035156 L 65.53600311279297 -36.4882926940918 L 70.36699676513672 -28.121000289916992 L 75 -30.795942306518555 L 83.35700225830078 -35.62099838256836 L 75.85700225830078 -48.611000061035156 L 75 -48.11619567871094 M 10.829999923706055 -90 L 0 -90 L -4.170000076293945 -90 L -4.170000076293945 -75 L 0 -75 L 10.829999923706055 -75 L 10.829999923706055 -90 M 41.111000061035156 62.867000579833984 L 28.121000289916992 70.36699676513672 L 35.62099838256836 83.35700225830078 L 48.611000061035156 75.85700225830078 L 45.708526611328125 70.82991790771484 L 41.111000061035156 62.867000579833984 M -48.61199951171875 -75.85700225830078 L -48.11719512939453 -75 L -41.11199951171875 -62.867000579833984 L -28.121000289916992 -70.36699676513672 L -30.795942306518555 -75 L -35.62099838256836 -83.35700225830078 L -48.61199951171875 -75.85700225830078 M -67.03700256347656 -33.888999938964844 L -65.53600311279297 -36.488731384277344 L -59.5369987487793 -46.87900161743164 L -65.53600311279297 -50.34262466430664 L -72.5270004272461 -54.37900161743164 L -75 -50.09576416015625 L -80.0270004272461 -41.388999938964844 L -75 -38.486576080322266 L -67.03700256347656 -33.888999938964844 M 59.5369987487793 46.87900161743164 L 65.53600311279297 50.34262466430664 L 72.5270004272461 54.37900161743164 L 80.0270004272461 41.388999938964844 L 67.03700256347656 33.888999938964844 L 65.53600311279297 36.488731384277344 L 59.5369987487793 46.87900161743164 M -75 -10.829999923706055 L -90 -10.829999923706055 L -90 4.440892164675075e-17 L -90 4.170000076293945 L -75 4.170000076293945 L -75 4.440892164675075e-17 L -75 -10.829999923706055 M 0 90 L 4.170000076293945 90 L 4.170000076293945 75 L 0 75 L -10.829999923706055 75 L -10.829999923706055 80.35050964355469 L -10.829999923706055 90 L 0 90 M 90 10.829999923706055 L 90 4.440892164675075e-17 L 90 -4.170000076293945 L 75 -4.170000076293945 L 75 4.440892164675075e-17 L 75 10.829999923706055 L 90 10.829999923706055 M -54.37900161743164 72.5270004272461 L -41.388999938964844 80.0270004272461 L -33.888999938964844 67.03700256347656 L -46.87900161743164 59.5369987487793 L -54.37900161743164 72.5270004272461 M -83.35700225830078 35.62099838256836 L -75.85700225830078 48.611000061035156 L -65.53600311279297 42.65199279785156 L -62.867000579833984 41.111000061035156 L -65.53600311279297 36.4882926940918 L -70.36699676513672 28.121000289916992 L -83.35700225830078 35.62099838256836 M 46.87900161743164 -59.5369987487793 L 54.37900161743164 -72.5270004272461 L 41.388999938964844 -80.0270004272461 L 38.486576080322266 -75 L 33.888999938964844 -67.03700256347656 L 46.87900161743164 -59.5369987487793 z" fill="none" stroke="rgb(0,0,255)" stroke-width="0.01mm" />
</svg>