solid generated by Pro/DESKTOP Version 8.0
	facet normal -0.000000e+000 0.000000e+000 -1.000000e+000
		outer loop
			vertex 3.004033e+000 -1.316153e+001 0.000000e+000
			vertex -2.479828e-015 -1.350000e+001 0.000000e+000
			vertex -3.004033e+000 -1.316153e+001 0.000000e+000
		endloop
	endfacet
	facet normal 0.000000e+000 0.000000e+000 -1.000000e+000
		outer loop
			vertex -3.004033e+000 -1.316153e+001 0.000000e+000
			vertex -5.857430e+000 -1.216308e+001 0.000000e+000
			vertex 3.004033e+000 -1.316153e+001 0.000000e+000
		endloop
	endfacet
	facet normal -0.000000e+000 0.000000e+000 -1.000000e+000
		outer loop
			vertex 5.857430e+000 -1.216308e+001 0.000000e+000
			vertex 3.004033e+000 -1.316153e+001 0.000000e+000
			vertex -5.857430e+000 -1.216308e+001 0.000000e+000
		endloop
	endfacet
	facet normal 0.000000e+000 0.000000e+000 -1.000000e+000
		outer loop
			vertex -5.857430e+000 -1.216308e+001 0.000000e+000
			vertex -8.417113e+000 -1.055473e+001 0.000000e+000
			vertex 5.857430e+000 -1.216308e+001 0.000000e+000
		endloop
	endfacet
	facet normal -0.000000e+000 0.000000e+000 -1.000000e+000
		outer loop
			vertex 8.417113e+000 -1.055473e+001 0.000000e+000
			vertex 5.857430e+000 -1.216308e+001 0.000000e+000
			vertex -8.417113e+000 -1.055473e+001 0.000000e+000
		endloop
	endfacet
	facet normal 0.000000e+000 0.000000e+000 -1.000000e+000
		outer loop
			vertex -1.055473e+001 -8.417113e+000 0.000000e+000
			vertex -2.458781e+000 -9.176295e+000 0.000000e+000
			vertex -1.745064e-015 -9.500000e+000 0.000000e+000
		endloop
	endfacet
	facet normal 0.000000e+000 0.000000e+000 -1.000000e+000
		outer loop
			vertex -1.055473e+001 -8.417113e+000 0.000000e+000
			vertex -1.745064e-015 -9.500000e+000 0.000000e+000
			vertex 8.417113e+000 -1.055473e+001 0.000000e+000
		endloop
	endfacet
	facet normal 0.000000e+000 0.000000e+000 -1.000000e+000
		outer loop
			vertex -8.417113e+000 -1.055473e+001 0.000000e+000
			vertex -1.055473e+001 -8.417113e+000 0.000000e+000
			vertex 8.417113e+000 -1.055473e+001 0.000000e+000
		endloop
	endfacet
	facet normal 0.000000e+000 0.000000e+000 -1.000000e+000
		outer loop
			vertex 8.417113e+000 -1.055473e+001 0.000000e+000
			vertex -1.745064e-015 -9.500000e+000 0.000000e+000
			vertex 2.458781e+000 -9.176295e+000 0.000000e+000
		endloop
	endfacet
	facet normal 0.000000e+000 0.000000e+000 -1.000000e+000
		outer loop
			vertex 1.055473e+001 -8.417113e+000 0.000000e+000
			vertex 8.417113e+000 -1.055473e+001 0.000000e+000
			vertex 2.458781e+000 -9.176295e+000 0.000000e+000
		endloop
	endfacet
	facet normal 0.000000e+000 -0.000000e+000 -1.000000e+000
		outer loop
			vertex -4.750000e+000 -8.227241e+000 0.000000e+000
			vertex -2.458781e+000 -9.176295e+000 0.000000e+000
			vertex -1.055473e+001 -8.417113e+000 0.000000e+000
		endloop
	endfacet
	facet normal 0.000000e+000 0.000000e+000 -1.000000e+000
		outer loop
			vertex 2.458781e+000 -9.176295e+000 0.000000e+000
			vertex 4.750000e+000 -8.227241e+000 0.000000e+000
			vertex 1.055473e+001 -8.417113e+000 0.000000e+000
		endloop
	endfacet
	facet normal 0.000000e+000 0.000000e+000 -1.000000e+000
		outer loop
			vertex -1.216308e+001 -5.857430e+000 0.000000e+000
			vertex -6.717514e+000 -6.717514e+000 0.000000e+000
			vertex -4.750000e+000 -8.227241e+000 0.000000e+000
		endloop
	endfacet
	facet normal 0.000000e+000 0.000000e+000 -1.000000e+000
		outer loop
			vertex -1.055473e+001 -8.417113e+000 0.000000e+000
			vertex -1.216308e+001 -5.857430e+000 0.000000e+000
			vertex -4.750000e+000 -8.227241e+000 0.000000e+000
		endloop
	endfacet
	facet normal 0.000000e+000 0.000000e+000 -1.000000e+000
		outer loop
			vertex 1.055473e+001 -8.417113e+000 0.000000e+000
			vertex 4.750000e+000 -8.227241e+000 0.000000e+000
			vertex 6.717514e+000 -6.717514e+000 0.000000e+000
		endloop
	endfacet
	facet normal 0.000000e+000 0.000000e+000 -1.000000e+000
		outer loop
			vertex 1.216308e+001 -5.857430e+000 0.000000e+000
			vertex 1.055473e+001 -8.417113e+000 0.000000e+000
			vertex 6.717514e+000 -6.717514e+000 0.000000e+000
		endloop
	endfacet
	facet normal 0.000000e+000 -0.000000e+000 -1.000000e+000
		outer loop
			vertex -8.227241e+000 -4.750000e+000 0.000000e+000
			vertex -6.717514e+000 -6.717514e+000 0.000000e+000
			vertex -1.216308e+001 -5.857430e+000 0.000000e+000
		endloop
	endfacet
	facet normal 0.000000e+000 0.000000e+000 -1.000000e+000
		outer loop
			vertex 6.717514e+000 -6.717514e+000 0.000000e+000
			vertex 8.227241e+000 -4.750000e+000 0.000000e+000
			vertex 1.216308e+001 -5.857430e+000 0.000000e+000
		endloop
	endfacet
	facet normal 0.000000e+000 0.000000e+000 -1.000000e+000
		outer loop
			vertex -1.216308e+001 -5.857430e+000 0.000000e+000
			vertex -1.316153e+001 -3.004033e+000 0.000000e+000
			vertex -8.227241e+000 -4.750000e+000 0.000000e+000
		endloop
	endfacet
	facet normal 0.000000e+000 0.000000e+000 -1.000000e+000
		outer loop
			vertex 1.316153e+001 -3.004033e+000 0.000000e+000
			vertex 1.216308e+001 -5.857430e+000 0.000000e+000
			vertex 8.227241e+000 -4.750000e+000 0.000000e+000
		endloop
	endfacet
	facet normal 0.000000e+000 -0.000000e+000 -1.000000e+000
		outer loop
			vertex -9.176295e+000 -2.458781e+000 0.000000e+000
			vertex -8.227241e+000 -4.750000e+000 0.000000e+000
			vertex -1.316153e+001 -3.004033e+000 0.000000e+000
		endloop
	endfacet
	facet normal 0.000000e+000 0.000000e+000 -1.000000e+000
		outer loop
			vertex 8.227241e+000 -4.750000e+000 0.000000e+000
			vertex 9.176295e+000 -2.458781e+000 0.000000e+000
			vertex 1.316153e+001 -3.004033e+000 0.000000e+000
		endloop
	endfacet
	facet normal 0.000000e+000 0.000000e+000 -1.000000e+000
		outer loop
			vertex -1.316153e+001 -3.004033e+000 0.000000e+000
			vertex -1.350000e+001 1.653219e-015 0.000000e+000
			vertex -9.176295e+000 -2.458781e+000 0.000000e+000
		endloop
	endfacet
	facet normal -0.000000e+000 -0.000000e+000 -1.000000e+000
		outer loop
			vertex -9.500000e+000 1.163376e-015 0.000000e+000
			vertex -9.176295e+000 -2.458781e+000 0.000000e+000
			vertex -1.350000e+001 1.653219e-015 0.000000e+000
		endloop
	endfacet
	facet normal 0.000000e+000 0.000000e+000 -1.000000e+000
		outer loop
			vertex 1.316153e+001 -3.004033e+000 0.000000e+000
			vertex 9.176295e+000 -2.458781e+000 0.000000e+000
			vertex 9.500000e+000 -1.163376e-015 0.000000e+000
		endloop
	endfacet
	facet normal -0.000000e+000 0.000000e+000 -1.000000e+000
		outer loop
			vertex 1.350000e+001 -1.653219e-015 0.000000e+000
			vertex 1.316153e+001 -3.004033e+000 0.000000e+000
			vertex 9.500000e+000 -1.163376e-015 0.000000e+000
		endloop
	endfacet
	facet normal 0.000000e+000 0.000000e+000 -1.000000e+000
		outer loop
			vertex 9.500000e+000 -1.163376e-015 0.000000e+000
			vertex 9.176295e+000 2.458781e+000 0.000000e+000
			vertex 1.350000e+001 -1.653219e-015 0.000000e+000
		endloop
	endfacet
	facet normal 0.000000e+000 0.000000e+000 -1.000000e+000
		outer loop
			vertex -1.316153e+001 3.004033e+000 0.000000e+000
			vertex -9.176295e+000 2.458781e+000 0.000000e+000
			vertex -9.500000e+000 1.163376e-015 0.000000e+000
		endloop
	endfacet
	facet normal 0.000000e+000 0.000000e+000 -1.000000e+000
		outer loop
			vertex -1.350000e+001 1.653219e-015 0.000000e+000
			vertex -1.316153e+001 3.004033e+000 0.000000e+000
			vertex -9.500000e+000 1.163376e-015 0.000000e+000
		endloop
	endfacet
	facet normal 0.000000e+000 -0.000000e+000 -1.000000e+000
		outer loop
			vertex 1.316153e+001 3.004033e+000 0.000000e+000
			vertex 1.350000e+001 -1.653219e-015 0.000000e+000
			vertex 9.176295e+000 2.458781e+000 0.000000e+000
		endloop
	endfacet
	facet normal 0.000000e+000 0.000000e+000 -1.000000e+000
		outer loop
			vertex -8.227241e+000 4.750000e+000 0.000000e+000
			vertex -9.176295e+000 2.458781e+000 0.000000e+000
			vertex -1.316153e+001 3.004033e+000 0.000000e+000
		endloop
	endfacet
	facet normal 0.000000e+000 0.000000e+000 -1.000000e+000
		outer loop
			vertex 9.176295e+000 2.458781e+000 0.000000e+000
			vertex 8.227241e+000 4.750000e+000 0.000000e+000
			vertex 1.316153e+001 3.004033e+000 0.000000e+000
		endloop
	endfacet
	facet normal 0.000000e+000 0.000000e+000 -1.000000e+000
		outer loop
			vertex -1.316153e+001 3.004033e+000 0.000000e+000
			vertex -1.216308e+001 5.857430e+000 0.000000e+000
			vertex -8.227241e+000 4.750000e+000 0.000000e+000
		endloop
	endfacet
	facet normal 0.000000e+000 -0.000000e+000 -1.000000e+000
		outer loop
			vertex 1.216308e+001 5.857430e+000 0.000000e+000
			vertex 1.316153e+001 3.004033e+000 0.000000e+000
			vertex 8.227241e+000 4.750000e+000 0.000000e+000
		endloop
	endfacet
	facet normal 0.000000e+000 0.000000e+000 -1.000000e+000
		outer loop
			vertex -6.717514e+000 6.717514e+000 0.000000e+000
			vertex -8.227241e+000 4.750000e+000 0.000000e+000
			vertex -1.216308e+001 5.857430e+000 0.000000e+000
		endloop
	endfacet
	facet normal 0.000000e+000 0.000000e+000 -1.000000e+000
		outer loop
			vertex 8.227241e+000 4.750000e+000 0.000000e+000
			vertex 6.717514e+000 6.717514e+000 0.000000e+000
			vertex 1.216308e+001 5.857430e+000 0.000000e+000
		endloop
	endfacet
	facet normal 0.000000e+000 0.000000e+000 -1.000000e+000
		outer loop
			vertex -1.055473e+001 8.417113e+000 0.000000e+000
			vertex -4.750000e+000 8.227241e+000 0.000000e+000
			vertex -6.717514e+000 6.717514e+000 0.000000e+000
		endloop
	endfacet
	facet normal 0.000000e+000 0.000000e+000 -1.000000e+000
		outer loop
			vertex -1.216308e+001 5.857430e+000 0.000000e+000
			vertex -1.055473e+001 8.417113e+000 0.000000e+000
			vertex -6.717514e+000 6.717514e+000 0.000000e+000
		endloop
	endfacet
	facet normal 0.000000e+000 0.000000e+000 -1.000000e+000
		outer loop
			vertex 1.216308e+001 5.857430e+000 0.000000e+000
			vertex 6.717514e+000 6.717514e+000 0.000000e+000
			vertex 4.750000e+000 8.227241e+000 0.000000e+000
		endloop
	endfacet
	facet normal 0.000000e+000 -0.000000e+000 -1.000000e+000
		outer loop
			vertex 1.055473e+001 8.417113e+000 0.000000e+000
			vertex 1.216308e+001 5.857430e+000 0.000000e+000
			vertex 4.750000e+000 8.227241e+000 0.000000e+000
		endloop
	endfacet
	facet normal 0.000000e+000 0.000000e+000 -1.000000e+000
		outer loop
			vertex -2.458781e+000 9.176295e+000 0.000000e+000
			vertex -4.750000e+000 8.227241e+000 0.000000e+000
			vertex -1.055473e+001 8.417113e+000 0.000000e+000
		endloop
	endfacet
	facet normal 0.000000e+000 0.000000e+000 -1.000000e+000
		outer loop
			vertex 4.750000e+000 8.227241e+000 0.000000e+000
			vertex 2.458781e+000 9.176295e+000 0.000000e+000
			vertex 1.055473e+001 8.417113e+000 0.000000e+000
		endloop
	endfacet
	facet normal 0.000000e+000 0.000000e+000 -1.000000e+000
		outer loop
			vertex -8.417113e+000 1.055473e+001 0.000000e+000
			vertex 5.816880e-016 9.500000e+000 0.000000e+000
			vertex -2.458781e+000 9.176295e+000 0.000000e+000
		endloop
	endfacet
	facet normal 0.000000e+000 0.000000e+000 -1.000000e+000
		outer loop
			vertex -1.055473e+001 8.417113e+000 0.000000e+000
			vertex -8.417113e+000 1.055473e+001 0.000000e+000
			vertex -2.458781e+000 9.176295e+000 0.000000e+000
		endloop
	endfacet
	facet normal 0.000000e+000 0.000000e+000 -1.000000e+000
		outer loop
			vertex 1.055473e+001 8.417113e+000 0.000000e+000
			vertex 2.458781e+000 9.176295e+000 0.000000e+000
			vertex 5.816880e-016 9.500000e+000 0.000000e+000
		endloop
	endfacet
	facet normal 0.000000e+000 0.000000e+000 -1.000000e+000
		outer loop
			vertex 1.055473e+001 8.417113e+000 0.000000e+000
			vertex 5.816880e-016 9.500000e+000 0.000000e+000
			vertex -8.417113e+000 1.055473e+001 0.000000e+000
		endloop
	endfacet
	facet normal -0.000000e+000 -0.000000e+000 -1.000000e+000
		outer loop
			vertex 8.417113e+000 1.055473e+001 0.000000e+000
			vertex 1.055473e+001 8.417113e+000 0.000000e+000
			vertex -8.417113e+000 1.055473e+001 0.000000e+000
		endloop
	endfacet
	facet normal 0.000000e+000 0.000000e+000 -1.000000e+000
		outer loop
			vertex -8.417113e+000 1.055473e+001 0.000000e+000
			vertex -5.857430e+000 1.216308e+001 0.000000e+000
			vertex 8.417113e+000 1.055473e+001 0.000000e+000
		endloop
	endfacet
	facet normal -0.000000e+000 -0.000000e+000 -1.000000e+000
		outer loop
			vertex 5.857430e+000 1.216308e+001 0.000000e+000
			vertex 8.417113e+000 1.055473e+001 0.000000e+000
			vertex -5.857430e+000 1.216308e+001 0.000000e+000
		endloop
	endfacet
	facet normal 0.000000e+000 0.000000e+000 -1.000000e+000
		outer loop
			vertex -5.857430e+000 1.216308e+001 0.000000e+000
			vertex -3.004033e+000 1.316153e+001 0.000000e+000
			vertex 5.857430e+000 1.216308e+001 0.000000e+000
		endloop
	endfacet
	facet normal -0.000000e+000 -0.000000e+000 -1.000000e+000
		outer loop
			vertex 3.004033e+000 1.316153e+001 0.000000e+000
			vertex 5.857430e+000 1.216308e+001 0.000000e+000
			vertex -3.004033e+000 1.316153e+001 0.000000e+000
		endloop
	endfacet
	facet normal 0.000000e+000 0.000000e+000 -1.000000e+000
		outer loop
			vertex -3.004033e+000 1.316153e+001 0.000000e+000
			vertex 8.266093e-016 1.350000e+001 0.000000e+000
			vertex 3.004033e+000 1.316153e+001 0.000000e+000
		endloop
	endfacet
	facet normal 0.000000e+000 0.000000e+000 1.000000e+000
		outer loop
			vertex 3.004033e+000 1.316153e+001 5.000000e+000
			vertex 8.266093e-016 1.350000e+001 5.000000e+000
			vertex -3.004033e+000 1.316153e+001 5.000000e+000
		endloop
	endfacet
	facet normal -0.000000e+000 0.000000e+000 1.000000e+000
		outer loop
			vertex -3.004033e+000 1.316153e+001 5.000000e+000
			vertex -5.857430e+000 1.216308e+001 5.000000e+000
			vertex 3.004033e+000 1.316153e+001 5.000000e+000
		endloop
	endfacet
	facet normal 0.000000e+000 0.000000e+000 1.000000e+000
		outer loop
			vertex 5.857430e+000 1.216308e+001 5.000000e+000
			vertex 3.004033e+000 1.316153e+001 5.000000e+000
			vertex -5.857430e+000 1.216308e+001 5.000000e+000
		endloop
	endfacet
	facet normal -0.000000e+000 0.000000e+000 1.000000e+000
		outer loop
			vertex -5.857430e+000 1.216308e+001 5.000000e+000
			vertex -8.417113e+000 1.055473e+001 5.000000e+000
			vertex 5.857430e+000 1.216308e+001 5.000000e+000
		endloop
	endfacet
	facet normal 0.000000e+000 0.000000e+000 1.000000e+000
		outer loop
			vertex 8.417113e+000 1.055473e+001 5.000000e+000
			vertex 5.857430e+000 1.216308e+001 5.000000e+000
			vertex -8.417113e+000 1.055473e+001 5.000000e+000
		endloop
	endfacet
	facet normal 0.000000e+000 0.000000e+000 1.000000e+000
		outer loop
			vertex -1.055473e+001 8.417113e+000 5.000000e+000
			vertex -2.458781e+000 9.176295e+000 5.000000e+000
			vertex 5.816880e-016 9.500000e+000 5.000000e+000
		endloop
	endfacet
	facet normal 0.000000e+000 0.000000e+000 1.000000e+000
		outer loop
			vertex -1.055473e+001 8.417113e+000 5.000000e+000
			vertex 5.816880e-016 9.500000e+000 5.000000e+000
			vertex 8.417113e+000 1.055473e+001 5.000000e+000
		endloop
	endfacet
	facet normal -0.000000e+000 0.000000e+000 1.000000e+000
		outer loop
			vertex -8.417113e+000 1.055473e+001 5.000000e+000
			vertex -1.055473e+001 8.417113e+000 5.000000e+000
			vertex 8.417113e+000 1.055473e+001 5.000000e+000
		endloop
	endfacet
	facet normal 0.000000e+000 0.000000e+000 1.000000e+000
		outer loop
			vertex 8.417113e+000 1.055473e+001 5.000000e+000
			vertex 5.816880e-016 9.500000e+000 5.000000e+000
			vertex 2.458781e+000 9.176295e+000 5.000000e+000
		endloop
	endfacet
	facet normal 0.000000e+000 0.000000e+000 1.000000e+000
		outer loop
			vertex 1.055473e+001 8.417113e+000 5.000000e+000
			vertex 8.417113e+000 1.055473e+001 5.000000e+000
			vertex 2.458781e+000 9.176295e+000 5.000000e+000
		endloop
	endfacet
	facet normal 0.000000e+000 -0.000000e+000 1.000000e+000
		outer loop
			vertex -4.750000e+000 8.227241e+000 5.000000e+000
			vertex -2.458781e+000 9.176295e+000 5.000000e+000
			vertex -1.055473e+001 8.417113e+000 5.000000e+000
		endloop
	endfacet
	facet normal 0.000000e+000 0.000000e+000 1.000000e+000
		outer loop
			vertex 2.458781e+000 9.176295e+000 5.000000e+000
			vertex 4.750000e+000 8.227241e+000 5.000000e+000
			vertex 1.055473e+001 8.417113e+000 5.000000e+000
		endloop
	endfacet
	facet normal 0.000000e+000 0.000000e+000 1.000000e+000
		outer loop
			vertex -1.216308e+001 5.857430e+000 5.000000e+000
			vertex -6.717514e+000 6.717514e+000 5.000000e+000
			vertex -4.750000e+000 8.227241e+000 5.000000e+000
		endloop
	endfacet
	facet normal 0.000000e+000 0.000000e+000 1.000000e+000
		outer loop
			vertex -1.055473e+001 8.417113e+000 5.000000e+000
			vertex -1.216308e+001 5.857430e+000 5.000000e+000
			vertex -4.750000e+000 8.227241e+000 5.000000e+000
		endloop
	endfacet
	facet normal 0.000000e+000 0.000000e+000 1.000000e+000
		outer loop
			vertex 1.055473e+001 8.417113e+000 5.000000e+000
			vertex 4.750000e+000 8.227241e+000 5.000000e+000
			vertex 6.717514e+000 6.717514e+000 5.000000e+000
		endloop
	endfacet
	facet normal 0.000000e+000 0.000000e+000 1.000000e+000
		outer loop
			vertex 1.216308e+001 5.857430e+000 5.000000e+000
			vertex 1.055473e+001 8.417113e+000 5.000000e+000
			vertex 6.717514e+000 6.717514e+000 5.000000e+000
		endloop
	endfacet
	facet normal 0.000000e+000 -0.000000e+000 1.000000e+000
		outer loop
			vertex -8.227241e+000 4.750000e+000 5.000000e+000
			vertex -6.717514e+000 6.717514e+000 5.000000e+000
			vertex -1.216308e+001 5.857430e+000 5.000000e+000
		endloop
	endfacet
	facet normal 0.000000e+000 0.000000e+000 1.000000e+000
		outer loop
			vertex 6.717514e+000 6.717514e+000 5.000000e+000
			vertex 8.227241e+000 4.750000e+000 5.000000e+000
			vertex 1.216308e+001 5.857430e+000 5.000000e+000
		endloop
	endfacet
	facet normal 0.000000e+000 0.000000e+000 1.000000e+000
		outer loop
			vertex -1.216308e+001 5.857430e+000 5.000000e+000
			vertex -1.316153e+001 3.004033e+000 5.000000e+000
			vertex -8.227241e+000 4.750000e+000 5.000000e+000
		endloop
	endfacet
	facet normal 0.000000e+000 0.000000e+000 1.000000e+000
		outer loop
			vertex 1.316153e+001 3.004033e+000 5.000000e+000
			vertex 1.216308e+001 5.857430e+000 5.000000e+000
			vertex 8.227241e+000 4.750000e+000 5.000000e+000
		endloop
	endfacet
	facet normal 0.000000e+000 -0.000000e+000 1.000000e+000
		outer loop
			vertex -9.176295e+000 2.458781e+000 5.000000e+000
			vertex -8.227241e+000 4.750000e+000 5.000000e+000
			vertex -1.316153e+001 3.004033e+000 5.000000e+000
		endloop
	endfacet
	facet normal 0.000000e+000 0.000000e+000 1.000000e+000
		outer loop
			vertex 8.227241e+000 4.750000e+000 5.000000e+000
			vertex 9.176295e+000 2.458781e+000 5.000000e+000
			vertex 1.316153e+001 3.004033e+000 5.000000e+000
		endloop
	endfacet
	facet normal 0.000000e+000 0.000000e+000 1.000000e+000
		outer loop
			vertex -1.316153e+001 3.004033e+000 5.000000e+000
			vertex -1.350000e+001 1.653219e-015 5.000000e+000
			vertex -9.176295e+000 2.458781e+000 5.000000e+000
		endloop
	endfacet
	facet normal 0.000000e+000 -0.000000e+000 1.000000e+000
		outer loop
			vertex -9.500000e+000 1.163376e-015 5.000000e+000
			vertex -9.176295e+000 2.458781e+000 5.000000e+000
			vertex -1.350000e+001 1.653219e-015 5.000000e+000
		endloop
	endfacet
	facet normal 0.000000e+000 0.000000e+000 1.000000e+000
		outer loop
			vertex 1.316153e+001 3.004033e+000 5.000000e+000
			vertex 9.176295e+000 2.458781e+000 5.000000e+000
			vertex 9.500000e+000 -1.163376e-015 5.000000e+000
		endloop
	endfacet
	facet normal 0.000000e+000 0.000000e+000 1.000000e+000
		outer loop
			vertex 1.350000e+001 -1.653219e-015 5.000000e+000
			vertex 1.316153e+001 3.004033e+000 5.000000e+000
			vertex 9.500000e+000 -1.163376e-015 5.000000e+000
		endloop
	endfacet
	facet normal 0.000000e+000 0.000000e+000 1.000000e+000
		outer loop
			vertex 9.500000e+000 -1.163376e-015 5.000000e+000
			vertex 9.176295e+000 -2.458781e+000 5.000000e+000
			vertex 1.350000e+001 -1.653219e-015 5.000000e+000
		endloop
	endfacet
	facet normal 0.000000e+000 0.000000e+000 1.000000e+000
		outer loop
			vertex -1.316153e+001 -3.004033e+000 5.000000e+000
			vertex -9.176295e+000 -2.458781e+000 5.000000e+000
			vertex -9.500000e+000 1.163376e-015 5.000000e+000
		endloop
	endfacet
	facet normal 0.000000e+000 0.000000e+000 1.000000e+000
		outer loop
			vertex -1.350000e+001 1.653219e-015 5.000000e+000
			vertex -1.316153e+001 -3.004033e+000 5.000000e+000
			vertex -9.500000e+000 1.163376e-015 5.000000e+000
		endloop
	endfacet
	facet normal 0.000000e+000 -0.000000e+000 1.000000e+000
		outer loop
			vertex 1.316153e+001 -3.004033e+000 5.000000e+000
			vertex 1.350000e+001 -1.653219e-015 5.000000e+000
			vertex 9.176295e+000 -2.458781e+000 5.000000e+000
		endloop
	endfacet
	facet normal 0.000000e+000 0.000000e+000 1.000000e+000
		outer loop
			vertex -8.227241e+000 -4.750000e+000 5.000000e+000
			vertex -9.176295e+000 -2.458781e+000 5.000000e+000
			vertex -1.316153e+001 -3.004033e+000 5.000000e+000
		endloop
	endfacet
	facet normal 0.000000e+000 0.000000e+000 1.000000e+000
		outer loop
			vertex 9.176295e+000 -2.458781e+000 5.000000e+000
			vertex 8.227241e+000 -4.750000e+000 5.000000e+000
			vertex 1.316153e+001 -3.004033e+000 5.000000e+000
		endloop
	endfacet
	facet normal 0.000000e+000 0.000000e+000 1.000000e+000
		outer loop
			vertex -1.316153e+001 -3.004033e+000 5.000000e+000
			vertex -1.216308e+001 -5.857430e+000 5.000000e+000
			vertex -8.227241e+000 -4.750000e+000 5.000000e+000
		endloop
	endfacet
	facet normal 0.000000e+000 -0.000000e+000 1.000000e+000
		outer loop
			vertex 1.216308e+001 -5.857430e+000 5.000000e+000
			vertex 1.316153e+001 -3.004033e+000 5.000000e+000
			vertex 8.227241e+000 -4.750000e+000 5.000000e+000
		endloop
	endfacet
	facet normal 0.000000e+000 0.000000e+000 1.000000e+000
		outer loop
			vertex -6.717514e+000 -6.717514e+000 5.000000e+000
			vertex -8.227241e+000 -4.750000e+000 5.000000e+000
			vertex -1.216308e+001 -5.857430e+000 5.000000e+000
		endloop
	endfacet
	facet normal 0.000000e+000 0.000000e+000 1.000000e+000
		outer loop
			vertex 8.227241e+000 -4.750000e+000 5.000000e+000
			vertex 6.717514e+000 -6.717514e+000 5.000000e+000
			vertex 1.216308e+001 -5.857430e+000 5.000000e+000
		endloop
	endfacet
	facet normal 0.000000e+000 0.000000e+000 1.000000e+000
		outer loop
			vertex -1.055473e+001 -8.417113e+000 5.000000e+000
			vertex -4.750000e+000 -8.227241e+000 5.000000e+000
			vertex -6.717514e+000 -6.717514e+000 5.000000e+000
		endloop
	endfacet
	facet normal 0.000000e+000 0.000000e+000 1.000000e+000
		outer loop
			vertex -1.216308e+001 -5.857430e+000 5.000000e+000
			vertex -1.055473e+001 -8.417113e+000 5.000000e+000
			vertex -6.717514e+000 -6.717514e+000 5.000000e+000
		endloop
	endfacet
	facet normal 0.000000e+000 0.000000e+000 1.000000e+000
		outer loop
			vertex 1.216308e+001 -5.857430e+000 5.000000e+000
			vertex 6.717514e+000 -6.717514e+000 5.000000e+000
			vertex 4.750000e+000 -8.227241e+000 5.000000e+000
		endloop
	endfacet
	facet normal 0.000000e+000 -0.000000e+000 1.000000e+000
		outer loop
			vertex 1.055473e+001 -8.417113e+000 5.000000e+000
			vertex 1.216308e+001 -5.857430e+000 5.000000e+000
			vertex 4.750000e+000 -8.227241e+000 5.000000e+000
		endloop
	endfacet
	facet normal 0.000000e+000 0.000000e+000 1.000000e+000
		outer loop
			vertex -2.458781e+000 -9.176295e+000 5.000000e+000
			vertex -4.750000e+000 -8.227241e+000 5.000000e+000
			vertex -1.055473e+001 -8.417113e+000 5.000000e+000
		endloop
	endfacet
	facet normal 0.000000e+000 0.000000e+000 1.000000e+000
		outer loop
			vertex 4.750000e+000 -8.227241e+000 5.000000e+000
			vertex 2.458781e+000 -9.176295e+000 5.000000e+000
			vertex 1.055473e+001 -8.417113e+000 5.000000e+000
		endloop
	endfacet
	facet normal 0.000000e+000 0.000000e+000 1.000000e+000
		outer loop
			vertex -8.417113e+000 -1.055473e+001 5.000000e+000
			vertex -1.745064e-015 -9.500000e+000 5.000000e+000
			vertex -2.458781e+000 -9.176295e+000 5.000000e+000
		endloop
	endfacet
	facet normal 0.000000e+000 0.000000e+000 1.000000e+000
		outer loop
			vertex -1.055473e+001 -8.417113e+000 5.000000e+000
			vertex -8.417113e+000 -1.055473e+001 5.000000e+000
			vertex -2.458781e+000 -9.176295e+000 5.000000e+000
		endloop
	endfacet
	facet normal 0.000000e+000 0.000000e+000 1.000000e+000
		outer loop
			vertex 1.055473e+001 -8.417113e+000 5.000000e+000
			vertex 2.458781e+000 -9.176295e+000 5.000000e+000
			vertex -1.745064e-015 -9.500000e+000 5.000000e+000
		endloop
	endfacet
	facet normal 0.000000e+000 0.000000e+000 1.000000e+000
		outer loop
			vertex 1.055473e+001 -8.417113e+000 5.000000e+000
			vertex -1.745064e-015 -9.500000e+000 5.000000e+000
			vertex -8.417113e+000 -1.055473e+001 5.000000e+000
		endloop
	endfacet
	facet normal 0.000000e+000 -0.000000e+000 1.000000e+000
		outer loop
			vertex 8.417113e+000 -1.055473e+001 5.000000e+000
			vertex 1.055473e+001 -8.417113e+000 5.000000e+000
			vertex -8.417113e+000 -1.055473e+001 5.000000e+000
		endloop
	endfacet
	facet normal -0.000000e+000 0.000000e+000 1.000000e+000
		outer loop
			vertex -8.417113e+000 -1.055473e+001 5.000000e+000
			vertex -5.857430e+000 -1.216308e+001 5.000000e+000
			vertex 8.417113e+000 -1.055473e+001 5.000000e+000
		endloop
	endfacet
	facet normal 0.000000e+000 -0.000000e+000 1.000000e+000
		outer loop
			vertex 5.857430e+000 -1.216308e+001 5.000000e+000
			vertex 8.417113e+000 -1.055473e+001 5.000000e+000
			vertex -5.857430e+000 -1.216308e+001 5.000000e+000
		endloop
	endfacet
	facet normal -0.000000e+000 0.000000e+000 1.000000e+000
		outer loop
			vertex -5.857430e+000 -1.216308e+001 5.000000e+000
			vertex -3.004033e+000 -1.316153e+001 5.000000e+000
			vertex 5.857430e+000 -1.216308e+001 5.000000e+000
		endloop
	endfacet
	facet normal 0.000000e+000 -0.000000e+000 1.000000e+000
		outer loop
			vertex 3.004033e+000 -1.316153e+001 5.000000e+000
			vertex 5.857430e+000 -1.216308e+001 5.000000e+000
			vertex -3.004033e+000 -1.316153e+001 5.000000e+000
		endloop
	endfacet
	facet normal -0.000000e+000 0.000000e+000 1.000000e+000
		outer loop
			vertex -3.004033e+000 -1.316153e+001 5.000000e+000
			vertex -2.479828e-015 -1.350000e+001 5.000000e+000
			vertex 3.004033e+000 -1.316153e+001 5.000000e+000
		endloop
	endfacet
	facet normal -9.914449e-001 1.305261e-001 0.000000e+000
		outer loop
			vertex 9.500000e+000 -1.163376e-015 0.000000e+000
			vertex 9.176295e+000 -2.458781e+000 0.000000e+000
			vertex 9.500000e+000 -1.163376e-015 5.000000e+000
		endloop
	endfacet
	facet normal -9.914449e-001 1.305261e-001 0.000000e+000
		outer loop
			vertex 9.176295e+000 -2.458781e+000 5.000000e+000
			vertex 9.500000e+000 -1.163376e-015 5.000000e+000
			vertex 9.176295e+000 -2.458781e+000 0.000000e+000
		endloop
	endfacet
	facet normal -9.238795e-001 3.826835e-001 0.000000e+000
		outer loop
			vertex 9.176295e+000 -2.458781e+000 0.000000e+000
			vertex 8.227241e+000 -4.750000e+000 0.000000e+000
			vertex 9.176295e+000 -2.458781e+000 5.000000e+000
		endloop
	endfacet
	facet normal -9.238795e-001 3.826835e-001 0.000000e+000
		outer loop
			vertex 8.227241e+000 -4.750000e+000 5.000000e+000
			vertex 9.176295e+000 -2.458781e+000 5.000000e+000
			vertex 8.227241e+000 -4.750000e+000 0.000000e+000
		endloop
	endfacet
	facet normal -7.933533e-001 6.087614e-001 0.000000e+000
		outer loop
			vertex 8.227241e+000 -4.750000e+000 0.000000e+000
			vertex 6.717514e+000 -6.717514e+000 0.000000e+000
			vertex 8.227241e+000 -4.750000e+000 5.000000e+000
		endloop
	endfacet
	facet normal -7.933533e-001 6.087614e-001 0.000000e+000
		outer loop
			vertex 6.717514e+000 -6.717514e+000 5.000000e+000
			vertex 8.227241e+000 -4.750000e+000 5.000000e+000
			vertex 6.717514e+000 -6.717514e+000 0.000000e+000
		endloop
	endfacet
	facet normal -6.087614e-001 7.933533e-001 0.000000e+000
		outer loop
			vertex 6.717514e+000 -6.717514e+000 0.000000e+000
			vertex 4.750000e+000 -8.227241e+000 0.000000e+000
			vertex 6.717514e+000 -6.717514e+000 5.000000e+000
		endloop
	endfacet
	facet normal -6.087614e-001 7.933533e-001 0.000000e+000
		outer loop
			vertex 4.750000e+000 -8.227241e+000 5.000000e+000
			vertex 6.717514e+000 -6.717514e+000 5.000000e+000
			vertex 4.750000e+000 -8.227241e+000 0.000000e+000
		endloop
	endfacet
	facet normal -3.826835e-001 9.238795e-001 0.000000e+000
		outer loop
			vertex 4.750000e+000 -8.227241e+000 0.000000e+000
			vertex 2.458781e+000 -9.176295e+000 0.000000e+000
			vertex 4.750000e+000 -8.227241e+000 5.000000e+000
		endloop
	endfacet
	facet normal -3.826835e-001 9.238795e-001 0.000000e+000
		outer loop
			vertex 2.458781e+000 -9.176295e+000 5.000000e+000
			vertex 4.750000e+000 -8.227241e+000 5.000000e+000
			vertex 2.458781e+000 -9.176295e+000 0.000000e+000
		endloop
	endfacet
	facet normal -1.305261e-001 9.914449e-001 0.000000e+000
		outer loop
			vertex 2.458781e+000 -9.176295e+000 0.000000e+000
			vertex -1.745064e-015 -9.500000e+000 0.000000e+000
			vertex 2.458781e+000 -9.176295e+000 5.000000e+000
		endloop
	endfacet
	facet normal -1.305261e-001 9.914449e-001 0.000000e+000
		outer loop
			vertex -1.745064e-015 -9.500000e+000 5.000000e+000
			vertex 2.458781e+000 -9.176295e+000 5.000000e+000
			vertex -1.745064e-015 -9.500000e+000 0.000000e+000
		endloop
	endfacet
	facet normal 1.305261e-001 9.914449e-001 -0.000000e+000
		outer loop
			vertex -1.745064e-015 -9.500000e+000 0.000000e+000
			vertex -2.458781e+000 -9.176295e+000 0.000000e+000
			vertex -1.745064e-015 -9.500000e+000 5.000000e+000
		endloop
	endfacet
	facet normal 1.305261e-001 9.914449e-001 0.000000e+000
		outer loop
			vertex -2.458781e+000 -9.176295e+000 5.000000e+000
			vertex -1.745064e-015 -9.500000e+000 5.000000e+000
			vertex -2.458781e+000 -9.176295e+000 0.000000e+000
		endloop
	endfacet
	facet normal 3.826835e-001 9.238795e-001 -0.000000e+000
		outer loop
			vertex -2.458781e+000 -9.176295e+000 0.000000e+000
			vertex -4.750000e+000 -8.227241e+000 0.000000e+000
			vertex -2.458781e+000 -9.176295e+000 5.000000e+000
		endloop
	endfacet
	facet normal 3.826835e-001 9.238795e-001 0.000000e+000
		outer loop
			vertex -4.750000e+000 -8.227241e+000 5.000000e+000
			vertex -2.458781e+000 -9.176295e+000 5.000000e+000
			vertex -4.750000e+000 -8.227241e+000 0.000000e+000
		endloop
	endfacet
	facet normal 6.087614e-001 7.933533e-001 -0.000000e+000
		outer loop
			vertex -4.750000e+000 -8.227241e+000 0.000000e+000
			vertex -6.717514e+000 -6.717514e+000 0.000000e+000
			vertex -4.750000e+000 -8.227241e+000 5.000000e+000
		endloop
	endfacet
	facet normal 6.087614e-001 7.933533e-001 0.000000e+000
		outer loop
			vertex -6.717514e+000 -6.717514e+000 5.000000e+000
			vertex -4.750000e+000 -8.227241e+000 5.000000e+000
			vertex -6.717514e+000 -6.717514e+000 0.000000e+000
		endloop
	endfacet
	facet normal 7.933533e-001 6.087614e-001 -0.000000e+000
		outer loop
			vertex -6.717514e+000 -6.717514e+000 0.000000e+000
			vertex -8.227241e+000 -4.750000e+000 0.000000e+000
			vertex -6.717514e+000 -6.717514e+000 5.000000e+000
		endloop
	endfacet
	facet normal 7.933533e-001 6.087614e-001 0.000000e+000
		outer loop
			vertex -8.227241e+000 -4.750000e+000 5.000000e+000
			vertex -6.717514e+000 -6.717514e+000 5.000000e+000
			vertex -8.227241e+000 -4.750000e+000 0.000000e+000
		endloop
	endfacet
	facet normal 9.238795e-001 3.826835e-001 -0.000000e+000
		outer loop
			vertex -8.227241e+000 -4.750000e+000 0.000000e+000
			vertex -9.176295e+000 -2.458781e+000 0.000000e+000
			vertex -8.227241e+000 -4.750000e+000 5.000000e+000
		endloop
	endfacet
	facet normal 9.238795e-001 3.826835e-001 0.000000e+000
		outer loop
			vertex -9.176295e+000 -2.458781e+000 5.000000e+000
			vertex -8.227241e+000 -4.750000e+000 5.000000e+000
			vertex -9.176295e+000 -2.458781e+000 0.000000e+000
		endloop
	endfacet
	facet normal 9.914449e-001 1.305261e-001 -0.000000e+000
		outer loop
			vertex -9.176295e+000 -2.458781e+000 0.000000e+000
			vertex -9.500000e+000 1.163376e-015 0.000000e+000
			vertex -9.176295e+000 -2.458781e+000 5.000000e+000
		endloop
	endfacet
	facet normal 9.914449e-001 1.305261e-001 0.000000e+000
		outer loop
			vertex -9.500000e+000 1.163376e-015 5.000000e+000
			vertex -9.176295e+000 -2.458781e+000 5.000000e+000
			vertex -9.500000e+000 1.163376e-015 0.000000e+000
		endloop
	endfacet
	facet normal 9.914449e-001 -1.305261e-001 0.000000e+000
		outer loop
			vertex -9.500000e+000 1.163376e-015 0.000000e+000
			vertex -9.176295e+000 2.458781e+000 0.000000e+000
			vertex -9.500000e+000 1.163376e-015 5.000000e+000
		endloop
	endfacet
	facet normal 9.914449e-001 -1.305261e-001 0.000000e+000
		outer loop
			vertex -9.176295e+000 2.458781e+000 5.000000e+000
			vertex -9.500000e+000 1.163376e-015 5.000000e+000
			vertex -9.176295e+000 2.458781e+000 0.000000e+000
		endloop
	endfacet
	facet normal 9.238795e-001 -3.826835e-001 0.000000e+000
		outer loop
			vertex -9.176295e+000 2.458781e+000 0.000000e+000
			vertex -8.227241e+000 4.750000e+000 0.000000e+000
			vertex -9.176295e+000 2.458781e+000 5.000000e+000
		endloop
	endfacet
	facet normal 9.238795e-001 -3.826835e-001 0.000000e+000
		outer loop
			vertex -8.227241e+000 4.750000e+000 5.000000e+000
			vertex -9.176295e+000 2.458781e+000 5.000000e+000
			vertex -8.227241e+000 4.750000e+000 0.000000e+000
		endloop
	endfacet
	facet normal 7.933533e-001 -6.087614e-001 0.000000e+000
		outer loop
			vertex -8.227241e+000 4.750000e+000 0.000000e+000
			vertex -6.717514e+000 6.717514e+000 0.000000e+000
			vertex -8.227241e+000 4.750000e+000 5.000000e+000
		endloop
	endfacet
	facet normal 7.933533e-001 -6.087614e-001 0.000000e+000
		outer loop
			vertex -6.717514e+000 6.717514e+000 5.000000e+000
			vertex -8.227241e+000 4.750000e+000 5.000000e+000
			vertex -6.717514e+000 6.717514e+000 0.000000e+000
		endloop
	endfacet
	facet normal 6.087614e-001 -7.933533e-001 0.000000e+000
		outer loop
			vertex -6.717514e+000 6.717514e+000 0.000000e+000
			vertex -4.750000e+000 8.227241e+000 0.000000e+000
			vertex -6.717514e+000 6.717514e+000 5.000000e+000
		endloop
	endfacet
	facet normal 6.087614e-001 -7.933533e-001 0.000000e+000
		outer loop
			vertex -4.750000e+000 8.227241e+000 5.000000e+000
			vertex -6.717514e+000 6.717514e+000 5.000000e+000
			vertex -4.750000e+000 8.227241e+000 0.000000e+000
		endloop
	endfacet
	facet normal 3.826835e-001 -9.238795e-001 0.000000e+000
		outer loop
			vertex -4.750000e+000 8.227241e+000 0.000000e+000
			vertex -2.458781e+000 9.176295e+000 0.000000e+000
			vertex -4.750000e+000 8.227241e+000 5.000000e+000
		endloop
	endfacet
	facet normal 3.826835e-001 -9.238795e-001 0.000000e+000
		outer loop
			vertex -2.458781e+000 9.176295e+000 5.000000e+000
			vertex -4.750000e+000 8.227241e+000 5.000000e+000
			vertex -2.458781e+000 9.176295e+000 0.000000e+000
		endloop
	endfacet
	facet normal 1.305261e-001 -9.914449e-001 0.000000e+000
		outer loop
			vertex -2.458781e+000 9.176295e+000 0.000000e+000
			vertex 5.816880e-016 9.500000e+000 0.000000e+000
			vertex -2.458781e+000 9.176295e+000 5.000000e+000
		endloop
	endfacet
	facet normal 1.305261e-001 -9.914449e-001 0.000000e+000
		outer loop
			vertex 5.816880e-016 9.500000e+000 5.000000e+000
			vertex -2.458781e+000 9.176295e+000 5.000000e+000
			vertex 5.816880e-016 9.500000e+000 0.000000e+000
		endloop
	endfacet
	facet normal -1.305261e-001 -9.914449e-001 0.000000e+000
		outer loop
			vertex 5.816880e-016 9.500000e+000 0.000000e+000
			vertex 2.458781e+000 9.176295e+000 0.000000e+000
			vertex 5.816880e-016 9.500000e+000 5.000000e+000
		endloop
	endfacet
	facet normal -1.305261e-001 -9.914449e-001 -0.000000e+000
		outer loop
			vertex 2.458781e+000 9.176295e+000 5.000000e+000
			vertex 5.816880e-016 9.500000e+000 5.000000e+000
			vertex 2.458781e+000 9.176295e+000 0.000000e+000
		endloop
	endfacet
	facet normal -3.826835e-001 -9.238795e-001 0.000000e+000
		outer loop
			vertex 2.458781e+000 9.176295e+000 0.000000e+000
			vertex 4.750000e+000 8.227241e+000 0.000000e+000
			vertex 2.458781e+000 9.176295e+000 5.000000e+000
		endloop
	endfacet
	facet normal -3.826835e-001 -9.238795e-001 -0.000000e+000
		outer loop
			vertex 4.750000e+000 8.227241e+000 5.000000e+000
			vertex 2.458781e+000 9.176295e+000 5.000000e+000
			vertex 4.750000e+000 8.227241e+000 0.000000e+000
		endloop
	endfacet
	facet normal -6.087614e-001 -7.933533e-001 0.000000e+000
		outer loop
			vertex 4.750000e+000 8.227241e+000 0.000000e+000
			vertex 6.717514e+000 6.717514e+000 0.000000e+000
			vertex 4.750000e+000 8.227241e+000 5.000000e+000
		endloop
	endfacet
	facet normal -6.087614e-001 -7.933533e-001 -0.000000e+000
		outer loop
			vertex 6.717514e+000 6.717514e+000 5.000000e+000
			vertex 4.750000e+000 8.227241e+000 5.000000e+000
			vertex 6.717514e+000 6.717514e+000 0.000000e+000
		endloop
	endfacet
	facet normal -7.933533e-001 -6.087614e-001 0.000000e+000
		outer loop
			vertex 6.717514e+000 6.717514e+000 0.000000e+000
			vertex 8.227241e+000 4.750000e+000 0.000000e+000
			vertex 6.717514e+000 6.717514e+000 5.000000e+000
		endloop
	endfacet
	facet normal -7.933533e-001 -6.087614e-001 -0.000000e+000
		outer loop
			vertex 8.227241e+000 4.750000e+000 5.000000e+000
			vertex 6.717514e+000 6.717514e+000 5.000000e+000
			vertex 8.227241e+000 4.750000e+000 0.000000e+000
		endloop
	endfacet
	facet normal -9.238795e-001 -3.826835e-001 0.000000e+000
		outer loop
			vertex 8.227241e+000 4.750000e+000 0.000000e+000
			vertex 9.176295e+000 2.458781e+000 0.000000e+000
			vertex 8.227241e+000 4.750000e+000 5.000000e+000
		endloop
	endfacet
	facet normal -9.238795e-001 -3.826835e-001 -0.000000e+000
		outer loop
			vertex 9.176295e+000 2.458781e+000 5.000000e+000
			vertex 8.227241e+000 4.750000e+000 5.000000e+000
			vertex 9.176295e+000 2.458781e+000 0.000000e+000
		endloop
	endfacet
	facet normal -9.914449e-001 -1.305261e-001 0.000000e+000
		outer loop
			vertex 9.176295e+000 2.458781e+000 0.000000e+000
			vertex 9.500000e+000 -1.163376e-015 0.000000e+000
			vertex 9.176295e+000 2.458781e+000 5.000000e+000
		endloop
	endfacet
	facet normal -9.914449e-001 -1.305261e-001 -0.000000e+000
		outer loop
			vertex 9.500000e+000 -1.163376e-015 5.000000e+000
			vertex 9.176295e+000 2.458781e+000 5.000000e+000
			vertex 9.500000e+000 -1.163376e-015 0.000000e+000
		endloop
	endfacet
	facet normal -9.937122e-001 1.119645e-001 0.000000e+000
		outer loop
			vertex -1.350000e+001 1.653219e-015 5.000000e+000
			vertex -1.316153e+001 3.004033e+000 5.000000e+000
			vertex -1.350000e+001 1.653219e-015 0.000000e+000
		endloop
	endfacet
	facet normal -9.937122e-001 1.119645e-001 0.000000e+000
		outer loop
			vertex -1.316153e+001 3.004033e+000 0.000000e+000
			vertex -1.350000e+001 1.653219e-015 0.000000e+000
			vertex -1.316153e+001 3.004033e+000 5.000000e+000
		endloop
	endfacet
	facet normal -9.438832e-001 3.302792e-001 0.000000e+000
		outer loop
			vertex -1.316153e+001 3.004033e+000 5.000000e+000
			vertex -1.216308e+001 5.857430e+000 5.000000e+000
			vertex -1.316153e+001 3.004033e+000 0.000000e+000
		endloop
	endfacet
	facet normal -9.438832e-001 3.302792e-001 0.000000e+000
		outer loop
			vertex -1.216308e+001 5.857430e+000 0.000000e+000
			vertex -1.316153e+001 3.004033e+000 0.000000e+000
			vertex -1.216308e+001 5.857430e+000 5.000000e+000
		endloop
	endfacet
	facet normal -8.467243e-001 5.320318e-001 0.000000e+000
		outer loop
			vertex -1.216308e+001 5.857430e+000 5.000000e+000
			vertex -1.055473e+001 8.417113e+000 5.000000e+000
			vertex -1.216308e+001 5.857430e+000 0.000000e+000
		endloop
	endfacet
	facet normal -8.467243e-001 5.320318e-001 0.000000e+000
		outer loop
			vertex -1.055473e+001 8.417113e+000 0.000000e+000
			vertex -1.216308e+001 5.857430e+000 0.000000e+000
			vertex -1.055473e+001 8.417113e+000 5.000000e+000
		endloop
	endfacet
	facet normal -7.071068e-001 7.071068e-001 0.000000e+000
		outer loop
			vertex -1.055473e+001 8.417113e+000 5.000000e+000
			vertex -8.417113e+000 1.055473e+001 5.000000e+000
			vertex -1.055473e+001 8.417113e+000 0.000000e+000
		endloop
	endfacet
	facet normal -7.071068e-001 7.071068e-001 0.000000e+000
		outer loop
			vertex -8.417113e+000 1.055473e+001 0.000000e+000
			vertex -1.055473e+001 8.417113e+000 0.000000e+000
			vertex -8.417113e+000 1.055473e+001 5.000000e+000
		endloop
	endfacet
	facet normal -5.320318e-001 8.467243e-001 0.000000e+000
		outer loop
			vertex -8.417113e+000 1.055473e+001 5.000000e+000
			vertex -5.857430e+000 1.216308e+001 5.000000e+000
			vertex -8.417113e+000 1.055473e+001 0.000000e+000
		endloop
	endfacet
	facet normal -5.320318e-001 8.467243e-001 0.000000e+000
		outer loop
			vertex -5.857430e+000 1.216308e+001 0.000000e+000
			vertex -8.417113e+000 1.055473e+001 0.000000e+000
			vertex -5.857430e+000 1.216308e+001 5.000000e+000
		endloop
	endfacet
	facet normal -3.302792e-001 9.438832e-001 0.000000e+000
		outer loop
			vertex -5.857430e+000 1.216308e+001 5.000000e+000
			vertex -3.004033e+000 1.316153e+001 5.000000e+000
			vertex -5.857430e+000 1.216308e+001 0.000000e+000
		endloop
	endfacet
	facet normal -3.302792e-001 9.438832e-001 0.000000e+000
		outer loop
			vertex -3.004033e+000 1.316153e+001 0.000000e+000
			vertex -5.857430e+000 1.216308e+001 0.000000e+000
			vertex -3.004033e+000 1.316153e+001 5.000000e+000
		endloop
	endfacet
	facet normal -1.119645e-001 9.937122e-001 0.000000e+000
		outer loop
			vertex -3.004033e+000 1.316153e+001 5.000000e+000
			vertex 8.266093e-016 1.350000e+001 5.000000e+000
			vertex -3.004033e+000 1.316153e+001 0.000000e+000
		endloop
	endfacet
	facet normal -1.119645e-001 9.937122e-001 0.000000e+000
		outer loop
			vertex 8.266093e-016 1.350000e+001 0.000000e+000
			vertex -3.004033e+000 1.316153e+001 0.000000e+000
			vertex 8.266093e-016 1.350000e+001 5.000000e+000
		endloop
	endfacet
	facet normal 1.119645e-001 9.937122e-001 0.000000e+000
		outer loop
			vertex 8.266093e-016 1.350000e+001 5.000000e+000
			vertex 3.004033e+000 1.316153e+001 5.000000e+000
			vertex 8.266093e-016 1.350000e+001 0.000000e+000
		endloop
	endfacet
	facet normal 1.119645e-001 9.937122e-001 -0.000000e+000
		outer loop
			vertex 3.004033e+000 1.316153e+001 0.000000e+000
			vertex 8.266093e-016 1.350000e+001 0.000000e+000
			vertex 3.004033e+000 1.316153e+001 5.000000e+000
		endloop
	endfacet
	facet normal 3.302792e-001 9.438832e-001 0.000000e+000
		outer loop
			vertex 3.004033e+000 1.316153e+001 5.000000e+000
			vertex 5.857430e+000 1.216308e+001 5.000000e+000
			vertex 3.004033e+000 1.316153e+001 0.000000e+000
		endloop
	endfacet
	facet normal 3.302792e-001 9.438832e-001 -0.000000e+000
		outer loop
			vertex 5.857430e+000 1.216308e+001 0.000000e+000
			vertex 3.004033e+000 1.316153e+001 0.000000e+000
			vertex 5.857430e+000 1.216308e+001 5.000000e+000
		endloop
	endfacet
	facet normal 5.320318e-001 8.467243e-001 0.000000e+000
		outer loop
			vertex 5.857430e+000 1.216308e+001 5.000000e+000
			vertex 8.417113e+000 1.055473e+001 5.000000e+000
			vertex 5.857430e+000 1.216308e+001 0.000000e+000
		endloop
	endfacet
	facet normal 5.320318e-001 8.467243e-001 -0.000000e+000
		outer loop
			vertex 8.417113e+000 1.055473e+001 0.000000e+000
			vertex 5.857430e+000 1.216308e+001 0.000000e+000
			vertex 8.417113e+000 1.055473e+001 5.000000e+000
		endloop
	endfacet
	facet normal 7.071068e-001 7.071068e-001 0.000000e+000
		outer loop
			vertex 8.417113e+000 1.055473e+001 5.000000e+000
			vertex 1.055473e+001 8.417113e+000 5.000000e+000
			vertex 8.417113e+000 1.055473e+001 0.000000e+000
		endloop
	endfacet
	facet normal 7.071068e-001 7.071068e-001 -0.000000e+000
		outer loop
			vertex 1.055473e+001 8.417113e+000 0.000000e+000
			vertex 8.417113e+000 1.055473e+001 0.000000e+000
			vertex 1.055473e+001 8.417113e+000 5.000000e+000
		endloop
	endfacet
	facet normal 8.467243e-001 5.320318e-001 0.000000e+000
		outer loop
			vertex 1.055473e+001 8.417113e+000 5.000000e+000
			vertex 1.216308e+001 5.857430e+000 5.000000e+000
			vertex 1.055473e+001 8.417113e+000 0.000000e+000
		endloop
	endfacet
	facet normal 8.467243e-001 5.320318e-001 -0.000000e+000
		outer loop
			vertex 1.216308e+001 5.857430e+000 0.000000e+000
			vertex 1.055473e+001 8.417113e+000 0.000000e+000
			vertex 1.216308e+001 5.857430e+000 5.000000e+000
		endloop
	endfacet
	facet normal 9.438832e-001 3.302792e-001 0.000000e+000
		outer loop
			vertex 1.216308e+001 5.857430e+000 5.000000e+000
			vertex 1.316153e+001 3.004033e+000 5.000000e+000
			vertex 1.216308e+001 5.857430e+000 0.000000e+000
		endloop
	endfacet
	facet normal 9.438832e-001 3.302792e-001 -0.000000e+000
		outer loop
			vertex 1.316153e+001 3.004033e+000 0.000000e+000
			vertex 1.216308e+001 5.857430e+000 0.000000e+000
			vertex 1.316153e+001 3.004033e+000 5.000000e+000
		endloop
	endfacet
	facet normal 9.937122e-001 1.119645e-001 0.000000e+000
		outer loop
			vertex 1.316153e+001 3.004033e+000 5.000000e+000
			vertex 1.350000e+001 -1.653219e-015 5.000000e+000
			vertex 1.316153e+001 3.004033e+000 0.000000e+000
		endloop
	endfacet
	facet normal 9.937122e-001 1.119645e-001 -0.000000e+000
		outer loop
			vertex 1.350000e+001 -1.653219e-015 0.000000e+000
			vertex 1.316153e+001 3.004033e+000 0.000000e+000
			vertex 1.350000e+001 -1.653219e-015 5.000000e+000
		endloop
	endfacet
	facet normal 9.937122e-001 -1.119645e-001 0.000000e+000
		outer loop
			vertex 1.350000e+001 -1.653219e-015 5.000000e+000
			vertex 1.316153e+001 -3.004033e+000 5.000000e+000
			vertex 1.350000e+001 -1.653219e-015 0.000000e+000
		endloop
	endfacet
	facet normal 9.937122e-001 -1.119645e-001 0.000000e+000
		outer loop
			vertex 1.316153e+001 -3.004033e+000 0.000000e+000
			vertex 1.350000e+001 -1.653219e-015 0.000000e+000
			vertex 1.316153e+001 -3.004033e+000 5.000000e+000
		endloop
	endfacet
	facet normal 9.438832e-001 -3.302792e-001 0.000000e+000
		outer loop
			vertex 1.316153e+001 -3.004033e+000 5.000000e+000
			vertex 1.216308e+001 -5.857430e+000 5.000000e+000
			vertex 1.316153e+001 -3.004033e+000 0.000000e+000
		endloop
	endfacet
	facet normal 9.438832e-001 -3.302792e-001 0.000000e+000
		outer loop
			vertex 1.216308e+001 -5.857430e+000 0.000000e+000
			vertex 1.316153e+001 -3.004033e+000 0.000000e+000
			vertex 1.216308e+001 -5.857430e+000 5.000000e+000
		endloop
	endfacet
	facet normal 8.467243e-001 -5.320318e-001 0.000000e+000
		outer loop
			vertex 1.216308e+001 -5.857430e+000 5.000000e+000
			vertex 1.055473e+001 -8.417113e+000 5.000000e+000
			vertex 1.216308e+001 -5.857430e+000 0.000000e+000
		endloop
	endfacet
	facet normal 8.467243e-001 -5.320318e-001 0.000000e+000
		outer loop
			vertex 1.055473e+001 -8.417113e+000 0.000000e+000
			vertex 1.216308e+001 -5.857430e+000 0.000000e+000
			vertex 1.055473e+001 -8.417113e+000 5.000000e+000
		endloop
	endfacet
	facet normal 7.071068e-001 -7.071068e-001 0.000000e+000
		outer loop
			vertex 1.055473e+001 -8.417113e+000 5.000000e+000
			vertex 8.417113e+000 -1.055473e+001 5.000000e+000
			vertex 1.055473e+001 -8.417113e+000 0.000000e+000
		endloop
	endfacet
	facet normal 7.071068e-001 -7.071068e-001 0.000000e+000
		outer loop
			vertex 8.417113e+000 -1.055473e+001 0.000000e+000
			vertex 1.055473e+001 -8.417113e+000 0.000000e+000
			vertex 8.417113e+000 -1.055473e+001 5.000000e+000
		endloop
	endfacet
	facet normal 5.320318e-001 -8.467243e-001 0.000000e+000
		outer loop
			vertex 8.417113e+000 -1.055473e+001 5.000000e+000
			vertex 5.857430e+000 -1.216308e+001 5.000000e+000
			vertex 8.417113e+000 -1.055473e+001 0.000000e+000
		endloop
	endfacet
	facet normal 5.320318e-001 -8.467243e-001 0.000000e+000
		outer loop
			vertex 5.857430e+000 -1.216308e+001 0.000000e+000
			vertex 8.417113e+000 -1.055473e+001 0.000000e+000
			vertex 5.857430e+000 -1.216308e+001 5.000000e+000
		endloop
	endfacet
	facet normal 3.302792e-001 -9.438832e-001 0.000000e+000
		outer loop
			vertex 5.857430e+000 -1.216308e+001 5.000000e+000
			vertex 3.004033e+000 -1.316153e+001 5.000000e+000
			vertex 5.857430e+000 -1.216308e+001 0.000000e+000
		endloop
	endfacet
	facet normal 3.302792e-001 -9.438832e-001 0.000000e+000
		outer loop
			vertex 3.004033e+000 -1.316153e+001 0.000000e+000
			vertex 5.857430e+000 -1.216308e+001 0.000000e+000
			vertex 3.004033e+000 -1.316153e+001 5.000000e+000
		endloop
	endfacet
	facet normal 1.119645e-001 -9.937122e-001 0.000000e+000
		outer loop
			vertex 3.004033e+000 -1.316153e+001 5.000000e+000
			vertex -2.479828e-015 -1.350000e+001 5.000000e+000
			vertex 3.004033e+000 -1.316153e+001 0.000000e+000
		endloop
	endfacet
	facet normal 1.119645e-001 -9.937122e-001 0.000000e+000
		outer loop
			vertex -2.479828e-015 -1.350000e+001 0.000000e+000
			vertex 3.004033e+000 -1.316153e+001 0.000000e+000
			vertex -2.479828e-015 -1.350000e+001 5.000000e+000
		endloop
	endfacet
	facet normal -1.119645e-001 -9.937122e-001 -0.000000e+000
		outer loop
			vertex -2.479828e-015 -1.350000e+001 5.000000e+000
			vertex -3.004033e+000 -1.316153e+001 5.000000e+000
			vertex -2.479828e-015 -1.350000e+001 0.000000e+000
		endloop
	endfacet
	facet normal -1.119645e-001 -9.937122e-001 0.000000e+000
		outer loop
			vertex -3.004033e+000 -1.316153e+001 0.000000e+000
			vertex -2.479828e-015 -1.350000e+001 0.000000e+000
			vertex -3.004033e+000 -1.316153e+001 5.000000e+000
		endloop
	endfacet
	facet normal -3.302792e-001 -9.438832e-001 -0.000000e+000
		outer loop
			vertex -3.004033e+000 -1.316153e+001 5.000000e+000
			vertex -5.857430e+000 -1.216308e+001 5.000000e+000
			vertex -3.004033e+000 -1.316153e+001 0.000000e+000
		endloop
	endfacet
	facet normal -3.302792e-001 -9.438832e-001 0.000000e+000
		outer loop
			vertex -5.857430e+000 -1.216308e+001 0.000000e+000
			vertex -3.004033e+000 -1.316153e+001 0.000000e+000
			vertex -5.857430e+000 -1.216308e+001 5.000000e+000
		endloop
	endfacet
	facet normal -5.320318e-001 -8.467243e-001 -0.000000e+000
		outer loop
			vertex -5.857430e+000 -1.216308e+001 5.000000e+000
			vertex -8.417113e+000 -1.055473e+001 5.000000e+000
			vertex -5.857430e+000 -1.216308e+001 0.000000e+000
		endloop
	endfacet
	facet normal -5.320318e-001 -8.467243e-001 0.000000e+000
		outer loop
			vertex -8.417113e+000 -1.055473e+001 0.000000e+000
			vertex -5.857430e+000 -1.216308e+001 0.000000e+000
			vertex -8.417113e+000 -1.055473e+001 5.000000e+000
		endloop
	endfacet
	facet normal -7.071068e-001 -7.071068e-001 -0.000000e+000
		outer loop
			vertex -8.417113e+000 -1.055473e+001 5.000000e+000
			vertex -1.055473e+001 -8.417113e+000 5.000000e+000
			vertex -8.417113e+000 -1.055473e+001 0.000000e+000
		endloop
	endfacet
	facet normal -7.071068e-001 -7.071068e-001 0.000000e+000
		outer loop
			vertex -1.055473e+001 -8.417113e+000 0.000000e+000
			vertex -8.417113e+000 -1.055473e+001 0.000000e+000
			vertex -1.055473e+001 -8.417113e+000 5.000000e+000
		endloop
	endfacet
	facet normal -8.467243e-001 -5.320318e-001 -0.000000e+000
		outer loop
			vertex -1.055473e+001 -8.417113e+000 5.000000e+000
			vertex -1.216308e+001 -5.857430e+000 5.000000e+000
			vertex -1.055473e+001 -8.417113e+000 0.000000e+000
		endloop
	endfacet
	facet normal -8.467243e-001 -5.320318e-001 0.000000e+000
		outer loop
			vertex -1.216308e+001 -5.857430e+000 0.000000e+000
			vertex -1.055473e+001 -8.417113e+000 0.000000e+000
			vertex -1.216308e+001 -5.857430e+000 5.000000e+000
		endloop
	endfacet
	facet normal -9.438832e-001 -3.302792e-001 -0.000000e+000
		outer loop
			vertex -1.216308e+001 -5.857430e+000 5.000000e+000
			vertex -1.316153e+001 -3.004033e+000 5.000000e+000
			vertex -1.216308e+001 -5.857430e+000 0.000000e+000
		endloop
	endfacet
	facet normal -9.438832e-001 -3.302792e-001 0.000000e+000
		outer loop
			vertex -1.316153e+001 -3.004033e+000 0.000000e+000
			vertex -1.216308e+001 -5.857430e+000 0.000000e+000
			vertex -1.316153e+001 -3.004033e+000 5.000000e+000
		endloop
	endfacet
	facet normal -9.937122e-001 -1.119645e-001 -0.000000e+000
		outer loop
			vertex -1.316153e+001 -3.004033e+000 5.000000e+000
			vertex -1.350000e+001 1.653219e-015 5.000000e+000
			vertex -1.316153e+001 -3.004033e+000 0.000000e+000
		endloop
	endfacet
	facet normal -9.937122e-001 -1.119645e-001 0.000000e+000
		outer loop
			vertex -1.350000e+001 1.653219e-015 0.000000e+000
			vertex -1.316153e+001 -3.004033e+000 0.000000e+000
			vertex -1.350000e+001 1.653219e-015 5.000000e+000
		endloop
	endfacet
endsolid
