M48
;GenerationSoftware,Autodesk,EAGLE,9.4.1*%
;CreationDate,2019-06-20T04:55:12Z*%
FMAT,2
ICI,OFF
METRIC,TZ,000.000
T3C0.813
T2C1.016
T1C1.110
%
G90
M71
T1
X54510Y35260
X54510Y32720
X54970Y16320
X54970Y13780
T2
X60960Y4540
X60960Y7080
X60960Y9620
X60960Y14700
X60960Y17240
X60960Y19780
X60960Y25130
X60960Y27670
X60960Y33020
X60960Y35560
X13650Y31140
X13650Y36220
X48800Y28940
X43720Y28940
X32020Y32480
X37100Y32480
X6080Y18400
X6080Y15860
X6080Y13320
X6080Y10780
X6050Y23000
X6050Y25540
T3
X26670Y9890
X34290Y9890
X21690Y26500
X14070Y26500
X30480Y26400
X22860Y26400
X33290Y16240
X33290Y23860
X30750Y16240
X30750Y23860
X54480Y29810
X54480Y22190
X55020Y3130
X55020Y10750
X36830Y9890
X41910Y9890
X31750Y6080
X26670Y6080
X17780Y9890
X25400Y9890
X17780Y13700
X20320Y13700
X20320Y21320
X17780Y21320
X22860Y13700
X25400Y13700
X22860Y21320
X25400Y21320
X39370Y13700
X41910Y13700
X41910Y21320
X39370Y21320
X44450Y13700
X46990Y13700
X44450Y21320
X46990Y21320
M30