solid generated by Pro/DESKTOP Version 8.0
	facet normal 0.000000e+000 0.000000e+000 -1.000000e+000
		outer loop
			vertex -1.845367e+000 -1.991468e+001 0.000000e+000
			vertex -5.473260e+000 -1.923651e+001 0.000000e+000
			vertex 1.845367e+000 -1.991468e+001 0.000000e+000
		endloop
	endfacet
	facet normal -0.000000e+000 0.000000e+000 -1.000000e+000
		outer loop
			vertex 5.473260e+000 -1.923651e+001 0.000000e+000
			vertex 1.845367e+000 -1.991468e+001 0.000000e+000
			vertex -5.473260e+000 -1.923651e+001 0.000000e+000
		endloop
	endfacet
	facet normal 0.000000e+000 0.000000e+000 -1.000000e+000
		outer loop
			vertex -5.473260e+000 -1.923651e+001 0.000000e+000
			vertex -8.914767e+000 -1.790327e+001 0.000000e+000
			vertex 5.473260e+000 -1.923651e+001 0.000000e+000
		endloop
	endfacet
	facet normal -0.000000e+000 0.000000e+000 -1.000000e+000
		outer loop
			vertex 8.914767e+000 -1.790327e+001 0.000000e+000
			vertex 5.473260e+000 -1.923651e+001 0.000000e+000
			vertex -8.914767e+000 -1.790327e+001 0.000000e+000
		endloop
	endfacet
	facet normal 0.000000e+000 0.000000e+000 -1.000000e+000
		outer loop
			vertex -1.205269e+001 -1.596035e+001 0.000000e+000
			vertex -4.583855e+000 -1.611058e+001 0.000000e+000
			vertex -1.545495e+000 -1.667855e+001 0.000000e+000
		endloop
	endfacet
	facet normal 0.000000e+000 0.000000e+000 -1.000000e+000
		outer loop
			vertex -1.205269e+001 -1.596035e+001 0.000000e+000
			vertex -1.545495e+000 -1.667855e+001 0.000000e+000
			vertex 8.914767e+000 -1.790327e+001 0.000000e+000
		endloop
	endfacet
	facet normal 0.000000e+000 0.000000e+000 -1.000000e+000
		outer loop
			vertex -8.914767e+000 -1.790327e+001 0.000000e+000
			vertex -1.205269e+001 -1.596035e+001 0.000000e+000
			vertex 8.914767e+000 -1.790327e+001 0.000000e+000
		endloop
	endfacet
	facet normal 0.000000e+000 0.000000e+000 -1.000000e+000
		outer loop
			vertex 8.914767e+000 -1.790327e+001 0.000000e+000
			vertex -1.545495e+000 -1.667855e+001 0.000000e+000
			vertex 1.545495e+000 -1.667855e+001 0.000000e+000
		endloop
	endfacet
	facet normal 0.000000e+000 0.000000e+000 -1.000000e+000
		outer loop
			vertex 8.914767e+000 -1.790327e+001 0.000000e+000
			vertex 1.545495e+000 -1.667855e+001 0.000000e+000
			vertex 4.583855e+000 -1.611058e+001 0.000000e+000
		endloop
	endfacet
	facet normal 0.000000e+000 0.000000e+000 -1.000000e+000
		outer loop
			vertex 1.205269e+001 -1.596035e+001 0.000000e+000
			vertex 8.914767e+000 -1.790327e+001 0.000000e+000
			vertex 4.583855e+000 -1.611058e+001 0.000000e+000
		endloop
	endfacet
	facet normal 0.000000e+000 -0.000000e+000 -1.000000e+000
		outer loop
			vertex -7.466117e+000 -1.499399e+001 0.000000e+000
			vertex -4.583855e+000 -1.611058e+001 0.000000e+000
			vertex -1.205269e+001 -1.596035e+001 0.000000e+000
		endloop
	endfacet
	facet normal 0.000000e+000 0.000000e+000 -1.000000e+000
		outer loop
			vertex 4.583855e+000 -1.611058e+001 0.000000e+000
			vertex 7.466117e+000 -1.499399e+001 0.000000e+000
			vertex 1.205269e+001 -1.596035e+001 0.000000e+000
		endloop
	endfacet
	facet normal 0.000000e+000 0.000000e+000 -1.000000e+000
		outer loop
			vertex -1.205269e+001 -1.596035e+001 0.000000e+000
			vertex -1.478018e+001 -1.347391e+001 0.000000e+000
			vertex -7.466117e+000 -1.499399e+001 0.000000e+000
		endloop
	endfacet
	facet normal 0.000000e+000 0.000000e+000 -1.000000e+000
		outer loop
			vertex 1.478018e+001 -1.347391e+001 0.000000e+000
			vertex 1.205269e+001 -1.596035e+001 0.000000e+000
			vertex 7.466117e+000 -1.499399e+001 0.000000e+000
		endloop
	endfacet
	facet normal 0.000000e+000 -0.000000e+000 -1.000000e+000
		outer loop
			vertex -1.009413e+001 -1.336679e+001 0.000000e+000
			vertex -7.466117e+000 -1.499399e+001 0.000000e+000
			vertex -1.478018e+001 -1.347391e+001 0.000000e+000
		endloop
	endfacet
	facet normal 0.000000e+000 0.000000e+000 -1.000000e+000
		outer loop
			vertex 7.466117e+000 -1.499399e+001 0.000000e+000
			vertex 1.009413e+001 -1.336679e+001 0.000000e+000
			vertex 1.478018e+001 -1.347391e+001 0.000000e+000
		endloop
	endfacet
	facet normal 0.000000e+000 0.000000e+000 -1.000000e+000
		outer loop
			vertex -1.700434e+001 -1.052864e+001 0.000000e+000
			vertex -1.237840e+001 -1.128440e+001 0.000000e+000
			vertex -1.009413e+001 -1.336679e+001 0.000000e+000
		endloop
	endfacet
	facet normal 0.000000e+000 0.000000e+000 -1.000000e+000
		outer loop
			vertex -1.478018e+001 -1.347391e+001 0.000000e+000
			vertex -1.700434e+001 -1.052864e+001 0.000000e+000
			vertex -1.009413e+001 -1.336679e+001 0.000000e+000
		endloop
	endfacet
	facet normal 0.000000e+000 0.000000e+000 -1.000000e+000
		outer loop
			vertex 1.478018e+001 -1.347391e+001 0.000000e+000
			vertex 1.009413e+001 -1.336679e+001 0.000000e+000
			vertex 1.237840e+001 -1.128440e+001 0.000000e+000
		endloop
	endfacet
	facet normal 0.000000e+000 0.000000e+000 -1.000000e+000
		outer loop
			vertex 1.700434e+001 -1.052864e+001 0.000000e+000
			vertex 1.478018e+001 -1.347391e+001 0.000000e+000
			vertex 1.237840e+001 -1.128440e+001 0.000000e+000
		endloop
	endfacet
	facet normal 0.000000e+000 -0.000000e+000 -1.000000e+000
		outer loop
			vertex -1.424114e+001 -8.817739e+000 0.000000e+000
			vertex -1.237840e+001 -1.128440e+001 0.000000e+000
			vertex -1.700434e+001 -1.052864e+001 0.000000e+000
		endloop
	endfacet
	facet normal 0.000000e+000 0.000000e+000 -1.000000e+000
		outer loop
			vertex 1.237840e+001 -1.128440e+001 0.000000e+000
			vertex 1.424114e+001 -8.817739e+000 0.000000e+000
			vertex 1.700434e+001 -1.052864e+001 0.000000e+000
		endloop
	endfacet
	facet normal 0.000000e+000 0.000000e+000 -1.000000e+000
		outer loop
			vertex -1.700434e+001 -1.052864e+001 0.000000e+000
			vertex -1.864944e+001 -7.224833e+000 0.000000e+000
			vertex -1.424114e+001 -8.817739e+000 0.000000e+000
		endloop
	endfacet
	facet normal 0.000000e+000 0.000000e+000 -1.000000e+000
		outer loop
			vertex 1.864944e+001 -7.224833e+000 0.000000e+000
			vertex 1.700434e+001 -1.052864e+001 0.000000e+000
			vertex 1.424114e+001 -8.817739e+000 0.000000e+000
		endloop
	endfacet
	facet normal 0.000000e+000 -0.000000e+000 -1.000000e+000
		outer loop
			vertex -1.561891e+001 -6.050798e+000 0.000000e+000
			vertex -1.424114e+001 -8.817739e+000 0.000000e+000
			vertex -1.864944e+001 -7.224833e+000 0.000000e+000
		endloop
	endfacet
	facet normal 0.000000e+000 0.000000e+000 -1.000000e+000
		outer loop
			vertex 1.424114e+001 -8.817739e+000 0.000000e+000
			vertex 1.561891e+001 -6.050798e+000 0.000000e+000
			vertex 1.864944e+001 -7.224833e+000 0.000000e+000
		endloop
	endfacet
	facet normal 0.000000e+000 0.000000e+000 -1.000000e+000
		outer loop
			vertex -1.864944e+001 -7.224833e+000 0.000000e+000
			vertex -1.965946e+001 -3.674990e+000 0.000000e+000
			vertex -1.561891e+001 -6.050798e+000 0.000000e+000
		endloop
	endfacet
	facet normal 0.000000e+000 0.000000e+000 -1.000000e+000
		outer loop
			vertex 1.965946e+001 -3.674990e+000 0.000000e+000
			vertex 1.864944e+001 -7.224833e+000 0.000000e+000
			vertex 1.561891e+001 -6.050798e+000 0.000000e+000
		endloop
	endfacet
	facet normal 0.000000e+000 -0.000000e+000 -1.000000e+000
		outer loop
			vertex -1.646480e+001 -3.077804e+000 0.000000e+000
			vertex -1.561891e+001 -6.050798e+000 0.000000e+000
			vertex -1.965946e+001 -3.674990e+000 0.000000e+000
		endloop
	endfacet
	facet normal 0.000000e+000 0.000000e+000 -1.000000e+000
		outer loop
			vertex 1.561891e+001 -6.050798e+000 0.000000e+000
			vertex 1.646480e+001 -3.077804e+000 0.000000e+000
			vertex 1.965946e+001 -3.674990e+000 0.000000e+000
		endloop
	endfacet
	facet normal 0.000000e+000 0.000000e+000 -1.000000e+000
		outer loop
			vertex -1.965946e+001 -3.674990e+000 0.000000e+000
			vertex -2.000000e+001 2.449213e-015 0.000000e+000
			vertex -1.646480e+001 -3.077804e+000 0.000000e+000
		endloop
	endfacet
	facet normal -0.000000e+000 -0.000000e+000 -1.000000e+000
		outer loop
			vertex -1.675000e+001 2.051216e-015 0.000000e+000
			vertex -1.646480e+001 -3.077804e+000 0.000000e+000
			vertex -2.000000e+001 2.449213e-015 0.000000e+000
		endloop
	endfacet
	facet normal 0.000000e+000 0.000000e+000 -1.000000e+000
		outer loop
			vertex 1.965946e+001 -3.674990e+000 0.000000e+000
			vertex 1.646480e+001 -3.077804e+000 0.000000e+000
			vertex 1.675000e+001 -2.051216e-015 0.000000e+000
		endloop
	endfacet
	facet normal -0.000000e+000 0.000000e+000 -1.000000e+000
		outer loop
			vertex 2.000000e+001 -2.449213e-015 0.000000e+000
			vertex 1.965946e+001 -3.674990e+000 0.000000e+000
			vertex 1.675000e+001 -2.051216e-015 0.000000e+000
		endloop
	endfacet
	facet normal 0.000000e+000 0.000000e+000 -1.000000e+000
		outer loop
			vertex 1.675000e+001 -2.051216e-015 0.000000e+000
			vertex 1.646480e+001 3.077804e+000 0.000000e+000
			vertex 2.000000e+001 -2.449213e-015 0.000000e+000
		endloop
	endfacet
	facet normal 0.000000e+000 0.000000e+000 -1.000000e+000
		outer loop
			vertex -1.965946e+001 3.674990e+000 0.000000e+000
			vertex -1.646480e+001 3.077804e+000 0.000000e+000
			vertex -1.675000e+001 2.051216e-015 0.000000e+000
		endloop
	endfacet
	facet normal 0.000000e+000 0.000000e+000 -1.000000e+000
		outer loop
			vertex -2.000000e+001 2.449213e-015 0.000000e+000
			vertex -1.965946e+001 3.674990e+000 0.000000e+000
			vertex -1.675000e+001 2.051216e-015 0.000000e+000
		endloop
	endfacet
	facet normal 0.000000e+000 -0.000000e+000 -1.000000e+000
		outer loop
			vertex 1.965946e+001 3.674990e+000 0.000000e+000
			vertex 2.000000e+001 -2.449213e-015 0.000000e+000
			vertex 1.646480e+001 3.077804e+000 0.000000e+000
		endloop
	endfacet
	facet normal 0.000000e+000 0.000000e+000 -1.000000e+000
		outer loop
			vertex -1.561891e+001 6.050798e+000 0.000000e+000
			vertex -1.646480e+001 3.077804e+000 0.000000e+000
			vertex -1.965946e+001 3.674990e+000 0.000000e+000
		endloop
	endfacet
	facet normal 0.000000e+000 0.000000e+000 -1.000000e+000
		outer loop
			vertex 1.646480e+001 3.077804e+000 0.000000e+000
			vertex 1.561891e+001 6.050798e+000 0.000000e+000
			vertex 1.965946e+001 3.674990e+000 0.000000e+000
		endloop
	endfacet
	facet normal 0.000000e+000 0.000000e+000 -1.000000e+000
		outer loop
			vertex -1.965946e+001 3.674990e+000 0.000000e+000
			vertex -1.864944e+001 7.224833e+000 0.000000e+000
			vertex -1.561891e+001 6.050798e+000 0.000000e+000
		endloop
	endfacet
	facet normal 0.000000e+000 -0.000000e+000 -1.000000e+000
		outer loop
			vertex 1.864944e+001 7.224833e+000 0.000000e+000
			vertex 1.965946e+001 3.674990e+000 0.000000e+000
			vertex 1.561891e+001 6.050798e+000 0.000000e+000
		endloop
	endfacet
	facet normal 0.000000e+000 0.000000e+000 -1.000000e+000
		outer loop
			vertex -1.424114e+001 8.817739e+000 0.000000e+000
			vertex -1.561891e+001 6.050798e+000 0.000000e+000
			vertex -1.864944e+001 7.224833e+000 0.000000e+000
		endloop
	endfacet
	facet normal 0.000000e+000 0.000000e+000 -1.000000e+000
		outer loop
			vertex 1.561891e+001 6.050798e+000 0.000000e+000
			vertex 1.424114e+001 8.817739e+000 0.000000e+000
			vertex 1.864944e+001 7.224833e+000 0.000000e+000
		endloop
	endfacet
	facet normal 0.000000e+000 0.000000e+000 -1.000000e+000
		outer loop
			vertex -1.864944e+001 7.224833e+000 0.000000e+000
			vertex -1.700434e+001 1.052864e+001 0.000000e+000
			vertex -1.424114e+001 8.817739e+000 0.000000e+000
		endloop
	endfacet
	facet normal 0.000000e+000 -0.000000e+000 -1.000000e+000
		outer loop
			vertex 1.700434e+001 1.052864e+001 0.000000e+000
			vertex 1.864944e+001 7.224833e+000 0.000000e+000
			vertex 1.424114e+001 8.817739e+000 0.000000e+000
		endloop
	endfacet
	facet normal 0.000000e+000 0.000000e+000 -1.000000e+000
		outer loop
			vertex -1.237840e+001 1.128440e+001 0.000000e+000
			vertex -1.424114e+001 8.817739e+000 0.000000e+000
			vertex -1.700434e+001 1.052864e+001 0.000000e+000
		endloop
	endfacet
	facet normal 0.000000e+000 0.000000e+000 -1.000000e+000
		outer loop
			vertex 1.424114e+001 8.817739e+000 0.000000e+000
			vertex 1.237840e+001 1.128440e+001 0.000000e+000
			vertex 1.700434e+001 1.052864e+001 0.000000e+000
		endloop
	endfacet
	facet normal 0.000000e+000 0.000000e+000 -1.000000e+000
		outer loop
			vertex -1.478018e+001 1.347391e+001 0.000000e+000
			vertex -1.009413e+001 1.336679e+001 0.000000e+000
			vertex -1.237840e+001 1.128440e+001 0.000000e+000
		endloop
	endfacet
	facet normal 0.000000e+000 0.000000e+000 -1.000000e+000
		outer loop
			vertex -1.700434e+001 1.052864e+001 0.000000e+000
			vertex -1.478018e+001 1.347391e+001 0.000000e+000
			vertex -1.237840e+001 1.128440e+001 0.000000e+000
		endloop
	endfacet
	facet normal 0.000000e+000 0.000000e+000 -1.000000e+000
		outer loop
			vertex 1.700434e+001 1.052864e+001 0.000000e+000
			vertex 1.237840e+001 1.128440e+001 0.000000e+000
			vertex 1.009413e+001 1.336679e+001 0.000000e+000
		endloop
	endfacet
	facet normal 0.000000e+000 -0.000000e+000 -1.000000e+000
		outer loop
			vertex 1.478018e+001 1.347391e+001 0.000000e+000
			vertex 1.700434e+001 1.052864e+001 0.000000e+000
			vertex 1.009413e+001 1.336679e+001 0.000000e+000
		endloop
	endfacet
	facet normal 0.000000e+000 0.000000e+000 -1.000000e+000
		outer loop
			vertex -7.466117e+000 1.499399e+001 0.000000e+000
			vertex -1.009413e+001 1.336679e+001 0.000000e+000
			vertex -1.478018e+001 1.347391e+001 0.000000e+000
		endloop
	endfacet
	facet normal 0.000000e+000 0.000000e+000 -1.000000e+000
		outer loop
			vertex 1.009413e+001 1.336679e+001 0.000000e+000
			vertex 7.466117e+000 1.499399e+001 0.000000e+000
			vertex 1.478018e+001 1.347391e+001 0.000000e+000
		endloop
	endfacet
	facet normal 0.000000e+000 0.000000e+000 -1.000000e+000
		outer loop
			vertex -1.478018e+001 1.347391e+001 0.000000e+000
			vertex -1.205269e+001 1.596035e+001 0.000000e+000
			vertex -7.466117e+000 1.499399e+001 0.000000e+000
		endloop
	endfacet
	facet normal 0.000000e+000 -0.000000e+000 -1.000000e+000
		outer loop
			vertex 1.205269e+001 1.596035e+001 0.000000e+000
			vertex 1.478018e+001 1.347391e+001 0.000000e+000
			vertex 7.466117e+000 1.499399e+001 0.000000e+000
		endloop
	endfacet
	facet normal 0.000000e+000 0.000000e+000 -1.000000e+000
		outer loop
			vertex -4.583855e+000 1.611058e+001 0.000000e+000
			vertex -7.466117e+000 1.499399e+001 0.000000e+000
			vertex -1.205269e+001 1.596035e+001 0.000000e+000
		endloop
	endfacet
	facet normal 0.000000e+000 0.000000e+000 -1.000000e+000
		outer loop
			vertex 7.466117e+000 1.499399e+001 0.000000e+000
			vertex 4.583855e+000 1.611058e+001 0.000000e+000
			vertex 1.205269e+001 1.596035e+001 0.000000e+000
		endloop
	endfacet
	facet normal 0.000000e+000 0.000000e+000 -1.000000e+000
		outer loop
			vertex -8.914767e+000 1.790327e+001 0.000000e+000
			vertex 1.545495e+000 1.667855e+001 0.000000e+000
			vertex -1.545495e+000 1.667855e+001 0.000000e+000
		endloop
	endfacet
	facet normal 0.000000e+000 0.000000e+000 -1.000000e+000
		outer loop
			vertex -8.914767e+000 1.790327e+001 0.000000e+000
			vertex -1.545495e+000 1.667855e+001 0.000000e+000
			vertex -4.583855e+000 1.611058e+001 0.000000e+000
		endloop
	endfacet
	facet normal 0.000000e+000 0.000000e+000 -1.000000e+000
		outer loop
			vertex -1.205269e+001 1.596035e+001 0.000000e+000
			vertex -8.914767e+000 1.790327e+001 0.000000e+000
			vertex -4.583855e+000 1.611058e+001 0.000000e+000
		endloop
	endfacet
	facet normal 0.000000e+000 0.000000e+000 -1.000000e+000
		outer loop
			vertex 1.205269e+001 1.596035e+001 0.000000e+000
			vertex 4.583855e+000 1.611058e+001 0.000000e+000
			vertex 1.545495e+000 1.667855e+001 0.000000e+000
		endloop
	endfacet
	facet normal 0.000000e+000 0.000000e+000 -1.000000e+000
		outer loop
			vertex 1.205269e+001 1.596035e+001 0.000000e+000
			vertex 1.545495e+000 1.667855e+001 0.000000e+000
			vertex -8.914767e+000 1.790327e+001 0.000000e+000
		endloop
	endfacet
	facet normal -0.000000e+000 -0.000000e+000 -1.000000e+000
		outer loop
			vertex 8.914767e+000 1.790327e+001 0.000000e+000
			vertex 1.205269e+001 1.596035e+001 0.000000e+000
			vertex -8.914767e+000 1.790327e+001 0.000000e+000
		endloop
	endfacet
	facet normal 0.000000e+000 0.000000e+000 -1.000000e+000
		outer loop
			vertex -8.914767e+000 1.790327e+001 0.000000e+000
			vertex -5.473260e+000 1.923651e+001 0.000000e+000
			vertex 8.914767e+000 1.790327e+001 0.000000e+000
		endloop
	endfacet
	facet normal -0.000000e+000 -0.000000e+000 -1.000000e+000
		outer loop
			vertex 5.473260e+000 1.923651e+001 0.000000e+000
			vertex 8.914767e+000 1.790327e+001 0.000000e+000
			vertex -5.473260e+000 1.923651e+001 0.000000e+000
		endloop
	endfacet
	facet normal 0.000000e+000 0.000000e+000 -1.000000e+000
		outer loop
			vertex -5.473260e+000 1.923651e+001 0.000000e+000
			vertex -1.845367e+000 1.991468e+001 0.000000e+000
			vertex 5.473260e+000 1.923651e+001 0.000000e+000
		endloop
	endfacet
	facet normal -0.000000e+000 -0.000000e+000 -1.000000e+000
		outer loop
			vertex 1.845367e+000 1.991468e+001 0.000000e+000
			vertex 5.473260e+000 1.923651e+001 0.000000e+000
			vertex -1.845367e+000 1.991468e+001 0.000000e+000
		endloop
	endfacet
	facet normal -0.000000e+000 0.000000e+000 1.000000e+000
		outer loop
			vertex -1.845367e+000 1.991468e+001 5.000000e+000
			vertex -5.473260e+000 1.923651e+001 5.000000e+000
			vertex 1.845367e+000 1.991468e+001 5.000000e+000
		endloop
	endfacet
	facet normal 0.000000e+000 0.000000e+000 1.000000e+000
		outer loop
			vertex 5.473260e+000 1.923651e+001 5.000000e+000
			vertex 1.845367e+000 1.991468e+001 5.000000e+000
			vertex -5.473260e+000 1.923651e+001 5.000000e+000
		endloop
	endfacet
	facet normal -0.000000e+000 0.000000e+000 1.000000e+000
		outer loop
			vertex -5.473260e+000 1.923651e+001 5.000000e+000
			vertex -8.914767e+000 1.790327e+001 5.000000e+000
			vertex 5.473260e+000 1.923651e+001 5.000000e+000
		endloop
	endfacet
	facet normal 0.000000e+000 0.000000e+000 1.000000e+000
		outer loop
			vertex 8.914767e+000 1.790327e+001 5.000000e+000
			vertex 5.473260e+000 1.923651e+001 5.000000e+000
			vertex -8.914767e+000 1.790327e+001 5.000000e+000
		endloop
	endfacet
	facet normal 0.000000e+000 0.000000e+000 1.000000e+000
		outer loop
			vertex -1.205269e+001 1.596035e+001 5.000000e+000
			vertex -4.583855e+000 1.611058e+001 5.000000e+000
			vertex -1.545495e+000 1.667855e+001 5.000000e+000
		endloop
	endfacet
	facet normal 0.000000e+000 0.000000e+000 1.000000e+000
		outer loop
			vertex -1.205269e+001 1.596035e+001 5.000000e+000
			vertex -1.545495e+000 1.667855e+001 5.000000e+000
			vertex 8.914767e+000 1.790327e+001 5.000000e+000
		endloop
	endfacet
	facet normal -0.000000e+000 0.000000e+000 1.000000e+000
		outer loop
			vertex -8.914767e+000 1.790327e+001 5.000000e+000
			vertex -1.205269e+001 1.596035e+001 5.000000e+000
			vertex 8.914767e+000 1.790327e+001 5.000000e+000
		endloop
	endfacet
	facet normal 0.000000e+000 0.000000e+000 1.000000e+000
		outer loop
			vertex 8.914767e+000 1.790327e+001 5.000000e+000
			vertex -1.545495e+000 1.667855e+001 5.000000e+000
			vertex 1.545495e+000 1.667855e+001 5.000000e+000
		endloop
	endfacet
	facet normal 0.000000e+000 0.000000e+000 1.000000e+000
		outer loop
			vertex 8.914767e+000 1.790327e+001 5.000000e+000
			vertex 1.545495e+000 1.667855e+001 5.000000e+000
			vertex 4.583855e+000 1.611058e+001 5.000000e+000
		endloop
	endfacet
	facet normal 0.000000e+000 0.000000e+000 1.000000e+000
		outer loop
			vertex 1.205269e+001 1.596035e+001 5.000000e+000
			vertex 8.914767e+000 1.790327e+001 5.000000e+000
			vertex 4.583855e+000 1.611058e+001 5.000000e+000
		endloop
	endfacet
	facet normal 0.000000e+000 -0.000000e+000 1.000000e+000
		outer loop
			vertex -7.466117e+000 1.499399e+001 5.000000e+000
			vertex -4.583855e+000 1.611058e+001 5.000000e+000
			vertex -1.205269e+001 1.596035e+001 5.000000e+000
		endloop
	endfacet
	facet normal 0.000000e+000 0.000000e+000 1.000000e+000
		outer loop
			vertex 4.583855e+000 1.611058e+001 5.000000e+000
			vertex 7.466117e+000 1.499399e+001 5.000000e+000
			vertex 1.205269e+001 1.596035e+001 5.000000e+000
		endloop
	endfacet
	facet normal 0.000000e+000 0.000000e+000 1.000000e+000
		outer loop
			vertex -1.205269e+001 1.596035e+001 5.000000e+000
			vertex -1.478018e+001 1.347391e+001 5.000000e+000
			vertex -7.466117e+000 1.499399e+001 5.000000e+000
		endloop
	endfacet
	facet normal 0.000000e+000 0.000000e+000 1.000000e+000
		outer loop
			vertex 1.478018e+001 1.347391e+001 5.000000e+000
			vertex 1.205269e+001 1.596035e+001 5.000000e+000
			vertex 7.466117e+000 1.499399e+001 5.000000e+000
		endloop
	endfacet
	facet normal 0.000000e+000 -0.000000e+000 1.000000e+000
		outer loop
			vertex -1.009413e+001 1.336679e+001 5.000000e+000
			vertex -7.466117e+000 1.499399e+001 5.000000e+000
			vertex -1.478018e+001 1.347391e+001 5.000000e+000
		endloop
	endfacet
	facet normal 0.000000e+000 0.000000e+000 1.000000e+000
		outer loop
			vertex 7.466117e+000 1.499399e+001 5.000000e+000
			vertex 1.009413e+001 1.336679e+001 5.000000e+000
			vertex 1.478018e+001 1.347391e+001 5.000000e+000
		endloop
	endfacet
	facet normal 0.000000e+000 0.000000e+000 1.000000e+000
		outer loop
			vertex -1.700434e+001 1.052864e+001 5.000000e+000
			vertex -1.237840e+001 1.128440e+001 5.000000e+000
			vertex -1.009413e+001 1.336679e+001 5.000000e+000
		endloop
	endfacet
	facet normal 0.000000e+000 0.000000e+000 1.000000e+000
		outer loop
			vertex -1.478018e+001 1.347391e+001 5.000000e+000
			vertex -1.700434e+001 1.052864e+001 5.000000e+000
			vertex -1.009413e+001 1.336679e+001 5.000000e+000
		endloop
	endfacet
	facet normal 0.000000e+000 0.000000e+000 1.000000e+000
		outer loop
			vertex 1.478018e+001 1.347391e+001 5.000000e+000
			vertex 1.009413e+001 1.336679e+001 5.000000e+000
			vertex 1.237840e+001 1.128440e+001 5.000000e+000
		endloop
	endfacet
	facet normal 0.000000e+000 0.000000e+000 1.000000e+000
		outer loop
			vertex 1.700434e+001 1.052864e+001 5.000000e+000
			vertex 1.478018e+001 1.347391e+001 5.000000e+000
			vertex 1.237840e+001 1.128440e+001 5.000000e+000
		endloop
	endfacet
	facet normal 0.000000e+000 -0.000000e+000 1.000000e+000
		outer loop
			vertex -1.424114e+001 8.817739e+000 5.000000e+000
			vertex -1.237840e+001 1.128440e+001 5.000000e+000
			vertex -1.700434e+001 1.052864e+001 5.000000e+000
		endloop
	endfacet
	facet normal 0.000000e+000 0.000000e+000 1.000000e+000
		outer loop
			vertex 1.237840e+001 1.128440e+001 5.000000e+000
			vertex 1.424114e+001 8.817739e+000 5.000000e+000
			vertex 1.700434e+001 1.052864e+001 5.000000e+000
		endloop
	endfacet
	facet normal 0.000000e+000 0.000000e+000 1.000000e+000
		outer loop
			vertex -1.700434e+001 1.052864e+001 5.000000e+000
			vertex -1.864944e+001 7.224833e+000 5.000000e+000
			vertex -1.424114e+001 8.817739e+000 5.000000e+000
		endloop
	endfacet
	facet normal 0.000000e+000 0.000000e+000 1.000000e+000
		outer loop
			vertex 1.864944e+001 7.224833e+000 5.000000e+000
			vertex 1.700434e+001 1.052864e+001 5.000000e+000
			vertex 1.424114e+001 8.817739e+000 5.000000e+000
		endloop
	endfacet
	facet normal 0.000000e+000 -0.000000e+000 1.000000e+000
		outer loop
			vertex -1.561891e+001 6.050798e+000 5.000000e+000
			vertex -1.424114e+001 8.817739e+000 5.000000e+000
			vertex -1.864944e+001 7.224833e+000 5.000000e+000
		endloop
	endfacet
	facet normal 0.000000e+000 0.000000e+000 1.000000e+000
		outer loop
			vertex 1.424114e+001 8.817739e+000 5.000000e+000
			vertex 1.561891e+001 6.050798e+000 5.000000e+000
			vertex 1.864944e+001 7.224833e+000 5.000000e+000
		endloop
	endfacet
	facet normal 0.000000e+000 0.000000e+000 1.000000e+000
		outer loop
			vertex -1.864944e+001 7.224833e+000 5.000000e+000
			vertex -1.965946e+001 3.674990e+000 5.000000e+000
			vertex -1.561891e+001 6.050798e+000 5.000000e+000
		endloop
	endfacet
	facet normal 0.000000e+000 0.000000e+000 1.000000e+000
		outer loop
			vertex 1.965946e+001 3.674990e+000 5.000000e+000
			vertex 1.864944e+001 7.224833e+000 5.000000e+000
			vertex 1.561891e+001 6.050798e+000 5.000000e+000
		endloop
	endfacet
	facet normal 0.000000e+000 -0.000000e+000 1.000000e+000
		outer loop
			vertex -1.646480e+001 3.077804e+000 5.000000e+000
			vertex -1.561891e+001 6.050798e+000 5.000000e+000
			vertex -1.965946e+001 3.674990e+000 5.000000e+000
		endloop
	endfacet
	facet normal 0.000000e+000 0.000000e+000 1.000000e+000
		outer loop
			vertex 1.561891e+001 6.050798e+000 5.000000e+000
			vertex 1.646480e+001 3.077804e+000 5.000000e+000
			vertex 1.965946e+001 3.674990e+000 5.000000e+000
		endloop
	endfacet
	facet normal 0.000000e+000 0.000000e+000 1.000000e+000
		outer loop
			vertex -1.965946e+001 3.674990e+000 5.000000e+000
			vertex -2.000000e+001 2.449213e-015 5.000000e+000
			vertex -1.646480e+001 3.077804e+000 5.000000e+000
		endloop
	endfacet
	facet normal 0.000000e+000 -0.000000e+000 1.000000e+000
		outer loop
			vertex -1.675000e+001 2.051216e-015 5.000000e+000
			vertex -1.646480e+001 3.077804e+000 5.000000e+000
			vertex -2.000000e+001 2.449213e-015 5.000000e+000
		endloop
	endfacet
	facet normal 0.000000e+000 0.000000e+000 1.000000e+000
		outer loop
			vertex 1.965946e+001 3.674990e+000 5.000000e+000
			vertex 1.646480e+001 3.077804e+000 5.000000e+000
			vertex 1.675000e+001 -2.051216e-015 5.000000e+000
		endloop
	endfacet
	facet normal 0.000000e+000 0.000000e+000 1.000000e+000
		outer loop
			vertex 2.000000e+001 -2.449213e-015 5.000000e+000
			vertex 1.965946e+001 3.674990e+000 5.000000e+000
			vertex 1.675000e+001 -2.051216e-015 5.000000e+000
		endloop
	endfacet
	facet normal 0.000000e+000 0.000000e+000 1.000000e+000
		outer loop
			vertex 1.675000e+001 -2.051216e-015 5.000000e+000
			vertex 1.646480e+001 -3.077804e+000 5.000000e+000
			vertex 2.000000e+001 -2.449213e-015 5.000000e+000
		endloop
	endfacet
	facet normal 0.000000e+000 0.000000e+000 1.000000e+000
		outer loop
			vertex -1.965946e+001 -3.674990e+000 5.000000e+000
			vertex -1.646480e+001 -3.077804e+000 5.000000e+000
			vertex -1.675000e+001 2.051216e-015 5.000000e+000
		endloop
	endfacet
	facet normal 0.000000e+000 0.000000e+000 1.000000e+000
		outer loop
			vertex -2.000000e+001 2.449213e-015 5.000000e+000
			vertex -1.965946e+001 -3.674990e+000 5.000000e+000
			vertex -1.675000e+001 2.051216e-015 5.000000e+000
		endloop
	endfacet
	facet normal 0.000000e+000 -0.000000e+000 1.000000e+000
		outer loop
			vertex 1.965946e+001 -3.674990e+000 5.000000e+000
			vertex 2.000000e+001 -2.449213e-015 5.000000e+000
			vertex 1.646480e+001 -3.077804e+000 5.000000e+000
		endloop
	endfacet
	facet normal 0.000000e+000 0.000000e+000 1.000000e+000
		outer loop
			vertex -1.561891e+001 -6.050798e+000 5.000000e+000
			vertex -1.646480e+001 -3.077804e+000 5.000000e+000
			vertex -1.965946e+001 -3.674990e+000 5.000000e+000
		endloop
	endfacet
	facet normal 0.000000e+000 0.000000e+000 1.000000e+000
		outer loop
			vertex 1.646480e+001 -3.077804e+000 5.000000e+000
			vertex 1.561891e+001 -6.050798e+000 5.000000e+000
			vertex 1.965946e+001 -3.674990e+000 5.000000e+000
		endloop
	endfacet
	facet normal 0.000000e+000 0.000000e+000 1.000000e+000
		outer loop
			vertex -1.965946e+001 -3.674990e+000 5.000000e+000
			vertex -1.864944e+001 -7.224833e+000 5.000000e+000
			vertex -1.561891e+001 -6.050798e+000 5.000000e+000
		endloop
	endfacet
	facet normal 0.000000e+000 -0.000000e+000 1.000000e+000
		outer loop
			vertex 1.864944e+001 -7.224833e+000 5.000000e+000
			vertex 1.965946e+001 -3.674990e+000 5.000000e+000
			vertex 1.561891e+001 -6.050798e+000 5.000000e+000
		endloop
	endfacet
	facet normal 0.000000e+000 0.000000e+000 1.000000e+000
		outer loop
			vertex -1.424114e+001 -8.817739e+000 5.000000e+000
			vertex -1.561891e+001 -6.050798e+000 5.000000e+000
			vertex -1.864944e+001 -7.224833e+000 5.000000e+000
		endloop
	endfacet
	facet normal 0.000000e+000 0.000000e+000 1.000000e+000
		outer loop
			vertex 1.561891e+001 -6.050798e+000 5.000000e+000
			vertex 1.424114e+001 -8.817739e+000 5.000000e+000
			vertex 1.864944e+001 -7.224833e+000 5.000000e+000
		endloop
	endfacet
	facet normal 0.000000e+000 0.000000e+000 1.000000e+000
		outer loop
			vertex -1.864944e+001 -7.224833e+000 5.000000e+000
			vertex -1.700434e+001 -1.052864e+001 5.000000e+000
			vertex -1.424114e+001 -8.817739e+000 5.000000e+000
		endloop
	endfacet
	facet normal 0.000000e+000 -0.000000e+000 1.000000e+000
		outer loop
			vertex 1.700434e+001 -1.052864e+001 5.000000e+000
			vertex 1.864944e+001 -7.224833e+000 5.000000e+000
			vertex 1.424114e+001 -8.817739e+000 5.000000e+000
		endloop
	endfacet
	facet normal 0.000000e+000 0.000000e+000 1.000000e+000
		outer loop
			vertex -1.237840e+001 -1.128440e+001 5.000000e+000
			vertex -1.424114e+001 -8.817739e+000 5.000000e+000
			vertex -1.700434e+001 -1.052864e+001 5.000000e+000
		endloop
	endfacet
	facet normal 0.000000e+000 0.000000e+000 1.000000e+000
		outer loop
			vertex 1.424114e+001 -8.817739e+000 5.000000e+000
			vertex 1.237840e+001 -1.128440e+001 5.000000e+000
			vertex 1.700434e+001 -1.052864e+001 5.000000e+000
		endloop
	endfacet
	facet normal 0.000000e+000 0.000000e+000 1.000000e+000
		outer loop
			vertex -1.478018e+001 -1.347391e+001 5.000000e+000
			vertex -1.009413e+001 -1.336679e+001 5.000000e+000
			vertex -1.237840e+001 -1.128440e+001 5.000000e+000
		endloop
	endfacet
	facet normal 0.000000e+000 0.000000e+000 1.000000e+000
		outer loop
			vertex -1.700434e+001 -1.052864e+001 5.000000e+000
			vertex -1.478018e+001 -1.347391e+001 5.000000e+000
			vertex -1.237840e+001 -1.128440e+001 5.000000e+000
		endloop
	endfacet
	facet normal 0.000000e+000 0.000000e+000 1.000000e+000
		outer loop
			vertex 1.700434e+001 -1.052864e+001 5.000000e+000
			vertex 1.237840e+001 -1.128440e+001 5.000000e+000
			vertex 1.009413e+001 -1.336679e+001 5.000000e+000
		endloop
	endfacet
	facet normal 0.000000e+000 -0.000000e+000 1.000000e+000
		outer loop
			vertex 1.478018e+001 -1.347391e+001 5.000000e+000
			vertex 1.700434e+001 -1.052864e+001 5.000000e+000
			vertex 1.009413e+001 -1.336679e+001 5.000000e+000
		endloop
	endfacet
	facet normal 0.000000e+000 0.000000e+000 1.000000e+000
		outer loop
			vertex -7.466117e+000 -1.499399e+001 5.000000e+000
			vertex -1.009413e+001 -1.336679e+001 5.000000e+000
			vertex -1.478018e+001 -1.347391e+001 5.000000e+000
		endloop
	endfacet
	facet normal 0.000000e+000 0.000000e+000 1.000000e+000
		outer loop
			vertex 1.009413e+001 -1.336679e+001 5.000000e+000
			vertex 7.466117e+000 -1.499399e+001 5.000000e+000
			vertex 1.478018e+001 -1.347391e+001 5.000000e+000
		endloop
	endfacet
	facet normal 0.000000e+000 0.000000e+000 1.000000e+000
		outer loop
			vertex -1.478018e+001 -1.347391e+001 5.000000e+000
			vertex -1.205269e+001 -1.596035e+001 5.000000e+000
			vertex -7.466117e+000 -1.499399e+001 5.000000e+000
		endloop
	endfacet
	facet normal 0.000000e+000 -0.000000e+000 1.000000e+000
		outer loop
			vertex 1.205269e+001 -1.596035e+001 5.000000e+000
			vertex 1.478018e+001 -1.347391e+001 5.000000e+000
			vertex 7.466117e+000 -1.499399e+001 5.000000e+000
		endloop
	endfacet
	facet normal 0.000000e+000 0.000000e+000 1.000000e+000
		outer loop
			vertex -4.583855e+000 -1.611058e+001 5.000000e+000
			vertex -7.466117e+000 -1.499399e+001 5.000000e+000
			vertex -1.205269e+001 -1.596035e+001 5.000000e+000
		endloop
	endfacet
	facet normal 0.000000e+000 0.000000e+000 1.000000e+000
		outer loop
			vertex 7.466117e+000 -1.499399e+001 5.000000e+000
			vertex 4.583855e+000 -1.611058e+001 5.000000e+000
			vertex 1.205269e+001 -1.596035e+001 5.000000e+000
		endloop
	endfacet
	facet normal 0.000000e+000 0.000000e+000 1.000000e+000
		outer loop
			vertex -8.914767e+000 -1.790327e+001 5.000000e+000
			vertex 1.545495e+000 -1.667855e+001 5.000000e+000
			vertex -1.545495e+000 -1.667855e+001 5.000000e+000
		endloop
	endfacet
	facet normal 0.000000e+000 0.000000e+000 1.000000e+000
		outer loop
			vertex -8.914767e+000 -1.790327e+001 5.000000e+000
			vertex -1.545495e+000 -1.667855e+001 5.000000e+000
			vertex -4.583855e+000 -1.611058e+001 5.000000e+000
		endloop
	endfacet
	facet normal 0.000000e+000 0.000000e+000 1.000000e+000
		outer loop
			vertex -1.205269e+001 -1.596035e+001 5.000000e+000
			vertex -8.914767e+000 -1.790327e+001 5.000000e+000
			vertex -4.583855e+000 -1.611058e+001 5.000000e+000
		endloop
	endfacet
	facet normal 0.000000e+000 0.000000e+000 1.000000e+000
		outer loop
			vertex 1.205269e+001 -1.596035e+001 5.000000e+000
			vertex 4.583855e+000 -1.611058e+001 5.000000e+000
			vertex 1.545495e+000 -1.667855e+001 5.000000e+000
		endloop
	endfacet
	facet normal 0.000000e+000 0.000000e+000 1.000000e+000
		outer loop
			vertex 1.205269e+001 -1.596035e+001 5.000000e+000
			vertex 1.545495e+000 -1.667855e+001 5.000000e+000
			vertex -8.914767e+000 -1.790327e+001 5.000000e+000
		endloop
	endfacet
	facet normal 0.000000e+000 -0.000000e+000 1.000000e+000
		outer loop
			vertex 8.914767e+000 -1.790327e+001 5.000000e+000
			vertex 1.205269e+001 -1.596035e+001 5.000000e+000
			vertex -8.914767e+000 -1.790327e+001 5.000000e+000
		endloop
	endfacet
	facet normal -0.000000e+000 0.000000e+000 1.000000e+000
		outer loop
			vertex -8.914767e+000 -1.790327e+001 5.000000e+000
			vertex -5.473260e+000 -1.923651e+001 5.000000e+000
			vertex 8.914767e+000 -1.790327e+001 5.000000e+000
		endloop
	endfacet
	facet normal 0.000000e+000 -0.000000e+000 1.000000e+000
		outer loop
			vertex 5.473260e+000 -1.923651e+001 5.000000e+000
			vertex 8.914767e+000 -1.790327e+001 5.000000e+000
			vertex -5.473260e+000 -1.923651e+001 5.000000e+000
		endloop
	endfacet
	facet normal -0.000000e+000 0.000000e+000 1.000000e+000
		outer loop
			vertex -5.473260e+000 -1.923651e+001 5.000000e+000
			vertex -1.845367e+000 -1.991468e+001 5.000000e+000
			vertex 5.473260e+000 -1.923651e+001 5.000000e+000
		endloop
	endfacet
	facet normal 0.000000e+000 -0.000000e+000 1.000000e+000
		outer loop
			vertex 1.845367e+000 -1.991468e+001 5.000000e+000
			vertex 5.473260e+000 -1.923651e+001 5.000000e+000
			vertex -1.845367e+000 -1.991468e+001 5.000000e+000
		endloop
	endfacet
	facet normal -9.957342e-001 9.226838e-002 0.000000e+000
		outer loop
			vertex -2.000000e+001 2.449213e-015 5.000000e+000
			vertex -1.965946e+001 3.674990e+000 5.000000e+000
			vertex -2.000000e+001 2.449213e-015 0.000000e+000
		endloop
	endfacet
	facet normal -9.957342e-001 9.226838e-002 0.000000e+000
		outer loop
			vertex -1.965946e+001 3.674990e+000 0.000000e+000
			vertex -2.000000e+001 2.449213e-015 0.000000e+000
			vertex -1.965946e+001 3.674990e+000 5.000000e+000
		endloop
	endfacet
	facet normal -9.618256e-001 2.736630e-001 0.000000e+000
		outer loop
			vertex -1.965946e+001 3.674990e+000 5.000000e+000
			vertex -1.864944e+001 7.224833e+000 5.000000e+000
			vertex -1.965946e+001 3.674990e+000 0.000000e+000
		endloop
	endfacet
	facet normal -9.618256e-001 2.736630e-001 0.000000e+000
		outer loop
			vertex -1.864944e+001 7.224833e+000 0.000000e+000
			vertex -1.965946e+001 3.674990e+000 0.000000e+000
			vertex -1.864944e+001 7.224833e+000 5.000000e+000
		endloop
	endfacet
	facet normal -8.951634e-001 4.457382e-001 0.000000e+000
		outer loop
			vertex -1.864944e+001 7.224833e+000 5.000000e+000
			vertex -1.700434e+001 1.052864e+001 5.000000e+000
			vertex -1.864944e+001 7.224833e+000 0.000000e+000
		endloop
	endfacet
	facet normal -8.951634e-001 4.457382e-001 0.000000e+000
		outer loop
			vertex -1.700434e+001 1.052864e+001 0.000000e+000
			vertex -1.864944e+001 7.224833e+000 0.000000e+000
			vertex -1.700434e+001 1.052864e+001 5.000000e+000
		endloop
	endfacet
	facet normal -7.980173e-001 6.026346e-001 0.000000e+000
		outer loop
			vertex -1.700434e+001 1.052864e+001 5.000000e+000
			vertex -1.478018e+001 1.347391e+001 5.000000e+000
			vertex -1.700434e+001 1.052864e+001 0.000000e+000
		endloop
	endfacet
	facet normal -7.980173e-001 6.026346e-001 0.000000e+000
		outer loop
			vertex -1.478018e+001 1.347391e+001 0.000000e+000
			vertex -1.700434e+001 1.052864e+001 0.000000e+000
			vertex -1.478018e+001 1.347391e+001 5.000000e+000
		endloop
	endfacet
	facet normal -6.736956e-001 7.390090e-001 0.000000e+000
		outer loop
			vertex -1.478018e+001 1.347391e+001 5.000000e+000
			vertex -1.205269e+001 1.596035e+001 5.000000e+000
			vertex -1.478018e+001 1.347391e+001 0.000000e+000
		endloop
	endfacet
	facet normal -6.736956e-001 7.390090e-001 0.000000e+000
		outer loop
			vertex -1.205269e+001 1.596035e+001 0.000000e+000
			vertex -1.478018e+001 1.347391e+001 0.000000e+000
			vertex -1.205269e+001 1.596035e+001 5.000000e+000
		endloop
	endfacet
	facet normal -5.264322e-001 8.502171e-001 0.000000e+000
		outer loop
			vertex -1.205269e+001 1.596035e+001 5.000000e+000
			vertex -8.914767e+000 1.790327e+001 5.000000e+000
			vertex -1.205269e+001 1.596035e+001 0.000000e+000
		endloop
	endfacet
	facet normal -5.264322e-001 8.502171e-001 0.000000e+000
		outer loop
			vertex -8.914767e+000 1.790327e+001 0.000000e+000
			vertex -1.205269e+001 1.596035e+001 0.000000e+000
			vertex -8.914767e+000 1.790327e+001 5.000000e+000
		endloop
	endfacet
	facet normal -3.612415e-001 9.324723e-001 0.000000e+000
		outer loop
			vertex -8.914767e+000 1.790327e+001 5.000000e+000
			vertex -5.473260e+000 1.923651e+001 5.000000e+000
			vertex -8.914767e+000 1.790327e+001 0.000000e+000
		endloop
	endfacet
	facet normal -3.612415e-001 9.324723e-001 0.000000e+000
		outer loop
			vertex -5.473260e+000 1.923651e+001 0.000000e+000
			vertex -8.914767e+000 1.790327e+001 0.000000e+000
			vertex -5.473260e+000 1.923651e+001 5.000000e+000
		endloop
	endfacet
	facet normal -1.837495e-001 9.829731e-001 0.000000e+000
		outer loop
			vertex -5.473260e+000 1.923651e+001 5.000000e+000
			vertex -1.845367e+000 1.991468e+001 5.000000e+000
			vertex -5.473260e+000 1.923651e+001 0.000000e+000
		endloop
	endfacet
	facet normal -1.837495e-001 9.829731e-001 0.000000e+000
		outer loop
			vertex -1.845367e+000 1.991468e+001 0.000000e+000
			vertex -5.473260e+000 1.923651e+001 0.000000e+000
			vertex -1.845367e+000 1.991468e+001 5.000000e+000
		endloop
	endfacet
	facet normal -0.000000e+000 1.000000e+000 0.000000e+000
		outer loop
			vertex -1.845367e+000 1.991468e+001 5.000000e+000
			vertex 1.845367e+000 1.991468e+001 5.000000e+000
			vertex -1.845367e+000 1.991468e+001 0.000000e+000
		endloop
	endfacet
	facet normal 0.000000e+000 1.000000e+000 -0.000000e+000
		outer loop
			vertex 1.845367e+000 1.991468e+001 0.000000e+000
			vertex -1.845367e+000 1.991468e+001 0.000000e+000
			vertex 1.845367e+000 1.991468e+001 5.000000e+000
		endloop
	endfacet
	facet normal 1.837495e-001 9.829731e-001 0.000000e+000
		outer loop
			vertex 1.845367e+000 1.991468e+001 5.000000e+000
			vertex 5.473260e+000 1.923651e+001 5.000000e+000
			vertex 1.845367e+000 1.991468e+001 0.000000e+000
		endloop
	endfacet
	facet normal 1.837495e-001 9.829731e-001 -0.000000e+000
		outer loop
			vertex 5.473260e+000 1.923651e+001 0.000000e+000
			vertex 1.845367e+000 1.991468e+001 0.000000e+000
			vertex 5.473260e+000 1.923651e+001 5.000000e+000
		endloop
	endfacet
	facet normal 3.612415e-001 9.324723e-001 0.000000e+000
		outer loop
			vertex 5.473260e+000 1.923651e+001 5.000000e+000
			vertex 8.914767e+000 1.790327e+001 5.000000e+000
			vertex 5.473260e+000 1.923651e+001 0.000000e+000
		endloop
	endfacet
	facet normal 3.612415e-001 9.324723e-001 -0.000000e+000
		outer loop
			vertex 8.914767e+000 1.790327e+001 0.000000e+000
			vertex 5.473260e+000 1.923651e+001 0.000000e+000
			vertex 8.914767e+000 1.790327e+001 5.000000e+000
		endloop
	endfacet
	facet normal 5.264322e-001 8.502171e-001 0.000000e+000
		outer loop
			vertex 8.914767e+000 1.790327e+001 5.000000e+000
			vertex 1.205269e+001 1.596035e+001 5.000000e+000
			vertex 8.914767e+000 1.790327e+001 0.000000e+000
		endloop
	endfacet
	facet normal 5.264322e-001 8.502171e-001 -0.000000e+000
		outer loop
			vertex 1.205269e+001 1.596035e+001 0.000000e+000
			vertex 8.914767e+000 1.790327e+001 0.000000e+000
			vertex 1.205269e+001 1.596035e+001 5.000000e+000
		endloop
	endfacet
	facet normal 6.736956e-001 7.390090e-001 0.000000e+000
		outer loop
			vertex 1.205269e+001 1.596035e+001 5.000000e+000
			vertex 1.478018e+001 1.347391e+001 5.000000e+000
			vertex 1.205269e+001 1.596035e+001 0.000000e+000
		endloop
	endfacet
	facet normal 6.736956e-001 7.390090e-001 -0.000000e+000
		outer loop
			vertex 1.478018e+001 1.347391e+001 0.000000e+000
			vertex 1.205269e+001 1.596035e+001 0.000000e+000
			vertex 1.478018e+001 1.347391e+001 5.000000e+000
		endloop
	endfacet
	facet normal 7.980173e-001 6.026346e-001 0.000000e+000
		outer loop
			vertex 1.478018e+001 1.347391e+001 5.000000e+000
			vertex 1.700434e+001 1.052864e+001 5.000000e+000
			vertex 1.478018e+001 1.347391e+001 0.000000e+000
		endloop
	endfacet
	facet normal 7.980173e-001 6.026346e-001 -0.000000e+000
		outer loop
			vertex 1.700434e+001 1.052864e+001 0.000000e+000
			vertex 1.478018e+001 1.347391e+001 0.000000e+000
			vertex 1.700434e+001 1.052864e+001 5.000000e+000
		endloop
	endfacet
	facet normal 8.951634e-001 4.457382e-001 0.000000e+000
		outer loop
			vertex 1.700434e+001 1.052864e+001 5.000000e+000
			vertex 1.864944e+001 7.224833e+000 5.000000e+000
			vertex 1.700434e+001 1.052864e+001 0.000000e+000
		endloop
	endfacet
	facet normal 8.951634e-001 4.457382e-001 -0.000000e+000
		outer loop
			vertex 1.864944e+001 7.224833e+000 0.000000e+000
			vertex 1.700434e+001 1.052864e+001 0.000000e+000
			vertex 1.864944e+001 7.224833e+000 5.000000e+000
		endloop
	endfacet
	facet normal 9.618256e-001 2.736630e-001 0.000000e+000
		outer loop
			vertex 1.864944e+001 7.224833e+000 5.000000e+000
			vertex 1.965946e+001 3.674990e+000 5.000000e+000
			vertex 1.864944e+001 7.224833e+000 0.000000e+000
		endloop
	endfacet
	facet normal 9.618256e-001 2.736630e-001 -0.000000e+000
		outer loop
			vertex 1.965946e+001 3.674990e+000 0.000000e+000
			vertex 1.864944e+001 7.224833e+000 0.000000e+000
			vertex 1.965946e+001 3.674990e+000 5.000000e+000
		endloop
	endfacet
	facet normal 9.957342e-001 9.226838e-002 0.000000e+000
		outer loop
			vertex 1.965946e+001 3.674990e+000 5.000000e+000
			vertex 2.000000e+001 -2.449213e-015 5.000000e+000
			vertex 1.965946e+001 3.674990e+000 0.000000e+000
		endloop
	endfacet
	facet normal 9.957342e-001 9.226838e-002 -0.000000e+000
		outer loop
			vertex 2.000000e+001 -2.449213e-015 0.000000e+000
			vertex 1.965946e+001 3.674990e+000 0.000000e+000
			vertex 2.000000e+001 -2.449213e-015 5.000000e+000
		endloop
	endfacet
	facet normal 9.957342e-001 -9.226838e-002 0.000000e+000
		outer loop
			vertex 2.000000e+001 -2.449213e-015 5.000000e+000
			vertex 1.965946e+001 -3.674990e+000 5.000000e+000
			vertex 2.000000e+001 -2.449213e-015 0.000000e+000
		endloop
	endfacet
	facet normal 9.957342e-001 -9.226838e-002 0.000000e+000
		outer loop
			vertex 1.965946e+001 -3.674990e+000 0.000000e+000
			vertex 2.000000e+001 -2.449213e-015 0.000000e+000
			vertex 1.965946e+001 -3.674990e+000 5.000000e+000
		endloop
	endfacet
	facet normal 9.618256e-001 -2.736630e-001 0.000000e+000
		outer loop
			vertex 1.965946e+001 -3.674990e+000 5.000000e+000
			vertex 1.864944e+001 -7.224833e+000 5.000000e+000
			vertex 1.965946e+001 -3.674990e+000 0.000000e+000
		endloop
	endfacet
	facet normal 9.618256e-001 -2.736630e-001 0.000000e+000
		outer loop
			vertex 1.864944e+001 -7.224833e+000 0.000000e+000
			vertex 1.965946e+001 -3.674990e+000 0.000000e+000
			vertex 1.864944e+001 -7.224833e+000 5.000000e+000
		endloop
	endfacet
	facet normal 8.951634e-001 -4.457382e-001 0.000000e+000
		outer loop
			vertex 1.864944e+001 -7.224833e+000 5.000000e+000
			vertex 1.700434e+001 -1.052864e+001 5.000000e+000
			vertex 1.864944e+001 -7.224833e+000 0.000000e+000
		endloop
	endfacet
	facet normal 8.951634e-001 -4.457382e-001 0.000000e+000
		outer loop
			vertex 1.700434e+001 -1.052864e+001 0.000000e+000
			vertex 1.864944e+001 -7.224833e+000 0.000000e+000
			vertex 1.700434e+001 -1.052864e+001 5.000000e+000
		endloop
	endfacet
	facet normal 7.980173e-001 -6.026346e-001 0.000000e+000
		outer loop
			vertex 1.700434e+001 -1.052864e+001 5.000000e+000
			vertex 1.478018e+001 -1.347391e+001 5.000000e+000
			vertex 1.700434e+001 -1.052864e+001 0.000000e+000
		endloop
	endfacet
	facet normal 7.980173e-001 -6.026346e-001 0.000000e+000
		outer loop
			vertex 1.478018e+001 -1.347391e+001 0.000000e+000
			vertex 1.700434e+001 -1.052864e+001 0.000000e+000
			vertex 1.478018e+001 -1.347391e+001 5.000000e+000
		endloop
	endfacet
	facet normal 6.736956e-001 -7.390090e-001 0.000000e+000
		outer loop
			vertex 1.478018e+001 -1.347391e+001 5.000000e+000
			vertex 1.205269e+001 -1.596035e+001 5.000000e+000
			vertex 1.478018e+001 -1.347391e+001 0.000000e+000
		endloop
	endfacet
	facet normal 6.736956e-001 -7.390090e-001 0.000000e+000
		outer loop
			vertex 1.205269e+001 -1.596035e+001 0.000000e+000
			vertex 1.478018e+001 -1.347391e+001 0.000000e+000
			vertex 1.205269e+001 -1.596035e+001 5.000000e+000
		endloop
	endfacet
	facet normal 5.264322e-001 -8.502171e-001 0.000000e+000
		outer loop
			vertex 1.205269e+001 -1.596035e+001 5.000000e+000
			vertex 8.914767e+000 -1.790327e+001 5.000000e+000
			vertex 1.205269e+001 -1.596035e+001 0.000000e+000
		endloop
	endfacet
	facet normal 5.264322e-001 -8.502171e-001 0.000000e+000
		outer loop
			vertex 8.914767e+000 -1.790327e+001 0.000000e+000
			vertex 1.205269e+001 -1.596035e+001 0.000000e+000
			vertex 8.914767e+000 -1.790327e+001 5.000000e+000
		endloop
	endfacet
	facet normal 3.612415e-001 -9.324723e-001 0.000000e+000
		outer loop
			vertex 8.914767e+000 -1.790327e+001 5.000000e+000
			vertex 5.473260e+000 -1.923651e+001 5.000000e+000
			vertex 8.914767e+000 -1.790327e+001 0.000000e+000
		endloop
	endfacet
	facet normal 3.612415e-001 -9.324723e-001 0.000000e+000
		outer loop
			vertex 5.473260e+000 -1.923651e+001 0.000000e+000
			vertex 8.914767e+000 -1.790327e+001 0.000000e+000
			vertex 5.473260e+000 -1.923651e+001 5.000000e+000
		endloop
	endfacet
	facet normal 1.837495e-001 -9.829731e-001 0.000000e+000
		outer loop
			vertex 5.473260e+000 -1.923651e+001 5.000000e+000
			vertex 1.845367e+000 -1.991468e+001 5.000000e+000
			vertex 5.473260e+000 -1.923651e+001 0.000000e+000
		endloop
	endfacet
	facet normal 1.837495e-001 -9.829731e-001 0.000000e+000
		outer loop
			vertex 1.845367e+000 -1.991468e+001 0.000000e+000
			vertex 5.473260e+000 -1.923651e+001 0.000000e+000
			vertex 1.845367e+000 -1.991468e+001 5.000000e+000
		endloop
	endfacet
	facet normal -0.000000e+000 -1.000000e+000 -0.000000e+000
		outer loop
			vertex 1.845367e+000 -1.991468e+001 5.000000e+000
			vertex -1.845367e+000 -1.991468e+001 5.000000e+000
			vertex 1.845367e+000 -1.991468e+001 0.000000e+000
		endloop
	endfacet
	facet normal 0.000000e+000 -1.000000e+000 0.000000e+000
		outer loop
			vertex -1.845367e+000 -1.991468e+001 0.000000e+000
			vertex 1.845367e+000 -1.991468e+001 0.000000e+000
			vertex -1.845367e+000 -1.991468e+001 5.000000e+000
		endloop
	endfacet
	facet normal -1.837495e-001 -9.829731e-001 -0.000000e+000
		outer loop
			vertex -1.845367e+000 -1.991468e+001 5.000000e+000
			vertex -5.473260e+000 -1.923651e+001 5.000000e+000
			vertex -1.845367e+000 -1.991468e+001 0.000000e+000
		endloop
	endfacet
	facet normal -1.837495e-001 -9.829731e-001 0.000000e+000
		outer loop
			vertex -5.473260e+000 -1.923651e+001 0.000000e+000
			vertex -1.845367e+000 -1.991468e+001 0.000000e+000
			vertex -5.473260e+000 -1.923651e+001 5.000000e+000
		endloop
	endfacet
	facet normal -3.612415e-001 -9.324723e-001 -0.000000e+000
		outer loop
			vertex -5.473260e+000 -1.923651e+001 5.000000e+000
			vertex -8.914767e+000 -1.790327e+001 5.000000e+000
			vertex -5.473260e+000 -1.923651e+001 0.000000e+000
		endloop
	endfacet
	facet normal -3.612415e-001 -9.324723e-001 0.000000e+000
		outer loop
			vertex -8.914767e+000 -1.790327e+001 0.000000e+000
			vertex -5.473260e+000 -1.923651e+001 0.000000e+000
			vertex -8.914767e+000 -1.790327e+001 5.000000e+000
		endloop
	endfacet
	facet normal -5.264322e-001 -8.502171e-001 -0.000000e+000
		outer loop
			vertex -8.914767e+000 -1.790327e+001 5.000000e+000
			vertex -1.205269e+001 -1.596035e+001 5.000000e+000
			vertex -8.914767e+000 -1.790327e+001 0.000000e+000
		endloop
	endfacet
	facet normal -5.264322e-001 -8.502171e-001 0.000000e+000
		outer loop
			vertex -1.205269e+001 -1.596035e+001 0.000000e+000
			vertex -8.914767e+000 -1.790327e+001 0.000000e+000
			vertex -1.205269e+001 -1.596035e+001 5.000000e+000
		endloop
	endfacet
	facet normal -6.736956e-001 -7.390090e-001 -0.000000e+000
		outer loop
			vertex -1.205269e+001 -1.596035e+001 5.000000e+000
			vertex -1.478018e+001 -1.347391e+001 5.000000e+000
			vertex -1.205269e+001 -1.596035e+001 0.000000e+000
		endloop
	endfacet
	facet normal -6.736956e-001 -7.390090e-001 0.000000e+000
		outer loop
			vertex -1.478018e+001 -1.347391e+001 0.000000e+000
			vertex -1.205269e+001 -1.596035e+001 0.000000e+000
			vertex -1.478018e+001 -1.347391e+001 5.000000e+000
		endloop
	endfacet
	facet normal -7.980173e-001 -6.026346e-001 -0.000000e+000
		outer loop
			vertex -1.478018e+001 -1.347391e+001 5.000000e+000
			vertex -1.700434e+001 -1.052864e+001 5.000000e+000
			vertex -1.478018e+001 -1.347391e+001 0.000000e+000
		endloop
	endfacet
	facet normal -7.980173e-001 -6.026346e-001 0.000000e+000
		outer loop
			vertex -1.700434e+001 -1.052864e+001 0.000000e+000
			vertex -1.478018e+001 -1.347391e+001 0.000000e+000
			vertex -1.700434e+001 -1.052864e+001 5.000000e+000
		endloop
	endfacet
	facet normal -8.951634e-001 -4.457382e-001 -0.000000e+000
		outer loop
			vertex -1.700434e+001 -1.052864e+001 5.000000e+000
			vertex -1.864944e+001 -7.224833e+000 5.000000e+000
			vertex -1.700434e+001 -1.052864e+001 0.000000e+000
		endloop
	endfacet
	facet normal -8.951634e-001 -4.457382e-001 0.000000e+000
		outer loop
			vertex -1.864944e+001 -7.224833e+000 0.000000e+000
			vertex -1.700434e+001 -1.052864e+001 0.000000e+000
			vertex -1.864944e+001 -7.224833e+000 5.000000e+000
		endloop
	endfacet
	facet normal -9.618256e-001 -2.736630e-001 -0.000000e+000
		outer loop
			vertex -1.864944e+001 -7.224833e+000 5.000000e+000
			vertex -1.965946e+001 -3.674990e+000 5.000000e+000
			vertex -1.864944e+001 -7.224833e+000 0.000000e+000
		endloop
	endfacet
	facet normal -9.618256e-001 -2.736630e-001 0.000000e+000
		outer loop
			vertex -1.965946e+001 -3.674990e+000 0.000000e+000
			vertex -1.864944e+001 -7.224833e+000 0.000000e+000
			vertex -1.965946e+001 -3.674990e+000 5.000000e+000
		endloop
	endfacet
	facet normal -9.957342e-001 -9.226838e-002 -0.000000e+000
		outer loop
			vertex -1.965946e+001 -3.674990e+000 5.000000e+000
			vertex -2.000000e+001 2.449213e-015 5.000000e+000
			vertex -1.965946e+001 -3.674990e+000 0.000000e+000
		endloop
	endfacet
	facet normal -9.957342e-001 -9.226838e-002 0.000000e+000
		outer loop
			vertex -2.000000e+001 2.449213e-015 0.000000e+000
			vertex -1.965946e+001 -3.674990e+000 0.000000e+000
			vertex -2.000000e+001 2.449213e-015 5.000000e+000
		endloop
	endfacet
	facet normal -9.957342e-001 9.226842e-002 0.000000e+000
		outer loop
			vertex 1.675000e+001 -2.051216e-015 0.000000e+000
			vertex 1.646480e+001 -3.077804e+000 0.000000e+000
			vertex 1.675000e+001 -2.051216e-015 5.000000e+000
		endloop
	endfacet
	facet normal -9.957342e-001 9.226842e-002 0.000000e+000
		outer loop
			vertex 1.646480e+001 -3.077804e+000 5.000000e+000
			vertex 1.675000e+001 -2.051216e-015 5.000000e+000
			vertex 1.646480e+001 -3.077804e+000 0.000000e+000
		endloop
	endfacet
	facet normal -9.618257e-001 2.736630e-001 0.000000e+000
		outer loop
			vertex 1.646480e+001 -3.077804e+000 0.000000e+000
			vertex 1.561891e+001 -6.050798e+000 0.000000e+000
			vertex 1.646480e+001 -3.077804e+000 5.000000e+000
		endloop
	endfacet
	facet normal -9.618257e-001 2.736630e-001 0.000000e+000
		outer loop
			vertex 1.561891e+001 -6.050798e+000 5.000000e+000
			vertex 1.646480e+001 -3.077804e+000 5.000000e+000
			vertex 1.561891e+001 -6.050798e+000 0.000000e+000
		endloop
	endfacet
	facet normal -8.951632e-001 4.457385e-001 0.000000e+000
		outer loop
			vertex 1.561891e+001 -6.050798e+000 0.000000e+000
			vertex 1.424114e+001 -8.817739e+000 0.000000e+000
			vertex 1.561891e+001 -6.050798e+000 5.000000e+000
		endloop
	endfacet
	facet normal -8.951632e-001 4.457385e-001 0.000000e+000
		outer loop
			vertex 1.424114e+001 -8.817739e+000 5.000000e+000
			vertex 1.561891e+001 -6.050798e+000 5.000000e+000
			vertex 1.424114e+001 -8.817739e+000 0.000000e+000
		endloop
	endfacet
	facet normal -7.980172e-001 6.026347e-001 0.000000e+000
		outer loop
			vertex 1.424114e+001 -8.817739e+000 0.000000e+000
			vertex 1.237840e+001 -1.128440e+001 0.000000e+000
			vertex 1.424114e+001 -8.817739e+000 5.000000e+000
		endloop
	endfacet
	facet normal -7.980172e-001 6.026347e-001 0.000000e+000
		outer loop
			vertex 1.237840e+001 -1.128440e+001 5.000000e+000
			vertex 1.424114e+001 -8.817739e+000 5.000000e+000
			vertex 1.237840e+001 -1.128440e+001 0.000000e+000
		endloop
	endfacet
	facet normal -6.736958e-001 7.390088e-001 0.000000e+000
		outer loop
			vertex 1.237840e+001 -1.128440e+001 0.000000e+000
			vertex 1.009413e+001 -1.336679e+001 0.000000e+000
			vertex 1.237840e+001 -1.128440e+001 5.000000e+000
		endloop
	endfacet
	facet normal -6.736958e-001 7.390088e-001 0.000000e+000
		outer loop
			vertex 1.009413e+001 -1.336679e+001 5.000000e+000
			vertex 1.237840e+001 -1.128440e+001 5.000000e+000
			vertex 1.009413e+001 -1.336679e+001 0.000000e+000
		endloop
	endfacet
	facet normal -5.264321e-001 8.502172e-001 0.000000e+000
		outer loop
			vertex 1.009413e+001 -1.336679e+001 0.000000e+000
			vertex 7.466117e+000 -1.499399e+001 0.000000e+000
			vertex 1.009413e+001 -1.336679e+001 5.000000e+000
		endloop
	endfacet
	facet normal -5.264321e-001 8.502172e-001 0.000000e+000
		outer loop
			vertex 7.466117e+000 -1.499399e+001 5.000000e+000
			vertex 1.009413e+001 -1.336679e+001 5.000000e+000
			vertex 7.466117e+000 -1.499399e+001 0.000000e+000
		endloop
	endfacet
	facet normal -3.612419e-001 9.324721e-001 0.000000e+000
		outer loop
			vertex 7.466117e+000 -1.499399e+001 0.000000e+000
			vertex 4.583855e+000 -1.611058e+001 0.000000e+000
			vertex 7.466117e+000 -1.499399e+001 5.000000e+000
		endloop
	endfacet
	facet normal -3.612419e-001 9.324721e-001 0.000000e+000
		outer loop
			vertex 4.583855e+000 -1.611058e+001 5.000000e+000
			vertex 7.466117e+000 -1.499399e+001 5.000000e+000
			vertex 4.583855e+000 -1.611058e+001 0.000000e+000
		endloop
	endfacet
	facet normal -1.837492e-001 9.829732e-001 0.000000e+000
		outer loop
			vertex 4.583855e+000 -1.611058e+001 0.000000e+000
			vertex 1.545495e+000 -1.667855e+001 0.000000e+000
			vertex 4.583855e+000 -1.611058e+001 5.000000e+000
		endloop
	endfacet
	facet normal -1.837492e-001 9.829732e-001 0.000000e+000
		outer loop
			vertex 1.545495e+000 -1.667855e+001 5.000000e+000
			vertex 4.583855e+000 -1.611058e+001 5.000000e+000
			vertex 1.545495e+000 -1.667855e+001 0.000000e+000
		endloop
	endfacet
	facet normal 0.000000e+000 1.000000e+000 -0.000000e+000
		outer loop
			vertex 1.545495e+000 -1.667855e+001 0.000000e+000
			vertex -1.545495e+000 -1.667855e+001 0.000000e+000
			vertex 1.545495e+000 -1.667855e+001 5.000000e+000
		endloop
	endfacet
	facet normal -0.000000e+000 1.000000e+000 0.000000e+000
		outer loop
			vertex -1.545495e+000 -1.667855e+001 5.000000e+000
			vertex 1.545495e+000 -1.667855e+001 5.000000e+000
			vertex -1.545495e+000 -1.667855e+001 0.000000e+000
		endloop
	endfacet
	facet normal 1.837492e-001 9.829732e-001 -0.000000e+000
		outer loop
			vertex -1.545495e+000 -1.667855e+001 0.000000e+000
			vertex -4.583855e+000 -1.611058e+001 0.000000e+000
			vertex -1.545495e+000 -1.667855e+001 5.000000e+000
		endloop
	endfacet
	facet normal 1.837492e-001 9.829732e-001 0.000000e+000
		outer loop
			vertex -4.583855e+000 -1.611058e+001 5.000000e+000
			vertex -1.545495e+000 -1.667855e+001 5.000000e+000
			vertex -4.583855e+000 -1.611058e+001 0.000000e+000
		endloop
	endfacet
	facet normal 3.612419e-001 9.324721e-001 -0.000000e+000
		outer loop
			vertex -4.583855e+000 -1.611058e+001 0.000000e+000
			vertex -7.466117e+000 -1.499399e+001 0.000000e+000
			vertex -4.583855e+000 -1.611058e+001 5.000000e+000
		endloop
	endfacet
	facet normal 3.612419e-001 9.324721e-001 0.000000e+000
		outer loop
			vertex -7.466117e+000 -1.499399e+001 5.000000e+000
			vertex -4.583855e+000 -1.611058e+001 5.000000e+000
			vertex -7.466117e+000 -1.499399e+001 0.000000e+000
		endloop
	endfacet
	facet normal 5.264321e-001 8.502172e-001 -0.000000e+000
		outer loop
			vertex -7.466117e+000 -1.499399e+001 0.000000e+000
			vertex -1.009413e+001 -1.336679e+001 0.000000e+000
			vertex -7.466117e+000 -1.499399e+001 5.000000e+000
		endloop
	endfacet
	facet normal 5.264321e-001 8.502172e-001 0.000000e+000
		outer loop
			vertex -1.009413e+001 -1.336679e+001 5.000000e+000
			vertex -7.466117e+000 -1.499399e+001 5.000000e+000
			vertex -1.009413e+001 -1.336679e+001 0.000000e+000
		endloop
	endfacet
	facet normal 6.736958e-001 7.390088e-001 -0.000000e+000
		outer loop
			vertex -1.009413e+001 -1.336679e+001 0.000000e+000
			vertex -1.237840e+001 -1.128440e+001 0.000000e+000
			vertex -1.009413e+001 -1.336679e+001 5.000000e+000
		endloop
	endfacet
	facet normal 6.736958e-001 7.390088e-001 0.000000e+000
		outer loop
			vertex -1.237840e+001 -1.128440e+001 5.000000e+000
			vertex -1.009413e+001 -1.336679e+001 5.000000e+000
			vertex -1.237840e+001 -1.128440e+001 0.000000e+000
		endloop
	endfacet
	facet normal 7.980172e-001 6.026347e-001 -0.000000e+000
		outer loop
			vertex -1.237840e+001 -1.128440e+001 0.000000e+000
			vertex -1.424114e+001 -8.817739e+000 0.000000e+000
			vertex -1.237840e+001 -1.128440e+001 5.000000e+000
		endloop
	endfacet
	facet normal 7.980172e-001 6.026347e-001 0.000000e+000
		outer loop
			vertex -1.424114e+001 -8.817739e+000 5.000000e+000
			vertex -1.237840e+001 -1.128440e+001 5.000000e+000
			vertex -1.424114e+001 -8.817739e+000 0.000000e+000
		endloop
	endfacet
	facet normal 8.951632e-001 4.457385e-001 -0.000000e+000
		outer loop
			vertex -1.424114e+001 -8.817739e+000 0.000000e+000
			vertex -1.561891e+001 -6.050798e+000 0.000000e+000
			vertex -1.424114e+001 -8.817739e+000 5.000000e+000
		endloop
	endfacet
	facet normal 8.951632e-001 4.457385e-001 0.000000e+000
		outer loop
			vertex -1.561891e+001 -6.050798e+000 5.000000e+000
			vertex -1.424114e+001 -8.817739e+000 5.000000e+000
			vertex -1.561891e+001 -6.050798e+000 0.000000e+000
		endloop
	endfacet
	facet normal 9.618257e-001 2.736630e-001 -0.000000e+000
		outer loop
			vertex -1.561891e+001 -6.050798e+000 0.000000e+000
			vertex -1.646480e+001 -3.077804e+000 0.000000e+000
			vertex -1.561891e+001 -6.050798e+000 5.000000e+000
		endloop
	endfacet
	facet normal 9.618257e-001 2.736630e-001 0.000000e+000
		outer loop
			vertex -1.646480e+001 -3.077804e+000 5.000000e+000
			vertex -1.561891e+001 -6.050798e+000 5.000000e+000
			vertex -1.646480e+001 -3.077804e+000 0.000000e+000
		endloop
	endfacet
	facet normal 9.957342e-001 9.226842e-002 -0.000000e+000
		outer loop
			vertex -1.646480e+001 -3.077804e+000 0.000000e+000
			vertex -1.675000e+001 2.051216e-015 0.000000e+000
			vertex -1.646480e+001 -3.077804e+000 5.000000e+000
		endloop
	endfacet
	facet normal 9.957342e-001 9.226842e-002 0.000000e+000
		outer loop
			vertex -1.675000e+001 2.051216e-015 5.000000e+000
			vertex -1.646480e+001 -3.077804e+000 5.000000e+000
			vertex -1.675000e+001 2.051216e-015 0.000000e+000
		endloop
	endfacet
	facet normal 9.957342e-001 -9.226842e-002 0.000000e+000
		outer loop
			vertex -1.675000e+001 2.051216e-015 0.000000e+000
			vertex -1.646480e+001 3.077804e+000 0.000000e+000
			vertex -1.675000e+001 2.051216e-015 5.000000e+000
		endloop
	endfacet
	facet normal 9.957342e-001 -9.226842e-002 0.000000e+000
		outer loop
			vertex -1.646480e+001 3.077804e+000 5.000000e+000
			vertex -1.675000e+001 2.051216e-015 5.000000e+000
			vertex -1.646480e+001 3.077804e+000 0.000000e+000
		endloop
	endfacet
	facet normal 9.618257e-001 -2.736630e-001 0.000000e+000
		outer loop
			vertex -1.646480e+001 3.077804e+000 0.000000e+000
			vertex -1.561891e+001 6.050798e+000 0.000000e+000
			vertex -1.646480e+001 3.077804e+000 5.000000e+000
		endloop
	endfacet
	facet normal 9.618257e-001 -2.736630e-001 0.000000e+000
		outer loop
			vertex -1.561891e+001 6.050798e+000 5.000000e+000
			vertex -1.646480e+001 3.077804e+000 5.000000e+000
			vertex -1.561891e+001 6.050798e+000 0.000000e+000
		endloop
	endfacet
	facet normal 8.951632e-001 -4.457385e-001 0.000000e+000
		outer loop
			vertex -1.561891e+001 6.050798e+000 0.000000e+000
			vertex -1.424114e+001 8.817739e+000 0.000000e+000
			vertex -1.561891e+001 6.050798e+000 5.000000e+000
		endloop
	endfacet
	facet normal 8.951632e-001 -4.457385e-001 0.000000e+000
		outer loop
			vertex -1.424114e+001 8.817739e+000 5.000000e+000
			vertex -1.561891e+001 6.050798e+000 5.000000e+000
			vertex -1.424114e+001 8.817739e+000 0.000000e+000
		endloop
	endfacet
	facet normal 7.980172e-001 -6.026347e-001 0.000000e+000
		outer loop
			vertex -1.424114e+001 8.817739e+000 0.000000e+000
			vertex -1.237840e+001 1.128440e+001 0.000000e+000
			vertex -1.424114e+001 8.817739e+000 5.000000e+000
		endloop
	endfacet
	facet normal 7.980172e-001 -6.026347e-001 0.000000e+000
		outer loop
			vertex -1.237840e+001 1.128440e+001 5.000000e+000
			vertex -1.424114e+001 8.817739e+000 5.000000e+000
			vertex -1.237840e+001 1.128440e+001 0.000000e+000
		endloop
	endfacet
	facet normal 6.736958e-001 -7.390088e-001 0.000000e+000
		outer loop
			vertex -1.237840e+001 1.128440e+001 0.000000e+000
			vertex -1.009413e+001 1.336679e+001 0.000000e+000
			vertex -1.237840e+001 1.128440e+001 5.000000e+000
		endloop
	endfacet
	facet normal 6.736958e-001 -7.390088e-001 0.000000e+000
		outer loop
			vertex -1.009413e+001 1.336679e+001 5.000000e+000
			vertex -1.237840e+001 1.128440e+001 5.000000e+000
			vertex -1.009413e+001 1.336679e+001 0.000000e+000
		endloop
	endfacet
	facet normal 5.264321e-001 -8.502172e-001 0.000000e+000
		outer loop
			vertex -1.009413e+001 1.336679e+001 0.000000e+000
			vertex -7.466117e+000 1.499399e+001 0.000000e+000
			vertex -1.009413e+001 1.336679e+001 5.000000e+000
		endloop
	endfacet
	facet normal 5.264321e-001 -8.502172e-001 0.000000e+000
		outer loop
			vertex -7.466117e+000 1.499399e+001 5.000000e+000
			vertex -1.009413e+001 1.336679e+001 5.000000e+000
			vertex -7.466117e+000 1.499399e+001 0.000000e+000
		endloop
	endfacet
	facet normal 3.612419e-001 -9.324721e-001 0.000000e+000
		outer loop
			vertex -7.466117e+000 1.499399e+001 0.000000e+000
			vertex -4.583855e+000 1.611058e+001 0.000000e+000
			vertex -7.466117e+000 1.499399e+001 5.000000e+000
		endloop
	endfacet
	facet normal 3.612419e-001 -9.324721e-001 0.000000e+000
		outer loop
			vertex -4.583855e+000 1.611058e+001 5.000000e+000
			vertex -7.466117e+000 1.499399e+001 5.000000e+000
			vertex -4.583855e+000 1.611058e+001 0.000000e+000
		endloop
	endfacet
	facet normal 1.837492e-001 -9.829732e-001 0.000000e+000
		outer loop
			vertex -4.583855e+000 1.611058e+001 0.000000e+000
			vertex -1.545495e+000 1.667855e+001 0.000000e+000
			vertex -4.583855e+000 1.611058e+001 5.000000e+000
		endloop
	endfacet
	facet normal 1.837492e-001 -9.829732e-001 0.000000e+000
		outer loop
			vertex -1.545495e+000 1.667855e+001 5.000000e+000
			vertex -4.583855e+000 1.611058e+001 5.000000e+000
			vertex -1.545495e+000 1.667855e+001 0.000000e+000
		endloop
	endfacet
	facet normal 0.000000e+000 -1.000000e+000 0.000000e+000
		outer loop
			vertex -1.545495e+000 1.667855e+001 0.000000e+000
			vertex 1.545495e+000 1.667855e+001 0.000000e+000
			vertex -1.545495e+000 1.667855e+001 5.000000e+000
		endloop
	endfacet
	facet normal -0.000000e+000 -1.000000e+000 -0.000000e+000
		outer loop
			vertex 1.545495e+000 1.667855e+001 5.000000e+000
			vertex -1.545495e+000 1.667855e+001 5.000000e+000
			vertex 1.545495e+000 1.667855e+001 0.000000e+000
		endloop
	endfacet
	facet normal -1.837492e-001 -9.829732e-001 0.000000e+000
		outer loop
			vertex 1.545495e+000 1.667855e+001 0.000000e+000
			vertex 4.583855e+000 1.611058e+001 0.000000e+000
			vertex 1.545495e+000 1.667855e+001 5.000000e+000
		endloop
	endfacet
	facet normal -1.837492e-001 -9.829732e-001 -0.000000e+000
		outer loop
			vertex 4.583855e+000 1.611058e+001 5.000000e+000
			vertex 1.545495e+000 1.667855e+001 5.000000e+000
			vertex 4.583855e+000 1.611058e+001 0.000000e+000
		endloop
	endfacet
	facet normal -3.612419e-001 -9.324721e-001 0.000000e+000
		outer loop
			vertex 4.583855e+000 1.611058e+001 0.000000e+000
			vertex 7.466117e+000 1.499399e+001 0.000000e+000
			vertex 4.583855e+000 1.611058e+001 5.000000e+000
		endloop
	endfacet
	facet normal -3.612419e-001 -9.324721e-001 -0.000000e+000
		outer loop
			vertex 7.466117e+000 1.499399e+001 5.000000e+000
			vertex 4.583855e+000 1.611058e+001 5.000000e+000
			vertex 7.466117e+000 1.499399e+001 0.000000e+000
		endloop
	endfacet
	facet normal -5.264321e-001 -8.502172e-001 0.000000e+000
		outer loop
			vertex 7.466117e+000 1.499399e+001 0.000000e+000
			vertex 1.009413e+001 1.336679e+001 0.000000e+000
			vertex 7.466117e+000 1.499399e+001 5.000000e+000
		endloop
	endfacet
	facet normal -5.264321e-001 -8.502172e-001 -0.000000e+000
		outer loop
			vertex 1.009413e+001 1.336679e+001 5.000000e+000
			vertex 7.466117e+000 1.499399e+001 5.000000e+000
			vertex 1.009413e+001 1.336679e+001 0.000000e+000
		endloop
	endfacet
	facet normal -6.736958e-001 -7.390088e-001 0.000000e+000
		outer loop
			vertex 1.009413e+001 1.336679e+001 0.000000e+000
			vertex 1.237840e+001 1.128440e+001 0.000000e+000
			vertex 1.009413e+001 1.336679e+001 5.000000e+000
		endloop
	endfacet
	facet normal -6.736958e-001 -7.390088e-001 -0.000000e+000
		outer loop
			vertex 1.237840e+001 1.128440e+001 5.000000e+000
			vertex 1.009413e+001 1.336679e+001 5.000000e+000
			vertex 1.237840e+001 1.128440e+001 0.000000e+000
		endloop
	endfacet
	facet normal -7.980172e-001 -6.026347e-001 0.000000e+000
		outer loop
			vertex 1.237840e+001 1.128440e+001 0.000000e+000
			vertex 1.424114e+001 8.817739e+000 0.000000e+000
			vertex 1.237840e+001 1.128440e+001 5.000000e+000
		endloop
	endfacet
	facet normal -7.980172e-001 -6.026347e-001 -0.000000e+000
		outer loop
			vertex 1.424114e+001 8.817739e+000 5.000000e+000
			vertex 1.237840e+001 1.128440e+001 5.000000e+000
			vertex 1.424114e+001 8.817739e+000 0.000000e+000
		endloop
	endfacet
	facet normal -8.951632e-001 -4.457385e-001 0.000000e+000
		outer loop
			vertex 1.424114e+001 8.817739e+000 0.000000e+000
			vertex 1.561891e+001 6.050798e+000 0.000000e+000
			vertex 1.424114e+001 8.817739e+000 5.000000e+000
		endloop
	endfacet
	facet normal -8.951632e-001 -4.457385e-001 -0.000000e+000
		outer loop
			vertex 1.561891e+001 6.050798e+000 5.000000e+000
			vertex 1.424114e+001 8.817739e+000 5.000000e+000
			vertex 1.561891e+001 6.050798e+000 0.000000e+000
		endloop
	endfacet
	facet normal -9.618257e-001 -2.736630e-001 0.000000e+000
		outer loop
			vertex 1.561891e+001 6.050798e+000 0.000000e+000
			vertex 1.646480e+001 3.077804e+000 0.000000e+000
			vertex 1.561891e+001 6.050798e+000 5.000000e+000
		endloop
	endfacet
	facet normal -9.618257e-001 -2.736630e-001 -0.000000e+000
		outer loop
			vertex 1.646480e+001 3.077804e+000 5.000000e+000
			vertex 1.561891e+001 6.050798e+000 5.000000e+000
			vertex 1.646480e+001 3.077804e+000 0.000000e+000
		endloop
	endfacet
	facet normal -9.957342e-001 -9.226842e-002 0.000000e+000
		outer loop
			vertex 1.646480e+001 3.077804e+000 0.000000e+000
			vertex 1.675000e+001 -2.051216e-015 0.000000e+000
			vertex 1.646480e+001 3.077804e+000 5.000000e+000
		endloop
	endfacet
	facet normal -9.957342e-001 -9.226842e-002 -0.000000e+000
		outer loop
			vertex 1.675000e+001 -2.051216e-015 5.000000e+000
			vertex 1.646480e+001 3.077804e+000 5.000000e+000
			vertex 1.675000e+001 -2.051216e-015 0.000000e+000
		endloop
	endfacet
endsolid
