<?xml version="1.0" standalone="no"?>
<!DOCTYPE svg PUBLIC "-//W3C//DTD SVG 1.1//EN"
  "http://www.w3.org/Graphics/SVG/1.1/DTD/svg11.dtd">
<svg width="49mm" height="49mm" viewBox="-24.5 -24.5 49 49" xmlns="http://www.w3.org/2000/svg" version="1.1">
	<title>svgOutput</title>
	<desc>made with tinkercad</desc>
<path d="M -22.08300018310547 8.036999702453613 L -23.14299964904785 4.080999851226807 L -23.5 4.440892164675075e-17 L -23.14299964904785 -4.080999851226807 L -22.08300018310547 -8.036999702453613 L -20.351999282836914 -11.75 L -18.00200080871582 -15.105999946594238 L -15.105999946594238 -18.00200080871582 L -11.75 -20.351999282836914 L -8.036999702453613 -22.08300018310547 L -4.080999851226807 -23.14299964904785 L 0 -23.5 L 4.080999851226807 -23.14299964904785 L 8.036999702453613 -22.08300018310547 L 11.75 -20.351999282836914 L 15.105999946594238 -18.00200080871582 L 18.00200080871582 -15.105999946594238 L 20.351999282836914 -11.75 L 22.08300018310547 -8.036999702453613 L 23.14299964904785 -4.080999851226807 L 23.5 4.440892164675075e-17 L 23.14299964904785 4.080999851226807 L 22.08300018310547 8.036999702453613 L 20.351999282836914 11.75 L 18.00200080871582 15.105999946594238 L 15.105999946594238 18.00200080871582 L 11.75 20.351999282836914 L 8.036999702453613 22.08300018310547 L 4.080999851226807 23.14299964904785 L 0 23.5 L -4.080999851226807 23.14299964904785 L -8.036999702453613 22.08300018310547 L -11.75 20.351999282836914 L -15.105999946594238 18.00200080871582 L -18.00200080871582 15.105999946594238 L -20.351999282836914 11.75 L -22.08300018310547 8.036999702453613 z" fill="none" stroke="rgb(0,0,255)" stroke-width="0.01mm" />
</svg>