<?xml version="1.0" standalone="no"?>
<!DOCTYPE svg PUBLIC "-//W3C//DTD SVG 1.1//EN"
  "http://www.w3.org/Graphics/SVG/1.1/DTD/svg11.dtd">
<svg width="49mm" height="49mm" viewBox="-24.5 -24.5 49 49" xmlns="http://www.w3.org/2000/svg" version="1.1">
	<title>svgOutput</title>
	<desc>made with tinkercad</desc>
<path d="M -23.14299964904785 4.080999851226807 L -23.5 4.440892164675075e-17 L -23.391555786132812 -1.2396764755249023 L -23.14299964904785 -4.080999851226807 L -22.755159378051758 -5.528451442718506 L -22.08300018310547 -8.036999702453613 L -21.347963333129883 -9.613655090332031 L -20.351999282836914 -11.75 L -19.212839126586914 -13.37681770324707 L -18.00200080871582 -15.105999946594238 L -16.724000930786133 -16.384000778198242 L -16.429000854492188 -16.679000854492188 L -15.105999946594238 -18.00200080871582 L -11.75 -20.351999282836914 L -8.036999702453613 -22.08300018310547 L -4.080999851226807 -23.14299964904785 L 0 -23.5 L 4.080999851226807 -23.14299964904785 L 8.036999702453613 -22.08300018310547 L 11.75 -20.351999282836914 L 15.105999946594238 -18.00200080871582 L 16.429000854492188 -16.679000854492188 L 16.724000930786133 -16.384000778198242 L 18.00200080871582 -15.105999946594238 L 19.212839126586914 -13.37681770324707 L 20.351999282836914 -11.75 L 22.08300018310547 -8.036999702453613 L 23.14299964904785 -4.080999851226807 L 23.5 4.440892164675075e-17 L 23.391555786132812 1.2396764755249023 L 23.14299964904785 4.080999851226807 L 22.755159378051758 5.528451442718506 L 22.08300018310547 8.036999702453613 L 21.347963333129883 9.613655090332031 L 20.351999282836914 11.75 L 18.00200080871582 15.105999946594238 L 16.724000930786133 16.384000778198242 L 16.429000854492188 16.679000854492188 L 15.105999946594238 18.00200080871582 L 11.75 20.351999282836914 L 8.036999702453613 22.08300018310547 L 4.080999851226807 23.14299964904785 L 0 23.5 L -4.080999851226807 23.14299964904785 L -8.036999702453613 22.08300018310547 L -11.75 20.351999282836914 L -15.105999946594238 18.00200080871582 L -16.724000930786133 16.384000778198242 L -18.00200080871582 15.105999946594238 L -20.351999282836914 11.75 L -22.08300018310547 8.036999702453613 L -23.14299964904785 4.080999851226807 M 4.584000110626221 -16.111000061035156 L 3.123353958129883 -16.384000778198242 L 1.5449999570846558 -16.679000854492188 L 0 -16.679000854492188 L -1.5449999570846558 -16.679000854492188 L -3.123353958129883 -16.384000778198242 L -4.584000110626221 -16.111000061035156 L -7.466000080108643 -14.994000434875488 L -10.093999862670898 -13.366999626159668 L -12.378000259399414 -11.284000396728516 L -14.241000175476074 -8.817999839782715 L -15.619000434875488 -6.051000118255615 L -16.46500015258789 -3.078000068664551 L -16.75 4.440892164675075e-17 L -16.46500015258789 3.078000068664551 L -15.619000434875488 6.051000118255615 L -14.241000175476074 8.817999839782715 L -12.378000259399414 11.284000396728516 L -10.093999862670898 13.366999626159668 L -7.466000080108643 14.994000434875488 L -4.584000110626221 16.111000061035156 L -3.123353958129883 16.384000778198242 L -1.5449999570846558 16.679000854492188 L 0 16.679000854492188 L 1.5449999570846558 16.679000854492188 L 3.123353958129883 16.384000778198242 L 4.584000110626221 16.111000061035156 L 7.466000080108643 14.994000434875488 L 10.093999862670898 13.366999626159668 L 12.378000259399414 11.284000396728516 L 14.241000175476074 8.817999839782715 L 15.619000434875488 6.051000118255615 L 16.46500015258789 3.078000068664551 L 16.75 4.440892164675075e-17 L 16.46500015258789 -3.078000068664551 L 15.619000434875488 -6.051000118255615 L 14.241000175476074 -8.817999839782715 L 12.378000259399414 -11.284000396728516 L 10.093999862670898 -13.366999626159668 L 7.466000080108643 -14.994000434875488 L 4.584000110626221 -16.111000061035156 z" fill="none" stroke="rgb(0,0,255)" stroke-width="0.01mm" />
</svg>