%
M48
M72
T01C0.03200
T02C0.04000
T03C0.04370
%
T01
X71300Y40237
X71300Y55237
X81300Y55237
X91300Y55237
X101300Y55237
X101300Y40237
X106300Y40237
X106300Y25237
X126300Y25237
X136300Y40237
X146300Y40237
X156300Y55237
X166300Y55237
X176300Y55237
X186300Y55237
X166300Y40237
X132363Y65237
X122363Y65237
X101300Y85237
X91300Y85237
X81300Y85237
X71300Y85237
X56694Y105631
X86694Y105631
X91300Y105237
X121300Y105237
X122363Y95237
X132363Y95237
X156300Y85237
X166300Y85237
X176300Y85237
X186300Y85237
X215788Y88662
X215788Y118662
X217914Y43623
X217914Y13623
T02
X25237Y43741
X25237Y53741
X25237Y63741
X25237Y73741
X25119Y91851
X25119Y101851
X55040Y123898
X55040Y143898
X127363Y129174
X147363Y129174
X173426Y115237
X193426Y115237
X241300Y110237
X241300Y100237
X241300Y79174
X241300Y69174
X241300Y59174
X241300Y39174
X241300Y29174
X241300Y19174
X241300Y131300
X241300Y141300
T03
X215906Y140119
X215906Y130119
X217717Y65552
X217717Y55552
M30
