<?xml version="1.0" standalone="no"?>
<!DOCTYPE svg PUBLIC "-//W3C//DTD SVG 1.1//EN"
  "http://www.w3.org/Graphics/SVG/1.1/DTD/svg11.dtd">
<svg width="321.6600036621094mm" height="281.9739990234375mm" viewBox="-160.8300018310547 -140.98699951171875 321.6600036621094 281.9739990234375" xmlns="http://www.w3.org/2000/svg" version="1.1">
	<title>svgOutput</title>
	<desc>made with tinkercad</desc>
<path d="M 3.3310000896453857 139.01499938964844 L -1.6993483985434932e-13 138.5052490234375 L -5.836999893188477 137.61199951171875 L -14.890999794006348 135.6060028076172 L -23.79199981689453 133.00399780273438 L -29.075428009033203 131.07200622558594 L -32.50199890136719 129.81900024414062 L -40.981998443603516 126.06400299072266 L -49.194000244140625 121.75599670410156 L -57.10300064086914 116.91400146484375 L -64.67500305175781 111.55899810791016 L -71.875 105.71399688720703 L -78.6719970703125 99.40499877929688 L -85.03700256347656 92.66100311279297 L -90.94200134277344 85.50900268554688 L -96.35900115966797 77.98200225830078 L -101.26699829101562 70.11299896240234 L -103.71672821044922 65.53600311279297 L -105.64299774169922 61.9370002746582 L -109.46800231933594 53.487998962402344 L -112.72599792480469 44.80500030517578 L -115.4010009765625 35.92599868774414 L -117.48300170898438 26.88800048828125 L -118.96099853515625 17.732999801635742 L -119.83100128173828 8.5 L -120.45159149169922 8.5 L -121.7188720703125 8.5 L -123.66370391845703 8.5 L -126.34821319580078 8.5 L -129.83480834960938 8.5 L -131.07200622558594 8.5 L -159.8300018310547 8.5 L -159.4949951171875 4.440892164675075e-17 L -159.16000366210938 -8.5 L -131.07200622558594 -8.5 L -119.83100128173828 -8.5 L -118.96099853515625 -17.732999801635742 L -117.48300170898438 -26.88800048828125 L -115.4010009765625 -35.92599868774414 L -112.72599792480469 -44.80500030517578 L -109.46800231933594 -53.487998962402344 L -105.64299774169922 -61.9370002746582 L -103.71672821044922 -65.53600311279297 L -101.26699829101562 -70.11299896240234 L -96.35900115966797 -77.98200225830078 L -90.94200134277344 -85.50900268554688 L -85.03700256347656 -92.66000366210938 L -78.6719970703125 -99.40499877929688 L -71.875 -105.71399688720703 L -64.67500305175781 -111.55899810791016 L -57.10300064086914 -116.91400146484375 L -49.194000244140625 -121.75599670410156 L -40.981998443603516 -126.06400299072266 L -32.50199890136719 -129.81900024414062 L -29.075428009033203 -131.07200622558594 L -23.79199981689453 -133.00399780273438 L -14.890999794006348 -135.6060028076172 L -5.836999893188477 -137.61199951171875 L -1.6993483985434932e-13 -138.5052490234375 L 3.3310000896453857 -139.01499938964844 L 12.569999694824219 -139.80799865722656 L 21.843000411987305 -139.98699951171875 L 31.106000900268555 -139.55099487304688 L 40.32099914550781 -138.50399780273438 L 49.44599914550781 -136.8489990234375 L 58.441001892089844 -134.59300231933594 L 67.26699829101562 -131.74600219726562 L 68.96341705322266 -131.07200622558594 L 75.88500213623047 -128.32200622558594 L 84.25800323486328 -124.33399963378906 L 92.3489990234375 -119.8010025024414 L 100.12100219726562 -114.74199676513672 L 107.54199981689453 -109.18000030517578 L 114.5780029296875 -103.13899993896484 L 121.197998046875 -96.64399719238281 L 127.3740005493164 -89.72599792480469 L 131.07200622558594 -84.98698425292969 L 133.07899475097656 -82.41500091552734 L 138.28700256347656 -74.74099731445312 L 142.97500610351562 -66.73999786376953 L 147.12399291992188 -58.44499969482422 L 150.71400451660156 -49.89400100708008 L 153.7310028076172 -41.125 L 156.16000366210938 -32.17499923706055 L 157.99099731445312 -23.08300018310547 L 159.21600341796875 -13.890999794006348 L 159.8300018310547 -4.63700008392334 L 159.8300018310547 4.440892164675075e-17 L 159.8300018310547 4.63700008392334 L 159.21600341796875 13.890999794006348 L 157.99099731445312 23.08300018310547 L 156.16000366210938 32.17499923706055 L 153.7310028076172 41.125 L 150.71400451660156 49.89500045776367 L 147.12399291992188 58.44499969482422 L 142.97500610351562 66.73999786376953 L 138.28700256347656 74.74099731445312 L 133.07899475097656 82.41500091552734 L 131.07200622558594 84.98698425292969 L 127.3740005493164 89.72599792480469 L 121.197998046875 96.6449966430664 L 114.5780029296875 103.13899993896484 L 107.54199981689453 109.18000030517578 L 100.12100219726562 114.74199676513672 L 92.3489990234375 119.8010025024414 L 84.25800323486328 124.33399963378906 L 75.88500213623047 128.32200622558594 L 68.96543884277344 131.07200622558594 L 67.26699829101562 131.7469940185547 L 58.441001892089844 134.59300231933594 L 49.44599914550781 136.8489990234375 L 40.32099914550781 138.50399780273438 L 31.106000900268555 139.552001953125 L 21.843000411987305 139.98699951171875 L 12.569999694824219 139.80799865722656 L 3.3310000896453857 139.01499938964844 z" fill="none" stroke="rgb(0,0,255)" stroke-width="0.01mm" />
</svg>