solid generated by Pro/DESKTOP Version 8.0
	facet normal -0.000000e+000 0.000000e+000 -1.000000e+000
		outer loop
			vertex 7.224238e+001 1.238854e+001 0.000000e+000
			vertex 7.162838e+001 3.134936e+000 0.000000e+000
			vertex 7.224238e+001 2.166250e+001 0.000000e+000
		endloop
	endfacet
	facet normal 0.000000e+000 0.000000e+000 -1.000000e+000
		outer loop
			vertex 7.162838e+001 3.091610e+001 0.000000e+000
			vertex 7.224238e+001 2.166250e+001 0.000000e+000
			vertex 7.162838e+001 3.134936e+000 0.000000e+000
		endloop
	endfacet
	facet normal -0.000000e+000 0.000000e+000 -1.000000e+000
		outer loop
			vertex 7.162838e+001 3.134936e+000 0.000000e+000
			vertex 7.040309e+001 -6.057717e+000 0.000000e+000
			vertex 7.162838e+001 3.091610e+001 0.000000e+000
		endloop
	endfacet
	facet normal 0.000000e+000 0.000000e+000 -1.000000e+000
		outer loop
			vertex 7.040309e+001 4.010876e+001 0.000000e+000
			vertex 7.162838e+001 3.091610e+001 0.000000e+000
			vertex 7.040309e+001 -6.057717e+000 0.000000e+000
		endloop
	endfacet
	facet normal -0.000000e+000 0.000000e+000 -1.000000e+000
		outer loop
			vertex 7.040309e+001 -6.057717e+000 0.000000e+000
			vertex 6.857188e+001 -1.514908e+001 0.000000e+000
			vertex 7.040309e+001 4.010876e+001 0.000000e+000
		endloop
	endfacet
	facet normal 0.000000e+000 0.000000e+000 -1.000000e+000
		outer loop
			vertex 6.857188e+001 4.920012e+001 0.000000e+000
			vertex 7.040309e+001 4.010876e+001 0.000000e+000
			vertex 6.857188e+001 -1.514908e+001 0.000000e+000
		endloop
	endfacet
	facet normal -0.000000e+000 0.000000e+000 -1.000000e+000
		outer loop
			vertex 6.857188e+001 -1.514908e+001 0.000000e+000
			vertex 6.614278e+001 -2.409926e+001 0.000000e+000
			vertex 6.857188e+001 4.920012e+001 0.000000e+000
		endloop
	endfacet
	facet normal 0.000000e+000 0.000000e+000 -1.000000e+000
		outer loop
			vertex 6.614278e+001 5.815030e+001 0.000000e+000
			vertex 6.857188e+001 4.920012e+001 0.000000e+000
			vertex 6.614278e+001 -2.409926e+001 0.000000e+000
		endloop
	endfacet
	facet normal -0.000000e+000 0.000000e+000 -1.000000e+000
		outer loop
			vertex 6.614278e+001 -2.409926e+001 0.000000e+000
			vertex 6.312645e+001 -3.286898e+001 0.000000e+000
			vertex 6.614278e+001 5.815030e+001 0.000000e+000
		endloop
	endfacet
	facet normal 0.000000e+000 0.000000e+000 -1.000000e+000
		outer loop
			vertex 6.312645e+001 6.692002e+001 0.000000e+000
			vertex 6.614278e+001 5.815030e+001 0.000000e+000
			vertex 6.312645e+001 -3.286898e+001 0.000000e+000
		endloop
	endfacet
	facet normal -0.000000e+000 0.000000e+000 -1.000000e+000
		outer loop
			vertex 6.312645e+001 -3.286898e+001 0.000000e+000
			vertex 5.953613e+001 -4.141976e+001 0.000000e+000
			vertex 6.312645e+001 6.692002e+001 0.000000e+000
		endloop
	endfacet
	facet normal 0.000000e+000 0.000000e+000 -1.000000e+000
		outer loop
			vertex 5.953613e+001 7.547080e+001 0.000000e+000
			vertex 6.312645e+001 6.692002e+001 0.000000e+000
			vertex 5.953613e+001 -4.141976e+001 0.000000e+000
		endloop
	endfacet
	facet normal -0.000000e+000 0.000000e+000 -1.000000e+000
		outer loop
			vertex 5.953613e+001 -4.141976e+001 0.000000e+000
			vertex 5.538758e+001 -4.971407e+001 0.000000e+000
			vertex 5.953613e+001 7.547080e+001 0.000000e+000
		endloop
	endfacet
	facet normal 0.000000e+000 0.000000e+000 -1.000000e+000
		outer loop
			vertex 5.538758e+001 8.376511e+001 0.000000e+000
			vertex 5.953613e+001 7.547080e+001 0.000000e+000
			vertex 5.538758e+001 -4.971407e+001 0.000000e+000
		endloop
	endfacet
	facet normal -0.000000e+000 0.000000e+000 -1.000000e+000
		outer loop
			vertex 5.538758e+001 -4.971407e+001 0.000000e+000
			vertex 5.069898e+001 -5.771553e+001 0.000000e+000
			vertex 5.538758e+001 8.376511e+001 0.000000e+000
		endloop
	endfacet
	facet normal 0.000000e+000 0.000000e+000 -1.000000e+000
		outer loop
			vertex 5.069898e+001 9.176657e+001 0.000000e+000
			vertex 5.538758e+001 8.376511e+001 0.000000e+000
			vertex 5.069898e+001 -5.771553e+001 0.000000e+000
		endloop
	endfacet
	facet normal -0.000000e+000 0.000000e+000 -1.000000e+000
		outer loop
			vertex 5.069898e+001 -5.771553e+001 0.000000e+000
			vertex 4.549094e+001 -6.538902e+001 0.000000e+000
			vertex 5.069898e+001 9.176657e+001 0.000000e+000
		endloop
	endfacet
	facet normal 0.000000e+000 0.000000e+000 -1.000000e+000
		outer loop
			vertex 4.549094e+001 9.944006e+001 0.000000e+000
			vertex 5.069898e+001 9.176657e+001 0.000000e+000
			vertex 4.549094e+001 -6.538902e+001 0.000000e+000
		endloop
	endfacet
	facet normal -0.000000e+000 0.000000e+000 -1.000000e+000
		outer loop
			vertex 4.549094e+001 -6.538902e+001 0.000000e+000
			vertex 3.978628e+001 -7.270087e+001 0.000000e+000
			vertex 4.549094e+001 9.944006e+001 0.000000e+000
		endloop
	endfacet
	facet normal 0.000000e+000 0.000000e+000 -1.000000e+000
		outer loop
			vertex 3.978628e+001 1.067519e+002 0.000000e+000
			vertex 4.549094e+001 9.944006e+001 0.000000e+000
			vertex 3.978628e+001 -7.270087e+001 0.000000e+000
		endloop
	endfacet
	facet normal -0.000000e+000 0.000000e+000 -1.000000e+000
		outer loop
			vertex 3.978628e+001 -7.270087e+001 0.000000e+000
			vertex 3.361005e+001 -7.961899e+001 0.000000e+000
			vertex 3.978628e+001 1.067519e+002 0.000000e+000
		endloop
	endfacet
	facet normal 0.000000e+000 0.000000e+000 -1.000000e+000
		outer loop
			vertex 3.361005e+001 1.136700e+002 0.000000e+000
			vertex 3.978628e+001 1.067519e+002 0.000000e+000
			vertex 3.361005e+001 -7.961899e+001 0.000000e+000
		endloop
	endfacet
	facet normal -0.000000e+000 0.000000e+000 -1.000000e+000
		outer loop
			vertex 3.361005e+001 -7.961899e+001 0.000000e+000
			vertex 2.698935e+001 -8.611304e+001 0.000000e+000
			vertex 3.361005e+001 1.136700e+002 0.000000e+000
		endloop
	endfacet
	facet normal 0.000000e+000 0.000000e+000 -1.000000e+000
		outer loop
			vertex 2.698935e+001 1.201641e+002 0.000000e+000
			vertex 3.361005e+001 1.136700e+002 0.000000e+000
			vertex 2.698935e+001 -8.611304e+001 0.000000e+000
		endloop
	endfacet
	facet normal -0.000000e+000 0.000000e+000 -1.000000e+000
		outer loop
			vertex 2.698935e+001 -8.611304e+001 0.000000e+000
			vertex 1.995323e+001 -9.215450e+001 0.000000e+000
			vertex 2.698935e+001 1.201641e+002 0.000000e+000
		endloop
	endfacet
	facet normal 0.000000e+000 0.000000e+000 -1.000000e+000
		outer loop
			vertex 1.995323e+001 1.262055e+002 0.000000e+000
			vertex 2.698935e+001 1.201641e+002 0.000000e+000
			vertex 1.995323e+001 -9.215450e+001 0.000000e+000
		endloop
	endfacet
	facet normal -0.000000e+000 0.000000e+000 -1.000000e+000
		outer loop
			vertex 1.995323e+001 -9.215450e+001 0.000000e+000
			vertex 1.253257e+001 -9.771686e+001 0.000000e+000
			vertex 1.995323e+001 1.262055e+002 0.000000e+000
		endloop
	endfacet
	facet normal 0.000000e+000 0.000000e+000 -1.000000e+000
		outer loop
			vertex 1.253257e+001 1.317679e+002 0.000000e+000
			vertex 1.995323e+001 1.262055e+002 0.000000e+000
			vertex 1.253257e+001 -9.771686e+001 0.000000e+000
		endloop
	endfacet
	facet normal -0.000000e+000 0.000000e+000 -1.000000e+000
		outer loop
			vertex 1.253257e+001 -9.771686e+001 0.000000e+000
			vertex 4.759921e+000 -1.027757e+002 0.000000e+000
			vertex 1.253257e+001 1.317679e+002 0.000000e+000
		endloop
	endfacet
	facet normal 0.000000e+000 0.000000e+000 -1.000000e+000
		outer loop
			vertex 4.759921e+000 1.368268e+002 0.000000e+000
			vertex 1.253257e+001 1.317679e+002 0.000000e+000
			vertex 4.759921e+000 -1.027757e+002 0.000000e+000
		endloop
	endfacet
	facet normal -0.000000e+000 0.000000e+000 -1.000000e+000
		outer loop
			vertex 4.759921e+000 -1.027757e+002 0.000000e+000
			vertex -3.330601e+000 -1.073089e+002 0.000000e+000
			vertex 4.759921e+000 1.368268e+002 0.000000e+000
		endloop
	endfacet
	facet normal 0.000000e+000 0.000000e+000 -1.000000e+000
		outer loop
			vertex -3.330601e+000 1.413600e+002 0.000000e+000
			vertex 4.759921e+000 1.368268e+002 0.000000e+000
			vertex -3.330601e+000 -1.073089e+002 0.000000e+000
		endloop
	endfacet
	facet normal -0.000000e+000 0.000000e+000 -1.000000e+000
		outer loop
			vertex -3.330601e+000 -1.073089e+002 0.000000e+000
			vertex -1.170350e+001 -1.112965e+002 0.000000e+000
			vertex -3.330601e+000 1.413600e+002 0.000000e+000
		endloop
	endfacet
	facet normal 0.000000e+000 0.000000e+000 -1.000000e+000
		outer loop
			vertex -1.170350e+001 1.453475e+002 0.000000e+000
			vertex -3.330601e+000 1.413600e+002 0.000000e+000
			vertex -1.170350e+001 -1.112965e+002 0.000000e+000
		endloop
	endfacet
	facet normal -0.000000e+000 0.000000e+000 -1.000000e+000
		outer loop
			vertex -1.170350e+001 -1.112965e+002 0.000000e+000
			vertex -2.032202e+001 -1.147210e+002 0.000000e+000
			vertex -1.170350e+001 1.453475e+002 0.000000e+000
		endloop
	endfacet
	facet normal 0.000000e+000 0.000000e+000 -1.000000e+000
		outer loop
			vertex -2.032202e+001 1.487720e+002 0.000000e+000
			vertex -1.170350e+001 1.453475e+002 0.000000e+000
			vertex -2.032202e+001 -1.147210e+002 0.000000e+000
		endloop
	endfacet
	facet normal -0.000000e+000 0.000000e+000 -1.000000e+000
		outer loop
			vertex -2.032202e+001 -1.147210e+002 0.000000e+000
			vertex -2.914836e+001 -1.175674e+002 0.000000e+000
			vertex -2.032202e+001 1.487720e+002 0.000000e+000
		endloop
	endfacet
	facet normal 0.000000e+000 0.000000e+000 -1.000000e+000
		outer loop
			vertex -2.914836e+001 1.516184e+002 0.000000e+000
			vertex -2.032202e+001 1.487720e+002 0.000000e+000
			vertex -2.914836e+001 -1.175674e+002 0.000000e+000
		endloop
	endfacet
	facet normal -0.000000e+000 0.000000e+000 -1.000000e+000
		outer loop
			vertex -2.914836e+001 -1.175674e+002 0.000000e+000
			vertex -3.814379e+001 -1.198232e+002 0.000000e+000
			vertex -2.914836e+001 1.516184e+002 0.000000e+000
		endloop
	endfacet
	facet normal 0.000000e+000 0.000000e+000 -1.000000e+000
		outer loop
			vertex -3.814379e+001 1.538742e+002 0.000000e+000
			vertex -2.914836e+001 1.516184e+002 0.000000e+000
			vertex -3.814379e+001 -1.198232e+002 0.000000e+000
		endloop
	endfacet
	facet normal -0.000000e+000 0.000000e+000 -1.000000e+000
		outer loop
			vertex -3.814379e+001 -1.198232e+002 0.000000e+000
			vertex -4.726882e+001 -1.214785e+002 0.000000e+000
			vertex -3.814379e+001 1.538742e+002 0.000000e+000
		endloop
	endfacet
	facet normal 0.000000e+000 0.000000e+000 -1.000000e+000
		outer loop
			vertex -4.726882e+001 1.555295e+002 0.000000e+000
			vertex -3.814379e+001 1.538742e+002 0.000000e+000
			vertex -4.726882e+001 -1.214785e+002 0.000000e+000
		endloop
	endfacet
	facet normal -0.000000e+000 0.000000e+000 -1.000000e+000
		outer loop
			vertex -4.726882e+001 -1.214785e+002 0.000000e+000
			vertex -5.648343e+001 -1.225260e+002 0.000000e+000
			vertex -4.726882e+001 1.555295e+002 0.000000e+000
		endloop
	endfacet
	facet normal 0.000000e+000 0.000000e+000 -1.000000e+000
		outer loop
			vertex -5.648343e+001 1.565770e+002 0.000000e+000
			vertex -4.726882e+001 1.555295e+002 0.000000e+000
			vertex -5.648343e+001 -1.225260e+002 0.000000e+000
		endloop
	endfacet
	facet normal -0.000000e+000 0.000000e+000 -1.000000e+000
		outer loop
			vertex -5.648343e+001 -1.225260e+002 0.000000e+000
			vertex -6.574716e+001 -1.229611e+002 0.000000e+000
			vertex -5.648343e+001 1.565770e+002 0.000000e+000
		endloop
	endfacet
	facet normal 0.000000e+000 0.000000e+000 -1.000000e+000
		outer loop
			vertex -6.574716e+001 1.570122e+002 0.000000e+000
			vertex -5.648343e+001 1.565770e+002 0.000000e+000
			vertex -6.574716e+001 -1.229611e+002 0.000000e+000
		endloop
	endfacet
	facet normal 0.000000e+000 0.000000e+000 -1.000000e+000
		outer loop
			vertex -6.574716e+001 -1.229611e+002 0.000000e+000
			vertex -7.501939e+001 -1.227820e+002 0.000000e+000
			vertex -6.574716e+001 1.570122e+002 0.000000e+000
		endloop
	endfacet
	facet normal 0.000000e+000 0.000000e+000 -1.000000e+000
		outer loop
			vertex -7.501939e+001 1.568331e+002 0.000000e+000
			vertex -6.574716e+001 1.570122e+002 0.000000e+000
			vertex -7.501939e+001 -1.227820e+002 0.000000e+000
		endloop
	endfacet
	facet normal 0.000000e+000 0.000000e+000 -1.000000e+000
		outer loop
			vertex -7.501939e+001 -1.227820e+002 0.000000e+000
			vertex -8.425941e+001 -1.219894e+002 0.000000e+000
			vertex -7.501939e+001 1.568331e+002 0.000000e+000
		endloop
	endfacet
	facet normal 0.000000e+000 0.000000e+000 -1.000000e+000
		outer loop
			vertex -8.425941e+001 1.560404e+002 0.000000e+000
			vertex -7.501939e+001 1.568331e+002 0.000000e+000
			vertex -8.425941e+001 -1.219894e+002 0.000000e+000
		endloop
	endfacet
	facet normal 0.000000e+000 0.000000e+000 -1.000000e+000
		outer loop
			vertex -8.425941e+001 -1.219894e+002 0.000000e+000
			vertex -9.342668e+001 -1.205868e+002 0.000000e+000
			vertex -8.425941e+001 1.560404e+002 0.000000e+000
		endloop
	endfacet
	facet normal 0.000000e+000 0.000000e+000 -1.000000e+000
		outer loop
			vertex -9.342668e+001 1.546378e+002 0.000000e+000
			vertex -8.425941e+001 1.560404e+002 0.000000e+000
			vertex -9.342668e+001 -1.205868e+002 0.000000e+000
		endloop
	endfacet
	facet normal 0.000000e+000 0.000000e+000 -1.000000e+000
		outer loop
			vertex -9.342668e+001 -1.205868e+002 0.000000e+000
			vertex -1.024810e+002 -1.185803e+002 0.000000e+000
			vertex -9.342668e+001 1.546378e+002 0.000000e+000
		endloop
	endfacet
	facet normal 0.000000e+000 0.000000e+000 -1.000000e+000
		outer loop
			vertex -1.024810e+002 1.526314e+002 0.000000e+000
			vertex -9.342668e+001 1.546378e+002 0.000000e+000
			vertex -1.024810e+002 -1.185803e+002 0.000000e+000
		endloop
	endfacet
	facet normal 0.000000e+000 0.000000e+000 -1.000000e+000
		outer loop
			vertex -1.024810e+002 -1.185803e+002 0.000000e+000
			vertex -1.113826e+002 -1.159788e+002 0.000000e+000
			vertex -1.024810e+002 1.526314e+002 0.000000e+000
		endloop
	endfacet
	facet normal 0.000000e+000 0.000000e+000 -1.000000e+000
		outer loop
			vertex -1.113826e+002 1.500299e+002 0.000000e+000
			vertex -1.024810e+002 1.526314e+002 0.000000e+000
			vertex -1.113826e+002 -1.159788e+002 0.000000e+000
		endloop
	endfacet
	facet normal 0.000000e+000 0.000000e+000 -1.000000e+000
		outer loop
			vertex -1.113826e+002 -1.159788e+002 0.000000e+000
			vertex -1.200924e+002 -1.127937e+002 0.000000e+000
			vertex -1.113826e+002 1.500299e+002 0.000000e+000
		endloop
	endfacet
	facet normal 0.000000e+000 0.000000e+000 -1.000000e+000
		outer loop
			vertex -1.200924e+002 1.468447e+002 0.000000e+000
			vertex -1.113826e+002 1.500299e+002 0.000000e+000
			vertex -1.200924e+002 -1.127937e+002 0.000000e+000
		endloop
	endfacet
	facet normal 0.000000e+000 0.000000e+000 -1.000000e+000
		outer loop
			vertex -1.200924e+002 -1.127937e+002 0.000000e+000
			vertex -1.285722e+002 -1.090389e+002 0.000000e+000
			vertex -1.200924e+002 1.468447e+002 0.000000e+000
		endloop
	endfacet
	facet normal 0.000000e+000 0.000000e+000 -1.000000e+000
		outer loop
			vertex -1.285722e+002 1.430899e+002 0.000000e+000
			vertex -1.200924e+002 1.468447e+002 0.000000e+000
			vertex -1.285722e+002 -1.090389e+002 0.000000e+000
		endloop
	endfacet
	facet normal 0.000000e+000 0.000000e+000 -1.000000e+000
		outer loop
			vertex -1.285722e+002 -1.090389e+002 0.000000e+000
			vertex -1.367849e+002 -1.047309e+002 0.000000e+000
			vertex -1.285722e+002 1.430899e+002 0.000000e+000
		endloop
	endfacet
	facet normal 0.000000e+000 0.000000e+000 -1.000000e+000
		outer loop
			vertex -1.367849e+002 1.387819e+002 0.000000e+000
			vertex -1.285722e+002 1.430899e+002 0.000000e+000
			vertex -1.367849e+002 -1.047309e+002 0.000000e+000
		endloop
	endfacet
	facet normal 0.000000e+000 0.000000e+000 -1.000000e+000
		outer loop
			vertex -1.367849e+002 -1.047309e+002 0.000000e+000
			vertex -1.446943e+002 -9.988865e+001 0.000000e+000
			vertex -1.367849e+002 1.387819e+002 0.000000e+000
		endloop
	endfacet
	facet normal 0.000000e+000 0.000000e+000 -1.000000e+000
		outer loop
			vertex -1.446943e+002 1.339397e+002 0.000000e+000
			vertex -1.367849e+002 1.387819e+002 0.000000e+000
			vertex -1.446943e+002 -9.988865e+001 0.000000e+000
		endloop
	endfacet
	facet normal 0.000000e+000 0.000000e+000 -1.000000e+000
		outer loop
			vertex -1.446943e+002 -9.988865e+001 0.000000e+000
			vertex -1.522658e+002 -9.453336e+001 0.000000e+000
			vertex -1.446943e+002 1.339397e+002 0.000000e+000
		endloop
	endfacet
	facet normal 0.000000e+000 0.000000e+000 -1.000000e+000
		outer loop
			vertex -1.522658e+002 1.285844e+002 0.000000e+000
			vertex -1.446943e+002 1.339397e+002 0.000000e+000
			vertex -1.522658e+002 -9.453336e+001 0.000000e+000
		endloop
	endfacet
	facet normal 0.000000e+000 0.000000e+000 -1.000000e+000
		outer loop
			vertex -1.522658e+002 -9.453336e+001 0.000000e+000
			vertex -1.594661e+002 -8.868855e+001 0.000000e+000
			vertex -1.522658e+002 1.285844e+002 0.000000e+000
		endloop
	endfacet
	facet normal 0.000000e+000 0.000000e+000 -1.000000e+000
		outer loop
			vertex -1.594661e+002 1.227396e+002 0.000000e+000
			vertex -1.522658e+002 1.285844e+002 0.000000e+000
			vertex -1.594661e+002 -8.868855e+001 0.000000e+000
		endloop
	endfacet
	facet normal 0.000000e+000 0.000000e+000 -1.000000e+000
		outer loop
			vertex -1.594661e+002 -8.868855e+001 0.000000e+000
			vertex -1.662636e+002 -8.237986e+001 0.000000e+000
			vertex -1.594661e+002 1.227396e+002 0.000000e+000
		endloop
	endfacet
	facet normal 0.000000e+000 0.000000e+000 -1.000000e+000
		outer loop
			vertex -1.662636e+002 1.164309e+002 0.000000e+000
			vertex -1.594661e+002 1.227396e+002 0.000000e+000
			vertex -1.662636e+002 -8.237986e+001 0.000000e+000
		endloop
	endfacet
	facet normal 0.000000e+000 0.000000e+000 -1.000000e+000
		outer loop
			vertex -1.662636e+002 -8.237986e+001 0.000000e+000
			vertex -1.726286e+002 -7.563496e+001 0.000000e+000
			vertex -1.662636e+002 1.164309e+002 0.000000e+000
		endloop
	endfacet
	facet normal 0.000000e+000 0.000000e+000 -1.000000e+000
		outer loop
			vertex -1.726286e+002 1.096860e+002 0.000000e+000
			vertex -1.662636e+002 1.164309e+002 0.000000e+000
			vertex -1.726286e+002 -7.563496e+001 0.000000e+000
		endloop
	endfacet
	facet normal 0.000000e+000 0.000000e+000 -1.000000e+000
		outer loop
			vertex -1.726286e+002 -7.563496e+001 0.000000e+000
			vertex -1.785330e+002 -6.848347e+001 0.000000e+000
			vertex -1.726286e+002 1.096860e+002 0.000000e+000
		endloop
	endfacet
	facet normal 0.000000e+000 0.000000e+000 -1.000000e+000
		outer loop
			vertex -1.785330e+002 1.025345e+002 0.000000e+000
			vertex -1.726286e+002 1.096860e+002 0.000000e+000
			vertex -1.785330e+002 -6.848347e+001 0.000000e+000
		endloop
	endfacet
	facet normal 0.000000e+000 0.000000e+000 -1.000000e+000
		outer loop
			vertex -1.785330e+002 -6.848347e+001 0.000000e+000
			vertex -1.839510e+002 -6.095676e+001 0.000000e+000
			vertex -1.785330e+002 1.025345e+002 0.000000e+000
		endloop
	endfacet
	facet normal 0.000000e+000 0.000000e+000 -1.000000e+000
		outer loop
			vertex -1.839510e+002 9.500780e+001 0.000000e+000
			vertex -1.785330e+002 1.025345e+002 0.000000e+000
			vertex -1.839510e+002 -6.095676e+001 0.000000e+000
		endloop
	endfacet
	facet normal 0.000000e+000 0.000000e+000 -1.000000e+000
		outer loop
			vertex -1.839510e+002 -6.095676e+001 0.000000e+000
			vertex -1.888588e+002 -5.308786e+001 0.000000e+000
			vertex -1.839510e+002 9.500780e+001 0.000000e+000
		endloop
	endfacet
	facet normal 0.000000e+000 0.000000e+000 -1.000000e+000
		outer loop
			vertex -1.888588e+002 8.713890e+001 0.000000e+000
			vertex -1.839510e+002 9.500780e+001 0.000000e+000
			vertex -1.888588e+002 -5.308786e+001 0.000000e+000
		endloop
	endfacet
	facet normal 0.000000e+000 0.000000e+000 -1.000000e+000
		outer loop
			vertex -1.888588e+002 -5.308786e+001 0.000000e+000
			vertex -1.932349e+002 -4.491130e+001 0.000000e+000
			vertex -1.888588e+002 8.713890e+001 0.000000e+000
		endloop
	endfacet
	facet normal 0.000000e+000 0.000000e+000 -1.000000e+000
		outer loop
			vertex -1.932349e+002 7.896233e+001 0.000000e+000
			vertex -1.888588e+002 8.713890e+001 0.000000e+000
			vertex -1.932349e+002 -4.491130e+001 0.000000e+000
		endloop
	endfacet
	facet normal 0.000000e+000 0.000000e+000 -1.000000e+000
		outer loop
			vertex -1.932349e+002 -4.491130e+001 0.000000e+000
			vertex -1.970600e+002 -3.646294e+001 0.000000e+000
			vertex -1.932349e+002 7.896233e+001 0.000000e+000
		endloop
	endfacet
	facet normal 0.000000e+000 0.000000e+000 -1.000000e+000
		outer loop
			vertex -1.970600e+002 7.051399e+001 0.000000e+000
			vertex -1.932349e+002 7.896233e+001 0.000000e+000
			vertex -1.970600e+002 -3.646294e+001 0.000000e+000
		endloop
	endfacet
	facet normal 0.000000e+000 0.000000e+000 -1.000000e+000
		outer loop
			vertex -1.970600e+002 -3.646294e+001 0.000000e+000
			vertex -2.003174e+002 -2.777988e+001 0.000000e+000
			vertex -1.970600e+002 7.051399e+001 0.000000e+000
		endloop
	endfacet
	facet normal 0.000000e+000 0.000000e+000 -1.000000e+000
		outer loop
			vertex -2.003174e+002 6.183092e+001 0.000000e+000
			vertex -1.970600e+002 7.051399e+001 0.000000e+000
			vertex -2.003174e+002 -2.777988e+001 0.000000e+000
		endloop
	endfacet
	facet normal 0.000000e+000 0.000000e+000 -1.000000e+000
		outer loop
			vertex -2.003174e+002 -2.777988e+001 0.000000e+000
			vertex -2.029928e+002 -1.890021e+001 0.000000e+000
			vertex -2.003174e+002 6.183092e+001 0.000000e+000
		endloop
	endfacet
	facet normal 0.000000e+000 0.000000e+000 -1.000000e+000
		outer loop
			vertex -2.029928e+002 5.295125e+001 0.000000e+000
			vertex -2.003174e+002 6.183092e+001 0.000000e+000
			vertex -2.029928e+002 -1.890021e+001 0.000000e+000
		endloop
	endfacet
	facet normal 0.000000e+000 0.000000e+000 -1.000000e+000
		outer loop
			vertex -2.029928e+002 -1.890021e+001 0.000000e+000
			vertex -2.050744e+002 -9.862900e+000 0.000000e+000
			vertex -2.029928e+002 5.295125e+001 0.000000e+000
		endloop
	endfacet
	facet normal 0.000000e+000 0.000000e+000 -1.000000e+000
		outer loop
			vertex -2.050744e+002 4.391394e+001 0.000000e+000
			vertex -2.029928e+002 5.295125e+001 0.000000e+000
			vertex -2.050744e+002 -9.862900e+000 0.000000e+000
		endloop
	endfacet
	facet normal 0.000000e+000 0.000000e+000 -1.000000e+000
		outer loop
			vertex -2.050744e+002 -9.862900e+000 0.000000e+000
			vertex -2.065532e+002 -7.075974e-001 0.000000e+000
			vertex -2.050744e+002 4.391394e+001 0.000000e+000
		endloop
	endfacet
	facet normal 0.000000e+000 0.000000e+000 -1.000000e+000
		outer loop
			vertex -2.065532e+002 3.475863e+001 0.000000e+000
			vertex -2.050744e+002 4.391394e+001 0.000000e+000
			vertex -2.065532e+002 -7.075974e-001 0.000000e+000
		endloop
	endfacet
	facet normal 0.000000e+000 0.000000e+000 -1.000000e+000
		outer loop
			vertex -2.065532e+002 -7.075974e-001 0.000000e+000
			vertex -2.074225e+002 8.525520e+000 0.000000e+000
			vertex -2.065532e+002 3.475863e+001 0.000000e+000
		endloop
	endfacet
	facet normal 0.000000e+000 0.000000e+000 -1.000000e+000
		outer loop
			vertex -2.074225e+002 2.552552e+001 0.000000e+000
			vertex -2.065532e+002 3.475863e+001 0.000000e+000
			vertex -2.074225e+002 8.525520e+000 0.000000e+000
		endloop
	endfacet
	facet normal 0.000000e+000 0.000000e+000 -1.000000e+000
		outer loop
			vertex -2.474225e+002 8.525520e+000 0.000000e+000
			vertex -2.467525e+002 2.552552e+001 0.000000e+000
			vertex -2.074225e+002 2.552552e+001 0.000000e+000
		endloop
	endfacet
	facet normal 0.000000e+000 0.000000e+000 -1.000000e+000
		outer loop
			vertex -2.074225e+002 8.525520e+000 0.000000e+000
			vertex -2.474225e+002 8.525520e+000 0.000000e+000
			vertex -2.074225e+002 2.552552e+001 0.000000e+000
		endloop
	endfacet
	facet normal 0.000000e+000 0.000000e+000 1.000000e+000
		outer loop
			vertex 7.224238e+001 2.166250e+001 2.000000e+001
			vertex 7.162838e+001 3.091610e+001 2.000000e+001
			vertex 7.224238e+001 1.238854e+001 2.000000e+001
		endloop
	endfacet
	facet normal 0.000000e+000 0.000000e+000 1.000000e+000
		outer loop
			vertex 7.162838e+001 3.134936e+000 2.000000e+001
			vertex 7.224238e+001 1.238854e+001 2.000000e+001
			vertex 7.162838e+001 3.091610e+001 2.000000e+001
		endloop
	endfacet
	facet normal 0.000000e+000 0.000000e+000 1.000000e+000
		outer loop
			vertex 7.162838e+001 3.091610e+001 2.000000e+001
			vertex 7.040309e+001 4.010876e+001 2.000000e+001
			vertex 7.162838e+001 3.134936e+000 2.000000e+001
		endloop
	endfacet
	facet normal 0.000000e+000 0.000000e+000 1.000000e+000
		outer loop
			vertex 7.040309e+001 -6.057717e+000 2.000000e+001
			vertex 7.162838e+001 3.134936e+000 2.000000e+001
			vertex 7.040309e+001 4.010876e+001 2.000000e+001
		endloop
	endfacet
	facet normal 0.000000e+000 0.000000e+000 1.000000e+000
		outer loop
			vertex 7.040309e+001 4.010876e+001 2.000000e+001
			vertex 6.857188e+001 4.920012e+001 2.000000e+001
			vertex 7.040309e+001 -6.057717e+000 2.000000e+001
		endloop
	endfacet
	facet normal 0.000000e+000 0.000000e+000 1.000000e+000
		outer loop
			vertex 6.857188e+001 -1.514908e+001 2.000000e+001
			vertex 7.040309e+001 -6.057717e+000 2.000000e+001
			vertex 6.857188e+001 4.920012e+001 2.000000e+001
		endloop
	endfacet
	facet normal 0.000000e+000 0.000000e+000 1.000000e+000
		outer loop
			vertex 6.857188e+001 4.920012e+001 2.000000e+001
			vertex 6.614278e+001 5.815030e+001 2.000000e+001
			vertex 6.857188e+001 -1.514908e+001 2.000000e+001
		endloop
	endfacet
	facet normal 0.000000e+000 0.000000e+000 1.000000e+000
		outer loop
			vertex 6.614278e+001 -2.409926e+001 2.000000e+001
			vertex 6.857188e+001 -1.514908e+001 2.000000e+001
			vertex 6.614278e+001 5.815030e+001 2.000000e+001
		endloop
	endfacet
	facet normal 0.000000e+000 0.000000e+000 1.000000e+000
		outer loop
			vertex 6.614278e+001 5.815030e+001 2.000000e+001
			vertex 6.312645e+001 6.692002e+001 2.000000e+001
			vertex 6.614278e+001 -2.409926e+001 2.000000e+001
		endloop
	endfacet
	facet normal 0.000000e+000 0.000000e+000 1.000000e+000
		outer loop
			vertex 6.312645e+001 -3.286898e+001 2.000000e+001
			vertex 6.614278e+001 -2.409926e+001 2.000000e+001
			vertex 6.312645e+001 6.692002e+001 2.000000e+001
		endloop
	endfacet
	facet normal 0.000000e+000 0.000000e+000 1.000000e+000
		outer loop
			vertex 6.312645e+001 6.692002e+001 2.000000e+001
			vertex 5.953613e+001 7.547080e+001 2.000000e+001
			vertex 6.312645e+001 -3.286898e+001 2.000000e+001
		endloop
	endfacet
	facet normal 0.000000e+000 0.000000e+000 1.000000e+000
		outer loop
			vertex 5.953613e+001 -4.141976e+001 2.000000e+001
			vertex 6.312645e+001 -3.286898e+001 2.000000e+001
			vertex 5.953613e+001 7.547080e+001 2.000000e+001
		endloop
	endfacet
	facet normal 0.000000e+000 0.000000e+000 1.000000e+000
		outer loop
			vertex 5.953613e+001 7.547080e+001 2.000000e+001
			vertex 5.538758e+001 8.376511e+001 2.000000e+001
			vertex 5.953613e+001 -4.141976e+001 2.000000e+001
		endloop
	endfacet
	facet normal 0.000000e+000 0.000000e+000 1.000000e+000
		outer loop
			vertex 5.538758e+001 -4.971407e+001 2.000000e+001
			vertex 5.953613e+001 -4.141976e+001 2.000000e+001
			vertex 5.538758e+001 8.376511e+001 2.000000e+001
		endloop
	endfacet
	facet normal 0.000000e+000 0.000000e+000 1.000000e+000
		outer loop
			vertex 5.538758e+001 8.376511e+001 2.000000e+001
			vertex 5.069898e+001 9.176657e+001 2.000000e+001
			vertex 5.538758e+001 -4.971407e+001 2.000000e+001
		endloop
	endfacet
	facet normal 0.000000e+000 0.000000e+000 1.000000e+000
		outer loop
			vertex 5.069898e+001 -5.771553e+001 2.000000e+001
			vertex 5.538758e+001 -4.971407e+001 2.000000e+001
			vertex 5.069898e+001 9.176657e+001 2.000000e+001
		endloop
	endfacet
	facet normal 0.000000e+000 0.000000e+000 1.000000e+000
		outer loop
			vertex 5.069898e+001 9.176657e+001 2.000000e+001
			vertex 4.549094e+001 9.944006e+001 2.000000e+001
			vertex 5.069898e+001 -5.771553e+001 2.000000e+001
		endloop
	endfacet
	facet normal 0.000000e+000 0.000000e+000 1.000000e+000
		outer loop
			vertex 4.549094e+001 -6.538902e+001 2.000000e+001
			vertex 5.069898e+001 -5.771553e+001 2.000000e+001
			vertex 4.549094e+001 9.944006e+001 2.000000e+001
		endloop
	endfacet
	facet normal 0.000000e+000 0.000000e+000 1.000000e+000
		outer loop
			vertex 4.549094e+001 9.944006e+001 2.000000e+001
			vertex 3.978628e+001 1.067519e+002 2.000000e+001
			vertex 4.549094e+001 -6.538902e+001 2.000000e+001
		endloop
	endfacet
	facet normal 0.000000e+000 0.000000e+000 1.000000e+000
		outer loop
			vertex 3.978628e+001 -7.270087e+001 2.000000e+001
			vertex 4.549094e+001 -6.538902e+001 2.000000e+001
			vertex 3.978628e+001 1.067519e+002 2.000000e+001
		endloop
	endfacet
	facet normal 0.000000e+000 0.000000e+000 1.000000e+000
		outer loop
			vertex 3.978628e+001 1.067519e+002 2.000000e+001
			vertex 3.361005e+001 1.136700e+002 2.000000e+001
			vertex 3.978628e+001 -7.270087e+001 2.000000e+001
		endloop
	endfacet
	facet normal 0.000000e+000 0.000000e+000 1.000000e+000
		outer loop
			vertex 3.361005e+001 -7.961899e+001 2.000000e+001
			vertex 3.978628e+001 -7.270087e+001 2.000000e+001
			vertex 3.361005e+001 1.136700e+002 2.000000e+001
		endloop
	endfacet
	facet normal 0.000000e+000 0.000000e+000 1.000000e+000
		outer loop
			vertex 3.361005e+001 1.136700e+002 2.000000e+001
			vertex 2.698935e+001 1.201641e+002 2.000000e+001
			vertex 3.361005e+001 -7.961899e+001 2.000000e+001
		endloop
	endfacet
	facet normal 0.000000e+000 0.000000e+000 1.000000e+000
		outer loop
			vertex 2.698935e+001 -8.611304e+001 2.000000e+001
			vertex 3.361005e+001 -7.961899e+001 2.000000e+001
			vertex 2.698935e+001 1.201641e+002 2.000000e+001
		endloop
	endfacet
	facet normal 0.000000e+000 0.000000e+000 1.000000e+000
		outer loop
			vertex 2.698935e+001 1.201641e+002 2.000000e+001
			vertex 1.995323e+001 1.262055e+002 2.000000e+001
			vertex 2.698935e+001 -8.611304e+001 2.000000e+001
		endloop
	endfacet
	facet normal 0.000000e+000 0.000000e+000 1.000000e+000
		outer loop
			vertex 1.995323e+001 -9.215450e+001 2.000000e+001
			vertex 2.698935e+001 -8.611304e+001 2.000000e+001
			vertex 1.995323e+001 1.262055e+002 2.000000e+001
		endloop
	endfacet
	facet normal 0.000000e+000 0.000000e+000 1.000000e+000
		outer loop
			vertex 1.995323e+001 1.262055e+002 2.000000e+001
			vertex 1.253257e+001 1.317679e+002 2.000000e+001
			vertex 1.995323e+001 -9.215450e+001 2.000000e+001
		endloop
	endfacet
	facet normal 0.000000e+000 0.000000e+000 1.000000e+000
		outer loop
			vertex 1.253257e+001 -9.771686e+001 2.000000e+001
			vertex 1.995323e+001 -9.215450e+001 2.000000e+001
			vertex 1.253257e+001 1.317679e+002 2.000000e+001
		endloop
	endfacet
	facet normal 0.000000e+000 0.000000e+000 1.000000e+000
		outer loop
			vertex 1.253257e+001 1.317679e+002 2.000000e+001
			vertex 4.759921e+000 1.368268e+002 2.000000e+001
			vertex 1.253257e+001 -9.771686e+001 2.000000e+001
		endloop
	endfacet
	facet normal 0.000000e+000 0.000000e+000 1.000000e+000
		outer loop
			vertex 4.759921e+000 -1.027757e+002 2.000000e+001
			vertex 1.253257e+001 -9.771686e+001 2.000000e+001
			vertex 4.759921e+000 1.368268e+002 2.000000e+001
		endloop
	endfacet
	facet normal 0.000000e+000 0.000000e+000 1.000000e+000
		outer loop
			vertex 4.759921e+000 1.368268e+002 2.000000e+001
			vertex -3.330601e+000 1.413600e+002 2.000000e+001
			vertex 4.759921e+000 -1.027757e+002 2.000000e+001
		endloop
	endfacet
	facet normal 0.000000e+000 0.000000e+000 1.000000e+000
		outer loop
			vertex -3.330601e+000 -1.073089e+002 2.000000e+001
			vertex 4.759921e+000 -1.027757e+002 2.000000e+001
			vertex -3.330601e+000 1.413600e+002 2.000000e+001
		endloop
	endfacet
	facet normal 0.000000e+000 0.000000e+000 1.000000e+000
		outer loop
			vertex -3.330601e+000 1.413600e+002 2.000000e+001
			vertex -1.170350e+001 1.453475e+002 2.000000e+001
			vertex -3.330601e+000 -1.073089e+002 2.000000e+001
		endloop
	endfacet
	facet normal 0.000000e+000 0.000000e+000 1.000000e+000
		outer loop
			vertex -1.170350e+001 -1.112965e+002 2.000000e+001
			vertex -3.330601e+000 -1.073089e+002 2.000000e+001
			vertex -1.170350e+001 1.453475e+002 2.000000e+001
		endloop
	endfacet
	facet normal 0.000000e+000 0.000000e+000 1.000000e+000
		outer loop
			vertex -1.170350e+001 1.453475e+002 2.000000e+001
			vertex -2.032202e+001 1.487720e+002 2.000000e+001
			vertex -1.170350e+001 -1.112965e+002 2.000000e+001
		endloop
	endfacet
	facet normal 0.000000e+000 0.000000e+000 1.000000e+000
		outer loop
			vertex -2.032202e+001 -1.147210e+002 2.000000e+001
			vertex -1.170350e+001 -1.112965e+002 2.000000e+001
			vertex -2.032202e+001 1.487720e+002 2.000000e+001
		endloop
	endfacet
	facet normal 0.000000e+000 0.000000e+000 1.000000e+000
		outer loop
			vertex -2.032202e+001 1.487720e+002 2.000000e+001
			vertex -2.914836e+001 1.516184e+002 2.000000e+001
			vertex -2.032202e+001 -1.147210e+002 2.000000e+001
		endloop
	endfacet
	facet normal 0.000000e+000 0.000000e+000 1.000000e+000
		outer loop
			vertex -2.914836e+001 -1.175674e+002 2.000000e+001
			vertex -2.032202e+001 -1.147210e+002 2.000000e+001
			vertex -2.914836e+001 1.516184e+002 2.000000e+001
		endloop
	endfacet
	facet normal 0.000000e+000 0.000000e+000 1.000000e+000
		outer loop
			vertex -2.914836e+001 1.516184e+002 2.000000e+001
			vertex -3.814379e+001 1.538742e+002 2.000000e+001
			vertex -2.914836e+001 -1.175674e+002 2.000000e+001
		endloop
	endfacet
	facet normal 0.000000e+000 0.000000e+000 1.000000e+000
		outer loop
			vertex -3.814379e+001 -1.198232e+002 2.000000e+001
			vertex -2.914836e+001 -1.175674e+002 2.000000e+001
			vertex -3.814379e+001 1.538742e+002 2.000000e+001
		endloop
	endfacet
	facet normal 0.000000e+000 0.000000e+000 1.000000e+000
		outer loop
			vertex -3.814379e+001 1.538742e+002 2.000000e+001
			vertex -4.726882e+001 1.555295e+002 2.000000e+001
			vertex -3.814379e+001 -1.198232e+002 2.000000e+001
		endloop
	endfacet
	facet normal 0.000000e+000 0.000000e+000 1.000000e+000
		outer loop
			vertex -4.726882e+001 -1.214785e+002 2.000000e+001
			vertex -3.814379e+001 -1.198232e+002 2.000000e+001
			vertex -4.726882e+001 1.555295e+002 2.000000e+001
		endloop
	endfacet
	facet normal 0.000000e+000 0.000000e+000 1.000000e+000
		outer loop
			vertex -4.726882e+001 1.555295e+002 2.000000e+001
			vertex -5.648343e+001 1.565770e+002 2.000000e+001
			vertex -4.726882e+001 -1.214785e+002 2.000000e+001
		endloop
	endfacet
	facet normal 0.000000e+000 0.000000e+000 1.000000e+000
		outer loop
			vertex -5.648343e+001 -1.225260e+002 2.000000e+001
			vertex -4.726882e+001 -1.214785e+002 2.000000e+001
			vertex -5.648343e+001 1.565770e+002 2.000000e+001
		endloop
	endfacet
	facet normal 0.000000e+000 0.000000e+000 1.000000e+000
		outer loop
			vertex -5.648343e+001 1.565770e+002 2.000000e+001
			vertex -6.574716e+001 1.570122e+002 2.000000e+001
			vertex -5.648343e+001 -1.225260e+002 2.000000e+001
		endloop
	endfacet
	facet normal 0.000000e+000 0.000000e+000 1.000000e+000
		outer loop
			vertex -6.574716e+001 -1.229611e+002 2.000000e+001
			vertex -5.648343e+001 -1.225260e+002 2.000000e+001
			vertex -6.574716e+001 1.570122e+002 2.000000e+001
		endloop
	endfacet
	facet normal 0.000000e+000 0.000000e+000 1.000000e+000
		outer loop
			vertex -6.574716e+001 1.570122e+002 2.000000e+001
			vertex -7.501939e+001 1.568331e+002 2.000000e+001
			vertex -6.574716e+001 -1.229611e+002 2.000000e+001
		endloop
	endfacet
	facet normal -0.000000e+000 0.000000e+000 1.000000e+000
		outer loop
			vertex -7.501939e+001 -1.227820e+002 2.000000e+001
			vertex -6.574716e+001 -1.229611e+002 2.000000e+001
			vertex -7.501939e+001 1.568331e+002 2.000000e+001
		endloop
	endfacet
	facet normal 0.000000e+000 0.000000e+000 1.000000e+000
		outer loop
			vertex -7.501939e+001 1.568331e+002 2.000000e+001
			vertex -8.425941e+001 1.560404e+002 2.000000e+001
			vertex -7.501939e+001 -1.227820e+002 2.000000e+001
		endloop
	endfacet
	facet normal -0.000000e+000 0.000000e+000 1.000000e+000
		outer loop
			vertex -8.425941e+001 -1.219894e+002 2.000000e+001
			vertex -7.501939e+001 -1.227820e+002 2.000000e+001
			vertex -8.425941e+001 1.560404e+002 2.000000e+001
		endloop
	endfacet
	facet normal 0.000000e+000 0.000000e+000 1.000000e+000
		outer loop
			vertex -8.425941e+001 1.560404e+002 2.000000e+001
			vertex -9.342668e+001 1.546378e+002 2.000000e+001
			vertex -8.425941e+001 -1.219894e+002 2.000000e+001
		endloop
	endfacet
	facet normal -0.000000e+000 0.000000e+000 1.000000e+000
		outer loop
			vertex -9.342668e+001 -1.205868e+002 2.000000e+001
			vertex -8.425941e+001 -1.219894e+002 2.000000e+001
			vertex -9.342668e+001 1.546378e+002 2.000000e+001
		endloop
	endfacet
	facet normal 0.000000e+000 0.000000e+000 1.000000e+000
		outer loop
			vertex -9.342668e+001 1.546378e+002 2.000000e+001
			vertex -1.024810e+002 1.526314e+002 2.000000e+001
			vertex -9.342668e+001 -1.205868e+002 2.000000e+001
		endloop
	endfacet
	facet normal -0.000000e+000 0.000000e+000 1.000000e+000
		outer loop
			vertex -1.024810e+002 -1.185803e+002 2.000000e+001
			vertex -9.342668e+001 -1.205868e+002 2.000000e+001
			vertex -1.024810e+002 1.526314e+002 2.000000e+001
		endloop
	endfacet
	facet normal 0.000000e+000 0.000000e+000 1.000000e+000
		outer loop
			vertex -1.024810e+002 1.526314e+002 2.000000e+001
			vertex -1.113826e+002 1.500299e+002 2.000000e+001
			vertex -1.024810e+002 -1.185803e+002 2.000000e+001
		endloop
	endfacet
	facet normal -0.000000e+000 0.000000e+000 1.000000e+000
		outer loop
			vertex -1.113826e+002 -1.159788e+002 2.000000e+001
			vertex -1.024810e+002 -1.185803e+002 2.000000e+001
			vertex -1.113826e+002 1.500299e+002 2.000000e+001
		endloop
	endfacet
	facet normal 0.000000e+000 0.000000e+000 1.000000e+000
		outer loop
			vertex -1.113826e+002 1.500299e+002 2.000000e+001
			vertex -1.200924e+002 1.468447e+002 2.000000e+001
			vertex -1.113826e+002 -1.159788e+002 2.000000e+001
		endloop
	endfacet
	facet normal -0.000000e+000 0.000000e+000 1.000000e+000
		outer loop
			vertex -1.200924e+002 -1.127937e+002 2.000000e+001
			vertex -1.113826e+002 -1.159788e+002 2.000000e+001
			vertex -1.200924e+002 1.468447e+002 2.000000e+001
		endloop
	endfacet
	facet normal 0.000000e+000 0.000000e+000 1.000000e+000
		outer loop
			vertex -1.200924e+002 1.468447e+002 2.000000e+001
			vertex -1.285722e+002 1.430899e+002 2.000000e+001
			vertex -1.200924e+002 -1.127937e+002 2.000000e+001
		endloop
	endfacet
	facet normal -0.000000e+000 0.000000e+000 1.000000e+000
		outer loop
			vertex -1.285722e+002 -1.090389e+002 2.000000e+001
			vertex -1.200924e+002 -1.127937e+002 2.000000e+001
			vertex -1.285722e+002 1.430899e+002 2.000000e+001
		endloop
	endfacet
	facet normal 0.000000e+000 0.000000e+000 1.000000e+000
		outer loop
			vertex -1.285722e+002 1.430899e+002 2.000000e+001
			vertex -1.367849e+002 1.387819e+002 2.000000e+001
			vertex -1.285722e+002 -1.090389e+002 2.000000e+001
		endloop
	endfacet
	facet normal -0.000000e+000 0.000000e+000 1.000000e+000
		outer loop
			vertex -1.367849e+002 -1.047309e+002 2.000000e+001
			vertex -1.285722e+002 -1.090389e+002 2.000000e+001
			vertex -1.367849e+002 1.387819e+002 2.000000e+001
		endloop
	endfacet
	facet normal 0.000000e+000 0.000000e+000 1.000000e+000
		outer loop
			vertex -1.367849e+002 1.387819e+002 2.000000e+001
			vertex -1.446943e+002 1.339397e+002 2.000000e+001
			vertex -1.367849e+002 -1.047309e+002 2.000000e+001
		endloop
	endfacet
	facet normal -0.000000e+000 0.000000e+000 1.000000e+000
		outer loop
			vertex -1.446943e+002 -9.988865e+001 2.000000e+001
			vertex -1.367849e+002 -1.047309e+002 2.000000e+001
			vertex -1.446943e+002 1.339397e+002 2.000000e+001
		endloop
	endfacet
	facet normal 0.000000e+000 0.000000e+000 1.000000e+000
		outer loop
			vertex -1.446943e+002 1.339397e+002 2.000000e+001
			vertex -1.522658e+002 1.285844e+002 2.000000e+001
			vertex -1.446943e+002 -9.988865e+001 2.000000e+001
		endloop
	endfacet
	facet normal -0.000000e+000 0.000000e+000 1.000000e+000
		outer loop
			vertex -1.522658e+002 -9.453336e+001 2.000000e+001
			vertex -1.446943e+002 -9.988865e+001 2.000000e+001
			vertex -1.522658e+002 1.285844e+002 2.000000e+001
		endloop
	endfacet
	facet normal 0.000000e+000 0.000000e+000 1.000000e+000
		outer loop
			vertex -1.522658e+002 1.285844e+002 2.000000e+001
			vertex -1.594661e+002 1.227396e+002 2.000000e+001
			vertex -1.522658e+002 -9.453336e+001 2.000000e+001
		endloop
	endfacet
	facet normal -0.000000e+000 0.000000e+000 1.000000e+000
		outer loop
			vertex -1.594661e+002 -8.868855e+001 2.000000e+001
			vertex -1.522658e+002 -9.453336e+001 2.000000e+001
			vertex -1.594661e+002 1.227396e+002 2.000000e+001
		endloop
	endfacet
	facet normal 0.000000e+000 0.000000e+000 1.000000e+000
		outer loop
			vertex -1.594661e+002 1.227396e+002 2.000000e+001
			vertex -1.662636e+002 1.164309e+002 2.000000e+001
			vertex -1.594661e+002 -8.868855e+001 2.000000e+001
		endloop
	endfacet
	facet normal -0.000000e+000 0.000000e+000 1.000000e+000
		outer loop
			vertex -1.662636e+002 -8.237986e+001 2.000000e+001
			vertex -1.594661e+002 -8.868855e+001 2.000000e+001
			vertex -1.662636e+002 1.164309e+002 2.000000e+001
		endloop
	endfacet
	facet normal 0.000000e+000 0.000000e+000 1.000000e+000
		outer loop
			vertex -1.662636e+002 1.164309e+002 2.000000e+001
			vertex -1.726286e+002 1.096860e+002 2.000000e+001
			vertex -1.662636e+002 -8.237986e+001 2.000000e+001
		endloop
	endfacet
	facet normal -0.000000e+000 0.000000e+000 1.000000e+000
		outer loop
			vertex -1.726286e+002 -7.563496e+001 2.000000e+001
			vertex -1.662636e+002 -8.237986e+001 2.000000e+001
			vertex -1.726286e+002 1.096860e+002 2.000000e+001
		endloop
	endfacet
	facet normal 0.000000e+000 0.000000e+000 1.000000e+000
		outer loop
			vertex -1.726286e+002 1.096860e+002 2.000000e+001
			vertex -1.785330e+002 1.025345e+002 2.000000e+001
			vertex -1.726286e+002 -7.563496e+001 2.000000e+001
		endloop
	endfacet
	facet normal -0.000000e+000 0.000000e+000 1.000000e+000
		outer loop
			vertex -1.785330e+002 -6.848347e+001 2.000000e+001
			vertex -1.726286e+002 -7.563496e+001 2.000000e+001
			vertex -1.785330e+002 1.025345e+002 2.000000e+001
		endloop
	endfacet
	facet normal 0.000000e+000 0.000000e+000 1.000000e+000
		outer loop
			vertex -1.785330e+002 1.025345e+002 2.000000e+001
			vertex -1.839510e+002 9.500780e+001 2.000000e+001
			vertex -1.785330e+002 -6.848347e+001 2.000000e+001
		endloop
	endfacet
	facet normal -0.000000e+000 0.000000e+000 1.000000e+000
		outer loop
			vertex -1.839510e+002 -6.095676e+001 2.000000e+001
			vertex -1.785330e+002 -6.848347e+001 2.000000e+001
			vertex -1.839510e+002 9.500780e+001 2.000000e+001
		endloop
	endfacet
	facet normal 0.000000e+000 0.000000e+000 1.000000e+000
		outer loop
			vertex -1.839510e+002 9.500780e+001 2.000000e+001
			vertex -1.888588e+002 8.713890e+001 2.000000e+001
			vertex -1.839510e+002 -6.095676e+001 2.000000e+001
		endloop
	endfacet
	facet normal -0.000000e+000 0.000000e+000 1.000000e+000
		outer loop
			vertex -1.888588e+002 -5.308786e+001 2.000000e+001
			vertex -1.839510e+002 -6.095676e+001 2.000000e+001
			vertex -1.888588e+002 8.713890e+001 2.000000e+001
		endloop
	endfacet
	facet normal 0.000000e+000 0.000000e+000 1.000000e+000
		outer loop
			vertex -1.888588e+002 8.713890e+001 2.000000e+001
			vertex -1.932349e+002 7.896233e+001 2.000000e+001
			vertex -1.888588e+002 -5.308786e+001 2.000000e+001
		endloop
	endfacet
	facet normal -0.000000e+000 0.000000e+000 1.000000e+000
		outer loop
			vertex -1.932349e+002 -4.491130e+001 2.000000e+001
			vertex -1.888588e+002 -5.308786e+001 2.000000e+001
			vertex -1.932349e+002 7.896233e+001 2.000000e+001
		endloop
	endfacet
	facet normal 0.000000e+000 0.000000e+000 1.000000e+000
		outer loop
			vertex -1.932349e+002 7.896233e+001 2.000000e+001
			vertex -1.970600e+002 7.051399e+001 2.000000e+001
			vertex -1.932349e+002 -4.491130e+001 2.000000e+001
		endloop
	endfacet
	facet normal -0.000000e+000 0.000000e+000 1.000000e+000
		outer loop
			vertex -1.970600e+002 -3.646294e+001 2.000000e+001
			vertex -1.932349e+002 -4.491130e+001 2.000000e+001
			vertex -1.970600e+002 7.051399e+001 2.000000e+001
		endloop
	endfacet
	facet normal 0.000000e+000 0.000000e+000 1.000000e+000
		outer loop
			vertex -1.970600e+002 7.051399e+001 2.000000e+001
			vertex -2.003174e+002 6.183092e+001 2.000000e+001
			vertex -1.970600e+002 -3.646294e+001 2.000000e+001
		endloop
	endfacet
	facet normal -0.000000e+000 0.000000e+000 1.000000e+000
		outer loop
			vertex -2.003174e+002 -2.777988e+001 2.000000e+001
			vertex -1.970600e+002 -3.646294e+001 2.000000e+001
			vertex -2.003174e+002 6.183092e+001 2.000000e+001
		endloop
	endfacet
	facet normal 0.000000e+000 0.000000e+000 1.000000e+000
		outer loop
			vertex -2.003174e+002 6.183092e+001 2.000000e+001
			vertex -2.029928e+002 5.295125e+001 2.000000e+001
			vertex -2.003174e+002 -2.777988e+001 2.000000e+001
		endloop
	endfacet
	facet normal -0.000000e+000 0.000000e+000 1.000000e+000
		outer loop
			vertex -2.029928e+002 -1.890021e+001 2.000000e+001
			vertex -2.003174e+002 -2.777988e+001 2.000000e+001
			vertex -2.029928e+002 5.295125e+001 2.000000e+001
		endloop
	endfacet
	facet normal 0.000000e+000 0.000000e+000 1.000000e+000
		outer loop
			vertex -2.029928e+002 5.295125e+001 2.000000e+001
			vertex -2.050744e+002 4.391394e+001 2.000000e+001
			vertex -2.029928e+002 -1.890021e+001 2.000000e+001
		endloop
	endfacet
	facet normal -0.000000e+000 0.000000e+000 1.000000e+000
		outer loop
			vertex -2.050744e+002 -9.862900e+000 2.000000e+001
			vertex -2.029928e+002 -1.890021e+001 2.000000e+001
			vertex -2.050744e+002 4.391394e+001 2.000000e+001
		endloop
	endfacet
	facet normal 0.000000e+000 0.000000e+000 1.000000e+000
		outer loop
			vertex -2.050744e+002 4.391394e+001 2.000000e+001
			vertex -2.065532e+002 3.475863e+001 2.000000e+001
			vertex -2.050744e+002 -9.862900e+000 2.000000e+001
		endloop
	endfacet
	facet normal -0.000000e+000 0.000000e+000 1.000000e+000
		outer loop
			vertex -2.065532e+002 -7.075974e-001 2.000000e+001
			vertex -2.050744e+002 -9.862900e+000 2.000000e+001
			vertex -2.065532e+002 3.475863e+001 2.000000e+001
		endloop
	endfacet
	facet normal 0.000000e+000 0.000000e+000 1.000000e+000
		outer loop
			vertex -2.065532e+002 3.475863e+001 2.000000e+001
			vertex -2.074225e+002 2.552552e+001 2.000000e+001
			vertex -2.065532e+002 -7.075974e-001 2.000000e+001
		endloop
	endfacet
	facet normal -0.000000e+000 0.000000e+000 1.000000e+000
		outer loop
			vertex -2.074225e+002 8.525520e+000 2.000000e+001
			vertex -2.065532e+002 -7.075974e-001 2.000000e+001
			vertex -2.074225e+002 2.552552e+001 2.000000e+001
		endloop
	endfacet
	facet normal 0.000000e+000 0.000000e+000 1.000000e+000
		outer loop
			vertex -2.074225e+002 2.552552e+001 2.000000e+001
			vertex -2.467525e+002 2.552552e+001 2.000000e+001
			vertex -2.074225e+002 8.525520e+000 2.000000e+001
		endloop
	endfacet
	facet normal 0.000000e+000 0.000000e+000 1.000000e+000
		outer loop
			vertex -2.474225e+002 8.525520e+000 2.000000e+001
			vertex -2.074225e+002 8.525520e+000 2.000000e+001
			vertex -2.467525e+002 2.552552e+001 2.000000e+001
		endloop
	endfacet
	facet normal -0.000000e+000 1.000000e+000 0.000000e+000
		outer loop
			vertex -2.467525e+002 2.552552e+001 2.000000e+001
			vertex -2.074225e+002 2.552552e+001 2.000000e+001
			vertex -2.467525e+002 2.552552e+001 0.000000e+000
		endloop
	endfacet
	facet normal 0.000000e+000 1.000000e+000 -0.000000e+000
		outer loop
			vertex -2.074225e+002 2.552552e+001 0.000000e+000
			vertex -2.467525e+002 2.552552e+001 0.000000e+000
			vertex -2.074225e+002 2.552552e+001 2.000000e+001
		endloop
	endfacet
	facet normal -9.992241e-001 3.938562e-002 0.000000e+000
		outer loop
			vertex -2.467525e+002 2.552552e+001 2.000000e+001
			vertex -2.467525e+002 2.552552e+001 0.000000e+000
			vertex -2.474225e+002 8.525520e+000 2.000000e+001
		endloop
	endfacet
	facet normal -9.992241e-001 3.938562e-002 0.000000e+000
		outer loop
			vertex -2.474225e+002 8.525520e+000 0.000000e+000
			vertex -2.474225e+002 8.525520e+000 2.000000e+001
			vertex -2.467525e+002 2.552552e+001 0.000000e+000
		endloop
	endfacet
	facet normal -0.000000e+000 -1.000000e+000 -0.000000e+000
		outer loop
			vertex -2.074225e+002 8.525520e+000 2.000000e+001
			vertex -2.474225e+002 8.525520e+000 2.000000e+001
			vertex -2.074225e+002 8.525520e+000 0.000000e+000
		endloop
	endfacet
	facet normal 0.000000e+000 -1.000000e+000 0.000000e+000
		outer loop
			vertex -2.474225e+002 8.525520e+000 0.000000e+000
			vertex -2.074225e+002 8.525520e+000 0.000000e+000
			vertex -2.474225e+002 8.525520e+000 2.000000e+001
		endloop
	endfacet
	facet normal -9.955965e-001 9.374250e-002 0.000000e+000
		outer loop
			vertex -2.074225e+002 2.552552e+001 2.000000e+001
			vertex -2.065532e+002 3.475863e+001 2.000000e+001
			vertex -2.074225e+002 2.552552e+001 0.000000e+000
		endloop
	endfacet
	facet normal -9.955965e-001 9.374250e-002 0.000000e+000
		outer loop
			vertex -2.065532e+002 3.475863e+001 0.000000e+000
			vertex -2.074225e+002 2.552552e+001 0.000000e+000
			vertex -2.065532e+002 3.475863e+001 2.000000e+001
		endloop
	endfacet
	facet normal -9.872060e-001 1.594500e-001 0.000000e+000
		outer loop
			vertex -2.065532e+002 3.475863e+001 2.000000e+001
			vertex -2.050744e+002 4.391394e+001 2.000000e+001
			vertex -2.065532e+002 3.475863e+001 0.000000e+000
		endloop
	endfacet
	facet normal -9.872060e-001 1.594500e-001 0.000000e+000
		outer loop
			vertex -2.050744e+002 4.391394e+001 0.000000e+000
			vertex -2.065532e+002 3.475863e+001 0.000000e+000
			vertex -2.050744e+002 4.391394e+001 2.000000e+001
		endloop
	endfacet
	facet normal -9.744837e-001 2.244585e-001 0.000000e+000
		outer loop
			vertex -2.050744e+002 4.391394e+001 2.000000e+001
			vertex -2.029928e+002 5.295125e+001 2.000000e+001
			vertex -2.050744e+002 4.391394e+001 0.000000e+000
		endloop
	endfacet
	facet normal -9.744837e-001 2.244585e-001 0.000000e+000
		outer loop
			vertex -2.029928e+002 5.295125e+001 0.000000e+000
			vertex -2.050744e+002 4.391394e+001 0.000000e+000
			vertex -2.029928e+002 5.295125e+001 2.000000e+001
		endloop
	endfacet
	facet normal -9.574848e-001 2.884837e-001 0.000000e+000
		outer loop
			vertex -2.029928e+002 5.295125e+001 2.000000e+001
			vertex -2.003174e+002 6.183092e+001 2.000000e+001
			vertex -2.029928e+002 5.295125e+001 0.000000e+000
		endloop
	endfacet
	facet normal -9.574848e-001 2.884837e-001 0.000000e+000
		outer loop
			vertex -2.003174e+002 6.183092e+001 0.000000e+000
			vertex -2.029928e+002 5.295125e+001 0.000000e+000
			vertex -2.003174e+002 6.183092e+001 2.000000e+001
		endloop
	endfacet
	facet normal -9.362845e-001 3.512426e-001 0.000000e+000
		outer loop
			vertex -2.003174e+002 6.183092e+001 2.000000e+001
			vertex -1.970600e+002 7.051399e+001 2.000000e+001
			vertex -2.003174e+002 6.183092e+001 0.000000e+000
		endloop
	endfacet
	facet normal -9.362845e-001 3.512426e-001 0.000000e+000
		outer loop
			vertex -1.970600e+002 7.051399e+001 0.000000e+000
			vertex -2.003174e+002 6.183092e+001 0.000000e+000
			vertex -1.970600e+002 7.051399e+001 2.000000e+001
		endloop
	endfacet
	facet normal -9.109760e-001 4.124593e-001 0.000000e+000
		outer loop
			vertex -1.970600e+002 7.051399e+001 2.000000e+001
			vertex -1.932349e+002 7.896233e+001 2.000000e+001
			vertex -1.970600e+002 7.051399e+001 0.000000e+000
		endloop
	endfacet
	facet normal -9.109760e-001 4.124593e-001 0.000000e+000
		outer loop
			vertex -1.932349e+002 7.896233e+001 0.000000e+000
			vertex -1.970600e+002 7.051399e+001 0.000000e+000
			vertex -1.932349e+002 7.896233e+001 2.000000e+001
		endloop
	endfacet
	facet normal -8.816699e-001 4.718666e-001 0.000000e+000
		outer loop
			vertex -1.932349e+002 7.896233e+001 2.000000e+001
			vertex -1.888588e+002 8.713890e+001 2.000000e+001
			vertex -1.932349e+002 7.896233e+001 0.000000e+000
		endloop
	endfacet
	facet normal -8.816699e-001 4.718666e-001 0.000000e+000
		outer loop
			vertex -1.888588e+002 8.713890e+001 0.000000e+000
			vertex -1.932349e+002 7.896233e+001 0.000000e+000
			vertex -1.888588e+002 8.713890e+001 2.000000e+001
		endloop
	endfacet
	facet normal -8.484945e-001 5.292042e-001 0.000000e+000
		outer loop
			vertex -1.888588e+002 8.713890e+001 2.000000e+001
			vertex -1.839510e+002 9.500780e+001 2.000000e+001
			vertex -1.888588e+002 8.713890e+001 0.000000e+000
		endloop
	endfacet
	facet normal -8.484945e-001 5.292042e-001 0.000000e+000
		outer loop
			vertex -1.839510e+002 9.500780e+001 0.000000e+000
			vertex -1.888588e+002 8.713890e+001 0.000000e+000
			vertex -1.839510e+002 9.500780e+001 2.000000e+001
		endloop
	endfacet
	facet normal -8.115972e-001 5.842174e-001 0.000000e+000
		outer loop
			vertex -1.839510e+002 9.500780e+001 2.000000e+001
			vertex -1.785330e+002 1.025345e+002 2.000000e+001
			vertex -1.839510e+002 9.500780e+001 0.000000e+000
		endloop
	endfacet
	facet normal -8.115972e-001 5.842174e-001 0.000000e+000
		outer loop
			vertex -1.785330e+002 1.025345e+002 0.000000e+000
			vertex -1.839510e+002 9.500780e+001 0.000000e+000
			vertex -1.785330e+002 1.025345e+002 2.000000e+001
		endloop
	endfacet
	facet normal -7.711374e-001 6.366687e-001 0.000000e+000
		outer loop
			vertex -1.785330e+002 1.025345e+002 2.000000e+001
			vertex -1.726286e+002 1.096860e+002 2.000000e+001
			vertex -1.785330e+002 1.025345e+002 0.000000e+000
		endloop
	endfacet
	facet normal -7.711374e-001 6.366687e-001 0.000000e+000
		outer loop
			vertex -1.726286e+002 1.096860e+002 0.000000e+000
			vertex -1.785330e+002 1.025345e+002 0.000000e+000
			vertex -1.726286e+002 1.096860e+002 2.000000e+001
		endloop
	endfacet
	facet normal -7.272940e-001 6.863260e-001 0.000000e+000
		outer loop
			vertex -1.726286e+002 1.096860e+002 2.000000e+001
			vertex -1.662636e+002 1.164309e+002 2.000000e+001
			vertex -1.726286e+002 1.096860e+002 0.000000e+000
		endloop
	endfacet
	facet normal -7.272940e-001 6.863260e-001 0.000000e+000
		outer loop
			vertex -1.662636e+002 1.164309e+002 0.000000e+000
			vertex -1.726286e+002 1.096860e+002 0.000000e+000
			vertex -1.662636e+002 1.164309e+002 2.000000e+001
		endloop
	endfacet
	facet normal -6.802591e-001 7.329717e-001 0.000000e+000
		outer loop
			vertex -1.662636e+002 1.164309e+002 2.000000e+001
			vertex -1.594661e+002 1.227396e+002 2.000000e+001
			vertex -1.662636e+002 1.164309e+002 0.000000e+000
		endloop
	endfacet
	facet normal -6.802591e-001 7.329717e-001 0.000000e+000
		outer loop
			vertex -1.594661e+002 1.227396e+002 0.000000e+000
			vertex -1.662636e+002 1.164309e+002 0.000000e+000
			vertex -1.594661e+002 1.227396e+002 2.000000e+001
		endloop
	endfacet
	facet normal -6.302395e-001 7.764007e-001 0.000000e+000
		outer loop
			vertex -1.594661e+002 1.227396e+002 2.000000e+001
			vertex -1.522658e+002 1.285844e+002 2.000000e+001
			vertex -1.594661e+002 1.227396e+002 0.000000e+000
		endloop
	endfacet
	facet normal -6.302395e-001 7.764007e-001 0.000000e+000
		outer loop
			vertex -1.522658e+002 1.285844e+002 0.000000e+000
			vertex -1.594661e+002 1.227396e+002 0.000000e+000
			vertex -1.522658e+002 1.285844e+002 2.000000e+001
		endloop
	endfacet
	facet normal -5.774540e-001 8.164232e-001 0.000000e+000
		outer loop
			vertex -1.522658e+002 1.285844e+002 2.000000e+001
			vertex -1.446943e+002 1.339397e+002 2.000000e+001
			vertex -1.522658e+002 1.285844e+002 0.000000e+000
		endloop
	endfacet
	facet normal -5.774540e-001 8.164232e-001 0.000000e+000
		outer loop
			vertex -1.446943e+002 1.339397e+002 0.000000e+000
			vertex -1.522658e+002 1.285844e+002 0.000000e+000
			vertex -1.446943e+002 1.339397e+002 2.000000e+001
		endloop
	endfacet
	facet normal -5.221351e-001 8.528628e-001 0.000000e+000
		outer loop
			vertex -1.446943e+002 1.339397e+002 2.000000e+001
			vertex -1.367849e+002 1.387819e+002 2.000000e+001
			vertex -1.446943e+002 1.339397e+002 0.000000e+000
		endloop
	endfacet
	facet normal -5.221351e-001 8.528628e-001 0.000000e+000
		outer loop
			vertex -1.367849e+002 1.387819e+002 0.000000e+000
			vertex -1.446943e+002 1.339397e+002 0.000000e+000
			vertex -1.367849e+002 1.387819e+002 2.000000e+001
		endloop
	endfacet
	facet normal -4.645246e-001 8.855602e-001 0.000000e+000
		outer loop
			vertex -1.367849e+002 1.387819e+002 2.000000e+001
			vertex -1.285722e+002 1.430899e+002 2.000000e+001
			vertex -1.367849e+002 1.387819e+002 0.000000e+000
		endloop
	endfacet
	facet normal -4.645246e-001 8.855602e-001 0.000000e+000
		outer loop
			vertex -1.285722e+002 1.430899e+002 0.000000e+000
			vertex -1.367849e+002 1.387819e+002 0.000000e+000
			vertex -1.285722e+002 1.430899e+002 2.000000e+001
		endloop
	endfacet
	facet normal -4.048756e-001 9.143717e-001 0.000000e+000
		outer loop
			vertex -1.285722e+002 1.430899e+002 2.000000e+001
			vertex -1.200924e+002 1.468447e+002 2.000000e+001
			vertex -1.285722e+002 1.430899e+002 0.000000e+000
		endloop
	endfacet
	facet normal -4.048756e-001 9.143717e-001 0.000000e+000
		outer loop
			vertex -1.200924e+002 1.468447e+002 0.000000e+000
			vertex -1.285722e+002 1.430899e+002 0.000000e+000
			vertex -1.200924e+002 1.468447e+002 2.000000e+001
		endloop
	endfacet
	facet normal -3.434514e-001 9.391705e-001 0.000000e+000
		outer loop
			vertex -1.200924e+002 1.468447e+002 2.000000e+001
			vertex -1.113826e+002 1.500299e+002 2.000000e+001
			vertex -1.200924e+002 1.468447e+002 0.000000e+000
		endloop
	endfacet
	facet normal -3.434514e-001 9.391705e-001 0.000000e+000
		outer loop
			vertex -1.113826e+002 1.500299e+002 0.000000e+000
			vertex -1.200924e+002 1.468447e+002 0.000000e+000
			vertex -1.113826e+002 1.500299e+002 2.000000e+001
		endloop
	endfacet
	facet normal -2.805173e-001 9.598490e-001 0.000000e+000
		outer loop
			vertex -1.113826e+002 1.500299e+002 2.000000e+001
			vertex -1.024810e+002 1.526314e+002 2.000000e+001
			vertex -1.113826e+002 1.500299e+002 0.000000e+000
		endloop
	endfacet
	facet normal -2.805173e-001 9.598490e-001 0.000000e+000
		outer loop
			vertex -1.024810e+002 1.526314e+002 0.000000e+000
			vertex -1.113826e+002 1.500299e+002 0.000000e+000
			vertex -1.024810e+002 1.526314e+002 2.000000e+001
		endloop
	endfacet
	facet normal -2.163554e-001 9.763147e-001 0.000000e+000
		outer loop
			vertex -1.024810e+002 1.526314e+002 2.000000e+001
			vertex -9.342668e+001 1.546378e+002 2.000000e+001
			vertex -1.024810e+002 1.526314e+002 0.000000e+000
		endloop
	endfacet
	facet normal -2.163554e-001 9.763147e-001 0.000000e+000
		outer loop
			vertex -9.342668e+001 1.546378e+002 0.000000e+000
			vertex -1.024810e+002 1.526314e+002 0.000000e+000
			vertex -9.342668e+001 1.546378e+002 2.000000e+001
		endloop
	endfacet
	facet normal -1.512410e-001 9.884969e-001 0.000000e+000
		outer loop
			vertex -9.342668e+001 1.546378e+002 2.000000e+001
			vertex -8.425941e+001 1.560404e+002 2.000000e+001
			vertex -9.342668e+001 1.546378e+002 0.000000e+000
		endloop
	endfacet
	facet normal -1.512410e-001 9.884969e-001 0.000000e+000
		outer loop
			vertex -8.425941e+001 1.560404e+002 0.000000e+000
			vertex -9.342668e+001 1.546378e+002 0.000000e+000
			vertex -8.425941e+001 1.560404e+002 2.000000e+001
		endloop
	endfacet
	facet normal -8.546597e-002 9.963411e-001 0.000000e+000
		outer loop
			vertex -8.425941e+001 1.560404e+002 2.000000e+001
			vertex -7.501939e+001 1.568331e+002 2.000000e+001
			vertex -8.425941e+001 1.560404e+002 0.000000e+000
		endloop
	endfacet
	facet normal -8.546597e-002 9.963411e-001 0.000000e+000
		outer loop
			vertex -7.501939e+001 1.568331e+002 0.000000e+000
			vertex -8.425941e+001 1.560404e+002 0.000000e+000
			vertex -7.501939e+001 1.568331e+002 2.000000e+001
		endloop
	endfacet
	facet normal -1.931344e-002 9.998135e-001 0.000000e+000
		outer loop
			vertex -7.501939e+001 1.568331e+002 2.000000e+001
			vertex -6.574716e+001 1.570122e+002 2.000000e+001
			vertex -7.501939e+001 1.568331e+002 0.000000e+000
		endloop
	endfacet
	facet normal -1.931344e-002 9.998135e-001 0.000000e+000
		outer loop
			vertex -6.574716e+001 1.570122e+002 0.000000e+000
			vertex -7.501939e+001 1.568331e+002 0.000000e+000
			vertex -6.574716e+001 1.570122e+002 2.000000e+001
		endloop
	endfacet
	facet normal 4.692268e-002 9.988985e-001 0.000000e+000
		outer loop
			vertex -6.574716e+001 1.570122e+002 2.000000e+001
			vertex -5.648343e+001 1.565770e+002 2.000000e+001
			vertex -6.574716e+001 1.570122e+002 0.000000e+000
		endloop
	endfacet
	facet normal 4.692268e-002 9.988985e-001 -0.000000e+000
		outer loop
			vertex -5.648343e+001 1.565770e+002 0.000000e+000
			vertex -6.574716e+001 1.570122e+002 0.000000e+000
			vertex -5.648343e+001 1.565770e+002 2.000000e+001
		endloop
	endfacet
	facet normal 1.129515e-001 9.936005e-001 0.000000e+000
		outer loop
			vertex -5.648343e+001 1.565770e+002 2.000000e+001
			vertex -4.726882e+001 1.555295e+002 2.000000e+001
			vertex -5.648343e+001 1.565770e+002 0.000000e+000
		endloop
	endfacet
	facet normal 1.129515e-001 9.936005e-001 -0.000000e+000
		outer loop
			vertex -4.726882e+001 1.555295e+002 0.000000e+000
			vertex -5.648343e+001 1.565770e+002 0.000000e+000
			vertex -4.726882e+001 1.555295e+002 2.000000e+001
		endloop
	endfacet
	facet normal 1.784870e-001 9.839423e-001 0.000000e+000
		outer loop
			vertex -4.726882e+001 1.555295e+002 2.000000e+001
			vertex -3.814379e+001 1.538742e+002 2.000000e+001
			vertex -4.726882e+001 1.555295e+002 0.000000e+000
		endloop
	endfacet
	facet normal 1.784870e-001 9.839423e-001 -0.000000e+000
		outer loop
			vertex -3.814379e+001 1.538742e+002 0.000000e+000
			vertex -4.726882e+001 1.555295e+002 0.000000e+000
			vertex -3.814379e+001 1.538742e+002 2.000000e+001
		endloop
	endfacet
	facet normal 2.432400e-001 9.699661e-001 0.000000e+000
		outer loop
			vertex -3.814379e+001 1.538742e+002 2.000000e+001
			vertex -2.914836e+001 1.516184e+002 2.000000e+001
			vertex -3.814379e+001 1.538742e+002 0.000000e+000
		endloop
	endfacet
	facet normal 2.432400e-001 9.699661e-001 -0.000000e+000
		outer loop
			vertex -2.914836e+001 1.516184e+002 0.000000e+000
			vertex -3.814379e+001 1.538742e+002 0.000000e+000
			vertex -2.914836e+001 1.516184e+002 2.000000e+001
		endloop
	endfacet
	facet normal 3.069215e-001 9.517348e-001 0.000000e+000
		outer loop
			vertex -2.914836e+001 1.516184e+002 2.000000e+001
			vertex -2.032202e+001 1.487720e+002 2.000000e+001
			vertex -2.914836e+001 1.516184e+002 0.000000e+000
		endloop
	endfacet
	facet normal 3.069215e-001 9.517348e-001 -0.000000e+000
		outer loop
			vertex -2.032202e+001 1.487720e+002 0.000000e+000
			vertex -2.914836e+001 1.516184e+002 0.000000e+000
			vertex -2.032202e+001 1.487720e+002 2.000000e+001
		endloop
	endfacet
	facet normal 3.692610e-001 9.293258e-001 0.000000e+000
		outer loop
			vertex -2.032202e+001 1.487720e+002 2.000000e+001
			vertex -1.170350e+001 1.453475e+002 2.000000e+001
			vertex -2.032202e+001 1.487720e+002 0.000000e+000
		endloop
	endfacet
	facet normal 3.692610e-001 9.293258e-001 -0.000000e+000
		outer loop
			vertex -1.170350e+001 1.453475e+002 0.000000e+000
			vertex -2.032202e+001 1.487720e+002 0.000000e+000
			vertex -1.170350e+001 1.453475e+002 2.000000e+001
		endloop
	endfacet
	facet normal 4.299764e-001 9.028401e-001 0.000000e+000
		outer loop
			vertex -1.170350e+001 1.453475e+002 2.000000e+001
			vertex -3.330601e+000 1.413600e+002 2.000000e+001
			vertex -1.170350e+001 1.453475e+002 0.000000e+000
		endloop
	endfacet
	facet normal 4.299764e-001 9.028401e-001 -0.000000e+000
		outer loop
			vertex -3.330601e+000 1.413600e+002 0.000000e+000
			vertex -1.170350e+001 1.453475e+002 0.000000e+000
			vertex -3.330601e+000 1.413600e+002 2.000000e+001
		endloop
	endfacet
	facet normal 4.888081e-001 8.723913e-001 0.000000e+000
		outer loop
			vertex -3.330601e+000 1.413600e+002 2.000000e+001
			vertex 4.759921e+000 1.368268e+002 2.000000e+001
			vertex -3.330601e+000 1.413600e+002 0.000000e+000
		endloop
	endfacet
	facet normal 4.888081e-001 8.723913e-001 -0.000000e+000
		outer loop
			vertex 4.759921e+000 1.368268e+002 0.000000e+000
			vertex -3.330601e+000 1.413600e+002 0.000000e+000
			vertex 4.759921e+000 1.368268e+002 2.000000e+001
		endloop
	endfacet
	facet normal 5.454924e-001 8.381158e-001 0.000000e+000
		outer loop
			vertex 4.759921e+000 1.368268e+002 2.000000e+001
			vertex 1.253257e+001 1.317679e+002 2.000000e+001
			vertex 4.759921e+000 1.368268e+002 0.000000e+000
		endloop
	endfacet
	facet normal 5.454924e-001 8.381158e-001 -0.000000e+000
		outer loop
			vertex 1.253257e+001 1.317679e+002 0.000000e+000
			vertex 4.759921e+000 1.368268e+002 0.000000e+000
			vertex 1.253257e+001 1.317679e+002 2.000000e+001
		endloop
	endfacet
	facet normal 5.997838e-001 8.001621e-001 0.000000e+000
		outer loop
			vertex 1.253257e+001 1.317679e+002 2.000000e+001
			vertex 1.995323e+001 1.262055e+002 2.000000e+001
			vertex 1.253257e+001 1.317679e+002 0.000000e+000
		endloop
	endfacet
	facet normal 5.997838e-001 8.001621e-001 -0.000000e+000
		outer loop
			vertex 1.995323e+001 1.262055e+002 0.000000e+000
			vertex 1.253257e+001 1.317679e+002 0.000000e+000
			vertex 1.995323e+001 1.262055e+002 2.000000e+001
		endloop
	endfacet
	facet normal 6.514438e-001 7.586969e-001 0.000000e+000
		outer loop
			vertex 1.995323e+001 1.262055e+002 2.000000e+001
			vertex 2.698935e+001 1.201641e+002 2.000000e+001
			vertex 1.995323e+001 1.262055e+002 0.000000e+000
		endloop
	endfacet
	facet normal 6.514438e-001 7.586969e-001 -0.000000e+000
		outer loop
			vertex 2.698935e+001 1.201641e+002 0.000000e+000
			vertex 1.995323e+001 1.262055e+002 0.000000e+000
			vertex 2.698935e+001 1.201641e+002 2.000000e+001
		endloop
	endfacet
	facet normal 7.002449e-001 7.139027e-001 0.000000e+000
		outer loop
			vertex 2.698935e+001 1.201641e+002 2.000000e+001
			vertex 3.361005e+001 1.136700e+002 2.000000e+001
			vertex 2.698935e+001 1.201641e+002 0.000000e+000
		endloop
	endfacet
	facet normal 7.002449e-001 7.139027e-001 -0.000000e+000
		outer loop
			vertex 3.361005e+001 1.136700e+002 0.000000e+000
			vertex 2.698935e+001 1.201641e+002 0.000000e+000
			vertex 3.361005e+001 1.136700e+002 2.000000e+001
		endloop
	endfacet
	facet normal 7.459734e-001 6.659757e-001 0.000000e+000
		outer loop
			vertex 3.361005e+001 1.136700e+002 2.000000e+001
			vertex 3.978628e+001 1.067519e+002 2.000000e+001
			vertex 3.361005e+001 1.136700e+002 0.000000e+000
		endloop
	endfacet
	facet normal 7.459734e-001 6.659757e-001 -0.000000e+000
		outer loop
			vertex 3.978628e+001 1.067519e+002 0.000000e+000
			vertex 3.361005e+001 1.136700e+002 0.000000e+000
			vertex 3.978628e+001 1.067519e+002 2.000000e+001
		endloop
	endfacet
	facet normal 7.884284e-001 6.151265e-001 0.000000e+000
		outer loop
			vertex 3.978628e+001 1.067519e+002 2.000000e+001
			vertex 4.549094e+001 9.944006e+001 2.000000e+001
			vertex 3.978628e+001 1.067519e+002 0.000000e+000
		endloop
	endfacet
	facet normal 7.884284e-001 6.151265e-001 -0.000000e+000
		outer loop
			vertex 4.549094e+001 9.944006e+001 0.000000e+000
			vertex 3.978628e+001 1.067519e+002 0.000000e+000
			vertex 4.549094e+001 9.944006e+001 2.000000e+001
		endloop
	endfacet
	facet normal 8.274237e-001 5.615782e-001 0.000000e+000
		outer loop
			vertex 4.549094e+001 9.944006e+001 2.000000e+001
			vertex 5.069898e+001 9.176657e+001 2.000000e+001
			vertex 4.549094e+001 9.944006e+001 0.000000e+000
		endloop
	endfacet
	facet normal 8.274237e-001 5.615782e-001 -0.000000e+000
		outer loop
			vertex 5.069898e+001 9.176657e+001 0.000000e+000
			vertex 4.549094e+001 9.944006e+001 0.000000e+000
			vertex 5.069898e+001 9.176657e+001 2.000000e+001
		endloop
	endfacet
	facet normal 8.627883e-001 5.055653e-001 0.000000e+000
		outer loop
			vertex 5.069898e+001 9.176657e+001 2.000000e+001
			vertex 5.538758e+001 8.376511e+001 2.000000e+001
			vertex 5.069898e+001 9.176657e+001 0.000000e+000
		endloop
	endfacet
	facet normal 8.627883e-001 5.055653e-001 -0.000000e+000
		outer loop
			vertex 5.538758e+001 8.376511e+001 0.000000e+000
			vertex 5.069898e+001 9.176657e+001 0.000000e+000
			vertex 5.538758e+001 8.376511e+001 2.000000e+001
		endloop
	endfacet
	facet normal 8.943667e-001 4.473344e-001 0.000000e+000
		outer loop
			vertex 5.538758e+001 8.376511e+001 2.000000e+001
			vertex 5.953613e+001 7.547080e+001 2.000000e+001
			vertex 5.538758e+001 8.376511e+001 0.000000e+000
		endloop
	endfacet
	facet normal 8.943667e-001 4.473344e-001 -0.000000e+000
		outer loop
			vertex 5.953613e+001 7.547080e+001 0.000000e+000
			vertex 5.538758e+001 8.376511e+001 0.000000e+000
			vertex 5.953613e+001 7.547080e+001 2.000000e+001
		endloop
	endfacet
	facet normal 9.220209e-001 3.871401e-001 0.000000e+000
		outer loop
			vertex 5.953613e+001 7.547080e+001 2.000000e+001
			vertex 6.312645e+001 6.692002e+001 2.000000e+001
			vertex 5.953613e+001 7.547080e+001 0.000000e+000
		endloop
	endfacet
	facet normal 9.220209e-001 3.871401e-001 -0.000000e+000
		outer loop
			vertex 6.312645e+001 6.692002e+001 0.000000e+000
			vertex 5.953613e+001 7.547080e+001 0.000000e+000
			vertex 6.312645e+001 6.692002e+001 2.000000e+001
		endloop
	endfacet
	facet normal 9.456289e-001 3.252474e-001 0.000000e+000
		outer loop
			vertex 6.312645e+001 6.692002e+001 2.000000e+001
			vertex 6.614278e+001 5.815030e+001 2.000000e+001
			vertex 6.312645e+001 6.692002e+001 0.000000e+000
		endloop
	endfacet
	facet normal 9.456289e-001 3.252474e-001 -0.000000e+000
		outer loop
			vertex 6.614278e+001 5.815030e+001 0.000000e+000
			vertex 6.312645e+001 6.692002e+001 0.000000e+000
			vertex 6.614278e+001 5.815030e+001 2.000000e+001
		endloop
	endfacet
	facet normal 9.650877e-001 2.619268e-001 0.000000e+000
		outer loop
			vertex 6.614278e+001 5.815030e+001 2.000000e+001
			vertex 6.857188e+001 4.920012e+001 2.000000e+001
			vertex 6.614278e+001 5.815030e+001 0.000000e+000
		endloop
	endfacet
	facet normal 9.650877e-001 2.619268e-001 -0.000000e+000
		outer loop
			vertex 6.857188e+001 4.920012e+001 0.000000e+000
			vertex 6.614278e+001 5.815030e+001 0.000000e+000
			vertex 6.857188e+001 4.920012e+001 2.000000e+001
		endloop
	endfacet
	facet normal 9.803115e-001 1.974574e-001 0.000000e+000
		outer loop
			vertex 6.857188e+001 4.920012e+001 2.000000e+001
			vertex 7.040309e+001 4.010876e+001 2.000000e+001
			vertex 6.857188e+001 4.920012e+001 0.000000e+000
		endloop
	endfacet
	facet normal 9.803115e-001 1.974574e-001 -0.000000e+000
		outer loop
			vertex 7.040309e+001 4.010876e+001 0.000000e+000
			vertex 6.857188e+001 4.920012e+001 0.000000e+000
			vertex 7.040309e+001 4.010876e+001 2.000000e+001
		endloop
	endfacet
	facet normal 9.912335e-001 1.321219e-001 0.000000e+000
		outer loop
			vertex 7.040309e+001 4.010876e+001 2.000000e+001
			vertex 7.162838e+001 3.091610e+001 2.000000e+001
			vertex 7.040309e+001 4.010876e+001 0.000000e+000
		endloop
	endfacet
	facet normal 9.912335e-001 1.321219e-001 -0.000000e+000
		outer loop
			vertex 7.162838e+001 3.091610e+001 0.000000e+000
			vertex 7.040309e+001 4.010876e+001 0.000000e+000
			vertex 7.162838e+001 3.091610e+001 2.000000e+001
		endloop
	endfacet
	facet normal 9.978060e-001 6.620638e-002 0.000000e+000
		outer loop
			vertex 7.162838e+001 3.091610e+001 2.000000e+001
			vertex 7.224238e+001 2.166250e+001 2.000000e+001
			vertex 7.162838e+001 3.091610e+001 0.000000e+000
		endloop
	endfacet
	facet normal 9.978060e-001 6.620638e-002 -0.000000e+000
		outer loop
			vertex 7.224238e+001 2.166250e+001 0.000000e+000
			vertex 7.162838e+001 3.091610e+001 0.000000e+000
			vertex 7.224238e+001 2.166250e+001 2.000000e+001
		endloop
	endfacet
	facet normal 1.000000e+000 0.000000e+000 0.000000e+000
		outer loop
			vertex 7.224238e+001 2.166250e+001 2.000000e+001
			vertex 7.224238e+001 1.238854e+001 2.000000e+001
			vertex 7.224238e+001 2.166250e+001 0.000000e+000
		endloop
	endfacet
	facet normal 1.000000e+000 0.000000e+000 0.000000e+000
		outer loop
			vertex 7.224238e+001 1.238854e+001 0.000000e+000
			vertex 7.224238e+001 2.166250e+001 0.000000e+000
			vertex 7.224238e+001 1.238854e+001 2.000000e+001
		endloop
	endfacet
	facet normal 9.978060e-001 -6.620638e-002 0.000000e+000
		outer loop
			vertex 7.224238e+001 1.238854e+001 2.000000e+001
			vertex 7.162838e+001 3.134936e+000 2.000000e+001
			vertex 7.224238e+001 1.238854e+001 0.000000e+000
		endloop
	endfacet
	facet normal 9.978060e-001 -6.620638e-002 0.000000e+000
		outer loop
			vertex 7.162838e+001 3.134936e+000 0.000000e+000
			vertex 7.224238e+001 1.238854e+001 0.000000e+000
			vertex 7.162838e+001 3.134936e+000 2.000000e+001
		endloop
	endfacet
	facet normal 9.912335e-001 -1.321219e-001 0.000000e+000
		outer loop
			vertex 7.162838e+001 3.134936e+000 2.000000e+001
			vertex 7.040309e+001 -6.057717e+000 2.000000e+001
			vertex 7.162838e+001 3.134936e+000 0.000000e+000
		endloop
	endfacet
	facet normal 9.912335e-001 -1.321219e-001 0.000000e+000
		outer loop
			vertex 7.040309e+001 -6.057717e+000 0.000000e+000
			vertex 7.162838e+001 3.134936e+000 0.000000e+000
			vertex 7.040309e+001 -6.057717e+000 2.000000e+001
		endloop
	endfacet
	facet normal 9.803115e-001 -1.974574e-001 0.000000e+000
		outer loop
			vertex 7.040309e+001 -6.057717e+000 2.000000e+001
			vertex 6.857188e+001 -1.514908e+001 2.000000e+001
			vertex 7.040309e+001 -6.057717e+000 0.000000e+000
		endloop
	endfacet
	facet normal 9.803115e-001 -1.974574e-001 0.000000e+000
		outer loop
			vertex 6.857188e+001 -1.514908e+001 0.000000e+000
			vertex 7.040309e+001 -6.057717e+000 0.000000e+000
			vertex 6.857188e+001 -1.514908e+001 2.000000e+001
		endloop
	endfacet
	facet normal 9.650877e-001 -2.619269e-001 0.000000e+000
		outer loop
			vertex 6.857188e+001 -1.514908e+001 2.000000e+001
			vertex 6.614278e+001 -2.409926e+001 2.000000e+001
			vertex 6.857188e+001 -1.514908e+001 0.000000e+000
		endloop
	endfacet
	facet normal 9.650877e-001 -2.619269e-001 0.000000e+000
		outer loop
			vertex 6.614278e+001 -2.409926e+001 0.000000e+000
			vertex 6.857188e+001 -1.514908e+001 0.000000e+000
			vertex 6.614278e+001 -2.409926e+001 2.000000e+001
		endloop
	endfacet
	facet normal 9.456289e-001 -3.252475e-001 0.000000e+000
		outer loop
			vertex 6.614278e+001 -2.409926e+001 2.000000e+001
			vertex 6.312645e+001 -3.286898e+001 2.000000e+001
			vertex 6.614278e+001 -2.409926e+001 0.000000e+000
		endloop
	endfacet
	facet normal 9.456289e-001 -3.252475e-001 0.000000e+000
		outer loop
			vertex 6.312645e+001 -3.286898e+001 0.000000e+000
			vertex 6.614278e+001 -2.409926e+001 0.000000e+000
			vertex 6.312645e+001 -3.286898e+001 2.000000e+001
		endloop
	endfacet
	facet normal 9.220209e-001 -3.871401e-001 0.000000e+000
		outer loop
			vertex 6.312645e+001 -3.286898e+001 2.000000e+001
			vertex 5.953613e+001 -4.141976e+001 2.000000e+001
			vertex 6.312645e+001 -3.286898e+001 0.000000e+000
		endloop
	endfacet
	facet normal 9.220209e-001 -3.871401e-001 0.000000e+000
		outer loop
			vertex 5.953613e+001 -4.141976e+001 0.000000e+000
			vertex 6.312645e+001 -3.286898e+001 0.000000e+000
			vertex 5.953613e+001 -4.141976e+001 2.000000e+001
		endloop
	endfacet
	facet normal 8.943669e-001 -4.473343e-001 0.000000e+000
		outer loop
			vertex 5.953613e+001 -4.141976e+001 2.000000e+001
			vertex 5.538758e+001 -4.971407e+001 2.000000e+001
			vertex 5.953613e+001 -4.141976e+001 0.000000e+000
		endloop
	endfacet
	facet normal 8.943669e-001 -4.473343e-001 0.000000e+000
		outer loop
			vertex 5.538758e+001 -4.971407e+001 0.000000e+000
			vertex 5.953613e+001 -4.141976e+001 0.000000e+000
			vertex 5.538758e+001 -4.971407e+001 2.000000e+001
		endloop
	endfacet
	facet normal 8.627883e-001 -5.055655e-001 0.000000e+000
		outer loop
			vertex 5.538758e+001 -4.971407e+001 2.000000e+001
			vertex 5.069898e+001 -5.771553e+001 2.000000e+001
			vertex 5.538758e+001 -4.971407e+001 0.000000e+000
		endloop
	endfacet
	facet normal 8.627883e-001 -5.055655e-001 0.000000e+000
		outer loop
			vertex 5.069898e+001 -5.771553e+001 0.000000e+000
			vertex 5.538758e+001 -4.971407e+001 0.000000e+000
			vertex 5.069898e+001 -5.771553e+001 2.000000e+001
		endloop
	endfacet
	facet normal 8.274238e-001 -5.615780e-001 0.000000e+000
		outer loop
			vertex 5.069898e+001 -5.771553e+001 2.000000e+001
			vertex 4.549094e+001 -6.538902e+001 2.000000e+001
			vertex 5.069898e+001 -5.771553e+001 0.000000e+000
		endloop
	endfacet
	facet normal 8.274238e-001 -5.615780e-001 0.000000e+000
		outer loop
			vertex 4.549094e+001 -6.538902e+001 0.000000e+000
			vertex 5.069898e+001 -5.771553e+001 0.000000e+000
			vertex 4.549094e+001 -6.538902e+001 2.000000e+001
		endloop
	endfacet
	facet normal 7.884284e-001 -6.151265e-001 0.000000e+000
		outer loop
			vertex 4.549094e+001 -6.538902e+001 2.000000e+001
			vertex 3.978628e+001 -7.270087e+001 2.000000e+001
			vertex 4.549094e+001 -6.538902e+001 0.000000e+000
		endloop
	endfacet
	facet normal 7.884284e-001 -6.151265e-001 0.000000e+000
		outer loop
			vertex 3.978628e+001 -7.270087e+001 0.000000e+000
			vertex 4.549094e+001 -6.538902e+001 0.000000e+000
			vertex 3.978628e+001 -7.270087e+001 2.000000e+001
		endloop
	endfacet
	facet normal 7.459731e-001 -6.659761e-001 0.000000e+000
		outer loop
			vertex 3.978628e+001 -7.270087e+001 2.000000e+001
			vertex 3.361005e+001 -7.961899e+001 2.000000e+001
			vertex 3.978628e+001 -7.270087e+001 0.000000e+000
		endloop
	endfacet
	facet normal 7.459731e-001 -6.659761e-001 0.000000e+000
		outer loop
			vertex 3.361005e+001 -7.961899e+001 0.000000e+000
			vertex 3.978628e+001 -7.270087e+001 0.000000e+000
			vertex 3.361005e+001 -7.961899e+001 2.000000e+001
		endloop
	endfacet
	facet normal 7.002453e-001 -7.139023e-001 0.000000e+000
		outer loop
			vertex 3.361005e+001 -7.961899e+001 2.000000e+001
			vertex 2.698935e+001 -8.611304e+001 2.000000e+001
			vertex 3.361005e+001 -7.961899e+001 0.000000e+000
		endloop
	endfacet
	facet normal 7.002453e-001 -7.139023e-001 0.000000e+000
		outer loop
			vertex 2.698935e+001 -8.611304e+001 0.000000e+000
			vertex 3.361005e+001 -7.961899e+001 0.000000e+000
			vertex 2.698935e+001 -8.611304e+001 2.000000e+001
		endloop
	endfacet
	facet normal 6.514438e-001 -7.586969e-001 0.000000e+000
		outer loop
			vertex 2.698935e+001 -8.611304e+001 2.000000e+001
			vertex 1.995323e+001 -9.215450e+001 2.000000e+001
			vertex 2.698935e+001 -8.611304e+001 0.000000e+000
		endloop
	endfacet
	facet normal 6.514438e-001 -7.586969e-001 0.000000e+000
		outer loop
			vertex 1.995323e+001 -9.215450e+001 0.000000e+000
			vertex 2.698935e+001 -8.611304e+001 0.000000e+000
			vertex 1.995323e+001 -9.215450e+001 2.000000e+001
		endloop
	endfacet
	facet normal 5.997838e-001 -8.001621e-001 0.000000e+000
		outer loop
			vertex 1.995323e+001 -9.215450e+001 2.000000e+001
			vertex 1.253257e+001 -9.771686e+001 2.000000e+001
			vertex 1.995323e+001 -9.215450e+001 0.000000e+000
		endloop
	endfacet
	facet normal 5.997838e-001 -8.001621e-001 0.000000e+000
		outer loop
			vertex 1.253257e+001 -9.771686e+001 0.000000e+000
			vertex 1.995323e+001 -9.215450e+001 0.000000e+000
			vertex 1.253257e+001 -9.771686e+001 2.000000e+001
		endloop
	endfacet
	facet normal 5.454929e-001 -8.381155e-001 0.000000e+000
		outer loop
			vertex 1.253257e+001 -9.771686e+001 2.000000e+001
			vertex 4.759921e+000 -1.027757e+002 2.000000e+001
			vertex 1.253257e+001 -9.771686e+001 0.000000e+000
		endloop
	endfacet
	facet normal 5.454929e-001 -8.381155e-001 0.000000e+000
		outer loop
			vertex 4.759921e+000 -1.027757e+002 0.000000e+000
			vertex 1.253257e+001 -9.771686e+001 0.000000e+000
			vertex 4.759921e+000 -1.027757e+002 2.000000e+001
		endloop
	endfacet
	facet normal 4.888069e-001 -8.723920e-001 0.000000e+000
		outer loop
			vertex 4.759921e+000 -1.027757e+002 2.000000e+001
			vertex -3.330601e+000 -1.073089e+002 2.000000e+001
			vertex 4.759921e+000 -1.027757e+002 0.000000e+000
		endloop
	endfacet
	facet normal 4.888069e-001 -8.723920e-001 0.000000e+000
		outer loop
			vertex -3.330601e+000 -1.073089e+002 0.000000e+000
			vertex 4.759921e+000 -1.027757e+002 0.000000e+000
			vertex -3.330601e+000 -1.073089e+002 2.000000e+001
		endloop
	endfacet
	facet normal 4.299771e-001 -9.028398e-001 0.000000e+000
		outer loop
			vertex -3.330601e+000 -1.073089e+002 2.000000e+001
			vertex -1.170350e+001 -1.112965e+002 2.000000e+001
			vertex -3.330601e+000 -1.073089e+002 0.000000e+000
		endloop
	endfacet
	facet normal 4.299771e-001 -9.028398e-001 0.000000e+000
		outer loop
			vertex -1.170350e+001 -1.112965e+002 0.000000e+000
			vertex -3.330601e+000 -1.073089e+002 0.000000e+000
			vertex -1.170350e+001 -1.112965e+002 2.000000e+001
		endloop
	endfacet
	facet normal 3.692603e-001 -9.293260e-001 0.000000e+000
		outer loop
			vertex -1.170350e+001 -1.112965e+002 2.000000e+001
			vertex -2.032202e+001 -1.147210e+002 2.000000e+001
			vertex -1.170350e+001 -1.112965e+002 0.000000e+000
		endloop
	endfacet
	facet normal 3.692603e-001 -9.293260e-001 0.000000e+000
		outer loop
			vertex -2.032202e+001 -1.147210e+002 0.000000e+000
			vertex -1.170350e+001 -1.112965e+002 0.000000e+000
			vertex -2.032202e+001 -1.147210e+002 2.000000e+001
		endloop
	endfacet
	facet normal 3.069230e-001 -9.517344e-001 0.000000e+000
		outer loop
			vertex -2.032202e+001 -1.147210e+002 2.000000e+001
			vertex -2.914836e+001 -1.175674e+002 2.000000e+001
			vertex -2.032202e+001 -1.147210e+002 0.000000e+000
		endloop
	endfacet
	facet normal 3.069230e-001 -9.517344e-001 0.000000e+000
		outer loop
			vertex -2.914836e+001 -1.175674e+002 0.000000e+000
			vertex -2.032202e+001 -1.147210e+002 0.000000e+000
			vertex -2.914836e+001 -1.175674e+002 2.000000e+001
		endloop
	endfacet
	facet normal 2.432385e-001 -9.699665e-001 0.000000e+000
		outer loop
			vertex -2.914836e+001 -1.175674e+002 2.000000e+001
			vertex -3.814379e+001 -1.198232e+002 2.000000e+001
			vertex -2.914836e+001 -1.175674e+002 0.000000e+000
		endloop
	endfacet
	facet normal 2.432385e-001 -9.699665e-001 0.000000e+000
		outer loop
			vertex -3.814379e+001 -1.198232e+002 0.000000e+000
			vertex -2.914836e+001 -1.175674e+002 0.000000e+000
			vertex -3.814379e+001 -1.198232e+002 2.000000e+001
		endloop
	endfacet
	facet normal 1.784870e-001 -9.839423e-001 0.000000e+000
		outer loop
			vertex -3.814379e+001 -1.198232e+002 2.000000e+001
			vertex -4.726882e+001 -1.214785e+002 2.000000e+001
			vertex -3.814379e+001 -1.198232e+002 0.000000e+000
		endloop
	endfacet
	facet normal 1.784870e-001 -9.839423e-001 0.000000e+000
		outer loop
			vertex -4.726882e+001 -1.214785e+002 0.000000e+000
			vertex -3.814379e+001 -1.198232e+002 0.000000e+000
			vertex -4.726882e+001 -1.214785e+002 2.000000e+001
		endloop
	endfacet
	facet normal 1.129531e-001 -9.936003e-001 0.000000e+000
		outer loop
			vertex -4.726882e+001 -1.214785e+002 2.000000e+001
			vertex -5.648343e+001 -1.225260e+002 2.000000e+001
			vertex -4.726882e+001 -1.214785e+002 0.000000e+000
		endloop
	endfacet
	facet normal 1.129531e-001 -9.936003e-001 0.000000e+000
		outer loop
			vertex -5.648343e+001 -1.225260e+002 0.000000e+000
			vertex -4.726882e+001 -1.214785e+002 0.000000e+000
			vertex -5.648343e+001 -1.225260e+002 2.000000e+001
		endloop
	endfacet
	facet normal 4.692188e-002 -9.988986e-001 0.000000e+000
		outer loop
			vertex -5.648343e+001 -1.225260e+002 2.000000e+001
			vertex -6.574716e+001 -1.229611e+002 2.000000e+001
			vertex -5.648343e+001 -1.225260e+002 0.000000e+000
		endloop
	endfacet
	facet normal 4.692188e-002 -9.988986e-001 0.000000e+000
		outer loop
			vertex -6.574716e+001 -1.229611e+002 0.000000e+000
			vertex -5.648343e+001 -1.225260e+002 0.000000e+000
			vertex -6.574716e+001 -1.229611e+002 2.000000e+001
		endloop
	endfacet
	facet normal -1.931424e-002 -9.998134e-001 -0.000000e+000
		outer loop
			vertex -6.574716e+001 -1.229611e+002 2.000000e+001
			vertex -7.501939e+001 -1.227820e+002 2.000000e+001
			vertex -6.574716e+001 -1.229611e+002 0.000000e+000
		endloop
	endfacet
	facet normal -1.931424e-002 -9.998134e-001 0.000000e+000
		outer loop
			vertex -7.501939e+001 -1.227820e+002 0.000000e+000
			vertex -6.574716e+001 -1.229611e+002 0.000000e+000
			vertex -7.501939e+001 -1.227820e+002 2.000000e+001
		endloop
	endfacet
	facet normal -8.546517e-002 -9.963412e-001 -0.000000e+000
		outer loop
			vertex -7.501939e+001 -1.227820e+002 2.000000e+001
			vertex -8.425941e+001 -1.219894e+002 2.000000e+001
			vertex -7.501939e+001 -1.227820e+002 0.000000e+000
		endloop
	endfacet
	facet normal -8.546517e-002 -9.963412e-001 0.000000e+000
		outer loop
			vertex -8.425941e+001 -1.219894e+002 0.000000e+000
			vertex -7.501939e+001 -1.227820e+002 0.000000e+000
			vertex -8.425941e+001 -1.219894e+002 2.000000e+001
		endloop
	endfacet
	facet normal -1.512418e-001 -9.884968e-001 -0.000000e+000
		outer loop
			vertex -8.425941e+001 -1.219894e+002 2.000000e+001
			vertex -9.342668e+001 -1.205868e+002 2.000000e+001
			vertex -8.425941e+001 -1.219894e+002 0.000000e+000
		endloop
	endfacet
	facet normal -1.512418e-001 -9.884968e-001 0.000000e+000
		outer loop
			vertex -9.342668e+001 -1.205868e+002 0.000000e+000
			vertex -8.425941e+001 -1.219894e+002 0.000000e+000
			vertex -9.342668e+001 -1.205868e+002 2.000000e+001
		endloop
	endfacet
	facet normal -2.163546e-001 -9.763148e-001 -0.000000e+000
		outer loop
			vertex -9.342668e+001 -1.205868e+002 2.000000e+001
			vertex -1.024810e+002 -1.185803e+002 2.000000e+001
			vertex -9.342668e+001 -1.205868e+002 0.000000e+000
		endloop
	endfacet
	facet normal -2.163546e-001 -9.763148e-001 0.000000e+000
		outer loop
			vertex -1.024810e+002 -1.185803e+002 0.000000e+000
			vertex -9.342668e+001 -1.205868e+002 0.000000e+000
			vertex -1.024810e+002 -1.185803e+002 2.000000e+001
		endloop
	endfacet
	facet normal -2.805180e-001 -9.598488e-001 -0.000000e+000
		outer loop
			vertex -1.024810e+002 -1.185803e+002 2.000000e+001
			vertex -1.113826e+002 -1.159788e+002 2.000000e+001
			vertex -1.024810e+002 -1.185803e+002 0.000000e+000
		endloop
	endfacet
	facet normal -2.805180e-001 -9.598488e-001 0.000000e+000
		outer loop
			vertex -1.113826e+002 -1.159788e+002 0.000000e+000
			vertex -1.024810e+002 -1.185803e+002 0.000000e+000
			vertex -1.113826e+002 -1.159788e+002 2.000000e+001
		endloop
	endfacet
	facet normal -3.434507e-001 -9.391707e-001 -0.000000e+000
		outer loop
			vertex -1.113826e+002 -1.159788e+002 2.000000e+001
			vertex -1.200924e+002 -1.127937e+002 2.000000e+001
			vertex -1.113826e+002 -1.159788e+002 0.000000e+000
		endloop
	endfacet
	facet normal -3.434507e-001 -9.391707e-001 0.000000e+000
		outer loop
			vertex -1.200924e+002 -1.127937e+002 0.000000e+000
			vertex -1.113826e+002 -1.159788e+002 0.000000e+000
			vertex -1.200924e+002 -1.127937e+002 2.000000e+001
		endloop
	endfacet
	facet normal -4.048756e-001 -9.143717e-001 -0.000000e+000
		outer loop
			vertex -1.200924e+002 -1.127937e+002 2.000000e+001
			vertex -1.285722e+002 -1.090389e+002 2.000000e+001
			vertex -1.200924e+002 -1.127937e+002 0.000000e+000
		endloop
	endfacet
	facet normal -4.048756e-001 -9.143717e-001 0.000000e+000
		outer loop
			vertex -1.285722e+002 -1.090389e+002 0.000000e+000
			vertex -1.200924e+002 -1.127937e+002 0.000000e+000
			vertex -1.285722e+002 -1.090389e+002 2.000000e+001
		endloop
	endfacet
	facet normal -4.645239e-001 -8.855606e-001 -0.000000e+000
		outer loop
			vertex -1.285722e+002 -1.090389e+002 2.000000e+001
			vertex -1.367849e+002 -1.047309e+002 2.000000e+001
			vertex -1.285722e+002 -1.090389e+002 0.000000e+000
		endloop
	endfacet
	facet normal -4.645239e-001 -8.855606e-001 0.000000e+000
		outer loop
			vertex -1.367849e+002 -1.047309e+002 0.000000e+000
			vertex -1.285722e+002 -1.090389e+002 0.000000e+000
			vertex -1.367849e+002 -1.047309e+002 2.000000e+001
		endloop
	endfacet
	facet normal -5.221357e-001 -8.528625e-001 -0.000000e+000
		outer loop
			vertex -1.367849e+002 -1.047309e+002 2.000000e+001
			vertex -1.446943e+002 -9.988865e+001 2.000000e+001
			vertex -1.367849e+002 -1.047309e+002 0.000000e+000
		endloop
	endfacet
	facet normal -5.221357e-001 -8.528625e-001 0.000000e+000
		outer loop
			vertex -1.446943e+002 -9.988865e+001 0.000000e+000
			vertex -1.367849e+002 -1.047309e+002 0.000000e+000
			vertex -1.446943e+002 -9.988865e+001 2.000000e+001
		endloop
	endfacet
	facet normal -5.774540e-001 -8.164232e-001 -0.000000e+000
		outer loop
			vertex -1.446943e+002 -9.988865e+001 2.000000e+001
			vertex -1.522658e+002 -9.453336e+001 2.000000e+001
			vertex -1.446943e+002 -9.988865e+001 0.000000e+000
		endloop
	endfacet
	facet normal -5.774540e-001 -8.164232e-001 0.000000e+000
		outer loop
			vertex -1.522658e+002 -9.453336e+001 0.000000e+000
			vertex -1.446943e+002 -9.988865e+001 0.000000e+000
			vertex -1.522658e+002 -9.453336e+001 2.000000e+001
		endloop
	endfacet
	facet normal -6.302395e-001 -7.764007e-001 -0.000000e+000
		outer loop
			vertex -1.522658e+002 -9.453336e+001 2.000000e+001
			vertex -1.594661e+002 -8.868855e+001 2.000000e+001
			vertex -1.522658e+002 -9.453336e+001 0.000000e+000
		endloop
	endfacet
	facet normal -6.302395e-001 -7.764007e-001 0.000000e+000
		outer loop
			vertex -1.594661e+002 -8.868855e+001 0.000000e+000
			vertex -1.522658e+002 -9.453336e+001 0.000000e+000
			vertex -1.594661e+002 -8.868855e+001 2.000000e+001
		endloop
	endfacet
	facet normal -6.802591e-001 -7.329717e-001 -0.000000e+000
		outer loop
			vertex -1.594661e+002 -8.868855e+001 2.000000e+001
			vertex -1.662636e+002 -8.237986e+001 2.000000e+001
			vertex -1.594661e+002 -8.868855e+001 0.000000e+000
		endloop
	endfacet
	facet normal -6.802591e-001 -7.329717e-001 0.000000e+000
		outer loop
			vertex -1.662636e+002 -8.237986e+001 0.000000e+000
			vertex -1.594661e+002 -8.868855e+001 0.000000e+000
			vertex -1.662636e+002 -8.237986e+001 2.000000e+001
		endloop
	endfacet
	facet normal -7.272940e-001 -6.863260e-001 -0.000000e+000
		outer loop
			vertex -1.662636e+002 -8.237986e+001 2.000000e+001
			vertex -1.726286e+002 -7.563496e+001 2.000000e+001
			vertex -1.662636e+002 -8.237986e+001 0.000000e+000
		endloop
	endfacet
	facet normal -7.272940e-001 -6.863260e-001 0.000000e+000
		outer loop
			vertex -1.726286e+002 -7.563496e+001 0.000000e+000
			vertex -1.662636e+002 -8.237986e+001 0.000000e+000
			vertex -1.726286e+002 -7.563496e+001 2.000000e+001
		endloop
	endfacet
	facet normal -7.711374e-001 -6.366687e-001 -0.000000e+000
		outer loop
			vertex -1.726286e+002 -7.563496e+001 2.000000e+001
			vertex -1.785330e+002 -6.848347e+001 2.000000e+001
			vertex -1.726286e+002 -7.563496e+001 0.000000e+000
		endloop
	endfacet
	facet normal -7.711374e-001 -6.366687e-001 0.000000e+000
		outer loop
			vertex -1.785330e+002 -6.848347e+001 0.000000e+000
			vertex -1.726286e+002 -7.563496e+001 0.000000e+000
			vertex -1.785330e+002 -6.848347e+001 2.000000e+001
		endloop
	endfacet
	facet normal -8.115972e-001 -5.842174e-001 -0.000000e+000
		outer loop
			vertex -1.785330e+002 -6.848347e+001 2.000000e+001
			vertex -1.839510e+002 -6.095676e+001 2.000000e+001
			vertex -1.785330e+002 -6.848347e+001 0.000000e+000
		endloop
	endfacet
	facet normal -8.115972e-001 -5.842174e-001 0.000000e+000
		outer loop
			vertex -1.839510e+002 -6.095676e+001 0.000000e+000
			vertex -1.785330e+002 -6.848347e+001 0.000000e+000
			vertex -1.839510e+002 -6.095676e+001 2.000000e+001
		endloop
	endfacet
	facet normal -8.484945e-001 -5.292042e-001 -0.000000e+000
		outer loop
			vertex -1.839510e+002 -6.095676e+001 2.000000e+001
			vertex -1.888588e+002 -5.308786e+001 2.000000e+001
			vertex -1.839510e+002 -6.095676e+001 0.000000e+000
		endloop
	endfacet
	facet normal -8.484945e-001 -5.292042e-001 0.000000e+000
		outer loop
			vertex -1.888588e+002 -5.308786e+001 0.000000e+000
			vertex -1.839510e+002 -6.095676e+001 0.000000e+000
			vertex -1.888588e+002 -5.308786e+001 2.000000e+001
		endloop
	endfacet
	facet normal -8.816699e-001 -4.718666e-001 -0.000000e+000
		outer loop
			vertex -1.888588e+002 -5.308786e+001 2.000000e+001
			vertex -1.932349e+002 -4.491130e+001 2.000000e+001
			vertex -1.888588e+002 -5.308786e+001 0.000000e+000
		endloop
	endfacet
	facet normal -8.816699e-001 -4.718666e-001 0.000000e+000
		outer loop
			vertex -1.932349e+002 -4.491130e+001 0.000000e+000
			vertex -1.888588e+002 -5.308786e+001 0.000000e+000
			vertex -1.932349e+002 -4.491130e+001 2.000000e+001
		endloop
	endfacet
	facet normal -9.109761e-001 -4.124592e-001 -0.000000e+000
		outer loop
			vertex -1.932349e+002 -4.491130e+001 2.000000e+001
			vertex -1.970600e+002 -3.646294e+001 2.000000e+001
			vertex -1.932349e+002 -4.491130e+001 0.000000e+000
		endloop
	endfacet
	facet normal -9.109761e-001 -4.124592e-001 0.000000e+000
		outer loop
			vertex -1.970600e+002 -3.646294e+001 0.000000e+000
			vertex -1.932349e+002 -4.491130e+001 0.000000e+000
			vertex -1.970600e+002 -3.646294e+001 2.000000e+001
		endloop
	endfacet
	facet normal -9.362844e-001 -3.512427e-001 -0.000000e+000
		outer loop
			vertex -1.970600e+002 -3.646294e+001 2.000000e+001
			vertex -2.003174e+002 -2.777988e+001 2.000000e+001
			vertex -1.970600e+002 -3.646294e+001 0.000000e+000
		endloop
	endfacet
	facet normal -9.362844e-001 -3.512427e-001 0.000000e+000
		outer loop
			vertex -2.003174e+002 -2.777988e+001 0.000000e+000
			vertex -1.970600e+002 -3.646294e+001 0.000000e+000
			vertex -2.003174e+002 -2.777988e+001 2.000000e+001
		endloop
	endfacet
	facet normal -9.574848e-001 -2.884836e-001 -0.000000e+000
		outer loop
			vertex -2.003174e+002 -2.777988e+001 2.000000e+001
			vertex -2.029928e+002 -1.890021e+001 2.000000e+001
			vertex -2.003174e+002 -2.777988e+001 0.000000e+000
		endloop
	endfacet
	facet normal -9.574848e-001 -2.884836e-001 0.000000e+000
		outer loop
			vertex -2.029928e+002 -1.890021e+001 0.000000e+000
			vertex -2.003174e+002 -2.777988e+001 0.000000e+000
			vertex -2.029928e+002 -1.890021e+001 2.000000e+001
		endloop
	endfacet
	facet normal -9.744836e-001 -2.244585e-001 -0.000000e+000
		outer loop
			vertex -2.029928e+002 -1.890021e+001 2.000000e+001
			vertex -2.050744e+002 -9.862900e+000 2.000000e+001
			vertex -2.029928e+002 -1.890021e+001 0.000000e+000
		endloop
	endfacet
	facet normal -9.744836e-001 -2.244585e-001 0.000000e+000
		outer loop
			vertex -2.050744e+002 -9.862900e+000 0.000000e+000
			vertex -2.029928e+002 -1.890021e+001 0.000000e+000
			vertex -2.050744e+002 -9.862900e+000 2.000000e+001
		endloop
	endfacet
	facet normal -9.872060e-001 -1.594500e-001 -0.000000e+000
		outer loop
			vertex -2.050744e+002 -9.862900e+000 2.000000e+001
			vertex -2.065532e+002 -7.075974e-001 2.000000e+001
			vertex -2.050744e+002 -9.862900e+000 0.000000e+000
		endloop
	endfacet
	facet normal -9.872060e-001 -1.594500e-001 0.000000e+000
		outer loop
			vertex -2.065532e+002 -7.075974e-001 0.000000e+000
			vertex -2.050744e+002 -9.862900e+000 0.000000e+000
			vertex -2.065532e+002 -7.075974e-001 2.000000e+001
		endloop
	endfacet
	facet normal -9.955965e-001 -9.374248e-002 -0.000000e+000
		outer loop
			vertex -2.065532e+002 -7.075974e-001 2.000000e+001
			vertex -2.074225e+002 8.525520e+000 2.000000e+001
			vertex -2.065532e+002 -7.075974e-001 0.000000e+000
		endloop
	endfacet
	facet normal -9.955965e-001 -9.374248e-002 0.000000e+000
		outer loop
			vertex -2.074225e+002 8.525520e+000 0.000000e+000
			vertex -2.065532e+002 -7.075974e-001 0.000000e+000
			vertex -2.074225e+002 8.525520e+000 2.000000e+001
		endloop
	endfacet
endsolid
