<?xml version="1.0" standalone="no"?>
<!DOCTYPE svg PUBLIC "-//W3C//DTD SVG 1.1//EN"
  "http://www.w3.org/Graphics/SVG/1.1/DTD/svg11.dtd">
<svg width="315.1000061035156mm" height="315.09600830078125mm" viewBox="-157.5500030517578 -157.54800415039062 315.1000061035156 315.09600830078125" xmlns="http://www.w3.org/2000/svg" version="1.1">
	<title>svgOutput</title>
	<desc>made with tinkercad</desc>
<path d="M -43.07500076293945 155.65899658203125 L -43.080867767333984 155.6479949951172 L -43.25899887084961 155.31399536132812 L -43.37300109863281 154.93800354003906 L -43.4119987487793 154.54800415039062 L -43.37300109863281 154.1580047607422 L -43.25899887084961 153.7830047607422 L -43.07500076293945 153.43699645996094 L -42.82600021362305 153.13400268554688 L -42.52299880981445 152.88499450683594 L -42.176998138427734 152.6999969482422 L -41.801998138427734 152.58700561523438 L -41.4119987487793 152.54800415039062 L -41.020999908447266 152.58700561523438 L -40.959999084472656 152.60537719726562 L -40.645999908447266 152.6999969482422 L -40.29999923706055 152.88499450683594 L -39.99700164794922 153.13400268554688 L -39.749000549316406 153.43699645996094 L -39.56399917602539 153.7830047607422 L -39.45000076293945 154.1580047607422 L -39.4119987487793 154.54800415039062 L -39.45000076293945 154.93800354003906 L -39.56399917602539 155.31399536132812 L -39.749000549316406 155.65899658203125 L -39.99700164794922 155.96200561523438 L -40.29999923706055 156.21099853515625 L -40.645999908447266 156.39599609375 L -40.959999084472656 156.491455078125 L -41.020999908447266 156.50999450683594 L -41.4119987487793 156.54800415039062 L -41.801998138427734 156.50999450683594 L -42.176998138427734 156.39599609375 L -42.52299880981445 156.21099853515625 L -42.82600021362305 155.96200561523438 L -43.07500076293945 155.65899658203125 M 72.74299621582031 119.61900329589844 L 65.53600311279297 123.67093658447266 L 64.41000366210938 124.30400085449219 L 55.777000427246094 128.41000366210938 L 49.026737213134766 131.07200622558594 L 46.88399887084961 131.91700744628906 L 37.77199935913086 134.80799865722656 L 32.768001556396484 136.0277557373047 L 28.483999252319336 137.07200622558594 L 19.06399917602539 138.6959991455078 L 9.553999900817871 139.6739959716797 L 0 140 L -9.553999900817871 139.6739959716797 L -19.06399917602539 138.6959991455078 L -28.483999252319336 137.07200622558594 L -32.768001556396484 136.0277557373047 L -37.77199935913086 134.80799865722656 L -46.88399887084961 131.91700744628906 L -49.026737213134766 131.07200622558594 L -55.777000427246094 128.41000366210938 L -64.41000366210938 124.30400085449219 L -65.53600311279297 123.67093658447266 L -72.74299621582031 119.61900329589844 L -80.73600006103516 114.3759994506836 L -88.35299682617188 108.5999984741211 L -95.55899810791016 102.31700134277344 L -98.30400085449219 99.57159423828125 L -99.57140350341797 98.30400085449219 L -102.31800079345703 95.55699920654297 L -108.60099792480469 88.35199737548828 L -114.37699890136719 80.73500061035156 L -119.62000274658203 72.74199676513672 L -123.67137145996094 65.53600311279297 L -124.30500030517578 64.40899658203125 L -128.41099548339844 55.7760009765625 L -131.07200622558594 49.02827453613281 L -131.91799926757812 46.882999420166016 L -134.80999755859375 37.77199935913086 L -136.0292205810547 32.768001556396484 L -137.072998046875 28.483999252319336 L -138.697998046875 19.062999725341797 L -139.6750030517578 9.553999900817871 L -140.0019989013672 4.440892164675075e-17 L -139.6750030517578 -9.553999900817871 L -138.697998046875 -19.062999725341797 L -137.072998046875 -28.483999252319336 L -136.0292205810547 -32.768001556396484 L -134.80999755859375 -37.77199935913086 L -131.91799926757812 -46.882999420166016 L -131.07200622558594 -49.02827453613281 L -128.41099548339844 -55.7760009765625 L -124.30500030517578 -64.40899658203125 L -123.67137145996094 -65.53600311279297 L -119.62000274658203 -72.74199676513672 L -114.37699890136719 -80.73500061035156 L -108.60099792480469 -88.35199737548828 L -102.31800079345703 -95.55699920654297 L -99.57140350341797 -98.30400085449219 L -98.30400085449219 -99.57159423828125 L -95.55899810791016 -102.31700134277344 L -88.35299682617188 -108.5999984741211 L -80.73600006103516 -114.3759994506836 L -72.74299621582031 -119.61900329589844 L -65.53600311279297 -123.67093658447266 L -64.41000366210938 -124.30400085449219 L -55.777000427246094 -128.41000366210938 L -49.026737213134766 -131.07200622558594 L -46.88399887084961 -131.91700744628906 L -37.77199935913086 -134.80799865722656 L -32.768001556396484 -136.0277557373047 L -28.483999252319336 -137.07200622558594 L -19.06399917602539 -138.6959991455078 L -9.553999900817871 -139.6739959716797 L 0 -140 L 9.553999900817871 -139.6739959716797 L 19.06399917602539 -138.6959991455078 L 28.483999252319336 -137.07200622558594 L 32.768001556396484 -136.0277557373047 L 37.77199935913086 -134.80799865722656 L 46.88399887084961 -131.91700744628906 L 49.026737213134766 -131.07200622558594 L 55.777000427246094 -128.41000366210938 L 64.41000366210938 -124.30400085449219 L 65.53600311279297 -123.67093658447266 L 72.74299621582031 -119.61900329589844 L 80.73600006103516 -114.3759994506836 L 88.35299682617188 -108.5999984741211 L 95.55899810791016 -102.31700134277344 L 98.30400085449219 -99.57159423828125 L 99.57140350341797 -98.30400085449219 L 102.31800079345703 -95.55699920654297 L 108.60099792480469 -88.35199737548828 L 114.37699890136719 -80.73500061035156 L 119.62000274658203 -72.74199676513672 L 123.67137145996094 -65.53600311279297 L 124.30500030517578 -64.40899658203125 L 128.41099548339844 -55.7760009765625 L 131.07200622558594 -49.02827453613281 L 131.91799926757812 -46.882999420166016 L 134.80999755859375 -37.77199935913086 L 136.0292205810547 -32.768001556396484 L 137.072998046875 -28.483999252319336 L 138.697998046875 -19.062999725341797 L 139.6750030517578 -9.553999900817871 L 140.0019989013672 4.440892164675075e-17 L 139.6750030517578 9.553999900817871 L 138.697998046875 19.062999725341797 L 137.072998046875 28.483999252319336 L 136.0292205810547 32.768001556396484 L 134.80999755859375 37.77199935913086 L 131.91799926757812 46.882999420166016 L 131.07200622558594 49.02827453613281 L 128.41099548339844 55.7760009765625 L 124.30500030517578 64.40899658203125 L 123.67137145996094 65.53600311279297 L 119.62000274658203 72.74199676513672 L 114.37699890136719 80.73500061035156 L 108.60099792480469 88.35199737548828 L 102.31800079345703 95.55699920654297 L 99.57140350341797 98.30400085449219 L 98.30400085449219 99.57159423828125 L 95.55899810791016 102.31700134277344 L 88.35299682617188 108.5999984741211 L 80.73600006103516 114.3759994506836 L 72.74299621582031 119.61900329589844 M 112.0270004272461 114.80000305175781 L 111.89070892333984 114.68800354003906 L 111.7239990234375 114.5510025024414 L 111.4749984741211 114.24800109863281 L 111.29100036621094 113.9020004272461 L 111.177001953125 113.5270004272461 L 111.13800048828125 113.13700103759766 L 111.177001953125 112.74700164794922 L 111.20952606201172 112.63999938964844 L 111.29100036621094 112.37200164794922 L 111.4749984741211 112.0260009765625 L 111.7239990234375 111.7229995727539 L 112.0270004272461 111.4739990234375 L 112.37300109863281 111.28900146484375 L 112.74800109863281 111.1760025024414 L 113.13800048828125 111.13700103759766 L 113.52899932861328 111.1760025024414 L 113.90399932861328 111.28900146484375 L 114.25 111.4739990234375 L 114.5530014038086 111.7229995727539 L 114.68800354003906 111.887939453125 L 114.8010025024414 112.0260009765625 L 114.98600006103516 112.37200164794922 L 115.0999984741211 112.74700164794922 L 115.13899993896484 113.13700103759766 L 115.0999984741211 113.5270004272461 L 114.98600006103516 113.9020004272461 L 114.8010025024414 114.24800109863281 L 114.68800354003906 114.38606262207031 L 114.5530014038086 114.5510025024414 L 114.38629150390625 114.68800354003906 L 114.25 114.80000305175781 L 113.90399932861328 114.98500061035156 L 113.52899932861328 115.0989990234375 L 113.13800048828125 115.13700103759766 L 112.74800109863281 115.0989990234375 L 112.37300109863281 114.98500061035156 L 112.0270004272461 114.80000305175781 M -40.645999908447266 -152.6999969482422 L -40.959999084472656 -152.60537719726562 L -41.020999908447266 -152.58700561523438 L -41.4119987487793 -152.54800415039062 L -41.801998138427734 -152.58700561523438 L -42.176998138427734 -152.6999969482422 L -42.52299880981445 -152.88499450683594 L -42.82600021362305 -153.13400268554688 L -43.07500076293945 -153.43699645996094 L -43.25899887084961 -153.7830047607422 L -43.37300109863281 -154.1580047607422 L -43.4119987487793 -154.54800415039062 L -43.37300109863281 -154.93800354003906 L -43.25899887084961 -155.31399536132812 L -43.080867767333984 -155.6479949951172 L -43.07500076293945 -155.65899658203125 L -42.82600021362305 -155.96200561523438 L -42.52299880981445 -156.21099853515625 L -42.176998138427734 -156.39599609375 L -41.801998138427734 -156.50999450683594 L -41.4119987487793 -156.54800415039062 L -41.020999908447266 -156.50999450683594 L -40.959999084472656 -156.491455078125 L -40.645999908447266 -156.39599609375 L -40.29999923706055 -156.21099853515625 L -39.99700164794922 -155.96200561523438 L -39.749000549316406 -155.65899658203125 L -39.56399917602539 -155.31399536132812 L -39.45000076293945 -154.93800354003906 L -39.4119987487793 -154.54800415039062 L -39.45000076293945 -154.1580047607422 L -39.56399917602539 -153.7830047607422 L -39.749000549316406 -153.43699645996094 L -39.99700164794922 -153.13400268554688 L -40.29999923706055 -152.88499450683594 L -40.645999908447266 -152.6999969482422 M 41.020999908447266 156.50999450683594 L 40.959999084472656 156.491455078125 L 40.645999908447266 156.39599609375 L 40.29999923706055 156.21099853515625 L 39.99700164794922 155.96200561523438 L 39.749000549316406 155.65899658203125 L 39.56399917602539 155.31399536132812 L 39.45000076293945 154.93800354003906 L 39.4119987487793 154.54800415039062 L 39.45000076293945 154.1580047607422 L 39.56399917602539 153.7830047607422 L 39.749000549316406 153.43699645996094 L 39.99700164794922 153.13400268554688 L 40.29999923706055 152.88499450683594 L 40.645999908447266 152.6999969482422 L 40.959999084472656 152.60537719726562 L 41.020999908447266 152.58700561523438 L 41.4119987487793 152.54800415039062 L 41.801998138427734 152.58700561523438 L 42.176998138427734 152.6999969482422 L 42.52299880981445 152.88499450683594 L 42.82600021362305 153.13400268554688 L 43.07500076293945 153.43699645996094 L 43.25899887084961 153.7830047607422 L 43.37300109863281 154.1580047607422 L 43.4119987487793 154.54800415039062 L 43.37300109863281 154.93800354003906 L 43.25899887084961 155.31399536132812 L 43.080867767333984 155.6479949951172 L 43.07500076293945 155.65899658203125 L 42.82600021362305 155.96200561523438 L 42.52299880981445 156.21099853515625 L 42.176998138427734 156.39599609375 L 41.801998138427734 156.50999450683594 L 41.4119987487793 156.54800415039062 L 41.020999908447266 156.50999450683594 M -112.0270004272461 -114.80000305175781 L -111.89070892333984 -114.68800354003906 L -111.7239990234375 -114.5510025024414 L -111.4749984741211 -114.24800109863281 L -111.29100036621094 -113.9020004272461 L -111.177001953125 -113.5270004272461 L -111.13800048828125 -113.13700103759766 L -111.177001953125 -112.74700164794922 L -111.20952606201172 -112.63999938964844 L -111.29100036621094 -112.37200164794922 L -111.4749984741211 -112.0260009765625 L -111.7239990234375 -111.7229995727539 L -112.0270004272461 -111.4739990234375 L -112.37300109863281 -111.28900146484375 L -112.74800109863281 -111.1760025024414 L -113.13800048828125 -111.13700103759766 L -113.52899932861328 -111.1760025024414 L -113.90399932861328 -111.28900146484375 L -114.25 -111.4739990234375 L -114.5530014038086 -111.7229995727539 L -114.68800354003906 -111.887939453125 L -114.8010025024414 -112.0260009765625 L -114.98600006103516 -112.37200164794922 L -115.0999984741211 -112.74700164794922 L -115.13899993896484 -113.13700103759766 L -115.0999984741211 -113.5270004272461 L -114.98600006103516 -113.9020004272461 L -114.8010025024414 -114.24800109863281 L -114.68800354003906 -114.38606262207031 L -114.5530014038086 -114.5510025024414 L -114.38629150390625 -114.68800354003906 L -114.25 -114.80000305175781 L -113.90399932861328 -114.98500061035156 L -113.52899932861328 -115.0989990234375 L -113.13800048828125 -115.13700103759766 L -112.74800109863281 -115.0989990234375 L -112.37300109863281 -114.98500061035156 L -112.0270004272461 -114.80000305175781 M 156.51199340820312 -41.020999908447266 L 156.4934539794922 -40.959999084472656 L 156.3979949951172 -40.645999908447266 L 156.21299743652344 -40.29999923706055 L 155.96400451660156 -39.99700164794922 L 155.66099548339844 -39.74800109863281 L 155.31500244140625 -39.5629997253418 L 154.94000244140625 -39.44900131225586 L 154.5500030517578 -39.4109992980957 L 154.16000366210938 -39.44900131225586 L 153.78500366210938 -39.5629997253418 L 153.43899536132812 -39.74800109863281 L 153.13600158691406 -39.99700164794922 L 152.88699340820312 -40.29999923706055 L 152.70199584960938 -40.645999908447266 L 152.60653686523438 -40.959999084472656 L 152.58799743652344 -41.020999908447266 L 152.5500030517578 -41.4109992980957 L 152.58799743652344 -41.80099868774414 L 152.70199584960938 -42.17599868774414 L 152.88699340820312 -42.52199935913086 L 153.13600158691406 -42.82500076293945 L 153.43899536132812 -43.07400131225586 L 153.78500366210938 -43.25899887084961 L 154.16000366210938 -43.37300109863281 L 154.5500030517578 -43.4109992980957 L 154.94000244140625 -43.37300109863281 L 155.31500244140625 -43.25899887084961 L 155.6479949951172 -43.08095169067383 L 155.66099548339844 -43.07400131225586 L 155.96400451660156 -42.82500076293945 L 156.21299743652344 -42.52199935913086 L 156.3979949951172 -42.17599868774414 L 156.51199340820312 -41.80099868774414 L 156.5500030517578 -41.4109992980957 L 156.51199340820312 -41.020999908447266 M 152.58799743652344 41.020999908447266 L 152.60653686523438 40.959999084472656 L 152.70199584960938 40.645999908447266 L 152.88699340820312 40.29999923706055 L 153.13600158691406 39.99700164794922 L 153.43899536132812 39.74800109863281 L 153.78500366210938 39.5629997253418 L 154.16000366210938 39.44900131225586 L 154.5500030517578 39.4109992980957 L 154.94000244140625 39.44900131225586 L 155.31500244140625 39.5629997253418 L 155.66099548339844 39.74800109863281 L 155.96400451660156 39.99700164794922 L 156.21299743652344 40.29999923706055 L 156.3979949951172 40.645999908447266 L 156.4934539794922 40.959999084472656 L 156.51199340820312 41.020999908447266 L 156.5500030517578 41.4109992980957 L 156.51199340820312 41.80099868774414 L 156.3979949951172 42.17599868774414 L 156.21299743652344 42.52199935913086 L 155.96400451660156 42.82500076293945 L 155.66099548339844 43.07400131225586 L 155.6479949951172 43.08095169067383 L 155.31500244140625 43.25899887084961 L 154.94000244140625 43.37300109863281 L 154.5500030517578 43.4109992980957 L 154.16000366210938 43.37300109863281 L 153.78500366210938 43.25899887084961 L 153.43899536132812 43.07400131225586 L 153.13600158691406 42.82500076293945 L 152.88699340820312 42.52199935913086 L 152.70199584960938 42.17599868774414 L 152.58799743652344 41.80099868774414 L 152.5500030517578 41.4109992980957 L 152.58799743652344 41.020999908447266 M -156.51199340820312 -41.020999908447266 L -156.5500030517578 -41.4109992980957 L -156.51199340820312 -41.80099868774414 L -156.3979949951172 -42.17599868774414 L -156.21299743652344 -42.52199935913086 L -155.96400451660156 -42.82500076293945 L -155.66099548339844 -43.07400131225586 L -155.6479949951172 -43.08095169067383 L -155.31500244140625 -43.25899887084961 L -154.94000244140625 -43.37300109863281 L -154.5500030517578 -43.4109992980957 L -154.16000366210938 -43.37300109863281 L -153.78500366210938 -43.25899887084961 L -153.43899536132812 -43.07400131225586 L -153.13600158691406 -42.82500076293945 L -152.88699340820312 -42.52199935913086 L -152.70199584960938 -42.17599868774414 L -152.58799743652344 -41.80099868774414 L -152.5500030517578 -41.4109992980957 L -152.58799743652344 -41.020999908447266 L -152.60653686523438 -40.959999084472656 L -152.70199584960938 -40.645999908447266 L -152.88699340820312 -40.29999923706055 L -153.13600158691406 -39.99700164794922 L -153.43899536132812 -39.74800109863281 L -153.78500366210938 -39.5629997253418 L -154.16000366210938 -39.44900131225586 L -154.5500030517578 -39.4109992980957 L -154.94000244140625 -39.44900131225586 L -155.31500244140625 -39.5629997253418 L -155.66099548339844 -39.74800109863281 L -155.96400451660156 -39.99700164794922 L -156.21299743652344 -40.29999923706055 L -156.3979949951172 -40.645999908447266 L -156.4934539794922 -40.959999084472656 L -156.51199340820312 -41.020999908447266 M 111.7239990234375 -114.5510025024414 L 111.89070892333984 -114.68800354003906 L 112.0270004272461 -114.80000305175781 L 112.37300109863281 -114.98500061035156 L 112.74800109863281 -115.0989990234375 L 113.13800048828125 -115.13700103759766 L 113.52899932861328 -115.0989990234375 L 113.90399932861328 -114.98500061035156 L 114.25 -114.80000305175781 L 114.38629150390625 -114.68800354003906 L 114.5530014038086 -114.5510025024414 L 114.68800354003906 -114.38606262207031 L 114.8010025024414 -114.24800109863281 L 114.98600006103516 -113.9020004272461 L 115.0999984741211 -113.5270004272461 L 115.13899993896484 -113.13700103759766 L 115.0999984741211 -112.74700164794922 L 114.98600006103516 -112.37200164794922 L 114.8010025024414 -112.0260009765625 L 114.68800354003906 -111.887939453125 L 114.5530014038086 -111.7229995727539 L 114.25 -111.4739990234375 L 113.90399932861328 -111.28900146484375 L 113.52899932861328 -111.1760025024414 L 113.13800048828125 -111.13700103759766 L 112.74800109863281 -111.1760025024414 L 112.37300109863281 -111.28900146484375 L 112.0270004272461 -111.4739990234375 L 111.7239990234375 -111.7229995727539 L 111.4749984741211 -112.0260009765625 L 111.29100036621094 -112.37200164794922 L 111.20952606201172 -112.63999938964844 L 111.177001953125 -112.74700164794922 L 111.13800048828125 -113.13700103759766 L 111.177001953125 -113.5270004272461 L 111.29100036621094 -113.9020004272461 L 111.4749984741211 -114.24800109863281 L 111.7239990234375 -114.5510025024414 M -156.51199340820312 41.020999908447266 L -156.4934539794922 40.959999084472656 L -156.3979949951172 40.645999908447266 L -156.21299743652344 40.29999923706055 L -155.96400451660156 39.99700164794922 L -155.66099548339844 39.74800109863281 L -155.31500244140625 39.5629997253418 L -154.94000244140625 39.44900131225586 L -154.5500030517578 39.4109992980957 L -154.16000366210938 39.44900131225586 L -153.78500366210938 39.5629997253418 L -153.43899536132812 39.74800109863281 L -153.13600158691406 39.99700164794922 L -152.88699340820312 40.29999923706055 L -152.70199584960938 40.645999908447266 L -152.60653686523438 40.959999084472656 L -152.58799743652344 41.020999908447266 L -152.5500030517578 41.4109992980957 L -152.58799743652344 41.80099868774414 L -152.70199584960938 42.17599868774414 L -152.88699340820312 42.52199935913086 L -153.13600158691406 42.82500076293945 L -153.43899536132812 43.07400131225586 L -153.78500366210938 43.25899887084961 L -154.16000366210938 43.37300109863281 L -154.5500030517578 43.4109992980957 L -154.94000244140625 43.37300109863281 L -155.31500244140625 43.25899887084961 L -155.6479949951172 43.08095169067383 L -155.66099548339844 43.07400131225586 L -155.96400451660156 42.82500076293945 L -156.21299743652344 42.52199935913086 L -156.3979949951172 42.17599868774414 L -156.51199340820312 41.80099868774414 L -156.5500030517578 41.4109992980957 L -156.51199340820312 41.020999908447266 M 41.4119987487793 -152.54800415039062 L 41.020999908447266 -152.58700561523438 L 40.959999084472656 -152.60537719726562 L 40.645999908447266 -152.6999969482422 L 40.29999923706055 -152.88499450683594 L 39.99700164794922 -153.13400268554688 L 39.749000549316406 -153.43699645996094 L 39.56399917602539 -153.7830047607422 L 39.45000076293945 -154.1580047607422 L 39.4119987487793 -154.54800415039062 L 39.45000076293945 -154.93800354003906 L 39.56399917602539 -155.31399536132812 L 39.749000549316406 -155.65899658203125 L 39.99700164794922 -155.96200561523438 L 40.29999923706055 -156.21099853515625 L 40.645999908447266 -156.39599609375 L 40.959999084472656 -156.491455078125 L 41.020999908447266 -156.50999450683594 L 41.4119987487793 -156.54800415039062 L 41.801998138427734 -156.50999450683594 L 42.176998138427734 -156.39599609375 L 42.52299880981445 -156.21099853515625 L 42.82600021362305 -155.96200561523438 L 43.07500076293945 -155.65899658203125 L 43.080867767333984 -155.6479949951172 L 43.25899887084961 -155.31399536132812 L 43.37300109863281 -154.93800354003906 L 43.4119987487793 -154.54800415039062 L 43.37300109863281 -154.1580047607422 L 43.25899887084961 -153.7830047607422 L 43.07500076293945 -153.43699645996094 L 42.82600021362305 -153.13400268554688 L 42.52299880981445 -152.88499450683594 L 42.176998138427734 -152.6999969482422 L 41.801998138427734 -152.58700561523438 L 41.4119987487793 -152.54800415039062 M -111.7239990234375 114.5510025024414 L -111.89070892333984 114.68800354003906 L -112.0270004272461 114.80000305175781 L -112.37300109863281 114.98500061035156 L -112.74800109863281 115.0989990234375 L -113.13800048828125 115.13700103759766 L -113.52899932861328 115.0989990234375 L -113.90399932861328 114.98500061035156 L -114.25 114.80000305175781 L -114.38629150390625 114.68800354003906 L -114.5530014038086 114.5510025024414 L -114.68800354003906 114.38606262207031 L -114.8010025024414 114.24800109863281 L -114.98600006103516 113.9020004272461 L -115.0999984741211 113.5270004272461 L -115.13899993896484 113.13700103759766 L -115.0999984741211 112.74700164794922 L -114.98600006103516 112.37200164794922 L -114.8010025024414 112.0260009765625 L -114.68800354003906 111.887939453125 L -114.5530014038086 111.7229995727539 L -114.25 111.4739990234375 L -113.90399932861328 111.28900146484375 L -113.52899932861328 111.1760025024414 L -113.13800048828125 111.13700103759766 L -112.74800109863281 111.1760025024414 L -112.37300109863281 111.28900146484375 L -112.0270004272461 111.4739990234375 L -111.7239990234375 111.7229995727539 L -111.4749984741211 112.0260009765625 L -111.29100036621094 112.37200164794922 L -111.20952606201172 112.63999938964844 L -111.177001953125 112.74700164794922 L -111.13800048828125 113.13700103759766 L -111.177001953125 113.5270004272461 L -111.29100036621094 113.9020004272461 L -111.4749984741211 114.24800109863281 L -111.7239990234375 114.5510025024414 z" fill="none" stroke="rgb(0,0,255)" stroke-width="0.01mm" />
</svg>