<?xml version="1.0" standalone="no"?>
<!DOCTYPE svg PUBLIC "-//W3C//DTD SVG 1.1//EN"
  "http://www.w3.org/Graphics/SVG/1.1/DTD/svg11.dtd">
<svg width="282mm" height="281.8299865722656mm" viewBox="-141 -140.9149932861328 282 281.8299865722656" xmlns="http://www.w3.org/2000/svg" version="1.1">
	<title>svgOutput</title>
	<desc>made with tinkercad</desc>
<path d="M -139.65899658203125 9.765999794006348 L -140 4.440892164675075e-17 L -139.65899658203125 -9.765999794006348 L -138.63800048828125 -19.483999252319336 L -136.9409942626953 -29.107999801635742 L -134.57699584960938 -38.5890007019043 L -131.5570068359375 -47.882999420166016 L -131.07200622558594 -49.08324432373047 L -127.89600372314453 -56.94300079345703 L -123.61299896240234 -65.72599792480469 L -118.72699737548828 -74.18900299072266 L -113.26200103759766 -82.29000091552734 L -107.24600219726562 -89.98999786376953 L -100.70800018310547 -97.25199890136719 L -93.6780014038086 -104.04000091552734 L -86.19300079345703 -110.3219985961914 L -78.28700256347656 -116.06500244140625 L -70 -121.24400329589844 L -61.37200164794922 -125.83100128173828 L -52.44499969482422 -129.80599975585938 L -48.96634292602539 -131.07200622558594 L -43.262001037597656 -133.1479949951172 L -33.86899948120117 -135.84100341796875 L -24.31100082397461 -137.8730010986328 L -14.633999824523926 -139.23300170898438 L -4.886000156402588 -139.9149932861328 L 0 -139.9149932861328 L 4.886000156402588 -139.9149932861328 L 14.633999824523926 -139.23300170898438 L 24.31100082397461 -137.8730010986328 L 33.86899948120117 -135.84100341796875 L 43.262001037597656 -133.1479949951172 L 48.96634292602539 -131.07200622558594 L 52.44499969482422 -129.80599975585938 L 61.37200164794922 -125.83100128173828 L 70 -121.24400329589844 L 78.28700256347656 -116.06500244140625 L 86.19300079345703 -110.3219985961914 L 93.6780014038086 -104.04000091552734 L 100.70800018310547 -97.25199890136719 L 107.24600219726562 -89.98999786376953 L 113.26200103759766 -82.29000091552734 L 118.72699737548828 -74.18900299072266 L 123.61299896240234 -65.72599792480469 L 127.89600372314453 -56.94300079345703 L 131.07200622558594 -49.08324432373047 L 131.5570068359375 -47.882999420166016 L 134.57699584960938 -38.5890007019043 L 136.9409942626953 -29.107999801635742 L 138.63800048828125 -19.483999252319336 L 139.65899658203125 -9.765999794006348 L 140 4.440892164675075e-17 L 139.65899658203125 9.765999794006348 L 138.63800048828125 19.483999252319336 L 136.9409942626953 29.107999801635742 L 134.57699584960938 38.5890007019043 L 131.5570068359375 47.882999420166016 L 131.07200622558594 49.08324432373047 L 127.89600372314453 56.94300079345703 L 123.61299896240234 65.72599792480469 L 118.72699737548828 74.18900299072266 L 113.26200103759766 82.29000091552734 L 107.24600219726562 89.98999786376953 L 100.70800018310547 97.25199890136719 L 93.6780014038086 104.04000091552734 L 86.19300079345703 110.3219985961914 L 78.28700256347656 116.06500244140625 L 70 121.24400329589844 L 61.37200164794922 125.83100128173828 L 52.44499969482422 129.80599975585938 L 48.96634292602539 131.07200622558594 L 43.262001037597656 133.1479949951172 L 33.86899948120117 135.84100341796875 L 24.31100082397461 137.8730010986328 L 14.633999824523926 139.23300170898438 L 4.886000156402588 139.9149932861328 L 0 139.9149932861328 L -4.886000156402588 139.9149932861328 L -14.633999824523926 139.23300170898438 L -24.31100082397461 137.8730010986328 L -33.86899948120117 135.84100341796875 L -43.262001037597656 133.1479949951172 L -48.96634292602539 131.07200622558594 L -52.44499969482422 129.80599975585938 L -61.37200164794922 125.83100128173828 L -70 121.24400329589844 L -78.28700256347656 116.06500244140625 L -86.19300079345703 110.3219985961914 L -93.6780014038086 104.04000091552734 L -100.70800018310547 97.25199890136719 L -107.24600219726562 89.98999786376953 L -113.26200103759766 82.29000091552734 L -118.72699737548828 74.18900299072266 L -123.61299896240234 65.72599792480469 L -127.89600372314453 56.94300079345703 L -131.07200622558594 49.08324432373047 L -131.5570068359375 47.882999420166016 L -134.57699584960938 38.5890007019043 L -136.9409942626953 29.107999801635742 L -138.63800048828125 19.483999252319336 L -139.65899658203125 9.765999794006348 z" fill="none" stroke="rgb(0,0,255)" stroke-width="0.01mm" />
</svg>