solid generated by Pro/DESKTOP Version 8.0
	facet normal 0.000000e+000 0.000000e+000 -1.000000e+000
		outer loop
			vertex -4.885930e+000 -1.399147e+002 0.000000e+000
			vertex -1.463399e+001 -1.392331e+002 0.000000e+000
			vertex 4.885930e+000 -1.399147e+002 0.000000e+000
		endloop
	endfacet
	facet normal -0.000000e+000 0.000000e+000 -1.000000e+000
		outer loop
			vertex 1.463399e+001 -1.392331e+002 0.000000e+000
			vertex 4.885930e+000 -1.399147e+002 0.000000e+000
			vertex -1.463399e+001 -1.392331e+002 0.000000e+000
		endloop
	endfacet
	facet normal 0.000000e+000 0.000000e+000 -1.000000e+000
		outer loop
			vertex -1.463399e+001 -1.392331e+002 0.000000e+000
			vertex -2.431075e+001 -1.378731e+002 0.000000e+000
			vertex 1.463399e+001 -1.392331e+002 0.000000e+000
		endloop
	endfacet
	facet normal -0.000000e+000 0.000000e+000 -1.000000e+000
		outer loop
			vertex 2.431075e+001 -1.378731e+002 0.000000e+000
			vertex 1.463399e+001 -1.392331e+002 0.000000e+000
			vertex -2.431075e+001 -1.378731e+002 0.000000e+000
		endloop
	endfacet
	facet normal 0.000000e+000 0.000000e+000 -1.000000e+000
		outer loop
			vertex -2.431075e+001 -1.378731e+002 0.000000e+000
			vertex -3.386907e+001 -1.358414e+002 0.000000e+000
			vertex 2.431075e+001 -1.378731e+002 0.000000e+000
		endloop
	endfacet
	facet normal -0.000000e+000 0.000000e+000 -1.000000e+000
		outer loop
			vertex 3.386907e+001 -1.358414e+002 0.000000e+000
			vertex 2.431075e+001 -1.378731e+002 0.000000e+000
			vertex -3.386907e+001 -1.358414e+002 0.000000e+000
		endloop
	endfacet
	facet normal 0.000000e+000 0.000000e+000 -1.000000e+000
		outer loop
			vertex -3.386907e+001 -1.358414e+002 0.000000e+000
			vertex -4.326238e+001 -1.331479e+002 0.000000e+000
			vertex 3.386907e+001 -1.358414e+002 0.000000e+000
		endloop
	endfacet
	facet normal -0.000000e+000 0.000000e+000 -1.000000e+000
		outer loop
			vertex 4.326238e+001 -1.331479e+002 0.000000e+000
			vertex 3.386907e+001 -1.358414e+002 0.000000e+000
			vertex -4.326238e+001 -1.331479e+002 0.000000e+000
		endloop
	endfacet
	facet normal 0.000000e+000 0.000000e+000 -1.000000e+000
		outer loop
			vertex -4.326238e+001 -1.331479e+002 0.000000e+000
			vertex -5.244492e+001 -1.298057e+002 0.000000e+000
			vertex 4.326238e+001 -1.331479e+002 0.000000e+000
		endloop
	endfacet
	facet normal -0.000000e+000 0.000000e+000 -1.000000e+000
		outer loop
			vertex 5.244492e+001 -1.298057e+002 0.000000e+000
			vertex 4.326238e+001 -1.331479e+002 0.000000e+000
			vertex -5.244492e+001 -1.298057e+002 0.000000e+000
		endloop
	endfacet
	facet normal 0.000000e+000 0.000000e+000 -1.000000e+000
		outer loop
			vertex -5.244492e+001 -1.298057e+002 0.000000e+000
			vertex -6.137196e+001 -1.258312e+002 0.000000e+000
			vertex 5.244492e+001 -1.298057e+002 0.000000e+000
		endloop
	endfacet
	facet normal -0.000000e+000 0.000000e+000 -1.000000e+000
		outer loop
			vertex 6.137196e+001 -1.258312e+002 0.000000e+000
			vertex 5.244492e+001 -1.298057e+002 0.000000e+000
			vertex -6.137196e+001 -1.258312e+002 0.000000e+000
		endloop
	endfacet
	facet normal 0.000000e+000 0.000000e+000 -1.000000e+000
		outer loop
			vertex -6.137196e+001 -1.258312e+002 0.000000e+000
			vertex -7.000000e+001 -1.212436e+002 0.000000e+000
			vertex 6.137196e+001 -1.258312e+002 0.000000e+000
		endloop
	endfacet
	facet normal -0.000000e+000 0.000000e+000 -1.000000e+000
		outer loop
			vertex 7.000000e+001 -1.212436e+002 0.000000e+000
			vertex 6.137196e+001 -1.258312e+002 0.000000e+000
			vertex -7.000000e+001 -1.212436e+002 0.000000e+000
		endloop
	endfacet
	facet normal 0.000000e+000 0.000000e+000 -1.000000e+000
		outer loop
			vertex -7.000000e+001 -1.212436e+002 0.000000e+000
			vertex -7.828701e+001 -1.160653e+002 0.000000e+000
			vertex 7.000000e+001 -1.212436e+002 0.000000e+000
		endloop
	endfacet
	facet normal -0.000000e+000 0.000000e+000 -1.000000e+000
		outer loop
			vertex 7.828701e+001 -1.160653e+002 0.000000e+000
			vertex 7.000000e+001 -1.212436e+002 0.000000e+000
			vertex -7.828701e+001 -1.160653e+002 0.000000e+000
		endloop
	endfacet
	facet normal 0.000000e+000 0.000000e+000 -1.000000e+000
		outer loop
			vertex -7.828701e+001 -1.160653e+002 0.000000e+000
			vertex -8.619261e+001 -1.103215e+002 0.000000e+000
			vertex 7.828701e+001 -1.160653e+002 0.000000e+000
		endloop
	endfacet
	facet normal -0.000000e+000 0.000000e+000 -1.000000e+000
		outer loop
			vertex 8.619261e+001 -1.103215e+002 0.000000e+000
			vertex 7.828701e+001 -1.160653e+002 0.000000e+000
			vertex -8.619261e+001 -1.103215e+002 0.000000e+000
		endloop
	endfacet
	facet normal 0.000000e+000 0.000000e+000 -1.000000e+000
		outer loop
			vertex -8.619261e+001 -1.103215e+002 0.000000e+000
			vertex -9.367829e+001 -1.040403e+002 0.000000e+000
			vertex 8.619261e+001 -1.103215e+002 0.000000e+000
		endloop
	endfacet
	facet normal -0.000000e+000 0.000000e+000 -1.000000e+000
		outer loop
			vertex 9.367829e+001 -1.040403e+002 0.000000e+000
			vertex 8.619261e+001 -1.103215e+002 0.000000e+000
			vertex -9.367829e+001 -1.040403e+002 0.000000e+000
		endloop
	endfacet
	facet normal 0.000000e+000 0.000000e+000 -1.000000e+000
		outer loop
			vertex -9.367829e+001 -1.040403e+002 0.000000e+000
			vertex -1.007076e+002 -9.725218e+001 0.000000e+000
			vertex 9.367829e+001 -1.040403e+002 0.000000e+000
		endloop
	endfacet
	facet normal -0.000000e+000 0.000000e+000 -1.000000e+000
		outer loop
			vertex 1.007076e+002 -9.725218e+001 0.000000e+000
			vertex 9.367829e+001 -1.040403e+002 0.000000e+000
			vertex -1.007076e+002 -9.725218e+001 0.000000e+000
		endloop
	endfacet
	facet normal 0.000000e+000 0.000000e+000 -1.000000e+000
		outer loop
			vertex -1.007076e+002 -9.725218e+001 0.000000e+000
			vertex -1.072462e+002 -8.999027e+001 0.000000e+000
			vertex 1.007076e+002 -9.725218e+001 0.000000e+000
		endloop
	endfacet
	facet normal -0.000000e+000 0.000000e+000 -1.000000e+000
		outer loop
			vertex 1.072462e+002 -8.999027e+001 0.000000e+000
			vertex 1.007076e+002 -9.725218e+001 0.000000e+000
			vertex -1.072462e+002 -8.999027e+001 0.000000e+000
		endloop
	endfacet
	facet normal 0.000000e+000 0.000000e+000 -1.000000e+000
		outer loop
			vertex -1.072462e+002 -8.999027e+001 0.000000e+000
			vertex -1.132624e+002 -8.228993e+001 0.000000e+000
			vertex 1.072462e+002 -8.999027e+001 0.000000e+000
		endloop
	endfacet
	facet normal -0.000000e+000 0.000000e+000 -1.000000e+000
		outer loop
			vertex 1.132624e+002 -8.228993e+001 0.000000e+000
			vertex 1.072462e+002 -8.999027e+001 0.000000e+000
			vertex -1.132624e+002 -8.228993e+001 0.000000e+000
		endloop
	endfacet
	facet normal 0.000000e+000 0.000000e+000 -1.000000e+000
		outer loop
			vertex -1.132624e+002 -8.228993e+001 0.000000e+000
			vertex -1.187267e+002 -7.418869e+001 0.000000e+000
			vertex 1.132624e+002 -8.228993e+001 0.000000e+000
		endloop
	endfacet
	facet normal -0.000000e+000 0.000000e+000 -1.000000e+000
		outer loop
			vertex 1.187267e+002 -7.418869e+001 0.000000e+000
			vertex 1.132624e+002 -8.228993e+001 0.000000e+000
			vertex -1.187267e+002 -7.418869e+001 0.000000e+000
		endloop
	endfacet
	facet normal 0.000000e+000 0.000000e+000 -1.000000e+000
		outer loop
			vertex -1.187267e+002 -7.418869e+001 0.000000e+000
			vertex -1.236127e+002 -6.572602e+001 0.000000e+000
			vertex 1.187267e+002 -7.418869e+001 0.000000e+000
		endloop
	endfacet
	facet normal -0.000000e+000 0.000000e+000 -1.000000e+000
		outer loop
			vertex 1.236127e+002 -6.572602e+001 0.000000e+000
			vertex 1.187267e+002 -7.418869e+001 0.000000e+000
			vertex -1.236127e+002 -6.572602e+001 0.000000e+000
		endloop
	endfacet
	facet normal 0.000000e+000 0.000000e+000 -1.000000e+000
		outer loop
			vertex -1.236127e+002 -6.572602e+001 0.000000e+000
			vertex -1.278964e+002 -5.694313e+001 0.000000e+000
			vertex 1.236127e+002 -6.572602e+001 0.000000e+000
		endloop
	endfacet
	facet normal -0.000000e+000 0.000000e+000 -1.000000e+000
		outer loop
			vertex 1.278964e+002 -5.694313e+001 0.000000e+000
			vertex 1.236127e+002 -6.572602e+001 0.000000e+000
			vertex -1.278964e+002 -5.694313e+001 0.000000e+000
		endloop
	endfacet
	facet normal 0.000000e+000 0.000000e+000 -1.000000e+000
		outer loop
			vertex -1.278964e+002 -5.694313e+001 0.000000e+000
			vertex -1.315570e+002 -4.788282e+001 0.000000e+000
			vertex 1.278964e+002 -5.694313e+001 0.000000e+000
		endloop
	endfacet
	facet normal -0.000000e+000 0.000000e+000 -1.000000e+000
		outer loop
			vertex 1.315570e+002 -4.788282e+001 0.000000e+000
			vertex 1.278964e+002 -5.694313e+001 0.000000e+000
			vertex -1.315570e+002 -4.788282e+001 0.000000e+000
		endloop
	endfacet
	facet normal 0.000000e+000 0.000000e+000 -1.000000e+000
		outer loop
			vertex -1.315570e+002 -4.788282e+001 0.000000e+000
			vertex -1.345766e+002 -3.858923e+001 0.000000e+000
			vertex 1.315570e+002 -4.788282e+001 0.000000e+000
		endloop
	endfacet
	facet normal -0.000000e+000 0.000000e+000 -1.000000e+000
		outer loop
			vertex 1.345766e+002 -3.858923e+001 0.000000e+000
			vertex 1.315570e+002 -4.788282e+001 0.000000e+000
			vertex -1.345766e+002 -3.858923e+001 0.000000e+000
		endloop
	endfacet
	facet normal 0.000000e+000 0.000000e+000 -1.000000e+000
		outer loop
			vertex -1.345766e+002 -3.858923e+001 0.000000e+000
			vertex -1.369407e+002 -2.910764e+001 0.000000e+000
			vertex 1.345766e+002 -3.858923e+001 0.000000e+000
		endloop
	endfacet
	facet normal -0.000000e+000 0.000000e+000 -1.000000e+000
		outer loop
			vertex 1.369407e+002 -2.910764e+001 0.000000e+000
			vertex 1.345766e+002 -3.858923e+001 0.000000e+000
			vertex -1.369407e+002 -2.910764e+001 0.000000e+000
		endloop
	endfacet
	facet normal 0.000000e+000 0.000000e+000 -1.000000e+000
		outer loop
			vertex -1.369407e+002 -2.910764e+001 0.000000e+000
			vertex -1.386375e+002 -1.948423e+001 0.000000e+000
			vertex 1.369407e+002 -2.910764e+001 0.000000e+000
		endloop
	endfacet
	facet normal -0.000000e+000 0.000000e+000 -1.000000e+000
		outer loop
			vertex 1.386375e+002 -1.948423e+001 0.000000e+000
			vertex 1.369407e+002 -2.910764e+001 0.000000e+000
			vertex -1.386375e+002 -1.948423e+001 0.000000e+000
		endloop
	endfacet
	facet normal 0.000000e+000 0.000000e+000 -1.000000e+000
		outer loop
			vertex -1.386375e+002 -1.948423e+001 0.000000e+000
			vertex -1.396590e+002 -9.765906e+000 0.000000e+000
			vertex 1.386375e+002 -1.948423e+001 0.000000e+000
		endloop
	endfacet
	facet normal -0.000000e+000 0.000000e+000 -1.000000e+000
		outer loop
			vertex 1.396590e+002 -9.765906e+000 0.000000e+000
			vertex 1.386375e+002 -1.948423e+001 0.000000e+000
			vertex -1.396590e+002 -9.765906e+000 0.000000e+000
		endloop
	endfacet
	facet normal 0.000000e+000 0.000000e+000 -1.000000e+000
		outer loop
			vertex -1.396590e+002 -9.765906e+000 0.000000e+000
			vertex -1.400000e+002 1.714449e-014 0.000000e+000
			vertex 1.396590e+002 -9.765906e+000 0.000000e+000
		endloop
	endfacet
	facet normal -0.000000e+000 0.000000e+000 -1.000000e+000
		outer loop
			vertex 1.400000e+002 -1.714449e-014 0.000000e+000
			vertex 1.396590e+002 -9.765906e+000 0.000000e+000
			vertex -1.400000e+002 1.714449e-014 0.000000e+000
		endloop
	endfacet
	facet normal 0.000000e+000 0.000000e+000 -1.000000e+000
		outer loop
			vertex -1.400000e+002 1.714449e-014 0.000000e+000
			vertex -1.396590e+002 9.765906e+000 0.000000e+000
			vertex 1.400000e+002 -1.714449e-014 0.000000e+000
		endloop
	endfacet
	facet normal -0.000000e+000 -0.000000e+000 -1.000000e+000
		outer loop
			vertex 1.396590e+002 9.765906e+000 0.000000e+000
			vertex 1.400000e+002 -1.714449e-014 0.000000e+000
			vertex -1.396590e+002 9.765906e+000 0.000000e+000
		endloop
	endfacet
	facet normal 0.000000e+000 0.000000e+000 -1.000000e+000
		outer loop
			vertex -1.396590e+002 9.765906e+000 0.000000e+000
			vertex -1.386375e+002 1.948423e+001 0.000000e+000
			vertex 1.396590e+002 9.765906e+000 0.000000e+000
		endloop
	endfacet
	facet normal -0.000000e+000 -0.000000e+000 -1.000000e+000
		outer loop
			vertex 1.386375e+002 1.948423e+001 0.000000e+000
			vertex 1.396590e+002 9.765906e+000 0.000000e+000
			vertex -1.386375e+002 1.948423e+001 0.000000e+000
		endloop
	endfacet
	facet normal 0.000000e+000 0.000000e+000 -1.000000e+000
		outer loop
			vertex -1.386375e+002 1.948423e+001 0.000000e+000
			vertex -1.369407e+002 2.910764e+001 0.000000e+000
			vertex 1.386375e+002 1.948423e+001 0.000000e+000
		endloop
	endfacet
	facet normal -0.000000e+000 -0.000000e+000 -1.000000e+000
		outer loop
			vertex 1.369407e+002 2.910764e+001 0.000000e+000
			vertex 1.386375e+002 1.948423e+001 0.000000e+000
			vertex -1.369407e+002 2.910764e+001 0.000000e+000
		endloop
	endfacet
	facet normal 0.000000e+000 0.000000e+000 -1.000000e+000
		outer loop
			vertex -1.369407e+002 2.910764e+001 0.000000e+000
			vertex -1.345766e+002 3.858923e+001 0.000000e+000
			vertex 1.369407e+002 2.910764e+001 0.000000e+000
		endloop
	endfacet
	facet normal -0.000000e+000 -0.000000e+000 -1.000000e+000
		outer loop
			vertex 1.345766e+002 3.858923e+001 0.000000e+000
			vertex 1.369407e+002 2.910764e+001 0.000000e+000
			vertex -1.345766e+002 3.858923e+001 0.000000e+000
		endloop
	endfacet
	facet normal 0.000000e+000 0.000000e+000 -1.000000e+000
		outer loop
			vertex -1.345766e+002 3.858923e+001 0.000000e+000
			vertex -1.315570e+002 4.788282e+001 0.000000e+000
			vertex 1.345766e+002 3.858923e+001 0.000000e+000
		endloop
	endfacet
	facet normal -0.000000e+000 -0.000000e+000 -1.000000e+000
		outer loop
			vertex 1.315570e+002 4.788282e+001 0.000000e+000
			vertex 1.345766e+002 3.858923e+001 0.000000e+000
			vertex -1.315570e+002 4.788282e+001 0.000000e+000
		endloop
	endfacet
	facet normal 0.000000e+000 0.000000e+000 -1.000000e+000
		outer loop
			vertex -1.315570e+002 4.788282e+001 0.000000e+000
			vertex -1.278964e+002 5.694313e+001 0.000000e+000
			vertex 1.315570e+002 4.788282e+001 0.000000e+000
		endloop
	endfacet
	facet normal -0.000000e+000 -0.000000e+000 -1.000000e+000
		outer loop
			vertex 1.278964e+002 5.694313e+001 0.000000e+000
			vertex 1.315570e+002 4.788282e+001 0.000000e+000
			vertex -1.278964e+002 5.694313e+001 0.000000e+000
		endloop
	endfacet
	facet normal 0.000000e+000 0.000000e+000 -1.000000e+000
		outer loop
			vertex -1.278964e+002 5.694313e+001 0.000000e+000
			vertex -1.236127e+002 6.572602e+001 0.000000e+000
			vertex 1.278964e+002 5.694313e+001 0.000000e+000
		endloop
	endfacet
	facet normal -0.000000e+000 -0.000000e+000 -1.000000e+000
		outer loop
			vertex 1.236127e+002 6.572602e+001 0.000000e+000
			vertex 1.278964e+002 5.694313e+001 0.000000e+000
			vertex -1.236127e+002 6.572602e+001 0.000000e+000
		endloop
	endfacet
	facet normal 0.000000e+000 0.000000e+000 -1.000000e+000
		outer loop
			vertex -1.236127e+002 6.572602e+001 0.000000e+000
			vertex -1.187267e+002 7.418869e+001 0.000000e+000
			vertex 1.236127e+002 6.572602e+001 0.000000e+000
		endloop
	endfacet
	facet normal -0.000000e+000 -0.000000e+000 -1.000000e+000
		outer loop
			vertex 1.187267e+002 7.418869e+001 0.000000e+000
			vertex 1.236127e+002 6.572602e+001 0.000000e+000
			vertex -1.187267e+002 7.418869e+001 0.000000e+000
		endloop
	endfacet
	facet normal 0.000000e+000 0.000000e+000 -1.000000e+000
		outer loop
			vertex -1.187267e+002 7.418869e+001 0.000000e+000
			vertex -1.132624e+002 8.228993e+001 0.000000e+000
			vertex 1.187267e+002 7.418869e+001 0.000000e+000
		endloop
	endfacet
	facet normal -0.000000e+000 -0.000000e+000 -1.000000e+000
		outer loop
			vertex 1.132624e+002 8.228993e+001 0.000000e+000
			vertex 1.187267e+002 7.418869e+001 0.000000e+000
			vertex -1.132624e+002 8.228993e+001 0.000000e+000
		endloop
	endfacet
	facet normal 0.000000e+000 0.000000e+000 -1.000000e+000
		outer loop
			vertex -1.132624e+002 8.228993e+001 0.000000e+000
			vertex -1.072462e+002 8.999027e+001 0.000000e+000
			vertex 1.132624e+002 8.228993e+001 0.000000e+000
		endloop
	endfacet
	facet normal -0.000000e+000 -0.000000e+000 -1.000000e+000
		outer loop
			vertex 1.072462e+002 8.999027e+001 0.000000e+000
			vertex 1.132624e+002 8.228993e+001 0.000000e+000
			vertex -1.072462e+002 8.999027e+001 0.000000e+000
		endloop
	endfacet
	facet normal 0.000000e+000 0.000000e+000 -1.000000e+000
		outer loop
			vertex -1.072462e+002 8.999027e+001 0.000000e+000
			vertex -1.007076e+002 9.725218e+001 0.000000e+000
			vertex 1.072462e+002 8.999027e+001 0.000000e+000
		endloop
	endfacet
	facet normal -0.000000e+000 -0.000000e+000 -1.000000e+000
		outer loop
			vertex 1.007076e+002 9.725218e+001 0.000000e+000
			vertex 1.072462e+002 8.999027e+001 0.000000e+000
			vertex -1.007076e+002 9.725218e+001 0.000000e+000
		endloop
	endfacet
	facet normal 0.000000e+000 0.000000e+000 -1.000000e+000
		outer loop
			vertex -1.007076e+002 9.725218e+001 0.000000e+000
			vertex -9.367829e+001 1.040403e+002 0.000000e+000
			vertex 1.007076e+002 9.725218e+001 0.000000e+000
		endloop
	endfacet
	facet normal -0.000000e+000 -0.000000e+000 -1.000000e+000
		outer loop
			vertex 9.367829e+001 1.040403e+002 0.000000e+000
			vertex 1.007076e+002 9.725218e+001 0.000000e+000
			vertex -9.367829e+001 1.040403e+002 0.000000e+000
		endloop
	endfacet
	facet normal 0.000000e+000 0.000000e+000 -1.000000e+000
		outer loop
			vertex -9.367829e+001 1.040403e+002 0.000000e+000
			vertex -8.619261e+001 1.103215e+002 0.000000e+000
			vertex 9.367829e+001 1.040403e+002 0.000000e+000
		endloop
	endfacet
	facet normal -0.000000e+000 -0.000000e+000 -1.000000e+000
		outer loop
			vertex 8.619261e+001 1.103215e+002 0.000000e+000
			vertex 9.367829e+001 1.040403e+002 0.000000e+000
			vertex -8.619261e+001 1.103215e+002 0.000000e+000
		endloop
	endfacet
	facet normal 0.000000e+000 0.000000e+000 -1.000000e+000
		outer loop
			vertex -8.619261e+001 1.103215e+002 0.000000e+000
			vertex -7.828701e+001 1.160653e+002 0.000000e+000
			vertex 8.619261e+001 1.103215e+002 0.000000e+000
		endloop
	endfacet
	facet normal -0.000000e+000 -0.000000e+000 -1.000000e+000
		outer loop
			vertex 7.828701e+001 1.160653e+002 0.000000e+000
			vertex 8.619261e+001 1.103215e+002 0.000000e+000
			vertex -7.828701e+001 1.160653e+002 0.000000e+000
		endloop
	endfacet
	facet normal 0.000000e+000 0.000000e+000 -1.000000e+000
		outer loop
			vertex -7.828701e+001 1.160653e+002 0.000000e+000
			vertex -7.000000e+001 1.212436e+002 0.000000e+000
			vertex 7.828701e+001 1.160653e+002 0.000000e+000
		endloop
	endfacet
	facet normal -0.000000e+000 -0.000000e+000 -1.000000e+000
		outer loop
			vertex 7.000000e+001 1.212436e+002 0.000000e+000
			vertex 7.828701e+001 1.160653e+002 0.000000e+000
			vertex -7.000000e+001 1.212436e+002 0.000000e+000
		endloop
	endfacet
	facet normal 0.000000e+000 0.000000e+000 -1.000000e+000
		outer loop
			vertex -7.000000e+001 1.212436e+002 0.000000e+000
			vertex -6.137196e+001 1.258312e+002 0.000000e+000
			vertex 7.000000e+001 1.212436e+002 0.000000e+000
		endloop
	endfacet
	facet normal -0.000000e+000 -0.000000e+000 -1.000000e+000
		outer loop
			vertex 6.137196e+001 1.258312e+002 0.000000e+000
			vertex 7.000000e+001 1.212436e+002 0.000000e+000
			vertex -6.137196e+001 1.258312e+002 0.000000e+000
		endloop
	endfacet
	facet normal 0.000000e+000 0.000000e+000 -1.000000e+000
		outer loop
			vertex -6.137196e+001 1.258312e+002 0.000000e+000
			vertex -5.244492e+001 1.298057e+002 0.000000e+000
			vertex 6.137196e+001 1.258312e+002 0.000000e+000
		endloop
	endfacet
	facet normal -0.000000e+000 -0.000000e+000 -1.000000e+000
		outer loop
			vertex 5.244492e+001 1.298057e+002 0.000000e+000
			vertex 6.137196e+001 1.258312e+002 0.000000e+000
			vertex -5.244492e+001 1.298057e+002 0.000000e+000
		endloop
	endfacet
	facet normal 0.000000e+000 0.000000e+000 -1.000000e+000
		outer loop
			vertex -5.244492e+001 1.298057e+002 0.000000e+000
			vertex -4.326238e+001 1.331479e+002 0.000000e+000
			vertex 5.244492e+001 1.298057e+002 0.000000e+000
		endloop
	endfacet
	facet normal -0.000000e+000 -0.000000e+000 -1.000000e+000
		outer loop
			vertex 4.326238e+001 1.331479e+002 0.000000e+000
			vertex 5.244492e+001 1.298057e+002 0.000000e+000
			vertex -4.326238e+001 1.331479e+002 0.000000e+000
		endloop
	endfacet
	facet normal 0.000000e+000 0.000000e+000 -1.000000e+000
		outer loop
			vertex -4.326238e+001 1.331479e+002 0.000000e+000
			vertex -3.386907e+001 1.358414e+002 0.000000e+000
			vertex 4.326238e+001 1.331479e+002 0.000000e+000
		endloop
	endfacet
	facet normal -0.000000e+000 -0.000000e+000 -1.000000e+000
		outer loop
			vertex 3.386907e+001 1.358414e+002 0.000000e+000
			vertex 4.326238e+001 1.331479e+002 0.000000e+000
			vertex -3.386907e+001 1.358414e+002 0.000000e+000
		endloop
	endfacet
	facet normal 0.000000e+000 0.000000e+000 -1.000000e+000
		outer loop
			vertex -3.386907e+001 1.358414e+002 0.000000e+000
			vertex -2.431075e+001 1.378731e+002 0.000000e+000
			vertex 3.386907e+001 1.358414e+002 0.000000e+000
		endloop
	endfacet
	facet normal -0.000000e+000 -0.000000e+000 -1.000000e+000
		outer loop
			vertex 2.431075e+001 1.378731e+002 0.000000e+000
			vertex 3.386907e+001 1.358414e+002 0.000000e+000
			vertex -2.431075e+001 1.378731e+002 0.000000e+000
		endloop
	endfacet
	facet normal 0.000000e+000 0.000000e+000 -1.000000e+000
		outer loop
			vertex -2.431075e+001 1.378731e+002 0.000000e+000
			vertex -1.463399e+001 1.392331e+002 0.000000e+000
			vertex 2.431075e+001 1.378731e+002 0.000000e+000
		endloop
	endfacet
	facet normal -0.000000e+000 -0.000000e+000 -1.000000e+000
		outer loop
			vertex 1.463399e+001 1.392331e+002 0.000000e+000
			vertex 2.431075e+001 1.378731e+002 0.000000e+000
			vertex -1.463399e+001 1.392331e+002 0.000000e+000
		endloop
	endfacet
	facet normal 0.000000e+000 0.000000e+000 -1.000000e+000
		outer loop
			vertex -1.463399e+001 1.392331e+002 0.000000e+000
			vertex -4.885930e+000 1.399147e+002 0.000000e+000
			vertex 1.463399e+001 1.392331e+002 0.000000e+000
		endloop
	endfacet
	facet normal -0.000000e+000 -0.000000e+000 -1.000000e+000
		outer loop
			vertex 4.885930e+000 1.399147e+002 0.000000e+000
			vertex 1.463399e+001 1.392331e+002 0.000000e+000
			vertex -4.885930e+000 1.399147e+002 0.000000e+000
		endloop
	endfacet
	facet normal -0.000000e+000 0.000000e+000 1.000000e+000
		outer loop
			vertex -4.885930e+000 1.399147e+002 3.000000e+001
			vertex -1.463399e+001 1.392331e+002 3.000000e+001
			vertex 4.885930e+000 1.399147e+002 3.000000e+001
		endloop
	endfacet
	facet normal 0.000000e+000 0.000000e+000 1.000000e+000
		outer loop
			vertex 1.463399e+001 1.392331e+002 3.000000e+001
			vertex 4.885930e+000 1.399147e+002 3.000000e+001
			vertex -1.463399e+001 1.392331e+002 3.000000e+001
		endloop
	endfacet
	facet normal -0.000000e+000 0.000000e+000 1.000000e+000
		outer loop
			vertex -1.463399e+001 1.392331e+002 3.000000e+001
			vertex -2.431075e+001 1.378731e+002 3.000000e+001
			vertex 1.463399e+001 1.392331e+002 3.000000e+001
		endloop
	endfacet
	facet normal 0.000000e+000 0.000000e+000 1.000000e+000
		outer loop
			vertex 2.431075e+001 1.378731e+002 3.000000e+001
			vertex 1.463399e+001 1.392331e+002 3.000000e+001
			vertex -2.431075e+001 1.378731e+002 3.000000e+001
		endloop
	endfacet
	facet normal -0.000000e+000 0.000000e+000 1.000000e+000
		outer loop
			vertex -2.431075e+001 1.378731e+002 3.000000e+001
			vertex -3.386907e+001 1.358414e+002 3.000000e+001
			vertex 2.431075e+001 1.378731e+002 3.000000e+001
		endloop
	endfacet
	facet normal 0.000000e+000 0.000000e+000 1.000000e+000
		outer loop
			vertex 3.386907e+001 1.358414e+002 3.000000e+001
			vertex 2.431075e+001 1.378731e+002 3.000000e+001
			vertex -3.386907e+001 1.358414e+002 3.000000e+001
		endloop
	endfacet
	facet normal -0.000000e+000 0.000000e+000 1.000000e+000
		outer loop
			vertex -3.386907e+001 1.358414e+002 3.000000e+001
			vertex -4.326238e+001 1.331479e+002 3.000000e+001
			vertex 3.386907e+001 1.358414e+002 3.000000e+001
		endloop
	endfacet
	facet normal 0.000000e+000 0.000000e+000 1.000000e+000
		outer loop
			vertex 4.326238e+001 1.331479e+002 3.000000e+001
			vertex 3.386907e+001 1.358414e+002 3.000000e+001
			vertex -4.326238e+001 1.331479e+002 3.000000e+001
		endloop
	endfacet
	facet normal -0.000000e+000 0.000000e+000 1.000000e+000
		outer loop
			vertex -4.326238e+001 1.331479e+002 3.000000e+001
			vertex -5.244492e+001 1.298057e+002 3.000000e+001
			vertex 4.326238e+001 1.331479e+002 3.000000e+001
		endloop
	endfacet
	facet normal 0.000000e+000 0.000000e+000 1.000000e+000
		outer loop
			vertex 5.244492e+001 1.298057e+002 3.000000e+001
			vertex 4.326238e+001 1.331479e+002 3.000000e+001
			vertex -5.244492e+001 1.298057e+002 3.000000e+001
		endloop
	endfacet
	facet normal -0.000000e+000 0.000000e+000 1.000000e+000
		outer loop
			vertex -5.244492e+001 1.298057e+002 3.000000e+001
			vertex -6.137196e+001 1.258312e+002 3.000000e+001
			vertex 5.244492e+001 1.298057e+002 3.000000e+001
		endloop
	endfacet
	facet normal 0.000000e+000 0.000000e+000 1.000000e+000
		outer loop
			vertex 6.137196e+001 1.258312e+002 3.000000e+001
			vertex 5.244492e+001 1.298057e+002 3.000000e+001
			vertex -6.137196e+001 1.258312e+002 3.000000e+001
		endloop
	endfacet
	facet normal -0.000000e+000 0.000000e+000 1.000000e+000
		outer loop
			vertex -6.137196e+001 1.258312e+002 3.000000e+001
			vertex -7.000000e+001 1.212436e+002 3.000000e+001
			vertex 6.137196e+001 1.258312e+002 3.000000e+001
		endloop
	endfacet
	facet normal 0.000000e+000 0.000000e+000 1.000000e+000
		outer loop
			vertex 7.000000e+001 1.212436e+002 3.000000e+001
			vertex 6.137196e+001 1.258312e+002 3.000000e+001
			vertex -7.000000e+001 1.212436e+002 3.000000e+001
		endloop
	endfacet
	facet normal -0.000000e+000 0.000000e+000 1.000000e+000
		outer loop
			vertex -7.000000e+001 1.212436e+002 3.000000e+001
			vertex -7.828701e+001 1.160653e+002 3.000000e+001
			vertex 7.000000e+001 1.212436e+002 3.000000e+001
		endloop
	endfacet
	facet normal 0.000000e+000 0.000000e+000 1.000000e+000
		outer loop
			vertex 7.828701e+001 1.160653e+002 3.000000e+001
			vertex 7.000000e+001 1.212436e+002 3.000000e+001
			vertex -7.828701e+001 1.160653e+002 3.000000e+001
		endloop
	endfacet
	facet normal -0.000000e+000 0.000000e+000 1.000000e+000
		outer loop
			vertex -7.828701e+001 1.160653e+002 3.000000e+001
			vertex -8.619261e+001 1.103215e+002 3.000000e+001
			vertex 7.828701e+001 1.160653e+002 3.000000e+001
		endloop
	endfacet
	facet normal 0.000000e+000 0.000000e+000 1.000000e+000
		outer loop
			vertex 8.619261e+001 1.103215e+002 3.000000e+001
			vertex 7.828701e+001 1.160653e+002 3.000000e+001
			vertex -8.619261e+001 1.103215e+002 3.000000e+001
		endloop
	endfacet
	facet normal -0.000000e+000 0.000000e+000 1.000000e+000
		outer loop
			vertex -8.619261e+001 1.103215e+002 3.000000e+001
			vertex -9.367829e+001 1.040403e+002 3.000000e+001
			vertex 8.619261e+001 1.103215e+002 3.000000e+001
		endloop
	endfacet
	facet normal 0.000000e+000 0.000000e+000 1.000000e+000
		outer loop
			vertex 9.367829e+001 1.040403e+002 3.000000e+001
			vertex 8.619261e+001 1.103215e+002 3.000000e+001
			vertex -9.367829e+001 1.040403e+002 3.000000e+001
		endloop
	endfacet
	facet normal -0.000000e+000 0.000000e+000 1.000000e+000
		outer loop
			vertex -9.367829e+001 1.040403e+002 3.000000e+001
			vertex -1.007076e+002 9.725218e+001 3.000000e+001
			vertex 9.367829e+001 1.040403e+002 3.000000e+001
		endloop
	endfacet
	facet normal 0.000000e+000 0.000000e+000 1.000000e+000
		outer loop
			vertex 1.007076e+002 9.725218e+001 3.000000e+001
			vertex 9.367829e+001 1.040403e+002 3.000000e+001
			vertex -1.007076e+002 9.725218e+001 3.000000e+001
		endloop
	endfacet
	facet normal -0.000000e+000 0.000000e+000 1.000000e+000
		outer loop
			vertex -1.007076e+002 9.725218e+001 3.000000e+001
			vertex -1.072462e+002 8.999027e+001 3.000000e+001
			vertex 1.007076e+002 9.725218e+001 3.000000e+001
		endloop
	endfacet
	facet normal 0.000000e+000 0.000000e+000 1.000000e+000
		outer loop
			vertex 1.072462e+002 8.999027e+001 3.000000e+001
			vertex 1.007076e+002 9.725218e+001 3.000000e+001
			vertex -1.072462e+002 8.999027e+001 3.000000e+001
		endloop
	endfacet
	facet normal -0.000000e+000 0.000000e+000 1.000000e+000
		outer loop
			vertex -1.072462e+002 8.999027e+001 3.000000e+001
			vertex -1.132624e+002 8.228993e+001 3.000000e+001
			vertex 1.072462e+002 8.999027e+001 3.000000e+001
		endloop
	endfacet
	facet normal 0.000000e+000 0.000000e+000 1.000000e+000
		outer loop
			vertex 1.132624e+002 8.228993e+001 3.000000e+001
			vertex 1.072462e+002 8.999027e+001 3.000000e+001
			vertex -1.132624e+002 8.228993e+001 3.000000e+001
		endloop
	endfacet
	facet normal -0.000000e+000 0.000000e+000 1.000000e+000
		outer loop
			vertex -1.132624e+002 8.228993e+001 3.000000e+001
			vertex -1.187267e+002 7.418869e+001 3.000000e+001
			vertex 1.132624e+002 8.228993e+001 3.000000e+001
		endloop
	endfacet
	facet normal 0.000000e+000 0.000000e+000 1.000000e+000
		outer loop
			vertex 1.187267e+002 7.418869e+001 3.000000e+001
			vertex 1.132624e+002 8.228993e+001 3.000000e+001
			vertex -1.187267e+002 7.418869e+001 3.000000e+001
		endloop
	endfacet
	facet normal -0.000000e+000 0.000000e+000 1.000000e+000
		outer loop
			vertex -1.187267e+002 7.418869e+001 3.000000e+001
			vertex -1.236127e+002 6.572602e+001 3.000000e+001
			vertex 1.187267e+002 7.418869e+001 3.000000e+001
		endloop
	endfacet
	facet normal 0.000000e+000 0.000000e+000 1.000000e+000
		outer loop
			vertex 1.236127e+002 6.572602e+001 3.000000e+001
			vertex 1.187267e+002 7.418869e+001 3.000000e+001
			vertex -1.236127e+002 6.572602e+001 3.000000e+001
		endloop
	endfacet
	facet normal -0.000000e+000 0.000000e+000 1.000000e+000
		outer loop
			vertex -1.236127e+002 6.572602e+001 3.000000e+001
			vertex -1.278964e+002 5.694313e+001 3.000000e+001
			vertex 1.236127e+002 6.572602e+001 3.000000e+001
		endloop
	endfacet
	facet normal 0.000000e+000 0.000000e+000 1.000000e+000
		outer loop
			vertex 1.278964e+002 5.694313e+001 3.000000e+001
			vertex 1.236127e+002 6.572602e+001 3.000000e+001
			vertex -1.278964e+002 5.694313e+001 3.000000e+001
		endloop
	endfacet
	facet normal -0.000000e+000 0.000000e+000 1.000000e+000
		outer loop
			vertex -1.278964e+002 5.694313e+001 3.000000e+001
			vertex -1.315570e+002 4.788282e+001 3.000000e+001
			vertex 1.278964e+002 5.694313e+001 3.000000e+001
		endloop
	endfacet
	facet normal 0.000000e+000 0.000000e+000 1.000000e+000
		outer loop
			vertex 1.315570e+002 4.788282e+001 3.000000e+001
			vertex 1.278964e+002 5.694313e+001 3.000000e+001
			vertex -1.315570e+002 4.788282e+001 3.000000e+001
		endloop
	endfacet
	facet normal -0.000000e+000 0.000000e+000 1.000000e+000
		outer loop
			vertex -1.315570e+002 4.788282e+001 3.000000e+001
			vertex -1.345766e+002 3.858923e+001 3.000000e+001
			vertex 1.315570e+002 4.788282e+001 3.000000e+001
		endloop
	endfacet
	facet normal 0.000000e+000 0.000000e+000 1.000000e+000
		outer loop
			vertex 1.345766e+002 3.858923e+001 3.000000e+001
			vertex 1.315570e+002 4.788282e+001 3.000000e+001
			vertex -1.345766e+002 3.858923e+001 3.000000e+001
		endloop
	endfacet
	facet normal -0.000000e+000 0.000000e+000 1.000000e+000
		outer loop
			vertex -1.345766e+002 3.858923e+001 3.000000e+001
			vertex -1.369407e+002 2.910764e+001 3.000000e+001
			vertex 1.345766e+002 3.858923e+001 3.000000e+001
		endloop
	endfacet
	facet normal 0.000000e+000 0.000000e+000 1.000000e+000
		outer loop
			vertex 1.369407e+002 2.910764e+001 3.000000e+001
			vertex 1.345766e+002 3.858923e+001 3.000000e+001
			vertex -1.369407e+002 2.910764e+001 3.000000e+001
		endloop
	endfacet
	facet normal -0.000000e+000 0.000000e+000 1.000000e+000
		outer loop
			vertex -1.369407e+002 2.910764e+001 3.000000e+001
			vertex -1.386375e+002 1.948423e+001 3.000000e+001
			vertex 1.369407e+002 2.910764e+001 3.000000e+001
		endloop
	endfacet
	facet normal 0.000000e+000 0.000000e+000 1.000000e+000
		outer loop
			vertex 1.386375e+002 1.948423e+001 3.000000e+001
			vertex 1.369407e+002 2.910764e+001 3.000000e+001
			vertex -1.386375e+002 1.948423e+001 3.000000e+001
		endloop
	endfacet
	facet normal -0.000000e+000 0.000000e+000 1.000000e+000
		outer loop
			vertex -1.386375e+002 1.948423e+001 3.000000e+001
			vertex -1.396590e+002 9.765906e+000 3.000000e+001
			vertex 1.386375e+002 1.948423e+001 3.000000e+001
		endloop
	endfacet
	facet normal 0.000000e+000 0.000000e+000 1.000000e+000
		outer loop
			vertex 1.396590e+002 9.765906e+000 3.000000e+001
			vertex 1.386375e+002 1.948423e+001 3.000000e+001
			vertex -1.396590e+002 9.765906e+000 3.000000e+001
		endloop
	endfacet
	facet normal -0.000000e+000 0.000000e+000 1.000000e+000
		outer loop
			vertex -1.396590e+002 9.765906e+000 3.000000e+001
			vertex -1.400000e+002 1.714449e-014 3.000000e+001
			vertex 1.396590e+002 9.765906e+000 3.000000e+001
		endloop
	endfacet
	facet normal 0.000000e+000 0.000000e+000 1.000000e+000
		outer loop
			vertex 1.400000e+002 -1.714449e-014 3.000000e+001
			vertex 1.396590e+002 9.765906e+000 3.000000e+001
			vertex -1.400000e+002 1.714449e-014 3.000000e+001
		endloop
	endfacet
	facet normal 0.000000e+000 0.000000e+000 1.000000e+000
		outer loop
			vertex -1.400000e+002 1.714449e-014 3.000000e+001
			vertex -1.396590e+002 -9.765906e+000 3.000000e+001
			vertex 1.400000e+002 -1.714449e-014 3.000000e+001
		endloop
	endfacet
	facet normal 0.000000e+000 -0.000000e+000 1.000000e+000
		outer loop
			vertex 1.396590e+002 -9.765906e+000 3.000000e+001
			vertex 1.400000e+002 -1.714449e-014 3.000000e+001
			vertex -1.396590e+002 -9.765906e+000 3.000000e+001
		endloop
	endfacet
	facet normal -0.000000e+000 0.000000e+000 1.000000e+000
		outer loop
			vertex -1.396590e+002 -9.765906e+000 3.000000e+001
			vertex -1.386375e+002 -1.948423e+001 3.000000e+001
			vertex 1.396590e+002 -9.765906e+000 3.000000e+001
		endloop
	endfacet
	facet normal 0.000000e+000 -0.000000e+000 1.000000e+000
		outer loop
			vertex 1.386375e+002 -1.948423e+001 3.000000e+001
			vertex 1.396590e+002 -9.765906e+000 3.000000e+001
			vertex -1.386375e+002 -1.948423e+001 3.000000e+001
		endloop
	endfacet
	facet normal -0.000000e+000 0.000000e+000 1.000000e+000
		outer loop
			vertex -1.386375e+002 -1.948423e+001 3.000000e+001
			vertex -1.369407e+002 -2.910764e+001 3.000000e+001
			vertex 1.386375e+002 -1.948423e+001 3.000000e+001
		endloop
	endfacet
	facet normal 0.000000e+000 -0.000000e+000 1.000000e+000
		outer loop
			vertex 1.369407e+002 -2.910764e+001 3.000000e+001
			vertex 1.386375e+002 -1.948423e+001 3.000000e+001
			vertex -1.369407e+002 -2.910764e+001 3.000000e+001
		endloop
	endfacet
	facet normal -0.000000e+000 0.000000e+000 1.000000e+000
		outer loop
			vertex -1.369407e+002 -2.910764e+001 3.000000e+001
			vertex -1.345766e+002 -3.858923e+001 3.000000e+001
			vertex 1.369407e+002 -2.910764e+001 3.000000e+001
		endloop
	endfacet
	facet normal 0.000000e+000 -0.000000e+000 1.000000e+000
		outer loop
			vertex 1.345766e+002 -3.858923e+001 3.000000e+001
			vertex 1.369407e+002 -2.910764e+001 3.000000e+001
			vertex -1.345766e+002 -3.858923e+001 3.000000e+001
		endloop
	endfacet
	facet normal -0.000000e+000 0.000000e+000 1.000000e+000
		outer loop
			vertex -1.345766e+002 -3.858923e+001 3.000000e+001
			vertex -1.315570e+002 -4.788282e+001 3.000000e+001
			vertex 1.345766e+002 -3.858923e+001 3.000000e+001
		endloop
	endfacet
	facet normal 0.000000e+000 -0.000000e+000 1.000000e+000
		outer loop
			vertex 1.315570e+002 -4.788282e+001 3.000000e+001
			vertex 1.345766e+002 -3.858923e+001 3.000000e+001
			vertex -1.315570e+002 -4.788282e+001 3.000000e+001
		endloop
	endfacet
	facet normal -0.000000e+000 0.000000e+000 1.000000e+000
		outer loop
			vertex -1.315570e+002 -4.788282e+001 3.000000e+001
			vertex -1.278964e+002 -5.694313e+001 3.000000e+001
			vertex 1.315570e+002 -4.788282e+001 3.000000e+001
		endloop
	endfacet
	facet normal 0.000000e+000 -0.000000e+000 1.000000e+000
		outer loop
			vertex 1.278964e+002 -5.694313e+001 3.000000e+001
			vertex 1.315570e+002 -4.788282e+001 3.000000e+001
			vertex -1.278964e+002 -5.694313e+001 3.000000e+001
		endloop
	endfacet
	facet normal -0.000000e+000 0.000000e+000 1.000000e+000
		outer loop
			vertex -1.278964e+002 -5.694313e+001 3.000000e+001
			vertex -1.236127e+002 -6.572602e+001 3.000000e+001
			vertex 1.278964e+002 -5.694313e+001 3.000000e+001
		endloop
	endfacet
	facet normal 0.000000e+000 -0.000000e+000 1.000000e+000
		outer loop
			vertex 1.236127e+002 -6.572602e+001 3.000000e+001
			vertex 1.278964e+002 -5.694313e+001 3.000000e+001
			vertex -1.236127e+002 -6.572602e+001 3.000000e+001
		endloop
	endfacet
	facet normal -0.000000e+000 0.000000e+000 1.000000e+000
		outer loop
			vertex -1.236127e+002 -6.572602e+001 3.000000e+001
			vertex -1.187267e+002 -7.418869e+001 3.000000e+001
			vertex 1.236127e+002 -6.572602e+001 3.000000e+001
		endloop
	endfacet
	facet normal 0.000000e+000 -0.000000e+000 1.000000e+000
		outer loop
			vertex 1.187267e+002 -7.418869e+001 3.000000e+001
			vertex 1.236127e+002 -6.572602e+001 3.000000e+001
			vertex -1.187267e+002 -7.418869e+001 3.000000e+001
		endloop
	endfacet
	facet normal -0.000000e+000 0.000000e+000 1.000000e+000
		outer loop
			vertex -1.187267e+002 -7.418869e+001 3.000000e+001
			vertex -1.132624e+002 -8.228993e+001 3.000000e+001
			vertex 1.187267e+002 -7.418869e+001 3.000000e+001
		endloop
	endfacet
	facet normal 0.000000e+000 -0.000000e+000 1.000000e+000
		outer loop
			vertex 1.132624e+002 -8.228993e+001 3.000000e+001
			vertex 1.187267e+002 -7.418869e+001 3.000000e+001
			vertex -1.132624e+002 -8.228993e+001 3.000000e+001
		endloop
	endfacet
	facet normal -0.000000e+000 0.000000e+000 1.000000e+000
		outer loop
			vertex -1.132624e+002 -8.228993e+001 3.000000e+001
			vertex -1.072462e+002 -8.999027e+001 3.000000e+001
			vertex 1.132624e+002 -8.228993e+001 3.000000e+001
		endloop
	endfacet
	facet normal 0.000000e+000 -0.000000e+000 1.000000e+000
		outer loop
			vertex 1.072462e+002 -8.999027e+001 3.000000e+001
			vertex 1.132624e+002 -8.228993e+001 3.000000e+001
			vertex -1.072462e+002 -8.999027e+001 3.000000e+001
		endloop
	endfacet
	facet normal -0.000000e+000 0.000000e+000 1.000000e+000
		outer loop
			vertex -1.072462e+002 -8.999027e+001 3.000000e+001
			vertex -1.007076e+002 -9.725218e+001 3.000000e+001
			vertex 1.072462e+002 -8.999027e+001 3.000000e+001
		endloop
	endfacet
	facet normal 0.000000e+000 -0.000000e+000 1.000000e+000
		outer loop
			vertex 1.007076e+002 -9.725218e+001 3.000000e+001
			vertex 1.072462e+002 -8.999027e+001 3.000000e+001
			vertex -1.007076e+002 -9.725218e+001 3.000000e+001
		endloop
	endfacet
	facet normal -0.000000e+000 0.000000e+000 1.000000e+000
		outer loop
			vertex -1.007076e+002 -9.725218e+001 3.000000e+001
			vertex -9.367829e+001 -1.040403e+002 3.000000e+001
			vertex 1.007076e+002 -9.725218e+001 3.000000e+001
		endloop
	endfacet
	facet normal 0.000000e+000 -0.000000e+000 1.000000e+000
		outer loop
			vertex 9.367829e+001 -1.040403e+002 3.000000e+001
			vertex 1.007076e+002 -9.725218e+001 3.000000e+001
			vertex -9.367829e+001 -1.040403e+002 3.000000e+001
		endloop
	endfacet
	facet normal -0.000000e+000 0.000000e+000 1.000000e+000
		outer loop
			vertex -9.367829e+001 -1.040403e+002 3.000000e+001
			vertex -8.619261e+001 -1.103215e+002 3.000000e+001
			vertex 9.367829e+001 -1.040403e+002 3.000000e+001
		endloop
	endfacet
	facet normal 0.000000e+000 -0.000000e+000 1.000000e+000
		outer loop
			vertex 8.619261e+001 -1.103215e+002 3.000000e+001
			vertex 9.367829e+001 -1.040403e+002 3.000000e+001
			vertex -8.619261e+001 -1.103215e+002 3.000000e+001
		endloop
	endfacet
	facet normal -0.000000e+000 0.000000e+000 1.000000e+000
		outer loop
			vertex -8.619261e+001 -1.103215e+002 3.000000e+001
			vertex -7.828701e+001 -1.160653e+002 3.000000e+001
			vertex 8.619261e+001 -1.103215e+002 3.000000e+001
		endloop
	endfacet
	facet normal 0.000000e+000 -0.000000e+000 1.000000e+000
		outer loop
			vertex 7.828701e+001 -1.160653e+002 3.000000e+001
			vertex 8.619261e+001 -1.103215e+002 3.000000e+001
			vertex -7.828701e+001 -1.160653e+002 3.000000e+001
		endloop
	endfacet
	facet normal -0.000000e+000 0.000000e+000 1.000000e+000
		outer loop
			vertex -7.828701e+001 -1.160653e+002 3.000000e+001
			vertex -7.000000e+001 -1.212436e+002 3.000000e+001
			vertex 7.828701e+001 -1.160653e+002 3.000000e+001
		endloop
	endfacet
	facet normal 0.000000e+000 -0.000000e+000 1.000000e+000
		outer loop
			vertex 7.000000e+001 -1.212436e+002 3.000000e+001
			vertex 7.828701e+001 -1.160653e+002 3.000000e+001
			vertex -7.000000e+001 -1.212436e+002 3.000000e+001
		endloop
	endfacet
	facet normal -0.000000e+000 0.000000e+000 1.000000e+000
		outer loop
			vertex -7.000000e+001 -1.212436e+002 3.000000e+001
			vertex -6.137196e+001 -1.258312e+002 3.000000e+001
			vertex 7.000000e+001 -1.212436e+002 3.000000e+001
		endloop
	endfacet
	facet normal 0.000000e+000 -0.000000e+000 1.000000e+000
		outer loop
			vertex 6.137196e+001 -1.258312e+002 3.000000e+001
			vertex 7.000000e+001 -1.212436e+002 3.000000e+001
			vertex -6.137196e+001 -1.258312e+002 3.000000e+001
		endloop
	endfacet
	facet normal -0.000000e+000 0.000000e+000 1.000000e+000
		outer loop
			vertex -6.137196e+001 -1.258312e+002 3.000000e+001
			vertex -5.244492e+001 -1.298057e+002 3.000000e+001
			vertex 6.137196e+001 -1.258312e+002 3.000000e+001
		endloop
	endfacet
	facet normal 0.000000e+000 -0.000000e+000 1.000000e+000
		outer loop
			vertex 5.244492e+001 -1.298057e+002 3.000000e+001
			vertex 6.137196e+001 -1.258312e+002 3.000000e+001
			vertex -5.244492e+001 -1.298057e+002 3.000000e+001
		endloop
	endfacet
	facet normal -0.000000e+000 0.000000e+000 1.000000e+000
		outer loop
			vertex -5.244492e+001 -1.298057e+002 3.000000e+001
			vertex -4.326238e+001 -1.331479e+002 3.000000e+001
			vertex 5.244492e+001 -1.298057e+002 3.000000e+001
		endloop
	endfacet
	facet normal 0.000000e+000 -0.000000e+000 1.000000e+000
		outer loop
			vertex 4.326238e+001 -1.331479e+002 3.000000e+001
			vertex 5.244492e+001 -1.298057e+002 3.000000e+001
			vertex -4.326238e+001 -1.331479e+002 3.000000e+001
		endloop
	endfacet
	facet normal -0.000000e+000 0.000000e+000 1.000000e+000
		outer loop
			vertex -4.326238e+001 -1.331479e+002 3.000000e+001
			vertex -3.386907e+001 -1.358414e+002 3.000000e+001
			vertex 4.326238e+001 -1.331479e+002 3.000000e+001
		endloop
	endfacet
	facet normal 0.000000e+000 -0.000000e+000 1.000000e+000
		outer loop
			vertex 3.386907e+001 -1.358414e+002 3.000000e+001
			vertex 4.326238e+001 -1.331479e+002 3.000000e+001
			vertex -3.386907e+001 -1.358414e+002 3.000000e+001
		endloop
	endfacet
	facet normal -0.000000e+000 0.000000e+000 1.000000e+000
		outer loop
			vertex -3.386907e+001 -1.358414e+002 3.000000e+001
			vertex -2.431075e+001 -1.378731e+002 3.000000e+001
			vertex 3.386907e+001 -1.358414e+002 3.000000e+001
		endloop
	endfacet
	facet normal 0.000000e+000 -0.000000e+000 1.000000e+000
		outer loop
			vertex 2.431075e+001 -1.378731e+002 3.000000e+001
			vertex 3.386907e+001 -1.358414e+002 3.000000e+001
			vertex -2.431075e+001 -1.378731e+002 3.000000e+001
		endloop
	endfacet
	facet normal -0.000000e+000 0.000000e+000 1.000000e+000
		outer loop
			vertex -2.431075e+001 -1.378731e+002 3.000000e+001
			vertex -1.463399e+001 -1.392331e+002 3.000000e+001
			vertex 2.431075e+001 -1.378731e+002 3.000000e+001
		endloop
	endfacet
	facet normal 0.000000e+000 -0.000000e+000 1.000000e+000
		outer loop
			vertex 1.463399e+001 -1.392331e+002 3.000000e+001
			vertex 2.431075e+001 -1.378731e+002 3.000000e+001
			vertex -1.463399e+001 -1.392331e+002 3.000000e+001
		endloop
	endfacet
	facet normal -0.000000e+000 0.000000e+000 1.000000e+000
		outer loop
			vertex -1.463399e+001 -1.392331e+002 3.000000e+001
			vertex -4.885930e+000 -1.399147e+002 3.000000e+001
			vertex 1.463399e+001 -1.392331e+002 3.000000e+001
		endloop
	endfacet
	facet normal 0.000000e+000 -0.000000e+000 1.000000e+000
		outer loop
			vertex 4.885930e+000 -1.399147e+002 3.000000e+001
			vertex 1.463399e+001 -1.392331e+002 3.000000e+001
			vertex -4.885930e+000 -1.399147e+002 3.000000e+001
		endloop
	endfacet
	facet normal -9.993908e-001 3.489899e-002 0.000000e+000
		outer loop
			vertex -1.400000e+002 1.714449e-014 3.000000e+001
			vertex -1.396590e+002 9.765906e+000 3.000000e+001
			vertex -1.400000e+002 1.714449e-014 0.000000e+000
		endloop
	endfacet
	facet normal -9.993908e-001 3.489899e-002 0.000000e+000
		outer loop
			vertex -1.396590e+002 9.765906e+000 0.000000e+000
			vertex -1.400000e+002 1.714449e-014 0.000000e+000
			vertex -1.396590e+002 9.765906e+000 3.000000e+001
		endloop
	endfacet
	facet normal -9.945218e-001 1.045292e-001 0.000000e+000
		outer loop
			vertex -1.396590e+002 9.765906e+000 3.000000e+001
			vertex -1.386375e+002 1.948423e+001 3.000000e+001
			vertex -1.396590e+002 9.765906e+000 0.000000e+000
		endloop
	endfacet
	facet normal -9.945218e-001 1.045292e-001 0.000000e+000
		outer loop
			vertex -1.386375e+002 1.948423e+001 0.000000e+000
			vertex -1.396590e+002 9.765906e+000 0.000000e+000
			vertex -1.386375e+002 1.948423e+001 3.000000e+001
		endloop
	endfacet
	facet normal -9.848077e-001 1.736486e-001 0.000000e+000
		outer loop
			vertex -1.386375e+002 1.948423e+001 3.000000e+001
			vertex -1.369407e+002 2.910764e+001 3.000000e+001
			vertex -1.386375e+002 1.948423e+001 0.000000e+000
		endloop
	endfacet
	facet normal -9.848077e-001 1.736486e-001 0.000000e+000
		outer loop
			vertex -1.369407e+002 2.910764e+001 0.000000e+000
			vertex -1.386375e+002 1.948423e+001 0.000000e+000
			vertex -1.369407e+002 2.910764e+001 3.000000e+001
		endloop
	endfacet
	facet normal -9.702958e-001 2.419216e-001 0.000000e+000
		outer loop
			vertex -1.369407e+002 2.910764e+001 3.000000e+001
			vertex -1.345766e+002 3.858923e+001 3.000000e+001
			vertex -1.369407e+002 2.910764e+001 0.000000e+000
		endloop
	endfacet
	facet normal -9.702958e-001 2.419216e-001 0.000000e+000
		outer loop
			vertex -1.345766e+002 3.858923e+001 0.000000e+000
			vertex -1.369407e+002 2.910764e+001 0.000000e+000
			vertex -1.345766e+002 3.858923e+001 3.000000e+001
		endloop
	endfacet
	facet normal -9.510568e-001 3.090161e-001 0.000000e+000
		outer loop
			vertex -1.345766e+002 3.858923e+001 3.000000e+001
			vertex -1.315570e+002 4.788282e+001 3.000000e+001
			vertex -1.345766e+002 3.858923e+001 0.000000e+000
		endloop
	endfacet
	facet normal -9.510568e-001 3.090161e-001 0.000000e+000
		outer loop
			vertex -1.315570e+002 4.788282e+001 0.000000e+000
			vertex -1.345766e+002 3.858923e+001 0.000000e+000
			vertex -1.315570e+002 4.788282e+001 3.000000e+001
		endloop
	endfacet
	facet normal -9.271838e-001 3.746068e-001 0.000000e+000
		outer loop
			vertex -1.315570e+002 4.788282e+001 3.000000e+001
			vertex -1.278964e+002 5.694313e+001 3.000000e+001
			vertex -1.315570e+002 4.788282e+001 0.000000e+000
		endloop
	endfacet
	facet normal -9.271838e-001 3.746068e-001 0.000000e+000
		outer loop
			vertex -1.278964e+002 5.694313e+001 0.000000e+000
			vertex -1.315570e+002 4.788282e+001 0.000000e+000
			vertex -1.278964e+002 5.694313e+001 3.000000e+001
		endloop
	endfacet
	facet normal -8.987939e-001 4.383713e-001 0.000000e+000
		outer loop
			vertex -1.278964e+002 5.694313e+001 3.000000e+001
			vertex -1.236127e+002 6.572602e+001 3.000000e+001
			vertex -1.278964e+002 5.694313e+001 0.000000e+000
		endloop
	endfacet
	facet normal -8.987939e-001 4.383713e-001 0.000000e+000
		outer loop
			vertex -1.236127e+002 6.572602e+001 0.000000e+000
			vertex -1.278964e+002 5.694313e+001 0.000000e+000
			vertex -1.236127e+002 6.572602e+001 3.000000e+001
		endloop
	endfacet
	facet normal -8.660251e-001 5.000005e-001 0.000000e+000
		outer loop
			vertex -1.236127e+002 6.572602e+001 3.000000e+001
			vertex -1.187267e+002 7.418869e+001 3.000000e+001
			vertex -1.236127e+002 6.572602e+001 0.000000e+000
		endloop
	endfacet
	facet normal -8.660251e-001 5.000005e-001 0.000000e+000
		outer loop
			vertex -1.187267e+002 7.418869e+001 0.000000e+000
			vertex -1.236127e+002 6.572602e+001 0.000000e+000
			vertex -1.187267e+002 7.418869e+001 3.000000e+001
		endloop
	endfacet
	facet normal -8.290377e-001 5.591927e-001 0.000000e+000
		outer loop
			vertex -1.187267e+002 7.418869e+001 3.000000e+001
			vertex -1.132624e+002 8.228993e+001 3.000000e+001
			vertex -1.187267e+002 7.418869e+001 0.000000e+000
		endloop
	endfacet
	facet normal -8.290377e-001 5.591927e-001 0.000000e+000
		outer loop
			vertex -1.132624e+002 8.228993e+001 0.000000e+000
			vertex -1.187267e+002 7.418869e+001 0.000000e+000
			vertex -1.132624e+002 8.228993e+001 3.000000e+001
		endloop
	endfacet
	facet normal -7.880108e-001 6.156614e-001 0.000000e+000
		outer loop
			vertex -1.132624e+002 8.228993e+001 3.000000e+001
			vertex -1.072462e+002 8.999027e+001 3.000000e+001
			vertex -1.132624e+002 8.228993e+001 0.000000e+000
		endloop
	endfacet
	facet normal -7.880108e-001 6.156614e-001 0.000000e+000
		outer loop
			vertex -1.072462e+002 8.999027e+001 0.000000e+000
			vertex -1.132624e+002 8.228993e+001 0.000000e+000
			vertex -1.072462e+002 8.999027e+001 3.000000e+001
		endloop
	endfacet
	facet normal -7.431452e-001 6.691301e-001 0.000000e+000
		outer loop
			vertex -1.072462e+002 8.999027e+001 3.000000e+001
			vertex -1.007076e+002 9.725218e+001 3.000000e+001
			vertex -1.072462e+002 8.999027e+001 0.000000e+000
		endloop
	endfacet
	facet normal -7.431452e-001 6.691301e-001 0.000000e+000
		outer loop
			vertex -1.007076e+002 9.725218e+001 0.000000e+000
			vertex -1.072462e+002 8.999027e+001 0.000000e+000
			vertex -1.007076e+002 9.725218e+001 3.000000e+001
		endloop
	endfacet
	facet normal -6.946580e-001 7.193401e-001 0.000000e+000
		outer loop
			vertex -1.007076e+002 9.725218e+001 3.000000e+001
			vertex -9.367829e+001 1.040403e+002 3.000000e+001
			vertex -1.007076e+002 9.725218e+001 0.000000e+000
		endloop
	endfacet
	facet normal -6.946580e-001 7.193401e-001 0.000000e+000
		outer loop
			vertex -9.367829e+001 1.040403e+002 0.000000e+000
			vertex -1.007076e+002 9.725218e+001 0.000000e+000
			vertex -9.367829e+001 1.040403e+002 3.000000e+001
		endloop
	endfacet
	facet normal -6.427878e-001 7.660443e-001 0.000000e+000
		outer loop
			vertex -9.367829e+001 1.040403e+002 3.000000e+001
			vertex -8.619261e+001 1.103215e+002 3.000000e+001
			vertex -9.367829e+001 1.040403e+002 0.000000e+000
		endloop
	endfacet
	facet normal -6.427878e-001 7.660443e-001 0.000000e+000
		outer loop
			vertex -8.619261e+001 1.103215e+002 0.000000e+000
			vertex -9.367829e+001 1.040403e+002 0.000000e+000
			vertex -8.619261e+001 1.103215e+002 3.000000e+001
		endloop
	endfacet
	facet normal -5.877853e-001 8.090169e-001 0.000000e+000
		outer loop
			vertex -8.619261e+001 1.103215e+002 3.000000e+001
			vertex -7.828701e+001 1.160653e+002 3.000000e+001
			vertex -8.619261e+001 1.103215e+002 0.000000e+000
		endloop
	endfacet
	facet normal -5.877853e-001 8.090169e-001 0.000000e+000
		outer loop
			vertex -7.828701e+001 1.160653e+002 0.000000e+000
			vertex -8.619261e+001 1.103215e+002 0.000000e+000
			vertex -7.828701e+001 1.160653e+002 3.000000e+001
		endloop
	endfacet
	facet normal -5.299192e-001 8.480481e-001 0.000000e+000
		outer loop
			vertex -7.828701e+001 1.160653e+002 3.000000e+001
			vertex -7.000000e+001 1.212436e+002 3.000000e+001
			vertex -7.828701e+001 1.160653e+002 0.000000e+000
		endloop
	endfacet
	facet normal -5.299192e-001 8.480481e-001 0.000000e+000
		outer loop
			vertex -7.000000e+001 1.212436e+002 0.000000e+000
			vertex -7.828701e+001 1.160653e+002 0.000000e+000
			vertex -7.000000e+001 1.212436e+002 3.000000e+001
		endloop
	endfacet
	facet normal -4.694718e-001 8.829475e-001 0.000000e+000
		outer loop
			vertex -7.000000e+001 1.212436e+002 3.000000e+001
			vertex -6.137196e+001 1.258312e+002 3.000000e+001
			vertex -7.000000e+001 1.212436e+002 0.000000e+000
		endloop
	endfacet
	facet normal -4.694718e-001 8.829475e-001 0.000000e+000
		outer loop
			vertex -6.137196e+001 1.258312e+002 0.000000e+000
			vertex -7.000000e+001 1.212436e+002 0.000000e+000
			vertex -6.137196e+001 1.258312e+002 3.000000e+001
		endloop
	endfacet
	facet normal -4.067366e-001 9.135455e-001 0.000000e+000
		outer loop
			vertex -6.137196e+001 1.258312e+002 3.000000e+001
			vertex -5.244492e+001 1.298057e+002 3.000000e+001
			vertex -6.137196e+001 1.258312e+002 0.000000e+000
		endloop
	endfacet
	facet normal -4.067366e-001 9.135455e-001 0.000000e+000
		outer loop
			vertex -5.244492e+001 1.298057e+002 0.000000e+000
			vertex -6.137196e+001 1.258312e+002 0.000000e+000
			vertex -5.244492e+001 1.298057e+002 3.000000e+001
		endloop
	endfacet
	facet normal -3.420195e-001 9.396929e-001 0.000000e+000
		outer loop
			vertex -5.244492e+001 1.298057e+002 3.000000e+001
			vertex -4.326238e+001 1.331479e+002 3.000000e+001
			vertex -5.244492e+001 1.298057e+002 0.000000e+000
		endloop
	endfacet
	facet normal -3.420195e-001 9.396929e-001 0.000000e+000
		outer loop
			vertex -4.326238e+001 1.331479e+002 0.000000e+000
			vertex -5.244492e+001 1.298057e+002 0.000000e+000
			vertex -4.326238e+001 1.331479e+002 3.000000e+001
		endloop
	endfacet
	facet normal -2.756374e-001 9.612617e-001 0.000000e+000
		outer loop
			vertex -4.326238e+001 1.331479e+002 3.000000e+001
			vertex -3.386907e+001 1.358414e+002 3.000000e+001
			vertex -4.326238e+001 1.331479e+002 0.000000e+000
		endloop
	endfacet
	facet normal -2.756374e-001 9.612617e-001 0.000000e+000
		outer loop
			vertex -3.386907e+001 1.358414e+002 0.000000e+000
			vertex -4.326238e+001 1.331479e+002 0.000000e+000
			vertex -3.386907e+001 1.358414e+002 3.000000e+001
		endloop
	endfacet
	facet normal -2.079117e-001 9.781476e-001 0.000000e+000
		outer loop
			vertex -3.386907e+001 1.358414e+002 3.000000e+001
			vertex -2.431075e+001 1.378731e+002 3.000000e+001
			vertex -3.386907e+001 1.358414e+002 0.000000e+000
		endloop
	endfacet
	facet normal -2.079117e-001 9.781476e-001 0.000000e+000
		outer loop
			vertex -2.431075e+001 1.378731e+002 0.000000e+000
			vertex -3.386907e+001 1.358414e+002 0.000000e+000
			vertex -2.431075e+001 1.378731e+002 3.000000e+001
		endloop
	endfacet
	facet normal -1.391735e-001 9.902680e-001 0.000000e+000
		outer loop
			vertex -2.431075e+001 1.378731e+002 3.000000e+001
			vertex -1.463399e+001 1.392331e+002 3.000000e+001
			vertex -2.431075e+001 1.378731e+002 0.000000e+000
		endloop
	endfacet
	facet normal -1.391735e-001 9.902680e-001 0.000000e+000
		outer loop
			vertex -1.463399e+001 1.392331e+002 0.000000e+000
			vertex -2.431075e+001 1.378731e+002 0.000000e+000
			vertex -1.463399e+001 1.392331e+002 3.000000e+001
		endloop
	endfacet
	facet normal -6.975680e-002 9.975640e-001 0.000000e+000
		outer loop
			vertex -1.463399e+001 1.392331e+002 3.000000e+001
			vertex -4.885930e+000 1.399147e+002 3.000000e+001
			vertex -1.463399e+001 1.392331e+002 0.000000e+000
		endloop
	endfacet
	facet normal -6.975680e-002 9.975640e-001 0.000000e+000
		outer loop
			vertex -4.885930e+000 1.399147e+002 0.000000e+000
			vertex -1.463399e+001 1.392331e+002 0.000000e+000
			vertex -4.885930e+000 1.399147e+002 3.000000e+001
		endloop
	endfacet
	facet normal -0.000000e+000 1.000000e+000 0.000000e+000
		outer loop
			vertex -4.885930e+000 1.399147e+002 3.000000e+001
			vertex 4.885930e+000 1.399147e+002 3.000000e+001
			vertex -4.885930e+000 1.399147e+002 0.000000e+000
		endloop
	endfacet
	facet normal 0.000000e+000 1.000000e+000 -0.000000e+000
		outer loop
			vertex 4.885930e+000 1.399147e+002 0.000000e+000
			vertex -4.885930e+000 1.399147e+002 0.000000e+000
			vertex 4.885930e+000 1.399147e+002 3.000000e+001
		endloop
	endfacet
	facet normal 6.975680e-002 9.975640e-001 0.000000e+000
		outer loop
			vertex 4.885930e+000 1.399147e+002 3.000000e+001
			vertex 1.463399e+001 1.392331e+002 3.000000e+001
			vertex 4.885930e+000 1.399147e+002 0.000000e+000
		endloop
	endfacet
	facet normal 6.975680e-002 9.975640e-001 -0.000000e+000
		outer loop
			vertex 1.463399e+001 1.392331e+002 0.000000e+000
			vertex 4.885930e+000 1.399147e+002 0.000000e+000
			vertex 1.463399e+001 1.392331e+002 3.000000e+001
		endloop
	endfacet
	facet normal 1.391735e-001 9.902680e-001 0.000000e+000
		outer loop
			vertex 1.463399e+001 1.392331e+002 3.000000e+001
			vertex 2.431075e+001 1.378731e+002 3.000000e+001
			vertex 1.463399e+001 1.392331e+002 0.000000e+000
		endloop
	endfacet
	facet normal 1.391735e-001 9.902680e-001 -0.000000e+000
		outer loop
			vertex 2.431075e+001 1.378731e+002 0.000000e+000
			vertex 1.463399e+001 1.392331e+002 0.000000e+000
			vertex 2.431075e+001 1.378731e+002 3.000000e+001
		endloop
	endfacet
	facet normal 2.079117e-001 9.781476e-001 0.000000e+000
		outer loop
			vertex 2.431075e+001 1.378731e+002 3.000000e+001
			vertex 3.386907e+001 1.358414e+002 3.000000e+001
			vertex 2.431075e+001 1.378731e+002 0.000000e+000
		endloop
	endfacet
	facet normal 2.079117e-001 9.781476e-001 -0.000000e+000
		outer loop
			vertex 3.386907e+001 1.358414e+002 0.000000e+000
			vertex 2.431075e+001 1.378731e+002 0.000000e+000
			vertex 3.386907e+001 1.358414e+002 3.000000e+001
		endloop
	endfacet
	facet normal 2.756374e-001 9.612617e-001 0.000000e+000
		outer loop
			vertex 3.386907e+001 1.358414e+002 3.000000e+001
			vertex 4.326238e+001 1.331479e+002 3.000000e+001
			vertex 3.386907e+001 1.358414e+002 0.000000e+000
		endloop
	endfacet
	facet normal 2.756374e-001 9.612617e-001 -0.000000e+000
		outer loop
			vertex 4.326238e+001 1.331479e+002 0.000000e+000
			vertex 3.386907e+001 1.358414e+002 0.000000e+000
			vertex 4.326238e+001 1.331479e+002 3.000000e+001
		endloop
	endfacet
	facet normal 3.420195e-001 9.396929e-001 0.000000e+000
		outer loop
			vertex 4.326238e+001 1.331479e+002 3.000000e+001
			vertex 5.244492e+001 1.298057e+002 3.000000e+001
			vertex 4.326238e+001 1.331479e+002 0.000000e+000
		endloop
	endfacet
	facet normal 3.420195e-001 9.396929e-001 -0.000000e+000
		outer loop
			vertex 5.244492e+001 1.298057e+002 0.000000e+000
			vertex 4.326238e+001 1.331479e+002 0.000000e+000
			vertex 5.244492e+001 1.298057e+002 3.000000e+001
		endloop
	endfacet
	facet normal 4.067366e-001 9.135455e-001 0.000000e+000
		outer loop
			vertex 5.244492e+001 1.298057e+002 3.000000e+001
			vertex 6.137196e+001 1.258312e+002 3.000000e+001
			vertex 5.244492e+001 1.298057e+002 0.000000e+000
		endloop
	endfacet
	facet normal 4.067366e-001 9.135455e-001 -0.000000e+000
		outer loop
			vertex 6.137196e+001 1.258312e+002 0.000000e+000
			vertex 5.244492e+001 1.298057e+002 0.000000e+000
			vertex 6.137196e+001 1.258312e+002 3.000000e+001
		endloop
	endfacet
	facet normal 4.694718e-001 8.829475e-001 0.000000e+000
		outer loop
			vertex 6.137196e+001 1.258312e+002 3.000000e+001
			vertex 7.000000e+001 1.212436e+002 3.000000e+001
			vertex 6.137196e+001 1.258312e+002 0.000000e+000
		endloop
	endfacet
	facet normal 4.694718e-001 8.829475e-001 -0.000000e+000
		outer loop
			vertex 7.000000e+001 1.212436e+002 0.000000e+000
			vertex 6.137196e+001 1.258312e+002 0.000000e+000
			vertex 7.000000e+001 1.212436e+002 3.000000e+001
		endloop
	endfacet
	facet normal 5.299192e-001 8.480481e-001 0.000000e+000
		outer loop
			vertex 7.000000e+001 1.212436e+002 3.000000e+001
			vertex 7.828701e+001 1.160653e+002 3.000000e+001
			vertex 7.000000e+001 1.212436e+002 0.000000e+000
		endloop
	endfacet
	facet normal 5.299192e-001 8.480481e-001 -0.000000e+000
		outer loop
			vertex 7.828701e+001 1.160653e+002 0.000000e+000
			vertex 7.000000e+001 1.212436e+002 0.000000e+000
			vertex 7.828701e+001 1.160653e+002 3.000000e+001
		endloop
	endfacet
	facet normal 5.877853e-001 8.090169e-001 0.000000e+000
		outer loop
			vertex 7.828701e+001 1.160653e+002 3.000000e+001
			vertex 8.619261e+001 1.103215e+002 3.000000e+001
			vertex 7.828701e+001 1.160653e+002 0.000000e+000
		endloop
	endfacet
	facet normal 5.877853e-001 8.090169e-001 -0.000000e+000
		outer loop
			vertex 8.619261e+001 1.103215e+002 0.000000e+000
			vertex 7.828701e+001 1.160653e+002 0.000000e+000
			vertex 8.619261e+001 1.103215e+002 3.000000e+001
		endloop
	endfacet
	facet normal 6.427878e-001 7.660443e-001 0.000000e+000
		outer loop
			vertex 8.619261e+001 1.103215e+002 3.000000e+001
			vertex 9.367829e+001 1.040403e+002 3.000000e+001
			vertex 8.619261e+001 1.103215e+002 0.000000e+000
		endloop
	endfacet
	facet normal 6.427878e-001 7.660443e-001 -0.000000e+000
		outer loop
			vertex 9.367829e+001 1.040403e+002 0.000000e+000
			vertex 8.619261e+001 1.103215e+002 0.000000e+000
			vertex 9.367829e+001 1.040403e+002 3.000000e+001
		endloop
	endfacet
	facet normal 6.946580e-001 7.193401e-001 0.000000e+000
		outer loop
			vertex 9.367829e+001 1.040403e+002 3.000000e+001
			vertex 1.007076e+002 9.725218e+001 3.000000e+001
			vertex 9.367829e+001 1.040403e+002 0.000000e+000
		endloop
	endfacet
	facet normal 6.946580e-001 7.193401e-001 -0.000000e+000
		outer loop
			vertex 1.007076e+002 9.725218e+001 0.000000e+000
			vertex 9.367829e+001 1.040403e+002 0.000000e+000
			vertex 1.007076e+002 9.725218e+001 3.000000e+001
		endloop
	endfacet
	facet normal 7.431452e-001 6.691301e-001 0.000000e+000
		outer loop
			vertex 1.007076e+002 9.725218e+001 3.000000e+001
			vertex 1.072462e+002 8.999027e+001 3.000000e+001
			vertex 1.007076e+002 9.725218e+001 0.000000e+000
		endloop
	endfacet
	facet normal 7.431452e-001 6.691301e-001 -0.000000e+000
		outer loop
			vertex 1.072462e+002 8.999027e+001 0.000000e+000
			vertex 1.007076e+002 9.725218e+001 0.000000e+000
			vertex 1.072462e+002 8.999027e+001 3.000000e+001
		endloop
	endfacet
	facet normal 7.880108e-001 6.156614e-001 0.000000e+000
		outer loop
			vertex 1.072462e+002 8.999027e+001 3.000000e+001
			vertex 1.132624e+002 8.228993e+001 3.000000e+001
			vertex 1.072462e+002 8.999027e+001 0.000000e+000
		endloop
	endfacet
	facet normal 7.880108e-001 6.156614e-001 -0.000000e+000
		outer loop
			vertex 1.132624e+002 8.228993e+001 0.000000e+000
			vertex 1.072462e+002 8.999027e+001 0.000000e+000
			vertex 1.132624e+002 8.228993e+001 3.000000e+001
		endloop
	endfacet
	facet normal 8.290377e-001 5.591927e-001 0.000000e+000
		outer loop
			vertex 1.132624e+002 8.228993e+001 3.000000e+001
			vertex 1.187267e+002 7.418869e+001 3.000000e+001
			vertex 1.132624e+002 8.228993e+001 0.000000e+000
		endloop
	endfacet
	facet normal 8.290377e-001 5.591927e-001 -0.000000e+000
		outer loop
			vertex 1.187267e+002 7.418869e+001 0.000000e+000
			vertex 1.132624e+002 8.228993e+001 0.000000e+000
			vertex 1.187267e+002 7.418869e+001 3.000000e+001
		endloop
	endfacet
	facet normal 8.660251e-001 5.000005e-001 0.000000e+000
		outer loop
			vertex 1.187267e+002 7.418869e+001 3.000000e+001
			vertex 1.236127e+002 6.572602e+001 3.000000e+001
			vertex 1.187267e+002 7.418869e+001 0.000000e+000
		endloop
	endfacet
	facet normal 8.660251e-001 5.000005e-001 -0.000000e+000
		outer loop
			vertex 1.236127e+002 6.572602e+001 0.000000e+000
			vertex 1.187267e+002 7.418869e+001 0.000000e+000
			vertex 1.236127e+002 6.572602e+001 3.000000e+001
		endloop
	endfacet
	facet normal 8.987939e-001 4.383713e-001 0.000000e+000
		outer loop
			vertex 1.236127e+002 6.572602e+001 3.000000e+001
			vertex 1.278964e+002 5.694313e+001 3.000000e+001
			vertex 1.236127e+002 6.572602e+001 0.000000e+000
		endloop
	endfacet
	facet normal 8.987939e-001 4.383713e-001 -0.000000e+000
		outer loop
			vertex 1.278964e+002 5.694313e+001 0.000000e+000
			vertex 1.236127e+002 6.572602e+001 0.000000e+000
			vertex 1.278964e+002 5.694313e+001 3.000000e+001
		endloop
	endfacet
	facet normal 9.271838e-001 3.746068e-001 0.000000e+000
		outer loop
			vertex 1.278964e+002 5.694313e+001 3.000000e+001
			vertex 1.315570e+002 4.788282e+001 3.000000e+001
			vertex 1.278964e+002 5.694313e+001 0.000000e+000
		endloop
	endfacet
	facet normal 9.271838e-001 3.746068e-001 -0.000000e+000
		outer loop
			vertex 1.315570e+002 4.788282e+001 0.000000e+000
			vertex 1.278964e+002 5.694313e+001 0.000000e+000
			vertex 1.315570e+002 4.788282e+001 3.000000e+001
		endloop
	endfacet
	facet normal 9.510568e-001 3.090161e-001 0.000000e+000
		outer loop
			vertex 1.315570e+002 4.788282e+001 3.000000e+001
			vertex 1.345766e+002 3.858923e+001 3.000000e+001
			vertex 1.315570e+002 4.788282e+001 0.000000e+000
		endloop
	endfacet
	facet normal 9.510568e-001 3.090161e-001 -0.000000e+000
		outer loop
			vertex 1.345766e+002 3.858923e+001 0.000000e+000
			vertex 1.315570e+002 4.788282e+001 0.000000e+000
			vertex 1.345766e+002 3.858923e+001 3.000000e+001
		endloop
	endfacet
	facet normal 9.702958e-001 2.419216e-001 0.000000e+000
		outer loop
			vertex 1.345766e+002 3.858923e+001 3.000000e+001
			vertex 1.369407e+002 2.910764e+001 3.000000e+001
			vertex 1.345766e+002 3.858923e+001 0.000000e+000
		endloop
	endfacet
	facet normal 9.702958e-001 2.419216e-001 -0.000000e+000
		outer loop
			vertex 1.369407e+002 2.910764e+001 0.000000e+000
			vertex 1.345766e+002 3.858923e+001 0.000000e+000
			vertex 1.369407e+002 2.910764e+001 3.000000e+001
		endloop
	endfacet
	facet normal 9.848077e-001 1.736486e-001 0.000000e+000
		outer loop
			vertex 1.369407e+002 2.910764e+001 3.000000e+001
			vertex 1.386375e+002 1.948423e+001 3.000000e+001
			vertex 1.369407e+002 2.910764e+001 0.000000e+000
		endloop
	endfacet
	facet normal 9.848077e-001 1.736486e-001 -0.000000e+000
		outer loop
			vertex 1.386375e+002 1.948423e+001 0.000000e+000
			vertex 1.369407e+002 2.910764e+001 0.000000e+000
			vertex 1.386375e+002 1.948423e+001 3.000000e+001
		endloop
	endfacet
	facet normal 9.945218e-001 1.045292e-001 0.000000e+000
		outer loop
			vertex 1.386375e+002 1.948423e+001 3.000000e+001
			vertex 1.396590e+002 9.765906e+000 3.000000e+001
			vertex 1.386375e+002 1.948423e+001 0.000000e+000
		endloop
	endfacet
	facet normal 9.945218e-001 1.045292e-001 -0.000000e+000
		outer loop
			vertex 1.396590e+002 9.765906e+000 0.000000e+000
			vertex 1.386375e+002 1.948423e+001 0.000000e+000
			vertex 1.396590e+002 9.765906e+000 3.000000e+001
		endloop
	endfacet
	facet normal 9.993908e-001 3.489899e-002 0.000000e+000
		outer loop
			vertex 1.396590e+002 9.765906e+000 3.000000e+001
			vertex 1.400000e+002 -1.714449e-014 3.000000e+001
			vertex 1.396590e+002 9.765906e+000 0.000000e+000
		endloop
	endfacet
	facet normal 9.993908e-001 3.489899e-002 -0.000000e+000
		outer loop
			vertex 1.400000e+002 -1.714449e-014 0.000000e+000
			vertex 1.396590e+002 9.765906e+000 0.000000e+000
			vertex 1.400000e+002 -1.714449e-014 3.000000e+001
		endloop
	endfacet
	facet normal 9.993908e-001 -3.489899e-002 0.000000e+000
		outer loop
			vertex 1.400000e+002 -1.714449e-014 3.000000e+001
			vertex 1.396590e+002 -9.765906e+000 3.000000e+001
			vertex 1.400000e+002 -1.714449e-014 0.000000e+000
		endloop
	endfacet
	facet normal 9.993908e-001 -3.489899e-002 0.000000e+000
		outer loop
			vertex 1.396590e+002 -9.765906e+000 0.000000e+000
			vertex 1.400000e+002 -1.714449e-014 0.000000e+000
			vertex 1.396590e+002 -9.765906e+000 3.000000e+001
		endloop
	endfacet
	facet normal 9.945218e-001 -1.045292e-001 0.000000e+000
		outer loop
			vertex 1.396590e+002 -9.765906e+000 3.000000e+001
			vertex 1.386375e+002 -1.948423e+001 3.000000e+001
			vertex 1.396590e+002 -9.765906e+000 0.000000e+000
		endloop
	endfacet
	facet normal 9.945218e-001 -1.045292e-001 0.000000e+000
		outer loop
			vertex 1.386375e+002 -1.948423e+001 0.000000e+000
			vertex 1.396590e+002 -9.765906e+000 0.000000e+000
			vertex 1.386375e+002 -1.948423e+001 3.000000e+001
		endloop
	endfacet
	facet normal 9.848077e-001 -1.736486e-001 0.000000e+000
		outer loop
			vertex 1.386375e+002 -1.948423e+001 3.000000e+001
			vertex 1.369407e+002 -2.910764e+001 3.000000e+001
			vertex 1.386375e+002 -1.948423e+001 0.000000e+000
		endloop
	endfacet
	facet normal 9.848077e-001 -1.736486e-001 0.000000e+000
		outer loop
			vertex 1.369407e+002 -2.910764e+001 0.000000e+000
			vertex 1.386375e+002 -1.948423e+001 0.000000e+000
			vertex 1.369407e+002 -2.910764e+001 3.000000e+001
		endloop
	endfacet
	facet normal 9.702958e-001 -2.419216e-001 0.000000e+000
		outer loop
			vertex 1.369407e+002 -2.910764e+001 3.000000e+001
			vertex 1.345766e+002 -3.858923e+001 3.000000e+001
			vertex 1.369407e+002 -2.910764e+001 0.000000e+000
		endloop
	endfacet
	facet normal 9.702958e-001 -2.419216e-001 0.000000e+000
		outer loop
			vertex 1.345766e+002 -3.858923e+001 0.000000e+000
			vertex 1.369407e+002 -2.910764e+001 0.000000e+000
			vertex 1.345766e+002 -3.858923e+001 3.000000e+001
		endloop
	endfacet
	facet normal 9.510568e-001 -3.090161e-001 0.000000e+000
		outer loop
			vertex 1.345766e+002 -3.858923e+001 3.000000e+001
			vertex 1.315570e+002 -4.788282e+001 3.000000e+001
			vertex 1.345766e+002 -3.858923e+001 0.000000e+000
		endloop
	endfacet
	facet normal 9.510568e-001 -3.090161e-001 0.000000e+000
		outer loop
			vertex 1.315570e+002 -4.788282e+001 0.000000e+000
			vertex 1.345766e+002 -3.858923e+001 0.000000e+000
			vertex 1.315570e+002 -4.788282e+001 3.000000e+001
		endloop
	endfacet
	facet normal 9.271838e-001 -3.746068e-001 0.000000e+000
		outer loop
			vertex 1.315570e+002 -4.788282e+001 3.000000e+001
			vertex 1.278964e+002 -5.694313e+001 3.000000e+001
			vertex 1.315570e+002 -4.788282e+001 0.000000e+000
		endloop
	endfacet
	facet normal 9.271838e-001 -3.746068e-001 0.000000e+000
		outer loop
			vertex 1.278964e+002 -5.694313e+001 0.000000e+000
			vertex 1.315570e+002 -4.788282e+001 0.000000e+000
			vertex 1.278964e+002 -5.694313e+001 3.000000e+001
		endloop
	endfacet
	facet normal 8.987939e-001 -4.383713e-001 0.000000e+000
		outer loop
			vertex 1.278964e+002 -5.694313e+001 3.000000e+001
			vertex 1.236127e+002 -6.572602e+001 3.000000e+001
			vertex 1.278964e+002 -5.694313e+001 0.000000e+000
		endloop
	endfacet
	facet normal 8.987939e-001 -4.383713e-001 0.000000e+000
		outer loop
			vertex 1.236127e+002 -6.572602e+001 0.000000e+000
			vertex 1.278964e+002 -5.694313e+001 0.000000e+000
			vertex 1.236127e+002 -6.572602e+001 3.000000e+001
		endloop
	endfacet
	facet normal 8.660251e-001 -5.000005e-001 0.000000e+000
		outer loop
			vertex 1.236127e+002 -6.572602e+001 3.000000e+001
			vertex 1.187267e+002 -7.418869e+001 3.000000e+001
			vertex 1.236127e+002 -6.572602e+001 0.000000e+000
		endloop
	endfacet
	facet normal 8.660251e-001 -5.000005e-001 0.000000e+000
		outer loop
			vertex 1.187267e+002 -7.418869e+001 0.000000e+000
			vertex 1.236127e+002 -6.572602e+001 0.000000e+000
			vertex 1.187267e+002 -7.418869e+001 3.000000e+001
		endloop
	endfacet
	facet normal 8.290377e-001 -5.591927e-001 0.000000e+000
		outer loop
			vertex 1.187267e+002 -7.418869e+001 3.000000e+001
			vertex 1.132624e+002 -8.228993e+001 3.000000e+001
			vertex 1.187267e+002 -7.418869e+001 0.000000e+000
		endloop
	endfacet
	facet normal 8.290377e-001 -5.591927e-001 0.000000e+000
		outer loop
			vertex 1.132624e+002 -8.228993e+001 0.000000e+000
			vertex 1.187267e+002 -7.418869e+001 0.000000e+000
			vertex 1.132624e+002 -8.228993e+001 3.000000e+001
		endloop
	endfacet
	facet normal 7.880108e-001 -6.156614e-001 0.000000e+000
		outer loop
			vertex 1.132624e+002 -8.228993e+001 3.000000e+001
			vertex 1.072462e+002 -8.999027e+001 3.000000e+001
			vertex 1.132624e+002 -8.228993e+001 0.000000e+000
		endloop
	endfacet
	facet normal 7.880108e-001 -6.156614e-001 0.000000e+000
		outer loop
			vertex 1.072462e+002 -8.999027e+001 0.000000e+000
			vertex 1.132624e+002 -8.228993e+001 0.000000e+000
			vertex 1.072462e+002 -8.999027e+001 3.000000e+001
		endloop
	endfacet
	facet normal 7.431452e-001 -6.691301e-001 0.000000e+000
		outer loop
			vertex 1.072462e+002 -8.999027e+001 3.000000e+001
			vertex 1.007076e+002 -9.725218e+001 3.000000e+001
			vertex 1.072462e+002 -8.999027e+001 0.000000e+000
		endloop
	endfacet
	facet normal 7.431452e-001 -6.691301e-001 0.000000e+000
		outer loop
			vertex 1.007076e+002 -9.725218e+001 0.000000e+000
			vertex 1.072462e+002 -8.999027e+001 0.000000e+000
			vertex 1.007076e+002 -9.725218e+001 3.000000e+001
		endloop
	endfacet
	facet normal 6.946580e-001 -7.193401e-001 0.000000e+000
		outer loop
			vertex 1.007076e+002 -9.725218e+001 3.000000e+001
			vertex 9.367829e+001 -1.040403e+002 3.000000e+001
			vertex 1.007076e+002 -9.725218e+001 0.000000e+000
		endloop
	endfacet
	facet normal 6.946580e-001 -7.193401e-001 0.000000e+000
		outer loop
			vertex 9.367829e+001 -1.040403e+002 0.000000e+000
			vertex 1.007076e+002 -9.725218e+001 0.000000e+000
			vertex 9.367829e+001 -1.040403e+002 3.000000e+001
		endloop
	endfacet
	facet normal 6.427878e-001 -7.660443e-001 0.000000e+000
		outer loop
			vertex 9.367829e+001 -1.040403e+002 3.000000e+001
			vertex 8.619261e+001 -1.103215e+002 3.000000e+001
			vertex 9.367829e+001 -1.040403e+002 0.000000e+000
		endloop
	endfacet
	facet normal 6.427878e-001 -7.660443e-001 0.000000e+000
		outer loop
			vertex 8.619261e+001 -1.103215e+002 0.000000e+000
			vertex 9.367829e+001 -1.040403e+002 0.000000e+000
			vertex 8.619261e+001 -1.103215e+002 3.000000e+001
		endloop
	endfacet
	facet normal 5.877853e-001 -8.090169e-001 0.000000e+000
		outer loop
			vertex 8.619261e+001 -1.103215e+002 3.000000e+001
			vertex 7.828701e+001 -1.160653e+002 3.000000e+001
			vertex 8.619261e+001 -1.103215e+002 0.000000e+000
		endloop
	endfacet
	facet normal 5.877853e-001 -8.090169e-001 0.000000e+000
		outer loop
			vertex 7.828701e+001 -1.160653e+002 0.000000e+000
			vertex 8.619261e+001 -1.103215e+002 0.000000e+000
			vertex 7.828701e+001 -1.160653e+002 3.000000e+001
		endloop
	endfacet
	facet normal 5.299192e-001 -8.480481e-001 0.000000e+000
		outer loop
			vertex 7.828701e+001 -1.160653e+002 3.000000e+001
			vertex 7.000000e+001 -1.212436e+002 3.000000e+001
			vertex 7.828701e+001 -1.160653e+002 0.000000e+000
		endloop
	endfacet
	facet normal 5.299192e-001 -8.480481e-001 0.000000e+000
		outer loop
			vertex 7.000000e+001 -1.212436e+002 0.000000e+000
			vertex 7.828701e+001 -1.160653e+002 0.000000e+000
			vertex 7.000000e+001 -1.212436e+002 3.000000e+001
		endloop
	endfacet
	facet normal 4.694718e-001 -8.829475e-001 0.000000e+000
		outer loop
			vertex 7.000000e+001 -1.212436e+002 3.000000e+001
			vertex 6.137196e+001 -1.258312e+002 3.000000e+001
			vertex 7.000000e+001 -1.212436e+002 0.000000e+000
		endloop
	endfacet
	facet normal 4.694718e-001 -8.829475e-001 0.000000e+000
		outer loop
			vertex 6.137196e+001 -1.258312e+002 0.000000e+000
			vertex 7.000000e+001 -1.212436e+002 0.000000e+000
			vertex 6.137196e+001 -1.258312e+002 3.000000e+001
		endloop
	endfacet
	facet normal 4.067366e-001 -9.135455e-001 0.000000e+000
		outer loop
			vertex 6.137196e+001 -1.258312e+002 3.000000e+001
			vertex 5.244492e+001 -1.298057e+002 3.000000e+001
			vertex 6.137196e+001 -1.258312e+002 0.000000e+000
		endloop
	endfacet
	facet normal 4.067366e-001 -9.135455e-001 0.000000e+000
		outer loop
			vertex 5.244492e+001 -1.298057e+002 0.000000e+000
			vertex 6.137196e+001 -1.258312e+002 0.000000e+000
			vertex 5.244492e+001 -1.298057e+002 3.000000e+001
		endloop
	endfacet
	facet normal 3.420195e-001 -9.396929e-001 0.000000e+000
		outer loop
			vertex 5.244492e+001 -1.298057e+002 3.000000e+001
			vertex 4.326238e+001 -1.331479e+002 3.000000e+001
			vertex 5.244492e+001 -1.298057e+002 0.000000e+000
		endloop
	endfacet
	facet normal 3.420195e-001 -9.396929e-001 0.000000e+000
		outer loop
			vertex 4.326238e+001 -1.331479e+002 0.000000e+000
			vertex 5.244492e+001 -1.298057e+002 0.000000e+000
			vertex 4.326238e+001 -1.331479e+002 3.000000e+001
		endloop
	endfacet
	facet normal 2.756374e-001 -9.612617e-001 0.000000e+000
		outer loop
			vertex 4.326238e+001 -1.331479e+002 3.000000e+001
			vertex 3.386907e+001 -1.358414e+002 3.000000e+001
			vertex 4.326238e+001 -1.331479e+002 0.000000e+000
		endloop
	endfacet
	facet normal 2.756374e-001 -9.612617e-001 0.000000e+000
		outer loop
			vertex 3.386907e+001 -1.358414e+002 0.000000e+000
			vertex 4.326238e+001 -1.331479e+002 0.000000e+000
			vertex 3.386907e+001 -1.358414e+002 3.000000e+001
		endloop
	endfacet
	facet normal 2.079117e-001 -9.781476e-001 0.000000e+000
		outer loop
			vertex 3.386907e+001 -1.358414e+002 3.000000e+001
			vertex 2.431075e+001 -1.378731e+002 3.000000e+001
			vertex 3.386907e+001 -1.358414e+002 0.000000e+000
		endloop
	endfacet
	facet normal 2.079117e-001 -9.781476e-001 0.000000e+000
		outer loop
			vertex 2.431075e+001 -1.378731e+002 0.000000e+000
			vertex 3.386907e+001 -1.358414e+002 0.000000e+000
			vertex 2.431075e+001 -1.378731e+002 3.000000e+001
		endloop
	endfacet
	facet normal 1.391735e-001 -9.902680e-001 0.000000e+000
		outer loop
			vertex 2.431075e+001 -1.378731e+002 3.000000e+001
			vertex 1.463399e+001 -1.392331e+002 3.000000e+001
			vertex 2.431075e+001 -1.378731e+002 0.000000e+000
		endloop
	endfacet
	facet normal 1.391735e-001 -9.902680e-001 0.000000e+000
		outer loop
			vertex 1.463399e+001 -1.392331e+002 0.000000e+000
			vertex 2.431075e+001 -1.378731e+002 0.000000e+000
			vertex 1.463399e+001 -1.392331e+002 3.000000e+001
		endloop
	endfacet
	facet normal 6.975680e-002 -9.975640e-001 0.000000e+000
		outer loop
			vertex 1.463399e+001 -1.392331e+002 3.000000e+001
			vertex 4.885930e+000 -1.399147e+002 3.000000e+001
			vertex 1.463399e+001 -1.392331e+002 0.000000e+000
		endloop
	endfacet
	facet normal 6.975680e-002 -9.975640e-001 0.000000e+000
		outer loop
			vertex 4.885930e+000 -1.399147e+002 0.000000e+000
			vertex 1.463399e+001 -1.392331e+002 0.000000e+000
			vertex 4.885930e+000 -1.399147e+002 3.000000e+001
		endloop
	endfacet
	facet normal -0.000000e+000 -1.000000e+000 -0.000000e+000
		outer loop
			vertex 4.885930e+000 -1.399147e+002 3.000000e+001
			vertex -4.885930e+000 -1.399147e+002 3.000000e+001
			vertex 4.885930e+000 -1.399147e+002 0.000000e+000
		endloop
	endfacet
	facet normal 0.000000e+000 -1.000000e+000 0.000000e+000
		outer loop
			vertex -4.885930e+000 -1.399147e+002 0.000000e+000
			vertex 4.885930e+000 -1.399147e+002 0.000000e+000
			vertex -4.885930e+000 -1.399147e+002 3.000000e+001
		endloop
	endfacet
	facet normal -6.975680e-002 -9.975640e-001 -0.000000e+000
		outer loop
			vertex -4.885930e+000 -1.399147e+002 3.000000e+001
			vertex -1.463399e+001 -1.392331e+002 3.000000e+001
			vertex -4.885930e+000 -1.399147e+002 0.000000e+000
		endloop
	endfacet
	facet normal -6.975680e-002 -9.975640e-001 0.000000e+000
		outer loop
			vertex -1.463399e+001 -1.392331e+002 0.000000e+000
			vertex -4.885930e+000 -1.399147e+002 0.000000e+000
			vertex -1.463399e+001 -1.392331e+002 3.000000e+001
		endloop
	endfacet
	facet normal -1.391735e-001 -9.902680e-001 -0.000000e+000
		outer loop
			vertex -1.463399e+001 -1.392331e+002 3.000000e+001
			vertex -2.431075e+001 -1.378731e+002 3.000000e+001
			vertex -1.463399e+001 -1.392331e+002 0.000000e+000
		endloop
	endfacet
	facet normal -1.391735e-001 -9.902680e-001 0.000000e+000
		outer loop
			vertex -2.431075e+001 -1.378731e+002 0.000000e+000
			vertex -1.463399e+001 -1.392331e+002 0.000000e+000
			vertex -2.431075e+001 -1.378731e+002 3.000000e+001
		endloop
	endfacet
	facet normal -2.079117e-001 -9.781476e-001 -0.000000e+000
		outer loop
			vertex -2.431075e+001 -1.378731e+002 3.000000e+001
			vertex -3.386907e+001 -1.358414e+002 3.000000e+001
			vertex -2.431075e+001 -1.378731e+002 0.000000e+000
		endloop
	endfacet
	facet normal -2.079117e-001 -9.781476e-001 0.000000e+000
		outer loop
			vertex -3.386907e+001 -1.358414e+002 0.000000e+000
			vertex -2.431075e+001 -1.378731e+002 0.000000e+000
			vertex -3.386907e+001 -1.358414e+002 3.000000e+001
		endloop
	endfacet
	facet normal -2.756374e-001 -9.612617e-001 -0.000000e+000
		outer loop
			vertex -3.386907e+001 -1.358414e+002 3.000000e+001
			vertex -4.326238e+001 -1.331479e+002 3.000000e+001
			vertex -3.386907e+001 -1.358414e+002 0.000000e+000
		endloop
	endfacet
	facet normal -2.756374e-001 -9.612617e-001 0.000000e+000
		outer loop
			vertex -4.326238e+001 -1.331479e+002 0.000000e+000
			vertex -3.386907e+001 -1.358414e+002 0.000000e+000
			vertex -4.326238e+001 -1.331479e+002 3.000000e+001
		endloop
	endfacet
	facet normal -3.420195e-001 -9.396929e-001 -0.000000e+000
		outer loop
			vertex -4.326238e+001 -1.331479e+002 3.000000e+001
			vertex -5.244492e+001 -1.298057e+002 3.000000e+001
			vertex -4.326238e+001 -1.331479e+002 0.000000e+000
		endloop
	endfacet
	facet normal -3.420195e-001 -9.396929e-001 0.000000e+000
		outer loop
			vertex -5.244492e+001 -1.298057e+002 0.000000e+000
			vertex -4.326238e+001 -1.331479e+002 0.000000e+000
			vertex -5.244492e+001 -1.298057e+002 3.000000e+001
		endloop
	endfacet
	facet normal -4.067366e-001 -9.135455e-001 -0.000000e+000
		outer loop
			vertex -5.244492e+001 -1.298057e+002 3.000000e+001
			vertex -6.137196e+001 -1.258312e+002 3.000000e+001
			vertex -5.244492e+001 -1.298057e+002 0.000000e+000
		endloop
	endfacet
	facet normal -4.067366e-001 -9.135455e-001 0.000000e+000
		outer loop
			vertex -6.137196e+001 -1.258312e+002 0.000000e+000
			vertex -5.244492e+001 -1.298057e+002 0.000000e+000
			vertex -6.137196e+001 -1.258312e+002 3.000000e+001
		endloop
	endfacet
	facet normal -4.694718e-001 -8.829475e-001 -0.000000e+000
		outer loop
			vertex -6.137196e+001 -1.258312e+002 3.000000e+001
			vertex -7.000000e+001 -1.212436e+002 3.000000e+001
			vertex -6.137196e+001 -1.258312e+002 0.000000e+000
		endloop
	endfacet
	facet normal -4.694718e-001 -8.829475e-001 0.000000e+000
		outer loop
			vertex -7.000000e+001 -1.212436e+002 0.000000e+000
			vertex -6.137196e+001 -1.258312e+002 0.000000e+000
			vertex -7.000000e+001 -1.212436e+002 3.000000e+001
		endloop
	endfacet
	facet normal -5.299192e-001 -8.480481e-001 -0.000000e+000
		outer loop
			vertex -7.000000e+001 -1.212436e+002 3.000000e+001
			vertex -7.828701e+001 -1.160653e+002 3.000000e+001
			vertex -7.000000e+001 -1.212436e+002 0.000000e+000
		endloop
	endfacet
	facet normal -5.299192e-001 -8.480481e-001 0.000000e+000
		outer loop
			vertex -7.828701e+001 -1.160653e+002 0.000000e+000
			vertex -7.000000e+001 -1.212436e+002 0.000000e+000
			vertex -7.828701e+001 -1.160653e+002 3.000000e+001
		endloop
	endfacet
	facet normal -5.877853e-001 -8.090169e-001 -0.000000e+000
		outer loop
			vertex -7.828701e+001 -1.160653e+002 3.000000e+001
			vertex -8.619261e+001 -1.103215e+002 3.000000e+001
			vertex -7.828701e+001 -1.160653e+002 0.000000e+000
		endloop
	endfacet
	facet normal -5.877853e-001 -8.090169e-001 0.000000e+000
		outer loop
			vertex -8.619261e+001 -1.103215e+002 0.000000e+000
			vertex -7.828701e+001 -1.160653e+002 0.000000e+000
			vertex -8.619261e+001 -1.103215e+002 3.000000e+001
		endloop
	endfacet
	facet normal -6.427878e-001 -7.660443e-001 -0.000000e+000
		outer loop
			vertex -8.619261e+001 -1.103215e+002 3.000000e+001
			vertex -9.367829e+001 -1.040403e+002 3.000000e+001
			vertex -8.619261e+001 -1.103215e+002 0.000000e+000
		endloop
	endfacet
	facet normal -6.427878e-001 -7.660443e-001 0.000000e+000
		outer loop
			vertex -9.367829e+001 -1.040403e+002 0.000000e+000
			vertex -8.619261e+001 -1.103215e+002 0.000000e+000
			vertex -9.367829e+001 -1.040403e+002 3.000000e+001
		endloop
	endfacet
	facet normal -6.946580e-001 -7.193401e-001 -0.000000e+000
		outer loop
			vertex -9.367829e+001 -1.040403e+002 3.000000e+001
			vertex -1.007076e+002 -9.725218e+001 3.000000e+001
			vertex -9.367829e+001 -1.040403e+002 0.000000e+000
		endloop
	endfacet
	facet normal -6.946580e-001 -7.193401e-001 0.000000e+000
		outer loop
			vertex -1.007076e+002 -9.725218e+001 0.000000e+000
			vertex -9.367829e+001 -1.040403e+002 0.000000e+000
			vertex -1.007076e+002 -9.725218e+001 3.000000e+001
		endloop
	endfacet
	facet normal -7.431452e-001 -6.691301e-001 -0.000000e+000
		outer loop
			vertex -1.007076e+002 -9.725218e+001 3.000000e+001
			vertex -1.072462e+002 -8.999027e+001 3.000000e+001
			vertex -1.007076e+002 -9.725218e+001 0.000000e+000
		endloop
	endfacet
	facet normal -7.431452e-001 -6.691301e-001 0.000000e+000
		outer loop
			vertex -1.072462e+002 -8.999027e+001 0.000000e+000
			vertex -1.007076e+002 -9.725218e+001 0.000000e+000
			vertex -1.072462e+002 -8.999027e+001 3.000000e+001
		endloop
	endfacet
	facet normal -7.880108e-001 -6.156614e-001 -0.000000e+000
		outer loop
			vertex -1.072462e+002 -8.999027e+001 3.000000e+001
			vertex -1.132624e+002 -8.228993e+001 3.000000e+001
			vertex -1.072462e+002 -8.999027e+001 0.000000e+000
		endloop
	endfacet
	facet normal -7.880108e-001 -6.156614e-001 0.000000e+000
		outer loop
			vertex -1.132624e+002 -8.228993e+001 0.000000e+000
			vertex -1.072462e+002 -8.999027e+001 0.000000e+000
			vertex -1.132624e+002 -8.228993e+001 3.000000e+001
		endloop
	endfacet
	facet normal -8.290377e-001 -5.591927e-001 -0.000000e+000
		outer loop
			vertex -1.132624e+002 -8.228993e+001 3.000000e+001
			vertex -1.187267e+002 -7.418869e+001 3.000000e+001
			vertex -1.132624e+002 -8.228993e+001 0.000000e+000
		endloop
	endfacet
	facet normal -8.290377e-001 -5.591927e-001 0.000000e+000
		outer loop
			vertex -1.187267e+002 -7.418869e+001 0.000000e+000
			vertex -1.132624e+002 -8.228993e+001 0.000000e+000
			vertex -1.187267e+002 -7.418869e+001 3.000000e+001
		endloop
	endfacet
	facet normal -8.660251e-001 -5.000005e-001 -0.000000e+000
		outer loop
			vertex -1.187267e+002 -7.418869e+001 3.000000e+001
			vertex -1.236127e+002 -6.572602e+001 3.000000e+001
			vertex -1.187267e+002 -7.418869e+001 0.000000e+000
		endloop
	endfacet
	facet normal -8.660251e-001 -5.000005e-001 0.000000e+000
		outer loop
			vertex -1.236127e+002 -6.572602e+001 0.000000e+000
			vertex -1.187267e+002 -7.418869e+001 0.000000e+000
			vertex -1.236127e+002 -6.572602e+001 3.000000e+001
		endloop
	endfacet
	facet normal -8.987939e-001 -4.383713e-001 -0.000000e+000
		outer loop
			vertex -1.236127e+002 -6.572602e+001 3.000000e+001
			vertex -1.278964e+002 -5.694313e+001 3.000000e+001
			vertex -1.236127e+002 -6.572602e+001 0.000000e+000
		endloop
	endfacet
	facet normal -8.987939e-001 -4.383713e-001 0.000000e+000
		outer loop
			vertex -1.278964e+002 -5.694313e+001 0.000000e+000
			vertex -1.236127e+002 -6.572602e+001 0.000000e+000
			vertex -1.278964e+002 -5.694313e+001 3.000000e+001
		endloop
	endfacet
	facet normal -9.271838e-001 -3.746068e-001 -0.000000e+000
		outer loop
			vertex -1.278964e+002 -5.694313e+001 3.000000e+001
			vertex -1.315570e+002 -4.788282e+001 3.000000e+001
			vertex -1.278964e+002 -5.694313e+001 0.000000e+000
		endloop
	endfacet
	facet normal -9.271838e-001 -3.746068e-001 0.000000e+000
		outer loop
			vertex -1.315570e+002 -4.788282e+001 0.000000e+000
			vertex -1.278964e+002 -5.694313e+001 0.000000e+000
			vertex -1.315570e+002 -4.788282e+001 3.000000e+001
		endloop
	endfacet
	facet normal -9.510568e-001 -3.090161e-001 -0.000000e+000
		outer loop
			vertex -1.315570e+002 -4.788282e+001 3.000000e+001
			vertex -1.345766e+002 -3.858923e+001 3.000000e+001
			vertex -1.315570e+002 -4.788282e+001 0.000000e+000
		endloop
	endfacet
	facet normal -9.510568e-001 -3.090161e-001 0.000000e+000
		outer loop
			vertex -1.345766e+002 -3.858923e+001 0.000000e+000
			vertex -1.315570e+002 -4.788282e+001 0.000000e+000
			vertex -1.345766e+002 -3.858923e+001 3.000000e+001
		endloop
	endfacet
	facet normal -9.702958e-001 -2.419216e-001 -0.000000e+000
		outer loop
			vertex -1.345766e+002 -3.858923e+001 3.000000e+001
			vertex -1.369407e+002 -2.910764e+001 3.000000e+001
			vertex -1.345766e+002 -3.858923e+001 0.000000e+000
		endloop
	endfacet
	facet normal -9.702958e-001 -2.419216e-001 0.000000e+000
		outer loop
			vertex -1.369407e+002 -2.910764e+001 0.000000e+000
			vertex -1.345766e+002 -3.858923e+001 0.000000e+000
			vertex -1.369407e+002 -2.910764e+001 3.000000e+001
		endloop
	endfacet
	facet normal -9.848077e-001 -1.736486e-001 -0.000000e+000
		outer loop
			vertex -1.369407e+002 -2.910764e+001 3.000000e+001
			vertex -1.386375e+002 -1.948423e+001 3.000000e+001
			vertex -1.369407e+002 -2.910764e+001 0.000000e+000
		endloop
	endfacet
	facet normal -9.848077e-001 -1.736486e-001 0.000000e+000
		outer loop
			vertex -1.386375e+002 -1.948423e+001 0.000000e+000
			vertex -1.369407e+002 -2.910764e+001 0.000000e+000
			vertex -1.386375e+002 -1.948423e+001 3.000000e+001
		endloop
	endfacet
	facet normal -9.945218e-001 -1.045292e-001 -0.000000e+000
		outer loop
			vertex -1.386375e+002 -1.948423e+001 3.000000e+001
			vertex -1.396590e+002 -9.765906e+000 3.000000e+001
			vertex -1.386375e+002 -1.948423e+001 0.000000e+000
		endloop
	endfacet
	facet normal -9.945218e-001 -1.045292e-001 0.000000e+000
		outer loop
			vertex -1.396590e+002 -9.765906e+000 0.000000e+000
			vertex -1.386375e+002 -1.948423e+001 0.000000e+000
			vertex -1.396590e+002 -9.765906e+000 3.000000e+001
		endloop
	endfacet
	facet normal -9.993908e-001 -3.489899e-002 -0.000000e+000
		outer loop
			vertex -1.396590e+002 -9.765906e+000 3.000000e+001
			vertex -1.400000e+002 1.714449e-014 3.000000e+001
			vertex -1.396590e+002 -9.765906e+000 0.000000e+000
		endloop
	endfacet
	facet normal -9.993908e-001 -3.489899e-002 0.000000e+000
		outer loop
			vertex -1.400000e+002 1.714449e-014 0.000000e+000
			vertex -1.396590e+002 -9.765906e+000 0.000000e+000
			vertex -1.400000e+002 1.714449e-014 3.000000e+001
		endloop
	endfacet
endsolid
